<svg xmlns="http://www.w3.org/2000/svg" xmlns:xlink="http://www.w3.org/1999/xlink" viewBox="0 0 1366 901.89"><defs><style>.cls-1{fill:none;}.cls-2{fill:#5bdaef;}.cls-3{opacity:0.4;}.cls-4{fill:#8af4ff;}.cls-15,.cls-5{fill:#fff;}.cls-6{opacity:0.1;}.cls-27,.cls-7{fill:#053a30;}.cls-8{fill:#9bf4f9;}.cls-9{clip-path:url(#clip-path);}.cls-10{fill:#63bce9;}.cls-11{fill:#059582;}.cls-12,.cls-28{fill:#2bb58b;}.cls-13{fill:#a1e1f7;}.cls-14{opacity:0.2;}.cls-15{opacity:0.3;}.cls-16{fill:#c46116;}.cls-17{fill:#f2bf9c;}.cls-18{fill:#ffc34a;}.cls-19{fill:#f99300;}.cls-20{fill:#2c8fc6;}.cls-21{fill:#39a5e2;}.cls-22{fill:#017dc0;}.cls-23{fill:#0071a3;}.cls-24{fill:#016855;}.cls-25{fill:#a2f462;}.cls-26{fill:#8ed848;}.cls-27,.cls-28{opacity:0.5;}</style><clipPath id="clip-path"><rect class="cls-1" x="90" width="1200" height="768"/></clipPath></defs><g id="Background"><rect class="cls-2" width="1366" height="768"/><g class="cls-3"><path class="cls-4" d="M146.74,305.44c6.53-31.74,29.64-58.16,57-75.45,14-8.85,31.18-18.35,32.85-34.85,1.35-13.33-8.33-24.87-13.82-37.08-10-22.36-5.2-50.6,11.74-68.32s44.92-23.83,67.71-14.8C323.13,83.21,338.59,102.35,360,109c30.8,9.61,62.39-8.93,91.24-23.37,31.66-15.83,66.41-27.56,101.77-26C593.31,61.4,630.61,80,667.51,96.28a1125.4,1125.4,0,0,0,182.9,62.54c23.54,5.84,48.92,10.82,71.54,2.08,27-10.44,43.12-37.49,63.68-57.88a156.31,156.31,0,0,1,85.5-43.16c26.74-4.14,58.74,1.47,71.92,25.1,12.32,22.1,3.11,50.26,10.22,74.54,11.73,40.12,59.81,53.89,95.6,75.48,7.31,4.41,14.46,9.53,19.19,16.64,6.7,10.06,7.73,22.85,7,34.91-3,47.55-32.09,92.64-74.23,114.87-37.18,19.61-80.85,21.45-122.87,22.87-197.6,6.67-396.09,13.31-592.46-9.73-58.59-6.87-116.83-16.37-175.45-23-29.81-3.34-59.72-6-89.7-7-16.24-.59-38.4,3.49-52.43-6.63C147.38,363.13,142,328.34,146.74,305.44Z"/></g><path class="cls-5" d="M514.55,177.31c-6.95.43-37.17.6-78,.63-68.14,0-165.82-.34-234.12-.66-47-.22-80.11-.4-80.11-.4,3.89-4.54,75.35-15.45,80.9-9.56A84.16,84.16,0,0,1,181,118.25a10.56,10.56,0,0,1,16.1-10,26.24,26.24,0,0,1,5.08,4.13c-7-8.84-6.84-21.7-6.19-33.2.27-4.84.67-10,3.72-13.77,5.74-7.09,18.25-4.48,23.34,3.09s4.36,17.69,1.69,26.41c11.85-4.88,27.12,2.45,30.74,14.73,3.2,10.87-1.9,22.36-1.76,33.68l55.5,5.19a68.86,68.86,0,0,1-6.06-32.32,8.46,8.46,0,0,1,1.42-4.37c3.59-5.13,10.52-1.92,14.08,2.32,3.22,3.84,5.89,8.78,10.71,10.19a66,66,0,0,1-7.5-51.66c1.05-3.83,2.53-7.69,5.3-10.54,4.46-4.6,11.47-5.76,17.84-5.1,16.45,1.68,30.53,13.69,38.43,28.22,6.6,12.16,9.49,25.91,10.95,39.73a19.69,19.69,0,0,1,10.85-14.27c8.19-3.76,18.3-1.71,25.44,3.78s11.56,14,13.72,22.7c2.23,9,2.17,19-1.87,27.37A294.09,294.09,0,0,1,514.55,177.31Z"/><g class="cls-6"><path class="cls-7" d="M436.55,177.94c-68.14,0-165.82-.34-234.12-.66,1.25-.77,2.51-1.42,3.51-1.91a28.15,28.15,0,0,1,17.6-2.43c-6.76-3.57-10.24-11.19-12.57-18.47-1-3.16-1.86-6.72-.37-9.68s6.42-4.08,8-1.18c-.71-5.6-3.47-10.86-3.61-16.5s4.1-12.16,9.65-11.19c4.78.84,7,6.37,7.93,11.13a90.92,90.92,0,0,1,1.66,22,4.85,4.85,0,0,1,1.08-1.81c2.84-3,8.39-.42,9.64,3.52s-.32,8.15-1.87,12a22.87,22.87,0,0,1,26.75,4.51,37,37,0,0,1,37.4,3.69c-2-3.49,1.5-8,5.46-8.66s7.83,1.3,11.37,3.18a37,37,0,0,1-4.4-15.53,13.32,13.32,0,0,1,.89-6.36c2.56-5.51,10.65-6.28,15.82-3.09,5,3.08,7.88,8.54,10.47,13.82-2.39-5-2.61-10.81-2.66-16.39,0-5.17.06-10.42,1.54-15.38s4.54-9.65,9.13-12,10-2.17,15.09-1.93c2.9.14,6,.33,8.37,2,2.11,1.45,3.37,3.83,4.45,6.14a103.8,103.8,0,0,1,9.63,37.92,8.15,8.15,0,0,1,6.89-7.43c4-.56,8,1.81,10.08,5.27a15.55,15.55,0,0,1,1.29,11.69c5.21-4.62,13.87-3.61,19.07,1A22.67,22.67,0,0,1,436.55,177.94Z"/></g><path class="cls-5" d="M1235.48,177.53c-7,.28-37.19.39-78,.41-68.18,0-165.92-.22-234.28-.43-47-.14-80.15-.26-80.15-.26,3.89-2.95,75.39-10.06,81-6.23-12.56-8.66-20.4-20.12-22.21-32-.88-5.71,8.65-9.59,16.11-6.54a27.53,27.53,0,0,1,5.09,2.69c-7-5.76-6.84-14.14-6.2-21.63.27-3.14.67-6.52,3.72-9,5.75-4.62,18.26-2.92,23.35,2s4.38,11.52,1.7,17.2c11.85-3.18,27.14,1.59,30.76,9.6,3.2,7.07-1.9,14.55-1.76,21.93l55.54,3.38A31.76,31.76,0,0,1,1024,137.7a4.35,4.35,0,0,1,1.43-2.85c3.59-3.34,10.52-1.25,14.08,1.51,3.23,2.5,5.9,5.72,10.72,6.64-9.46-9.9-12.25-22.4-7.51-33.64a14.58,14.58,0,0,1,5.31-6.87c4.46-3,11.47-3.75,17.85-3.32,16.46,1.09,30.55,8.92,38.45,18.38,6.61,7.92,9.5,16.87,11,25.87,1-3.92,5.22-7.6,10.86-9.29,8.2-2.45,18.31-1.11,25.46,2.46a27.49,27.49,0,0,1,13.72,14.78c2.24,5.9,2.18,12.35-1.86,17.83A439.32,439.32,0,0,1,1235.48,177.53Z"/><g class="cls-6"><path class="cls-7" d="M1157.43,177.94c-68.18,0-165.92-.22-234.28-.43,1.25-.5,2.51-.92,3.52-1.24a41.87,41.87,0,0,1,17.61-1.59c-6.76-2.32-10.25-7.28-12.58-12-1-2.06-1.86-4.38-.36-6.31s6.41-2.66,8-.77c-.7-3.64-3.46-7.07-3.61-10.74s4.1-7.93,9.66-7.29c4.79.55,7,4.15,7.94,7.25A39.17,39.17,0,0,1,955,159.1a3.24,3.24,0,0,1,1.08-1.18c2.84-1.95,8.39-.27,9.64,2.29s-.32,5.31-1.87,7.8c8.59-3,20.16-1.71,26.77,2.94,11.88-3.72,26.88-2.76,37.42,2.4-2-2.27,1.5-5.23,5.46-5.64s7.84.85,11.39,2.07a18.23,18.23,0,0,1-4.4-10.12,6,6,0,0,1,.88-4.14c2.56-3.58,10.66-4.09,15.84-2,5,2,7.88,5.56,10.47,9-2.39-3.27-2.61-7-2.66-10.67,0-3.37.06-6.79,1.54-10a15.17,15.17,0,0,1,9.14-7.83c4.56-1.53,10-1.41,15.1-1.25,2.9.09,6,.21,8.37,1.29a11,11,0,0,1,4.46,4,49.92,49.92,0,0,1,9.63,24.69c.08-2.34,3.25-4.5,6.89-4.84,4-.36,8,1.18,10.1,3.44a7.09,7.09,0,0,1,1.29,7.61c5.2-3,13.87-2.35,19.08.66A14.34,14.34,0,0,1,1157.43,177.94Z"/></g><path class="cls-8" d="M1366,392.9V692.44H0V404.84a514.77,514.77,0,0,1,37.54-58.39c20.84-27.76,47.28-55.3,71-56.9,23.5-1.57,43.35,21.57,61.79,46.2C190,362,208.06,390,227.26,391.4c22.94,1.72,41.51-18.33,58.69-33.94,10.67-9.69,20.8-17.66,31.11-17.63,8.14,0,13,5.19,18.46,12.25,12.59,16.28,28.33,42.62,94.61,39.38,95-4.65,558.78,0,558.78,0s44.13-17.36,57.83-39.3a29,29,0,0,0,2.53-5c8.76-22.66,38-27.25,53-9.27a32.24,32.24,0,0,1,3,4.12c9.81,16.07,43.1-35.25,84.13-66.48,16.84-12.8,35-22.22,53.33-22.22,28.8,0,43.92,18,54.68,41.13C1316.58,335.61,1321.89,392.9,1366,392.9Z"/><path class="cls-5" d="M422.52,352.08h0c-9.28.74-.13,14.53-7.76,19.56a3.77,3.77,0,0,1-5.14-1c-5.43-7.64-6.8-28.23-15.83-13.79a3.27,3.27,0,0,1-.35.48c-1.63,1.84-3,1.48-3.72.18a3.85,3.85,0,0,0-6.14-.6c-1.95,2.12-3.5,5-5.66,6.72a3,3,0,0,1-.64.39c-6.66,3.22-6.36-.68-4.66-5.6a3.9,3.9,0,0,1,1-1.58c10.41-9.4,20.32-17,30.4-17C412.2,339.86,417.06,345,422.52,352.08Z"/><path class="cls-5" d="M1184.48,338.41c-.33,1,.45,2.09,0,3-.52,1.16-2.29.92-3.35.21-1.79-1.19-3.31-3.2-5.45-3.17a1.29,1.29,0,0,0-1.06.42,1.52,1.52,0,0,0-.23.79,16.18,16.18,0,0,0,1.19,6,12.23,12.23,0,0,1,.79,6.07c-.41,2-2.13,3.93-4.19,3.84-1.75-.07-3.15-1.48-4.18-2.9a29.83,29.83,0,0,1-4.92-11.67,9.27,9.27,0,0,0-1-3.1,2.75,2.75,0,0,0-2.7-1.42c-1.14.23-1.83,1.36-2.34,2.4-.64,1.29-1.21,2.6-1.72,3.93s-1.13,3.06-2.41,4-3.51.64-3.92-.88c-.26-.92.19-2.1-.51-2.75a1.49,1.49,0,0,0-1.69-.09,4.49,4.49,0,0,0-1.25,1.28l-3,4.05a14.73,14.73,0,0,1-3.35,3.6,4.93,4.93,0,0,1-4.68.67,3.27,3.27,0,0,1-.86-.56,29,29,0,0,0,2.53-5c8.76-22.66,38-27.25,53-9.27A9.14,9.14,0,0,1,1184.48,338.41Z"/><path class="cls-5" d="M169.32,335.75a25.2,25.2,0,0,1-1.79,3.31,5.52,5.52,0,0,1-1.6,1.76,6,6,0,0,1-3.13.61c-5.45.07-11.05.12-16.18-1.72-6.46-2.33-11.5-7.39-16.16-12.44a13,13,0,0,0-4.66-3.72c-1.88-.7-4.36-.25-5.3,1.52-1.11,2.1.4,4.72-.2,7-.79,3.05-5,4-7.83,2.5s-4.41-4.42-5.88-7.21l-3.84-7.31c-.68-1.3-1.6-2.76-3-2.9-1.6-.15-2.81,1.39-3.6,2.79-3,5.41-4.65,11.53-7.95,16.77s-9.06,9.69-15.18,8.79c-2.21-.33-4.5-1.57-5.16-3.7s.39-4.47-.62-6.38c-5.72,1.64-9.35,7.06-12.76,11.93s-7.78,10-13.71,10.42c-2.41.18-5.25-.84-5.89-3.18a6.82,6.82,0,0,1,.33-3.62c.42-1.53.88-3,1.38-4.54,20.84-27.76,47.28-55.3,71-56.9C131,288,150.88,311.12,169.32,335.75Z"/><path class="cls-5" d="M1296.4,294.44c-2.18,1.47-5.26,1.74-7.07-.11-2-2-2.61-6.29-5.44-6-2.48.29-2.65,3.79-2.47,6.28a25.53,25.53,0,0,1-.6,7.45,4.31,4.31,0,0,1-.92,2c-1.11,1.15-3.14.84-4.32-.24a9.17,9.17,0,0,1-2.23-4.18c-1-3.12-2.06-6.24-3.1-9.36a4.2,4.2,0,0,0-1.26-2.2c-1.81-1.36-4.24.77-5.18,2.84-2.22,4.93-2.15,10.53-2.52,15.92s-1.41,11.14-5.22,15a7.84,7.84,0,0,1-4.4,2.43c-4.36.59-7.69-3.9-9.09-8.08-4.32-12.93-.53-27.14-2.35-40.64-.3-2.3-1.62-5.2-3.9-4.8a4.21,4.21,0,0,0-2.37,1.8,27.66,27.66,0,0,0-4.44,8.29c-1,3-1.55,6.22-3.64,8.52s-6.54,2.78-8,0c-.85-1.67-.27-3.8-1.1-5.48-1.09-2.18-4.12-2.64-6.41-1.83s-4.12,2.54-6.17,3.83a18.74,18.74,0,0,1-16.39,1.65,3.28,3.28,0,0,1-1.64-1.07,3.32,3.32,0,0,1-.41-2,23,23,0,0,1,2.59-9c16.84-12.8,35-22.22,53.33-22.22C1270.52,253.31,1285.64,271.34,1296.4,294.44Z"/></g><g id="Midground"><g class="cls-9"><path class="cls-10" d="M269.67,472.33A422.06,422.06,0,0,1,699.17,56.88c233.33,3.88,419.34,196.17,415.46,429.5-2.38,143-75.57,268.29-185.61,342.92a423.33,423.33,0,0,1-376.14,49.1C385.43,820,266.56,659.34,269.67,472.33Z"/><path class="cls-11" d="M626.46,800.79c5.09-7.52,12.36-13.26,18.54-19.93,13.59-14.67,21.67-33.5,32.87-50.06a16,16,0,0,1,4.35-4.76c2.5-1.59,5.65-1.72,8.62-1.59a62.83,62.83,0,0,1,36.37,13.75c14,11.26,22.62,28.12,36.86,39,12.32,9.42,27.75,13.56,41.89,19.91,20.39,9.14,51.87,27.83,55.55,52.22a51.89,51.89,0,0,1-.07,17.28Q856,869,850.5,871.21a420.82,420.82,0,0,1-165.38,30.62q-11.57-.18-23-1-12.79-.89-25.34-2.54a91.23,91.23,0,0,0-8-42.34c-2.54-5.56-5.65-10.87-7.58-16.67A44.65,44.65,0,0,1,626.46,800.79Z"/><path class="cls-11" d="M612.54,64.3a424,424,0,0,1,86.63-7.42q15.68.25,31,1.64h0c196.39,17.56,353.21,169.07,380.31,361.33a425.13,425.13,0,0,1,4.1,66.53q-.17,9.62-.74,19.1A423.08,423.08,0,0,1,929,829.3c-.75-21.87-1.35-43.74-2-65.6-.09-3-.25-6.13-2-8.52s-4.9-3.54-7.88-4.17c-18.37-3.92-40,4-54.87-7.51-6.22-4.82-9.86-12.26-15.69-17.53-21.78-19.71-63.63-2.43-81.81-25.49-10.92-13.86-5.39-35.4,7.16-47.81s30.07-18,46.79-23.69c4.88-1.65,10.17-3.68,12.66-8.18,3.59-6.48-.33-14.65,1.17-21.9s7.87-12.1,11.71-18.32c13.31-21.59-6.26-52.37,6.57-74.25,8-13.73,25.84-18.18,41.75-18.23S924.7,491,940,486.82c7.17-2,13.83-5.43,20.38-8.94,20.24-10.84,42-24.82,47.06-47.22,3-13.63-.86-27.73-4.75-41.14-5-17.35-10.54-35.52-23.51-48.07-12.32-11.91-29.54-17-46-21.61l-94.44-26.62c-16.73-4.71-33.75-9.56-48.27-19.1s-26.41-24.71-27.6-42.05c-1.58-23,15.46-44.7,12.11-67.52-3.48-23.67-27.68-38.85-51-44.17s-48-4.21-70.69-11.83C633.16,101.8,614.06,84.6,612.54,64.3Z"/><path class="cls-11" d="M269.67,472.33a421.18,421.18,0,0,1,105.25-272.1c3.31,12.54,5,25.84,7.32,38.6,4.41,23.87,14.19,50,36.5,59.55,11.77,5.05,25.34,4.61,37.07,9.73,17.58,7.69,28,27,29.83,46.08s-3.45,38.14-9.8,56.25c-10,28.5-24.41,58-51,72.25-10,5.36-21.39,8.39-29.89,15.88s-12.51,22.06-4.3,29.85a217.63,217.63,0,0,1,66.91,15.34c4.26,1.72,8.78,3.85,11,7.91s1.42,9.16.56,13.77l-11.31,61.14c-1,5.6-2,11.76.87,16.69,5,8.71,17.49,7.85,27.56,7.87,35.47.08,69.1,30.47,70,65.93.78,32.25-22.26,60.81-24.82,93-2,24.73,8,47.94,21.55,68.36a419.32,419.32,0,0,1-50.35-21.34C362.13,786.46,266.88,640,269.67,472.33Z"/><path class="cls-12" d="M646.28,819.91c3.28-4.34,8.72-6.36,13.88-8.13a13.85,13.85,0,0,0,5-2.52c5.63-5.17.19-16.28,5.83-21.43,2.94-2.68,7.56-2.29,11.29-.91s7.21,3.57,11.15,4.08,8.67-1.55,9.25-5.49c.4-2.79-1.36-5.36-2.82-7.78-3.16-5.26-4.63-13.17.41-16.67a11.29,11.29,0,0,1,6.56-1.6,25.5,25.5,0,0,1,19.75,10c4.14,5.52,6.21,12.93,12.08,16.52,2.47,1.51,5.37,2.16,7.91,3.53s4.89,3.85,4.67,6.73a28.45,28.45,0,0,0-.5,3.4c.1,1.8,1.5,3.24,2.89,4.38,10.87,8.88,26,10,39,15.12a6.85,6.85,0,0,1,3.12,2c2.1,2.85-.81,6.63-3.42,9s-5.21,6.55-2.72,9.07a6.08,6.08,0,0,0,3.87,1.41c7,.65,13.92-1.4,20.83-2.7s14.46-1.76,20.57,1.71c6.65,3.79,10.08,11.32,12.89,18.44a35.06,35.06,0,0,1,2.65,9.07,21.36,21.36,0,0,1,.06,4,420.82,420.82,0,0,1-165.38,30.62q-11.57-.18-23-1c.55-2.33,1.37-4.65,2-6.94,1.3-4.71,1.47-10.57-2.35-13.64a15.3,15.3,0,0,1-3-2.39c-2-2.64.29-6.47,3.1-8.19,3.83-2.34,8.49-2.76,12.84-3.87s8.93-3.37,10.48-7.6c1.83-5-1.53-10.6-6-13.48s-9.86-3.88-14.88-5.62a51.22,51.22,0,0,1-16.53-9.43c-1.38-1.16-2.77-2.52-3.15-4.29A6.94,6.94,0,0,1,646.28,819.91Z"/><path class="cls-12" d="M827.31,660.71c6.94-2.91,14.72-3.08,21.83-5.5s14.08-8.51,13.47-16c-.18-2.21-1-4.51-.17-6.57s2.77-3,4.26-4.5a10.66,10.66,0,0,0,2.38-11.32,43.69,43.69,0,0,1,34.75,12c2.49-15.63-12.86-27.73-19.51-42.1-6.92-14.92-4.2-32.32-1.33-48.51.43-2.45.92-5,2.53-6.91a12.35,12.35,0,0,1,4.41-3,54.35,54.35,0,0,1,34.68-3.71c9.39,2.13,18.95,6.8,28.21,4.13,12.81-3.7,18.25-19.38,29.94-25.8,5.78-3.17,12.57-3.78,18.85-5.78s12.7-6.26,13.79-12.76c.41-2.42,0-5,.87-7.29,2.65-7.35,14.25-6.45,19-12.69,3.71-4.92,1.57-11.83,1.44-18s5.27-13.82,10.66-10.83a8.53,8.53,0,0,1,3.1,3.39c5.9,10.19,2.9,23.45-3.36,33.43s-15.32,17.85-22.64,27.07c2.15,3.23,7.13,3.11,10.51,1.21s5.89-5.05,9.09-7.25c6.39-4.4,15-4.67,21.16-9.44,4.08-3.17,6.55-8,10.15-11.67s9.51-6.27,13.88-3.5c6.41,5.17,4.77,15.22,2.12,23s-5.47,17.18-.3,23.58a34.49,34.49,0,0,0,15.7-10.81c3.7-3.36,6-2.35,7.16.88A421.5,421.5,0,0,1,972.44,795.55c1.25-9.88,5.91-20.79-4-27.53-4.25-2.89-10.24-3-13.69-6.76-4-4.37-2.58-11.21-.94-16.89l5.64-19.55c1-3.43,2-7.07,1.08-10.52s-4.5-6.48-7.91-5.42a71.87,71.87,0,0,1-14.6,29.2c-3.09,3.93-9.61,2-13.16-1.57s-6.06-8.35-10.61-10.43c-7.86-3.59-18.07,2.65-25.36-2-5.7-3.61-6.32-11.91-11.17-16.6-2.65-2.57-6.54-4-8.13-7.38-2.92-6.12,3.8-12.12,9.05-16.41a8.12,8.12,0,0,0,3-3.86c1.17-4.3-4.9-7.42-9.11-6s-7.07,5.3-10.7,7.91c-5.92,4.25-13.57,5-20.83,5.65-9.56.84-22-.18-24.72-9.39C814.2,670.86,820.39,663.61,827.31,660.71Z"/><path class="cls-12" d="M679.5,68.8a46.12,46.12,0,0,1,5.3-1.73A47.62,47.62,0,0,1,690.17,66c2.29-.29,4.62-.65,7-1.05s4.76-.82,7.17-1.21c8.81-1.63,17.4-3.25,25.9-5.23h0c196.39,17.56,353.21,169.07,380.31,361.33-.4.39-.8.8-1.19,1.21-6.06,6.53-4,16.28-9.52,22.22-5.21,5.59-15.22.6-18.17-6.46s-1.92-15.13-3.74-22.56-9-14.91-16.15-12.26a7,7,0,0,1-7.08,5.73,6.87,6.87,0,0,1-6-3.72,16.76,16.76,0,0,1-1.53-4.11c-1.36-6.16-.32-12.71-2.07-18.76s-8.35-11.63-14-8.86a19.4,19.4,0,0,0-2.26,5.47,4,4,0,0,1-6.8,1.74c-5.59-5.93-7.72-15.46-8.1-24-.49-11.21.41-23.36-5.9-32.63-8.08-11.88-25.14-14.65-33.89-26.05-3-3.94-5.12-8.95-9.52-11.24-5.38-2.79-11.81-.41-17.76.76-6.68,1.32-15.81-.53-15.46-8.47a10.71,10.71,0,0,1,1.81-5.39l7.71-11.81a4.76,4.76,0,0,0-3.55-7.34h0a5.23,5.23,0,0,0-5.08,2.68c-2.11,3.88-3.33,8.29-5.59,12.13-2.85,4.86-8.82,8.95-13.92,6.53-4.3-2-5.6-7.42-8.62-11.08-6.67-8.12-21.69-7.78-25.13-17.71-2.56-7.35,3.65-15,10.48-18.68,7.29-4,15.92-5.77,21.66-11.92a4.83,4.83,0,0,0,1.34-2.76c.4-3.8-4-5.07-7.34-5.08a45,45,0,0,0-39,23.33c-5.92,11.12-10.16,27.22-24,25.71a18.36,18.36,0,0,1-7.67-2.75c-9.47-5.95-19.69-11.66-26.71-20.49-6.12-7.69-9.46-18.35-6-27.54,2.46-6.49,7.9-11.42,10.85-17.7A25.92,25.92,0,0,0,810,162c-2.6-3.48-6.08-6.27-8.38-9.94s-3.15-8.85-.31-12.14c3-3.47,8.31-3.17,12.88-3.47s10.16-2.82,9.89-7.4a65.15,65.15,0,0,0-35.82-9.26c-5.69.21-11.68,1.12-16.85-1.27-4.54-2.1-7.6-6.37-11.18-9.87a37.87,37.87,0,0,0-5-4.08,40.69,40.69,0,0,0-30.71-6.45c-4.67.93-9.24,2.73-14,2.6s-10-3-10.68-7.67c-.47-3.1,1.07-6.46-.23-9.32-2.59-5.7-12.36-2.74-16.28.39a8.61,8.61,0,0,1-9.18,1.2C665.49,81,672.52,71.55,679.5,68.8Z"/><path class="cls-12" d="M269.67,472.33a420.64,420.64,0,0,1,47.81-188.51c.37-.06.74-.11,1.12-.15a83.31,83.31,0,0,1,47.24,8.49c7.46,3.8,15.79,8.89,23.58,5.82q-2.07,12.19-4.12,24.4c-.86,5.11-.07,12.45,5.11,12.69,2.75.12,5-2.13,6.78-4.2L412.79,313a11.2,11.2,0,0,1,4.83,13,23.94,23.94,0,0,1,22,5.93,355.08,355.08,0,0,1-34.72,31.29c1.46,7.6,12.16,8.64,19.47,6.06s15.23-6.91,22.27-3.68c5.62,2.6,8.26,9.42,7.84,15.59s-3.29,11.88-6.1,17.38q-3.72,7.29-7.43,14.57c-2.39,4.7-4.9,9.54-9,12.82s-10.34,4.54-14.65,1.53c-5.7-4-5.84-13.33-11.91-16.69-7.61-4.21-16.3,5.4-16.46,14.09s4.15,17,4.07,25.69c-.15,15.29-13.18,26.79-23.83,37.76s-20.23,27.47-12.59,40.72c4.67,8.1,14.72,12.39,18.18,21.08,1.53,3.85,1.58,8.2,3.36,11.95,3.8,8,13.92,10.52,22.74,10.53s18.06-1.48,26.17,2,13.53,14.89,7.42,21.25c-4.88,5.09-15.63,6.26-14.95,13.28.46,4.82,6.4,6.65,10,9.91,10,9.13-.1,26.93,6,39,3.51,6.93,11.4,10.17,18.17,14s13.64,10.33,12.39,18c-.91,5.62-5.86,9.53-9.52,13.89s-6,11.43-1.9,15.38c8.26,3.46,13.76-8.25,19-15.48a26.31,26.31,0,0,1,30.52-8.47c10.5,4.42,17.15,16.51,15.28,27.74-2,11.85-12.14,21.64-12.1,33.66,0,6.39,2.79,13.6-1.09,18.67-4.42,5.79-13.3,3.81-20.51,2.82s-17.26,2.82-15.59,9.9c2.05,8.72,15.53,4.2,24,7.11,10.92,3.78,10.84,17.37,10.08,26.68-.84,10.26,1.18,21.05-.75,31.13-.27,1.37-.58,2.66-.93,3.88C362.13,786.46,266.88,640,269.67,472.33Z"/><path class="cls-13" d="M978.35,418.81c-5.72,17.06-22.79,28.66-40.56,31.44s-36-2.12-52.22-9.89c-7.41-3.55-15-7.82-23.23-7.31s-16.48,8.52-13.69,16.24c.81,2.24,2.4,4.12,3.16,6.37,2.29,6.81-3.9,13.65-10.43,16.66s-14.1,4.21-19.48,9c-21.15,18.75,15.15,61.34-6.43,79.59-6.52,5.52-15.86,5.8-23.78,9s-14.88,13.15-9.57,19.83c2.89,3.63,8.28,4.53,11.12,8.2,3.8,4.88,1.09,12.49-3.85,16.22s-11.33,4.75-17.36,6.15a113.31,113.31,0,0,0-41.94,19.48c-4.17,3.11-8.28,6.72-10.16,11.58-2.54,6.58-.47,14,2.24,20.53a112,112,0,0,0,60.51,60c15.68,6.37,32.6,9.06,48.59,14.61,13.15,4.56,26.17,11.63,34.68,22.37a6.52,6.52,0,0,1-4,10.48c-11,1.74-23.1-2.56-33.82-6.91l-34.84-14.15c-26.84-10.9-55.4-23.2-70.85-47.7-5.67-9-9.44-19.46-17.32-26.59s-22.24-8.83-28,.1c-1.9,2.95-2.54,6.55-4.31,9.58-6.83,11.71-24.63,8.62-36.68,14.83-15,7.73-17.75,27.39-22.22,43.66s-19,34.41-34.68,28.27c-12.86-5-14.89-23.38-8.67-35.71s17.75-21,26.42-31.73,14.37-26.46,7-38.12c-6-9.4-17.93-12.45-27.93-17.35s-19.75-15.79-15.28-26c3-6.77,11.34-10.36,13.27-17.5,3.24-12-14.72-19.43-26.11-14.45s-19.3,16-30.71,20.93-29.33-2.67-25.95-14.63c1.58-5.6,7.11-8.94,11-13.28a26.41,26.41,0,0,0,4.85-26.46c-3.22-8.4-10.69-14.83-13-23.53-3.64-13.88,6.84-27,15.41-38.5s15.66-28.27,6.4-39.23c-3.8-4.5-10.25-7.89-10.28-13.79,0-4.09,3.22-7.35,6-10.33a83.22,83.22,0,0,0,18.84-32.45c3.07-10,4.09-21.29-.76-30.55s-17.1-15.06-26.3-10.1l17.78-82.86a8.7,8.7,0,0,0-.11-4.33c-1.44-4.87-5.93-4.76-9.73-4.42l-29,2.6c5.37-9-6.12-18.57-15.72-22.87l-30-13.45c-6-2.68-12.35-5.68-15.72-11.31-4.81-8-1.46-19.17,5.9-24.9s17.58-6.69,26.68-4.62c8.26,1.87,19.53,4.7,23.07-3,2.39-5.22-1.39-11-3.61-16.26-5.86-14,.8-32,14.37-38.83,5.35-2.69,11.35-3.73,17.07-5.49,25.43-7.84,47.68-30.37,74-26.58,28.84,4.14,46.73,38.46,75.75,41,10.59.93,21-2.66,31.64-3.37s23,2.75,27.07,12.56c4.2,10.07-2.19,21.08-7.19,30.78s-8,23.33.55,30.13c9.88,7.87,23.91-1.36,33-10.17,11.1,20.44-19.08,48.14-5,66.67,4.33,5.7,11.62,8.15,18.52,10.05,11.91,3.3,24.22,6,34.86,12.31s19.54,17.16,19.69,29.52c.1,7.22-2.75,14.23-2.73,21.44s4.74,15.52,12,15.24c5.4-.21,9.31-5,12.76-9.14,8.24-9.95,18.34-18.82,30.55-23s26.78-3.06,36.67,5.26c11.41,9.59,18.3,28.51,33.16,27.4,6-.45,11.18-4.42,17.12-5,6.91-.72,21.22,16.19,25.48,21.5A37.37,37.37,0,0,1,978.35,418.81Z"/><path class="cls-5" d="M390.51,344.17c-.45-9-8.37-15.55-14.48-22.22s-10.72-17.52-4.66-24.22c4-4.44,11.14-4.91,15.16-9.34s3.66-10.86,5.18-16.5,7.61-11.36,12.55-8.25c2.16-9.49-6-18.44-6.18-28.17-.16-10.47,9.43-19.07,19.65-21.33s20.84.3,30.93,3.12c9.72,2.71,20.23,5.65,29.67,2.05,6.68-2.55,11.61-10.05,11.34-16.71a11.26,11.26,0,0,1,7.93-11.38,114.14,114.14,0,0,1,47.8-3.81c4.77-7.15,2.41-16.94,5.56-24.94,1.89-4.8,5.69-8.66,9.95-11.58,26.18-18,61.91-1.92,93.38-6.27,9.64-1.33,20.83-4.24,28.09,2.24a22,22,0,0,1,5.76,7.34c7.29,16.62-29.13,26.12-41.27,23.72-19.15-3.8-54.75-4.08-54.36,25.23.06,3.77,1.09,7.68-.22,11.21-4.82,13-29.58,2.48-36.42,14.51-2.74,4.82-.79,11.08,2.65,15.41s8.19,7.43,12.05,11.41c8.85,9.1,12.1,24.72,4.07,34.55s-27.77,6.82-29.59-5.74c-10.47-7-21.35,11.08-33.93,11.6-9.78.4-16.36-9.72-25.11-14.13-13.75-6.94-32.91,4.52-33.29,19.92-.19,7.24,3,14.08,4.51,21.17s.63,15.72-5.43,19.7c-4.46,2.94-10.28,2.4-15.5,3.55-12.16,2.69-20.24,14.53-23.85,26.44s-4,24.62-7.6,36.54a36.76,36.76,0,0,1-2,5.3,17.88,17.88,0,0,1-5.26,6.87c-7.55,5.69-19.38,1.54-24.33-6.52s-4.47-18.36-2.06-27.51a75.05,75.05,0,0,1,9.61-21.74C385.21,359,390.91,352.18,390.51,344.17Z"/><path class="cls-5" d="M478.65,725.67a13.22,13.22,0,0,1,5.64-5.56c8.79-4.52,19,3.2,23.18,12.26s5,19.65,9.84,28.32c9.23,16.56,29.65,21.36,47.85,24.63l15-21.11c2.41-3.39,4.9-6.85,8.26-9.19,6.54-4.56,15.56-3.94,22.15.27s10.95,11.48,13.31,19.17c1.1,3.6,2.34,7.92,5.83,8.95,3.68,1.08,7.31-2.47,8.72-6.23s1.54-7.94,3.25-11.56c4.37-9.27,16.92-10.71,26.06-7.13s16.7,10.6,25.85,14.15a31.29,31.29,0,0,1-2.43-29.25c5.78-13.22,20.91-20.73,34.56-18.7S751,737.21,756.52,750.3c3.09,7.31,5.54,16.51,12.92,18.73,6,1.81,12.11-2.08,18.08-4.17a32.68,32.68,0,0,1,33.59,7.85c-1.93-9.62-3.46-20.92,2.91-28.37,7.12-8.32,19.55-6.84,30.1-6.06s24.08-2.15,26.45-13c1.59-7.18-2.79-15.26.75-21.68,3.37-6.11,11.54-6.53,18.2-5.91q11.16,1.07,22.18,3.14c1,.18,2,.39,3,.61,5.14,1.15,10.23,2.93,13.66,6.94A25.05,25.05,0,0,1,944,724.3c.13,21.62-18.48,17.3-20.24,16.82-7.64-2.07-14.5-.2-21.94,2.85a72.6,72.6,0,0,0-38.33,36.89c-1.83,4.08-3.34,8.42-6.19,11.82-6.81,8.13-18.75,8.34-28.78,6.37s-20.4-5.44-30.27-2.37c-12.75,4-20.33,17.26-30,26.84-6.8,6.75-14.93,11.82-23,16.83-11,6.87-23.3,14-35.84,11.91-6.91-1.15-13-5-19.23-8.28-18.86-9.92-39.81-14.79-60.52-19.57-5.06-1.16-10.26-2.33-15.42-1.55-4.4.67-8.49,2.7-12.58,4.55-10.62,4.79-22,8.46-33.45,7.81s-23-6.29-28.7-16.57c-5.15-9.33-5.22-21.68-12.45-29.34-8.39-8.88-22.28-7.53-34-10.48-3.57-.9-7.21-2.39-9.42-5.41-1.71-2.32-2.37-5.29-3-8.16q-1.53-7.1-3.07-14.18C475.83,742.8,474.9,732.5,478.65,725.67Z"/><path class="cls-5" d="M803.79,164.12c23.78-14.45,54.22,29.56,74.4,41.23,17.83,10.31,17-16,51,6.74,16.41,11,7.3,41,22.13,54,3.89,3.41,8.67,5.64,12.66,8.92a30.21,30.21,0,0,1-20.53,53.5,10.55,10.55,0,0,1-4.81-1.14,4.65,4.65,0,0,1-.73-.49,10.51,10.51,0,0,1-3.39-6.07c-2.63-11.64,4.19-26-4-34.62-11.14-11.65-33.67,3.81-46.12-6.43-10-8.2-6.27-27.82-18.12-33-7.58-3.29-17.84,1.75-24-3.8-4.43-4-3.66-11.19-1.73-16.86,1.5-4.42,3.5-9,3.55-13.54a3.55,3.55,0,0,0-3.8-3.58,91.73,91.73,0,0,1-31.24-3.1,30.46,30.46,0,0,1-10.58-4.73,16.52,16.52,0,0,1-5.32-7C789.06,184.15,793.88,170.13,803.79,164.12Z"/><g class="cls-6"><path class="cls-7" d="M794,196.05a3.46,3.46,0,0,1,.17-3.59,19.84,19.84,0,0,1,2.18-2.72c5.07-5.3,12.59-7.27,19.7-9,2.5-.62,5.69-1,7.13,1.14,1.74,2.61-1,6-.91,9.1.06,3,2.81,5.4,5.75,5.85s5.92-.69,8.41-2.3c1.92-1.23,3.67-2.76,5.75-3.68s4.72-1.07,6.51.36c3.4,2.72,1.62,9.09,5.14,11.68a13.69,13.69,0,0,0,3.62,1.47,11.88,11.88,0,0,1,7.27,13.26c-.76,3.47-3.12,7-1.72,10.26,1.85,4.35,8,3.8,12.7,3,2.39-.37,4.93-.59,7.14.4s3.86,3.58,3,5.85c-.5,1.35-1.75,2.34-2.16,3.71-.51,1.68.36,3.46,1.27,5a65.15,65.15,0,0,0,3.8,5.67c1.8,2.39,3.94,4.78,6.83,5.54s6.58-.91,6.86-3.89c.15-1.58-.66-3.13-.54-4.71.18-2.44,2.61-4.27,5-4.47a11.23,11.23,0,0,1,6.86,2.18,26.82,26.82,0,0,1,4.79,4,3.46,3.46,0,0,1,0,4.77,6.58,6.58,0,0,0-1.71,3.44,15.81,15.81,0,0,0,.92,6.92,7.57,7.57,0,0,0,1.88,3.69,6.52,6.52,0,0,0,4.15,1.32c5.05.19,10.08-1.62,15.1-1s10.21,5.44,8.31,10.13c-1.11,2.74-4.31,4.49-4.63,7.43-.37,3.34,3.06,5.63,5.49,8,5.59,5.34,6.81,14.48,3.39,21.42a19.86,19.86,0,0,1-11.35,10,3.48,3.48,0,0,1-4.15-1.46,13.09,13.09,0,0,1-1.52-3.92c-2.63-11.64,4.19-26-4-34.62-11.14-11.65-33.67,3.81-46.12-6.43-10-8.2-6.27-27.82-18.12-33-7.58-3.29-17.84,1.75-24-3.8-4.43-4-3.66-11.19-1.73-16.86,1.5-4.42,3.5-9,3.55-13.54a3.55,3.55,0,0,0-3.8-3.58,91.73,91.73,0,0,1-31.24-3.1,30.46,30.46,0,0,1-10.58-4.73A16.39,16.39,0,0,1,794,196.05Z"/></g><g class="cls-14"><path class="cls-7" d="M478.65,725.67a13.22,13.22,0,0,1,5.64-5.56c8.79-4.52,19,3.2,23.18,12.26s5,19.65,9.84,28.32c9.23,16.56,29.65,21.36,47.85,24.63l15-21.11c2.41-3.39,4.9-6.85,8.26-9.19,6.54-4.56,15.56-3.94,22.15.27s10.95,11.48,13.31,19.17c1.1,3.6,2.34,7.92,5.83,8.95,3.68,1.08,7.31-2.47,8.72-6.23s1.54-7.94,3.25-11.56c4.37-9.27,16.92-10.71,26.06-7.13s16.7,10.6,25.85,14.15a31.29,31.29,0,0,1-2.43-29.25c5.78-13.22,20.91-20.73,34.56-18.7S751,737.21,756.52,750.3c3.09,7.31,5.54,16.51,12.92,18.73,6,1.81,12.11-2.08,18.08-4.17a32.68,32.68,0,0,1,33.59,7.85c-1.93-9.62-3.46-20.92,2.91-28.37,7.12-8.32,19.55-6.84,30.1-6.06s24.08-2.15,26.45-13c1.59-7.18-2.79-15.26.75-21.68,3.37-6.11,11.54-6.53,18.2-5.91q11.16,1.07,22.18,3.14c1,.18,2,.39,3,.61a13.38,13.38,0,0,1-.45,8.86c-4.26,9.41-18,7.61-27.75,4.27-.15,9.75-1.49,21.48-10.26,25.73-3.27,1.59-7.09,1.79-10.32,3.47-6.26,3.24-9.73,11.64-16.75,12.26-4.76.43-9.4-3.12-14-2-6,1.46-7.54,9.22-7.51,15.4s-.38,13.76-5.91,16.52-11.59-1.32-17.12-3.83-14.41-1.67-14.82,4.39a22.25,22.25,0,0,0-26.22.74c-1.73,1.4-3.3,3.1-5.37,3.92-6.14,2.42-11.9-3.75-16.43-8.52s-13.51-8.23-16.73-2.48c-1.09,2-1,4.4-2,6.42-1.81,3.76-6.62,4.85-10.79,5s-8.7-.22-12.12,2.17-3.89,8.86.11,10c-6.35,1.78-12.85-2.42-17.39-7.21s-8.44-10.56-14.41-13.4-14.92-.78-16.19,5.71c3.39,1.3,6.76,3.28,8.42,6.51s.88,7.89-2.39,9.46c-3.59,1.72-7.81-1-10.14-4.22s-3.83-7.17-7-9.59-8.91-2-9.91,1.82c-.83,3.24,2.21,6.17,2.77,9.48,1.1,6.57-8.34,10.48-14.33,7.56s-9.28-9.34-13.27-14.67S605.94,785,599.6,787c-5.74,1.88-8.24,8.36-11.27,13.58s-9.5,10.18-14.59,6.93c-4.64-3-5-11.22-10.39-12.2-5-.92-8.13,5.55-12.88,7.44-5.44,2.17-11.36-2.3-14.33-7.35s-4.52-11-8.65-15.19c-7.43-7.48-20.86-6.71-27.42-15-6.16-7.74-3.17-19.44-7.4-28.37C490,731.28,484.68,727.5,478.65,725.67Z"/></g><g class="cls-6"><path class="cls-7" d="M392.25,389.52c1-1.72,2.37-3.32,2.83-5.27.59-2.56-.47-5.17-1-7.75-2.29-11.12,5.4-21.87,14.07-29.21,4.11-3.47,9.06-8.09,7.41-13.21-1.1-3.44-4.78-5.24-7.29-7.85-6.75-7-2.43-20.92,7.1-22.85,6.11-1.25,14.55.69,17-5.05,1-2.47.23-5.27-.27-7.9a33.06,33.06,0,0,1,4.3-23.4,9.36,9.36,0,0,1,3.87-3.89c3.26-1.42,6.87.6,10.37,1.26,9.38,1.79,17.49-6.22,26.47-9.47a28,28,0,0,1,26.85,4.65c2.89,2.39,5.49,5.48,9.13,6.39a8.7,8.7,0,0,0,8.25-14.62c-5.15-.65-10.65-2.12-13.8-6.25-4.14-5.42-2.4-13.74,2.38-18.62s11.77-6.9,18.54-7.72,13.68-.64,20.37-2c-2.65-4.14.72-9.83,5.13-12s9.55-2.1,14.3-3.34,9.7-4.65,9.83-9.56c.11-3.57-2.39-6.74-2.67-10.3-.63-7.84,8.73-12.17,16.33-14.19l28.3-7.5a36.57,36.57,0,0,1,6.94-1.36,17.76,17.76,0,0,1,15.41,7.24c5.6-10,17.93-14.65,29.38-14.31a64.06,64.06,0,0,1,16.4,2.75c7.29,16.62-29.13,26.12-41.27,23.72-19.15-3.8-54.75-4.08-54.36,25.23.06,3.77,1.09,7.68-.22,11.21-4.82,13-29.58,2.48-36.42,14.51-2.74,4.82-.79,11.08,2.65,15.41s8.19,7.43,12.05,11.41c8.85,9.1,12.1,24.72,4.07,34.55s-27.77,6.82-29.59-5.74c-10.47-7-21.35,11.08-33.93,11.6-9.78.4-16.36-9.72-25.11-14.13-13.75-6.94-32.91,4.52-33.29,19.92-.19,7.24,3,14.08,4.51,21.17s.63,15.72-5.43,19.7c-4.46,2.94-10.28,2.4-15.5,3.55-12.16,2.69-20.24,14.53-23.85,26.44s-4,24.62-7.6,36.54a36.76,36.76,0,0,1-2,5.3,17.34,17.34,0,0,1-5.32-2.31C390.36,407.57,387.88,396.93,392.25,389.52Z"/></g></g></g><g id="Foreground"><path class="cls-15" d="M1085.11,443.8s-78.35,10.58-76.91,197.27h48s3.73-144.84,48.06-184.27Z"/><path class="cls-16" d="M1209.4,259.21s-5.13-21.4,10.89-21.17S1217.18,268.89,1209.4,259.21Z"/><path class="cls-17" d="M1256.28,397.8c-13.21,44.55-34.31,50.13-34.31,50.13s-17.63,6.48-27,4.87,4.56-13.35,21.29-16.25c0,0,23.88-10.78,26.78-37.14,1.62-14.69-4.69-28.47-11-40.54-5.06-9.6-10.14-18.13-11.28-25.17-2.58-15.89,9.16-25.09,9.16-25.09a114.59,114.59,0,0,1,23.75,39.47C1258.54,362.2,1261.71,379.46,1256.28,397.8Z"/><path class="cls-5" d="M1253.65,348.08c-.25,2.58-1.48,4-4.14,3.66a18.61,18.61,0,0,0-17.49,7.13c-5.06-9.6-10.14-18.13-11.28-25.17-2.58-15.89,9.16-25.09,9.16-25.09A114.59,114.59,0,0,1,1253.65,348.08Z"/><path class="cls-18" d="M1216.12,469.88c-4.74,1.65-11,5-18.46,7.33h0c-16,5.1-37.15,5.75-58.61-24.42-9.26-13-20.68-8.7-29.45-5.55-4.2,1.51-7.8,2.75-10.25,1.69a4.6,4.6,0,0,1-2.35-2.42c-1.61-3.44,1-6.9,5.91-9.69,10.87-6.18,33-9.06,45.38-1,0,0,3.49-1.87,9-4.26a132.38,132.38,0,0,1,25.15-8.14h0a63,63,0,0,1,19.57-1.2c1.07.13,2.12.3,3.16.51a22.82,22.82,0,0,1,12.46,7.14h0C1229,442.25,1227.81,465.8,1216.12,469.88Z"/><path class="cls-18" d="M1217.64,429.84l-11.59,2.34a70.26,70.26,0,0,0-4-10c-3.5-7.13-9.35-16.13-17.84-20.09a21.1,21.1,0,0,0-12-1.84c-19.32,2.54-17.36,21.41-14.93,31.27a51.13,51.13,0,0,0,1.81,6l-10.82-1.73s-8.15-36.09,21.32-41.17a30,30,0,0,1,15.76,1.51c20,7.37,32.05,33.24,32.27,33.71Z"/><path class="cls-18" d="M1104.27,456.8c-3,.5-9.22-2.17-13.79-5.93-3.5-2.87-6.06-6.38-5.55-9.6,1.19-7.42,18-4.45,18-4.45a23.22,23.22,0,0,1,3.41,3.38,14.65,14.65,0,0,1,3.28,7C1110.32,452.27,1107.53,456.26,1104.27,456.8Z"/><path class="cls-19" d="M1216.12,469.88c-4.74,1.65-11,5-18.46,7.33h0c-25.35-5.51-21.28-21.38-13.23-33.53,7.68-11.6-1.79-20.2-2-20.3a63,63,0,0,1,19.57-1.2c-3.5-7.13-9.35-16.13-17.84-20.09a21.44,21.44,0,0,0,1.19-6c20,7.37,32.05,33.24,32.27,33.71h0C1229,442.25,1227.81,465.8,1216.12,469.88Z"/><path class="cls-20" d="M1243.07,416.15s1.29,94.05,4.73,149,0,86.74,0,86.74h16.31s16.32-79.44,12.89-98.77,18.1-98.77,7.12-121.1S1243.07,416.15,1243.07,416.15Z"/><path class="cls-21" d="M1292,538.54c-5.16-28.34-11.17-63.56-18.47-88.46s-21-11.59-30.49-33.93,7.78-58-9-78.15c-13-15.67-9.73-26.16,0-33.08l0,0a46.06,46.06,0,0,1,9.79-5.12l16.32-6.44s21.47-2.15,30.49,13.63-8.38,39.62,0,51.86,33.49,27.69,34.78,62.48-5.24,81.48-5.48,94.71C1319.85,526.86,1297.18,566.88,1292,538.54Z"/><path class="cls-22" d="M1249.44,360.79l13.38-4.27a2.54,2.54,0,0,1,3.18,1.6c3.18,9.43,13.57,44.3-4,51.11s-11.89-10.06-14.29-45.86A2.54,2.54,0,0,1,1249.44,360.79Z"/><path class="cls-17" d="M1284.12,325.33c-.87,3.21-1.66,13-3.74,23.79h0c-2.92,15.21-8.38,32.48-20.12,36.44-20.08,6.77-59.69,13-59.69,13s-9.23,10.95-17.39,7.73-12.24-6-9.88-10.95,18.89-3.44,24-5.59,50.89-14.17,55.18-21.25c1.94-3.2,3.7-14,5-24.9h0c1.63-13.25,2.67-26.62,2.67-26.62s1.5-13.21,11.81-12.24S1286.19,317.6,1284.12,325.33Z"/><path class="cls-23" d="M1248,568.83h29.11l-8.56,81a5.74,5.74,0,0,0,.77,3.46,16.07,16.07,0,0,1,1.86,9.47,3.25,3.25,0,0,1-3.25,3h-37.87a1.8,1.8,0,0,1-1.18-3.16,55,55,0,0,1,15.42-9.53,5.54,5.54,0,0,0,3.49-5.15Z"/><path class="cls-5" d="M1245,333.7c-16.74-1.77-10.9-28.76-10.9-28.76v0l0,0a46.06,46.06,0,0,1,9.79-5.12l16.32-6.44C1264.38,303.86,1261.75,335.48,1245,333.7Z"/><path class="cls-17" d="M1260.25,293.34s-7.09-45.95-23.62-48.1-31.13,6-28.34,29.2,31.35,12.24,31.35,12.24l4.29,13.1S1254.24,300.64,1260.25,293.34Z"/><path class="cls-5" d="M1284.12,325.33c-.87,3.21-1.66,13-3.74,23.79h0a0,0,0,0,1,0,0c-11.84-11.71-22.44-5.76-22.78-5.57,1.63-13.25,2.67-26.62,2.67-26.62s1.5-13.21,11.81-12.24S1286.19,317.6,1284.12,325.33Z"/><path class="cls-16" d="M1216.29,249.47s.16,21.11,20.34,17.46,3.44,13.09,13.53,19.75-5,19,2.14,29,39.08,21.9,50.89-3-24.9-32.42-25.33-43.8-1.29-20-9.24-21.26-14.16-8.65-25.12-13.31C1234.6,230.5,1216.77,231.59,1216.29,249.47Z"/><path class="cls-19" d="M1139.05,452.79c-9.26-13-20.68-8.7-29.45-5.55.72,5-2.07,9-5.33,9.56-3,.5-9.22-2.17-13.79-5.93a9,9,0,0,0,8.87-1.94,16.93,16.93,0,0,0,4.22-5.89,6.79,6.79,0,0,1,2.75-2.84C1114.63,435.15,1136.47,437.66,1139.05,452.79Z"/><path class="cls-21" d="M1288.28,517.84c2,9.59,3.79,22.52,5.32,30.95,5.16,28.34,42.26,98.67,42.26,98.67h16.33s-22.3-77.62-29.07-89.54c-2.33-4.11-3.83-23.75-3.08-41.9Z"/><path class="cls-22" d="M1300.5,575.27l27.89-8.06,24.22,72.49a5.67,5.67,0,0,0,1.69,3.11,16.13,16.13,0,0,1,4.42,8.58,3.26,3.26,0,0,1-2.29,3.78l-36.38,10.51a1.79,1.79,0,0,1-2-2.7,54.79,54.79,0,0,1,12.16-13.44,5.52,5.52,0,0,0,1.92-5.92Z"/><path class="cls-24" d="M445.36,669.76s17.15-24.58,12.31-36.19-21.54,9.33-21.54,9.33,21.52-29.58,11.2-30.95-23.07,23.22-23.07,23.22,12.09-42.57,2.86-44.16-16.27,32.55-16.27,32.55-2.2-43.47-16.27-40.74-4.83,40.74-4.83,40.74-7.92-25-17.37-22.08,2.42,28.91,2.42,28.91-13.19-17.53-18.91-11.61,6.6,19.8,6.6,19.8-9.45-8-14.07-3.64,16.71,34.82,16.71,34.82Z"/><path class="cls-24" d="M1045.56,569.62q-1.33,3.9-2.58,7.82c-.29.92-.57,1.83-.85,2.75-.39,1.23-.76,2.48-1.13,3.73,0,.18-.11.36-.16.54-.15.53-.31,1.06-.46,1.59q-1.41,4.92-2.67,9.88l-.06.23c-.51,2-1,4.09-1.48,6.14-.19.78-.36,1.55-.54,2.33-.27,1.23-.54,2.46-.8,3.69a0,0,0,0,0,0,0q-.55,2.64-1.07,5.28c-.42,2.13-.81,4.26-1.19,6.39q-1,5.44-1.75,10.9c0,.06,0,.13,0,.19h0c-.2,1.38-.39,2.74-.57,4.11-.16,1.2-.31,2.4-.46,3.6s-.32,2.68-.47,4c-.13,1.09-.24,2.19-.36,3.28,0,.07,0,.14,0,.21q-.6,5.76-1,11.47h0c-.26,3.32-.48,6.63-.67,9.91-.65,10.63-.87,21.07-1.48,31.13h-.55q-1-7.8-1.45-15.8t-.25-16.1c.06-3.42.21-6.86.42-10.3l.09-1.49c.1-1.48.22-3,.34-4.44q.54-6.12,1.37-12.27c.19-1.42.4-2.84.62-4.26s.47-2.94.73-4.41l.18-1,.42-2.27q1.5-8,3.52-15.91c.77-3.05,1.6-6.1,2.49-9.13q.9-3.08,1.88-6.15v0q1.13-3.53,2.36-7h0c.34-1,.69-1.94,1-2.92s.73-2,1.1-2.94c.62-1.64,1.26-3.26,1.92-4.89q1.62-4,3.37-8Z"/><path class="cls-24" d="M1010.69,643.7a26,26,0,0,1-3.75-6.89c-2.19-6.57-.69-14.3,1.14-21.56a9.41,9.41,0,0,1,1-2.77,4.07,4.07,0,0,1,2.53-1.77c2-.43,3.72.79,4.91,2.63a28.52,28.52,0,0,1,2.66,6.61c2.11,6.69,4.56,13.6,7.31,20.64,1.3,4.21,9.45,18.08,1.14,17.19C1021.05,657.13,1014.17,648.73,1010.69,643.7Z"/><path class="cls-24" d="M1044.35,647c-3.06,4.85-8.87,9.4-14.63,10.72a5.72,5.72,0,0,1-1,.14h-.36a4.87,4.87,0,0,1-.54,0h0l-.19,0a4.19,4.19,0,0,1-3.65-2.62,4.64,4.64,0,0,1-.18-.69,6.83,6.83,0,0,1,.52-3.75,30.26,30.26,0,0,1,3.37-5.53l.45-.65c.11-.17.22-.34.34-.5l.81-1.2,3.13-4.61c1.83-2.71,3.68-5.44,6-7.35a11.5,11.5,0,0,1,2.52-1.57,4.57,4.57,0,0,1,6,2.42,4.64,4.64,0,0,1,.36,1.41A22.11,22.11,0,0,1,1044.35,647Z"/><path class="cls-24" d="M1021.32,599.14a15.61,15.61,0,0,1,.73-3.94,6,6,0,0,1,2.2-3.12,1.72,1.72,0,0,1,2.36.47,8.18,8.18,0,0,1,1.18,2.84,173.81,173.81,0,0,1,4.65,23.63c.41,3.51,1.28,9-1.29,11.59-2.88,2.84-4.66-1.58-5.79-4.34A56.83,56.83,0,0,1,1021.32,599.14Z"/><path class="cls-24" d="M1047.23,613.83a30.79,30.79,0,0,1-11.35,14.48,22,22,0,0,1-5.09,2.8h0a3.48,3.48,0,0,1-.41.1,2.59,2.59,0,0,1-2-.17,2.54,2.54,0,0,1-1.2-2.29,7.24,7.24,0,0,1,.42-2.27,33,33,0,0,1,1.61-3.67q1.41-3,2.89-6c.52-1.07,1.06-2.12,1.61-3.16.26-.51.53-1,.8-1.51.4-.75.81-1.5,1.23-2.24,2.45-4.36,5.45-8.74,9-9.86a2.58,2.58,0,0,1,2,0,3.59,3.59,0,0,1,1.41,1.83,8.1,8.1,0,0,1,.46,1.47C1049.41,606.63,1048.52,610.64,1047.23,613.83Z"/><path class="cls-24" d="M1032,584.63a19.2,19.2,0,0,1,.23-7.51,14.92,14.92,0,0,1,4.08-7.29,2.89,2.89,0,0,1,1.92-.9c1.18.13,1.31,2.17,1.36,4,.09,3.78.26,7.7.63,11.66.22,2.78,1.41,6.83-.71,9.77C1034.94,600.47,1032.18,588.05,1032,584.63Z"/><path class="cls-24" d="M1056.16,577.5V578a18.81,18.81,0,0,1-5,12.1,19.33,19.33,0,0,1-8.52,5.17,16,16,0,0,1-5,.87,2.88,2.88,0,0,1-2.05-.8h0l-.07-.08a2.09,2.09,0,0,1-.39-.92c-.28-1.73,1.37-4.22,2.75-6.1h0c.42-.57.82-1.09,1.12-1.51s.82-1.08,1.26-1.6c.18-.22.37-.45.57-.67l.28-.3a29.09,29.09,0,0,1,4.93-4.36,19.83,19.83,0,0,1,8.86-3.64,1.18,1.18,0,0,1,1,.18A1.73,1.73,0,0,1,1056.16,577.5Z"/><path class="cls-24" d="M1053.24,556.75c-.16.7-.4,1.49-.6,2.16-1.19,3.79-2.49,7.66-4,11.47a18.42,18.42,0,0,1-2.89,5.47,4.26,4.26,0,0,1-.35.38,4.48,4.48,0,0,1-2.46,1.21,5.27,5.27,0,0,1-1,.06H1042c-.61-.18-2.5-3,5.17-16.29,1.28-2.22,3.53-5.28,5.12-6.21C1053.54,554.22,1053.55,555.32,1053.24,556.75Z"/><path class="cls-24" d="M747.68,699.15l-.63.33c-4.87-12.08-9.43-24.79-14.59-37.56q-2.36-5.89-4.87-11.83-2.87-6.78-6-13.58c-.62-1.37-1.25-2.74-1.88-4.11q-2.09-4.49-4.26-8.94c-.78-1.6-1.58-3.19-2.38-4.79l-.12-.23q-3.18-6.33-6.57-12.59c-1.34-2.46-2.69-4.9-4.07-7.34q-3.68-6.46-7.59-12.84c-1.41-2.32-2.86-4.62-4.33-6.91l-.17-.25q-3.54-5.53-7.29-11c-.41-.58-.81-1.17-1.23-1.76-.82-1.18-1.65-2.37-2.49-3.55-1-1.39-2-2.78-3-4.15q-3.1-4.27-6.34-8.49l.25-.22,1.74,1.92q2.87,3.18,5.63,6.43c1.47,1.72,2.93,3.45,4.36,5.2.85,1,1.7,2.08,2.54,3.13s1.65,2.1,2.46,3.15q2.94,3.76,5.76,7.63h0c1.64,2.23,3.24,4.48,4.82,6.75q3.48,5,6.77,10.14,5.7,8.87,10.8,18c.49.86,1,1.72,1.44,2.59l.65,1.2c.92,1.69,1.81,3.39,2.7,5.09s1.68,3.3,2.49,5q3.54,7.17,6.68,14.41c.76,1.77,1.51,3.53,2.24,5.3l.73,1.78q2.5,6.19,4.72,12.42,3.51,9.85,6.28,19.78T747.68,699.15Z"/><path class="cls-24" d="M742.82,625.83a33.08,33.08,0,0,0,1.76-9.94c0-8.94-5-17.76-10.2-25.89a11.94,11.94,0,0,0-2.4-3,5.17,5.17,0,0,0-3.81-1.13c-2.63.29-4.23,2.49-4.92,5.22s-.6,6-.55,9.17c.15,9,0,18.48-.49,28.21.13,5.67-4.16,26,5.64,21.47C735.65,646.49,740.62,633.41,742.82,625.83Z"/><path class="cls-24" d="M731.26,645.27a5.44,5.44,0,0,1-3.41,4.71l-.26.11-.26.11-.25.09-.52.16-.1,0a8.62,8.62,0,0,1-1.18.21c-7.58.74-16.54-2.45-22.25-7.12a28,28,0,0,1-8.9-13.83,29.8,29.8,0,0,1-1.21-7.2c3.05-2.43,7.05-2.39,10.72-1s7.05,4,10.39,6.52l4.25,3.24,1.47,1.12,2.1,1.59c.26.21.53.41.8.61A40.21,40.21,0,0,1,729,640a8.84,8.84,0,0,1,2.19,4.39A5.68,5.68,0,0,1,731.26,645.27Z"/><path class="cls-24" d="M711.61,575.72a20.31,20.31,0,0,0-2.51-4.51,7.78,7.78,0,0,0-4-2.91,2.22,2.22,0,0,0-2.69,1.54,10.73,10.73,0,0,0-.28,4,223.09,223.09,0,0,0,4,30.77c.94,4.45,2.13,11.54,6.32,13.64,4.67,2.29,5-3.84,5.29-7.68A73.19,73.19,0,0,0,711.61,575.72Z"/><path class="cls-24" d="M716,617.61a3.38,3.38,0,0,1-2.34,1l-.53,0a28.3,28.3,0,0,1-7.37-1.35c-7.34-1.92-14.21-6.51-19.79-13.05a28.87,28.87,0,0,1-5.19-8.58,13.72,13.72,0,0,1-.91-5.61,4.59,4.59,0,0,1,1-2.81,3.27,3.27,0,0,1,2.41-.85c4.84-.1,10.31,4,15.08,8.34.65.59,1.3,1.18,1.94,1.78l2.08,2q1.64,1.57,3.25,3.21c2,2,4,4.09,6,6.18a42.47,42.47,0,0,1,3.46,3.82,9.44,9.44,0,0,1,1.44,2.59A3.3,3.3,0,0,1,716,617.61Z"/><path class="cls-24" d="M692.63,562.36a25.07,25.07,0,0,0-3.35-9.08c-1.92-3-5.06-6-8-7.24a3.73,3.73,0,0,0-2.71-.32c-1.39.65-.71,3.19,0,5.48,1.43,4.66,2.83,9.52,4,14.51.86,3.49,1.07,8.93,4.85,11.66C695.51,582.92,693.8,566.61,692.63,562.36Z"/><path class="cls-24" d="M692.66,576.82l0,0,0,.06a3.67,3.67,0,0,1-2.19,1.83,20.18,20.18,0,0,1-6.43,1,24.84,24.84,0,0,1-12.53-2.84,24.16,24.16,0,0,1-11.29-13.37s0-.09,0-.14a2,2,0,0,1-.06-1.4,1.52,1.52,0,0,1,1.1-.61,25.58,25.58,0,0,1,12.3.82,38.57,38.57,0,0,1,7.55,3.16l.72.41,1,.58c.74.46,1.46.94,2.18,1.44.54.39,1.24.86,2,1.4,2.45,1.73,5.5,4.1,5.86,6.34A2.61,2.61,0,0,1,692.66,576.82Z"/><path class="cls-24" d="M677.54,557.71l-.07,0c-.27.09-.55.17-.83.24l-.38.08a5.7,5.7,0,0,1-3.49-.48c-2.28-1.06-4.44-3.5-6.36-5.82-3.35-4-6.53-8.25-9.52-12.4-1.08-1.53-2.53-3.56-2.44-4.5,0-.44.42-.64,1.32-.45,2.33.49,6.32,3.3,8.8,5.49C679.44,553.09,678.22,557.27,677.54,557.71Z"/><path class="cls-24" d="M980.09,682.92l-4.75-.72c5.91-39.09,13.08-72.68,21.31-99.85,6.61-21.83,13.93-39.61,21.75-52.84,13.51-22.89,24-24.71,25.16-24.84l.55,4.77h.05c-.1,0-9.75,1.78-22.45,23.92C1009.94,553.88,993.16,596.49,980.09,682.92Z"/><path class="cls-5" d="M1045.78,500.22a7.76,7.76,0,0,1-3.53,2.06c-2.44.52-2.34-3.07-2.5-4.82a41,41,0,0,1,1.49-15.58,31.24,31.24,0,0,1,8.06-13.33c1.5-1.44,3.35-2.78,5.43-2.73a6.16,6.16,0,0,1,5,3.65,8.9,8.9,0,0,1,.74,1.86,15.5,15.5,0,0,1-.67,9.22,35.64,35.64,0,0,1-4.58,8.16,102.77,102.77,0,0,1-7.73,9.68C1047,499,1046.42,499.63,1045.78,500.22Z"/><path class="cls-5" d="M1069.18,505.09a35.69,35.69,0,0,1-6.48,2.53,59.3,59.3,0,0,1-11,2.74c-2.87.33-6.08.13-8.19-1.84a10.32,10.32,0,0,1-1.31-1.45c-1.2-1.58-2-3.61-1.21-5.35,1.59-3.34,4.76-6.39,7.49-8.82a43.35,43.35,0,0,1,6.81-4.95,25.89,25.89,0,0,1,5.78-2.61,36.93,36.93,0,0,1,7-1.11c2.35-.22,4.83-.41,6.94.63a8.88,8.88,0,0,1,4.25,5.59,6.79,6.79,0,0,1,.3,3.25,5.41,5.41,0,0,1-.42,1.27,12.39,12.39,0,0,1-1.48,2.26A28.65,28.65,0,0,1,1069.18,505.09Z"/><path class="cls-5" d="M1065.5,530.69a12.11,12.11,0,0,1-2,.66c-4.36,1-8.14-.9-11.36-3-4.61-3-8.94-6.73-10.85-12.06a25,25,0,0,1-1.08-4.46c-.12-.71-.45-1.81-.54-2.84a3.21,3.21,0,0,1,.17-1.57c1-2.31,6.23-1,7.76-.8a70.63,70.63,0,0,1,16.79,3.69,43.53,43.53,0,0,1,8.21,4c1.6,1,3.22,2.31,3.35,4.35s-1.39,4.44-3,6.3A21.71,21.71,0,0,1,1065.5,530.69Z"/><path class="cls-5" d="M1038.18,546.29a7.21,7.21,0,0,1-3.8-.28,10.43,10.43,0,0,1-5.08-3.12,6.63,6.63,0,0,1-.49-.69,9.93,9.93,0,0,1-1.22-3.39,39.16,39.16,0,0,1-.15-10.86,40.08,40.08,0,0,1,2-10.87,23.85,23.85,0,0,1,3.56-6.15,21.53,21.53,0,0,1,3.59-4.09,4.07,4.07,0,0,1,1.64-.76c2-.35,3,1,3.5,2.83q.93,3.55,1.88,7.09,1.17,4.38,1.92,8.79a38,38,0,0,1,.61,6,20.08,20.08,0,0,1-4.88,13.34A6.47,6.47,0,0,1,1038.18,546.29Z"/><path class="cls-5" d="M1026.18,518.5a22.75,22.75,0,0,1-4.1,3.44,14.1,14.1,0,0,1-5.54,1.82,12.15,12.15,0,0,1-6.67-.88,7.25,7.25,0,0,1-4.09-5.13,6.09,6.09,0,0,1-.08-1,9.68,9.68,0,0,1,2.87-6.29c3.3-3.58,7.9-5.66,12.49-7.31,3.58-1.28,9.29-3.52,13.49-2.49a6.92,6.92,0,0,1,1.8.72c3.88,2.26-1.82,8.16-3.47,10.09C1030.79,514,1028.48,516.24,1026.18,518.5Z"/><path class="cls-5" d="M1039.84,502.44a31.91,31.91,0,0,1-18.61-2.37,25.53,25.53,0,0,1-8.43-6,10.66,10.66,0,0,1-2.46-3.93,8.71,8.71,0,0,1-.09-4.45,12.07,12.07,0,0,1,1.89-4.35,13.21,13.21,0,0,1,6-4.68l.74-.26a11.06,11.06,0,0,1,3.78-.58,13.08,13.08,0,0,1,4.89,1.28,24.05,24.05,0,0,1,9.54,8.16c1.35,1.92,4.74,7.85,5.32,12.23C1042.77,500,1042.2,502,1039.84,502.44Z"/><path class="cls-18" d="M1039.82,513.89a4.87,4.87,0,0,1-3.28-1.61,15.19,15.19,0,0,1-3.67-4.48,6.14,6.14,0,0,1,0-5.1,17.23,17.23,0,0,1,4.31-5.64,5.26,5.26,0,0,1,2.29-1.51,3.87,3.87,0,0,1,2.51.4,13.82,13.82,0,0,1,3.83,3.08l.15.16a6.48,6.48,0,0,1,2.15,3.52,6.17,6.17,0,0,1-1,3.59,29.53,29.53,0,0,1-3.9,5.51A5.1,5.1,0,0,1,1039.82,513.89Z"/><path class="cls-19" d="M1039.82,513.89a4.87,4.87,0,0,1-3.28-1.61,15.19,15.19,0,0,1-3.67-4.48,21.61,21.61,0,0,0,4.1-.07,9.91,9.91,0,0,0,7.09-5,20.4,20.4,0,0,1,1.89-3.52,6.48,6.48,0,0,1,2.15,3.52,6.17,6.17,0,0,1-1,3.59,29.53,29.53,0,0,1-3.9,5.51A5.1,5.1,0,0,1,1039.82,513.89Z"/><path class="cls-25" d="M982.44,586.89a59.45,59.45,0,0,0,13.29-1.46,31.19,31.19,0,0,0,5.62-1.89c4.19-1.89,7.57-4.8,9-9.21,1.52-4.78,1.84-11.26.95-19.15-.31-2.81-.78-5.81-1.41-9a199.31,199.31,0,0,0-10.33-33.73A342.47,342.47,0,0,0,984.59,480a1.7,1.7,0,0,0-.74-.76,1.76,1.76,0,0,0-1.67,0C938.67,502,907,537.91,901.9,553.94c-3.28,10.33,7.09,20.19,15.16,26a1.77,1.77,0,0,1-1.59,3.12c-6.46-2-14-4.85-17.85-6.34a1.77,1.77,0,0,0-2.37,2c2.06,10.63,16.08,17.41,22.54,20a1.77,1.77,0,0,1-.27,3.37c-3.58.88-8.7.22-11.8-.35a1.78,1.78,0,0,0-2,2.27c5.86,20.68,24.2,33.2,29.15,36.26l.59.35-.06.17h.31l.38.22.08-.24.53,0c1.2,0,3.2-.14,5.78-.34a157.13,157.13,0,0,0,23.84-3.69,91.07,91.07,0,0,0,20.46-7.3,55.2,55.2,0,0,0,5.64-3.36c.93-.64,1.83-1.3,2.7-2a1.79,1.79,0,0,0-.18-2.93l-1.26-.76c-1.22-.74-2.71-1.65-4.33-2.68-5.71-3.62-13.12-8.67-16.85-12.67a1.77,1.77,0,0,1,1.79-2.89,92.94,92.94,0,0,0,18,3.32,48.49,48.49,0,0,0,5,.11c5.15-.16,9.93-1.25,13.15-4a1.78,1.78,0,0,0-.7-3c-2.28-.67-5.83-1.72-9.82-3-1.49-.45-3-.94-4.62-1.44-3.9-1.24-7.93-2.56-11.41-3.81A1.78,1.78,0,0,1,982.44,586.89ZM922,559.54c8.51,0,12.52,8.8,14,13.1a1.77,1.77,0,0,1-1.74,2.34c-10.25-.55-13.13-9.3-13.93-13.31A1.78,1.78,0,0,1,922,559.54Zm49.55,13.17a1.77,1.77,0,0,1-.34-2.76c3.89-3.89,15.1-13.29,26-5.62a1.79,1.79,0,0,1,.07,2.86C992.94,570.6,981.16,578.45,971.57,572.71Z"/><path class="cls-24" d="M973.19,506.11c-2.36,18-6,35.72-10.07,53.28s-8.7,34.94-13.75,52.21S938.85,646,932.86,663s-12.45,33.84-20.15,50.33l-.76-.22,7.38-26,7.49-25.93,15-51.84,15.25-51.77,7.63-25.88,7.74-25.85Z"/><path class="cls-26" d="M982.44,586.89a59.45,59.45,0,0,0,13.29-1.46,31.19,31.19,0,0,0,5.62-1.89c4.19-1.89,7.57-4.8,9-9.21,1.52-4.78,1.84-11.26.95-19.15-.31-2.81-.78-5.81-1.41-9a199.31,199.31,0,0,0-10.33-33.73A50,50,0,0,1,998.17,529a36.71,36.71,0,0,1-12.23,18.66c-4.43,3.58-9.7,6.11-13.71,10.15a25.41,25.41,0,0,0-6.86,22.27c.61,3.23,1.86,6.48,1.21,9.69s-4.41,6.06-7.17,4.29a13,13,0,0,0,4,14c1.57,1.29,3.47,2.2,4.76,3.78,1.57,1.9,2,4.49,2.07,7a28.73,28.73,0,0,1-5.26,17.2,9.67,9.67,0,0,1-.61.76,91.07,91.07,0,0,0,20.46-7.3,55.2,55.2,0,0,0,5.64-3.36c.93-.64,1.83-1.3,2.7-2a1.79,1.79,0,0,0-.18-2.93l-1.26-.76c-1.22-.74-2.71-1.65-4.33-2.68-5.71-3.62-13.12-8.67-16.85-12.67a1.77,1.77,0,0,1,1.79-2.89,92.94,92.94,0,0,0,18,3.32,48.49,48.49,0,0,0,5,.11c5.15-.16,9.93-1.25,13.15-4a1.78,1.78,0,0,0-.7-3c-2.28-.67-5.83-1.72-9.82-3-1.49-.45-3-.94-4.62-1.44-3.9-1.24-7.93-2.56-11.41-3.81A1.78,1.78,0,0,1,982.44,586.89Zm-10.87-14.18a1.77,1.77,0,0,1-.34-2.76c3.89-3.89,15.1-13.29,26-5.62a1.79,1.79,0,0,1,.07,2.86C992.94,570.6,981.16,578.45,971.57,572.71Z"/><path class="cls-26" d="M943.71,567.14a19.52,19.52,0,0,0-3.19-7.32c-2.69-3.59-6.89-5.69-11-7.42-3.32-1.39-8.59-3.88-11.62-.76-3.66,3.76-3.74,8.93-2,13.61a29.94,29.94,0,0,0,15.34,16.82,12.74,12.74,0,0,0,7,1.45,5.63,5.63,0,0,0,2.33-.8,6.69,6.69,0,0,0,2-2.32C944.68,576.45,944.73,571.57,943.71,567.14ZM934.23,575c-10.25-.55-13.13-9.3-13.93-13.31a1.78,1.78,0,0,1,1.72-2.13c8.51,0,12.52,8.8,14,13.1A1.77,1.77,0,0,1,934.23,575Z"/><path class="cls-24" d="M1262.53,669.76h-56.1c3.63-24.84-13.4-48.56-13.4-48.56a21.64,21.64,0,0,1,4.76,2.44c12.51,8.45,19,29.38,19,29.38,3.32-14.7-9.32-60.22-9.49-60.84a4.87,4.87,0,0,1,.42.35c14,12,21.91,58.25,21.91,58.25,2.77-49.87-14.82-95.35-15.07-96,20.51,11.16,24.11,55.58,24.49,80.1v0c.15,9.82-.21,16.45-.21,16.45A107.71,107.71,0,0,0,1243,641.2h0c10.88-30.44,10.88-67.72,10.88-67.72s.1.15.14.23c15.56,25.38-4.1,84.23-4.33,84.89,13.41-10.89,26-49.11,26-49.11a21.77,21.77,0,0,1,.37,5.15c-.54,16-13.28,44.07-13.49,44.52,7-5,19.82-29.3,19.82-29.3C1285.42,647.71,1262.53,669.76,1262.53,669.76Z"/><path class="cls-24" d="M1234.85,689l-4.71-.92c16.75-85.79,15.28-131.56,11.09-154.86-4.51-25.12-13-30-13.09-30.07l0,0,2.12-4.31c1,.51,10.31,5.76,15.35,31.85,2.91,15.1,3.82,34.31,2.71,57.09C1247,616.18,1242.43,650.22,1234.85,689Z"/><path class="cls-19" d="M1238.09,480.05c-2.9-6.86-7.37-14.06-15.18-17-3.56-1.35-7.92-1.59-10.85.33-2.13,1.39-3.18,3.67-3.9,5.91-2.73,8.49-1.93,17.85,1.42,26.51a35.11,35.11,0,0,0,7.73,12.36c4.25,4.24,10,7.27,16,9.26a11.85,11.85,0,0,0,4.6.8,6.68,6.68,0,0,0,5.13-3.45C1248.36,505.28,1242.16,489.64,1238.09,480.05Z"/><path class="cls-18" d="M1247.57,478.18a25.68,25.68,0,0,0-1.75-9.64,11.57,11.57,0,0,0-7.42-6.65c-4.18-1-8.59,1-11.26,4s-3.94,6.92-5.08,10.71c-1.69,5.66-3.23,11.57-2.06,17.42.83,4.14,3,8,5.15,11.69,3.17,5.44,14.77,19.47,18.75,7.23C1247.44,502.11,1248,489.55,1247.57,478.18Z"/><path class="cls-24" d="M887.79,669.76s23.83-34.16,17.11-50.29-29.94,13-29.94,13,29.91-41.11,15.57-43-32.06,32.26-32.06,32.26,16.8-59.14,4-61.36-22.61,45.23-22.61,45.23-3.05-60.41-22.6-56.61-6.72,56.61-6.72,56.61-11-34.79-24.13-30.68,3.36,40.17,3.36,40.17-18.33-24.36-26.27-16.13,9.16,27.51,9.16,27.51-13.13-11.07-19.55-5.06,23.22,48.39,23.22,48.39Z"/><path class="cls-24" d="M185.32,665.76H90V488.07c15.23,23.43,18.07,77.81,18.07,77.81s15.74-73.81,36.41-70.37-6.09,94.43-6.39,95.46c.43-.8,28.71-53.12,51.64-50.19,22.63,2.9-23.12,64.31-25,66.84,1.75-2.09,37.59-44.57,48.16-20.09C223.7,612.62,185.32,665.76,185.32,665.76Z"/><path class="cls-27" d="M367.22,647.69a25.86,25.86,0,0,1,5.47,3.8L371.62,642a3.14,3.14,0,0,1,4.83-3,15.59,15.59,0,0,1,3.75,3.45l-.28-10.49a2.72,2.72,0,0,1,4.56-2.06,28,28,0,0,1,6.53,8.85,35.32,35.32,0,0,1,2.76-17.07,3.12,3.12,0,0,1,5.36-.62c2.4,3.23,3.45,7.68,4.24,11.76q1.47,7.63,3,15.28a54.56,54.56,0,0,1,6.87-13.23c2.32-3.29,5.66-6.63,9.86-5.62a7.42,7.42,0,0,1,5,4.56c1.72,4.26.4,8.7-1.29,12.73-1.38,3.31-3,6.56-3.55,10.11a17.51,17.51,0,0,1,16.43-10.83,4.78,4.78,0,0,1,3.44,1.19,4.85,4.85,0,0,1,1,2.81A20.54,20.54,0,0,1,441.68,662a5.24,5.24,0,0,1-1.92,2.19,6,6,0,0,1-2.79.51q-23.54.45-47.08,0c-7.06-.14-13,.71-18.73-3.95a28.86,28.86,0,0,1-7.55-9.45A2.68,2.68,0,0,1,367.22,647.69Z"/><path class="cls-28" d="M95,594.2c.15-3.23.66-6.94,3.67-8.69,3.89-2.27,9.19.43,11.72,3.92s3.66,7.78,6.69,10.94a67.88,67.88,0,0,1,4.45-25.85c.93-2.44,3.21-5.36,5.88-4.4a119.14,119.14,0,0,1,7.27,47.24,101.59,101.59,0,0,1,7.6-15.46c3.06-5.09,7.76-10.56,14.19-10.4a5.58,5.58,0,0,1,4.29,1.74,5.74,5.74,0,0,1,.73,4.11,68.06,68.06,0,0,1-11.7,32.27c9.8-9.1,23.68-16.3,37.49-13.79a5.56,5.56,0,0,1,2.43.89,4.59,4.59,0,0,1,1.42,2.46c3.86,12.89-3,26.21-9.66,38.14-1.3,2.33-2.69,4.76-5.06,6.26-2.75,1.74-6.32,1.93-9.68,2l-56.06,2.12c-4.65.18-10,.07-12.94-3.18-1.91-2.13-2.2-5.05-2.37-7.78A580.81,580.81,0,0,1,95,594.2Z"/><path class="cls-12" d="M106,628.6a2.31,2.31,0,0,1,.53-2c.83-.66,2,0,2.83.75a48.36,48.36,0,0,1,12,16.64c-.69-7.08,5.26-14.11,12.35-14.6a3.69,3.69,0,0,1,2.45.48,4,4,0,0,1,1.3,2.61,34.69,34.69,0,0,1-.1,14.17c.75-2.55,3.33-4.06,5.78-5.09A44.35,44.35,0,0,1,159.68,638a2.37,2.37,0,0,1,1.42.28,2.13,2.13,0,0,1,.67.89c1.81,3.78.68,8.49-2,11.75s-6.51,5.26-10.46,6.66a51.2,51.2,0,0,1-25.75,2.06c-6.78-1.32-11.76-11.16-14.2-16.9A44.78,44.78,0,0,1,106,628.6Z"/><path class="cls-7" d="M386.6,662.39c-2.69-1.29-5.45-3.15-6.21-6.57a3.47,3.47,0,0,1,.45-2.68c1.14-1.65,3-.95,4.33.11,1.11.89,2.15,2.06,3.49,2.31-2.17-2.09-2.32-6-2.42-9a3.43,3.43,0,0,1,1.06-2.7c1.63-1.41,3.41.35,4.53,2A95.85,95.85,0,0,1,399,657.93a17.42,17.42,0,0,1-.83-5,8.2,8.2,0,0,1,.32-2.21,1.78,1.78,0,0,1,3-.87,17,17,0,0,1,4.29,7.93,6.8,6.8,0,0,1,1.8-4c2-2.67,4.1-5.38,6.8-7.14a3.24,3.24,0,0,1,1.93-.58c2.18.14,2.78,2.74,2.85,4.91a28.43,28.43,0,0,1-.68,7.31,8,8,0,0,1-.89,2.49c-1.29,2.08-3.82,2.42-6,2.54q-6.93.38-13.88.33a38.32,38.32,0,0,0-5.48.39C390.32,664.29,388.32,663.22,386.6,662.39Z"/><path class="cls-12" d="M666.41,551.77c-3.35-4-6.53-8.25-9.52-12.4-1.08-1.53-2.53-3.56-2.44-4.5a60.43,60.43,0,0,1,9.16,7.17,79,79,0,0,1,8.3,9.24c1.67,2.16,3.24,4.41,4.73,6.71q1.35,2.09,2.61,4.23c-1-1.39-2-2.78-3-4.15a5.7,5.7,0,0,1-3.49-.48C670.49,556.53,668.33,554.09,666.41,551.77Z"/><path class="cls-12" d="M678.47,570.83a9,9,0,0,1-4.82-.39c-4.89-1.46-9.23-4.24-13.52-7.05a2,2,0,0,1-.06-1.4,1.52,1.52,0,0,1,1.1-.61,25.58,25.58,0,0,1,12.3.82,38.57,38.57,0,0,1,7.55,3.16,4.48,4.48,0,0,1,.53,2.1A4,4,0,0,1,678.47,570.83Z"/><path class="cls-12" d="M680.76,595.69a13.72,13.72,0,0,1-.91-5.61,4.59,4.59,0,0,1,1-2.81,3.27,3.27,0,0,1,2.41-.85c4.84-.1,10.31,4,15.08,8.34.65.59,1.3,1.18,1.94,1.78a4.9,4.9,0,0,1,.36,3.11A30.62,30.62,0,0,1,680.76,595.69Z"/><path class="cls-12" d="M718.5,634.31a3.07,3.07,0,0,1-1.67,1c-5.93,1.92-12.46,0-18-2.87-1.61-.85-3.18-1.78-4.72-2.74a29.8,29.8,0,0,1-1.21-7.2c3.05-2.43,7.05-2.39,10.72-1s7.05,4,10.39,6.52l4.25,3.24.1.22A2.94,2.94,0,0,1,718.5,634.31Z"/><path class="cls-28" d="M773.54,645.79c-1-1.77-2-3.84-1.47-5.82.65-2.19,3.09-3.44,5.37-3.46a16,16,0,0,1,6.53,1.88l6.58,3c-1.87-2.59-3.79-5.3-4.35-8.44s.69-6.86,3.64-8.09c2.45-1,5.31-.07,7.51,1.41s4,3.49,6.26,4.92A56.94,56.94,0,0,1,801,620.8c-.24-1.56-.34-3.35.75-4.49a3.91,3.91,0,0,1,2.45-1,9.36,9.36,0,0,1,7.47,3.17,27.53,27.53,0,0,1,4.45,7.09c-.23-9.28,0-19.25,5.34-26.8a2.11,2.11,0,0,1,1-.9,2,2,0,0,1,1.46.28c5.27,2.53,8.88,7.72,10.8,13.24s2.33,11.44,2.74,17.27a64.53,64.53,0,0,1,8.15-15.2c.9-1.25,2.43-2.6,3.76-1.83a3,3,0,0,1,1.16,1.75c2.81,8.52-1.67,17.62-2,26.59a45,45,0,0,1,10.92-8.12,4.8,4.8,0,0,1,3.67-.74,3.86,3.86,0,0,1,2,1.92c2.81,5.07.07,11.27-.48,17a21.7,21.7,0,0,1,19.21-9.88A6.53,6.53,0,0,1,888,641.5c1.56,1.4,1.72,3.73,1.78,5.82.15,5.21.14,10.91-3.15,14.95-3.67,4.49-10.11,5.36-15.9,5.65-6.9.34-13.81.33-20.72.32l-44.49-.08c-7.26,0-12.58-1.5-18.16-6.17A62.59,62.59,0,0,1,773.54,645.79Z"/><path class="cls-12" d="M804.29,659.32a12.6,12.6,0,0,1-4.44-9.43A1.76,1.76,0,0,1,800,649a1.84,1.84,0,0,1,.84-.63,9.64,9.64,0,0,1,10.64,2.11,17.32,17.32,0,0,1-2.28-4.7,6,6,0,0,1,.71-5c1.72-2.32,5.38-2.36,7.85-.88s4.06,4.06,5.54,6.54c.26-2.42-.33-4.86-.36-7.3s.65-5.15,2.71-6.45c2.6-1.64,6.23-.2,8,2.28s2.25,5.67,2.64,8.71l1.1,8.59a12.18,12.18,0,0,1,1.35-6.21,6,6,0,0,1,5.21-3.17,3.17,3.17,0,0,1,2.3,1,4.46,4.46,0,0,1,.78,2,26.19,26.19,0,0,1,.2,8.24c2.14-1.53,4.36-3.1,7-3.59s5.63.42,6.79,2.77c1.29,2.59-.23,5.85-2.59,7.51s-5.33,2.11-8.18,2.55c-11.87,1.85-25.71,5.11-37.24.3C809.91,662.38,806.89,661.64,804.29,659.32Z"/><path class="cls-7" d="M1047,631.73a14.4,14.4,0,0,0-5.1,2.89c-1.91,1.77-3.07,4.19-4.65,6.27a18.84,18.84,0,0,1-4.39,4.11,5.39,5.39,0,0,1-4,1.12l-.13,0a2.69,2.69,0,0,1-.51-.2c0-.28,0-.54.07-.82s.07-.68.12-1a22,22,0,0,1,1.28-5.22c-.16,1.34-.32,2.68-.47,4l3.13-4.61c1.83-2.71,3.68-5.44,6-7.35a11.5,11.5,0,0,1,2.52-1.57A4.57,4.57,0,0,1,1047,631.73Z"/><path class="cls-7" d="M1048.22,601.88a8.1,8.1,0,0,1,.46,1.47,8.72,8.72,0,0,0-1,.54c-3.08,2-5.13,5.13-7.51,7.91-1.45,1.69-3.53,3.39-5.67,2.76,0-.81,0-1.62,0-2.44.4-.75.81-1.5,1.23-2.24,2.45-4.36,5.45-8.74,9-9.86a2.58,2.58,0,0,1,2,0A3.59,3.59,0,0,1,1048.22,601.88Z"/><path class="cls-7" d="M1045.62,575.71a1.34,1.34,0,0,1-.2-.91c.17-5.6,2.57-11,5.84-15.51.63-.87,1.28-1.72,2-2.54-.16.7-.4,1.49-.6,2.16-1.19,3.79-2.49,7.66-4,11.47a18.42,18.42,0,0,1-2.89,5.47A.75.75,0,0,1,1045.62,575.71Z"/><path class="cls-7" d="M1056.16,577.5V578c-4,1.86-7.83,4.81-11.88,6.74a3.5,3.5,0,0,1-1.68.45,1.83,1.83,0,0,1-1.48-1.05,29.09,29.09,0,0,1,4.93-4.36,19.83,19.83,0,0,1,8.86-3.64,1.18,1.18,0,0,1,1,.18A1.73,1.73,0,0,1,1056.16,577.5Z"/><path class="cls-7" d="M1224.31,641.57c.09,7.21-2.18,14.26-5.23,20.8-.27.6-.63,1.26-1.27,1.43-1.16.3-1.93-1.16-2.25-2.32a122.82,122.82,0,0,0-17.77-37.84c12.51,8.45,19,29.38,19,29.38,3.32-14.7-9.32-60.22-9.49-60.84a4.87,4.87,0,0,1,.42.35c4.4,9.37,8.24,19,11.81,28.71C1221.91,627.81,1224.21,634.57,1224.31,641.57Z"/><path class="cls-7" d="M1276,614.63a140.8,140.8,0,0,1-11.3,32.93c-1.87,3.94-4,7.92-7.37,10.67s-8.39,3.95-12.19,1.82a4.62,4.62,0,0,1-2.43-2.88,6.08,6.08,0,0,1,.23-2.67c2.72-11,8.6-21.08,10.42-32.24a93.72,93.72,0,0,0,.89-11.23c.25-6.41.49-12.82.49-19.22,0-5.76-.6-11.46-.76-17.19a9.07,9.07,0,0,1,0-.92c15.56,25.38-4.1,84.23-4.33,84.89,13.41-10.89,26-49.11,26-49.11A21.77,21.77,0,0,1,1276,614.63Z"/><path class="cls-24" d="M450.08,500.87a141.21,141.21,0,0,1-9.79,10.61c-3.42,3.34-7,6.47-10.64,9.4s-7.39,5.68-11.13,8.26-7.48,5-11,7.41l.15.18c2-.9,4.06-1.89,6.06-3s4-2.23,5.9-3.46a107.41,107.41,0,0,0,11.27-8.24,113.74,113.74,0,0,0,10.27-9.88c1.61-1.77,3.18-3.59,4.68-5.47s3-3.81,4.33-5.8Z"/><path class="cls-24" d="M430.88,529.84a10.92,10.92,0,0,0,3.32-.16c2.87-.65,5.34-2.89,7.58-5.16a3.83,3.83,0,0,0,.77-1,1.69,1.69,0,0,0,.09-1.31,2,2,0,0,0-2-1.2,12.26,12.26,0,0,0-3,.49c-2.9.7-5.94,1.34-9.11,1.89-1.81.46-8.64.55-6.49,3.37C423.71,529,428.28,529.69,430.88,529.84Z"/><path class="cls-24" d="M426.59,524c.49-1.09,1-2.17,1.48-3.25a14,14,0,0,0,1.34-3.81,3.56,3.56,0,0,0-1.1-3.38,9.62,9.62,0,0,0-6,4.78,10.86,10.86,0,0,0-.67,7.67,2,2,0,0,0,2.47,1.45C425.44,526.94,426.1,525.06,426.59,524Z"/><path class="cls-24" d="M444.71,516.17A6.77,6.77,0,0,0,446,515a2.68,2.68,0,0,0,.65-1.49.73.73,0,0,0-.7-.75,3.64,3.64,0,0,0-1.29.19,74.09,74.09,0,0,0-9.6,3.52c-1.36.63-3.55,1.52-3.92,3-.4,1.67,1.6,1.35,2.85,1.15A24.17,24.17,0,0,0,444.71,516.17Z"/><path class="cls-24" d="M437.62,513.29c1.05-1.85,2-3.91,1.59-5.46a1.08,1.08,0,0,0-.45-.71,1.47,1.47,0,0,0-1-.11c-1.59.24-3.11,1.64-4.12,3a13.08,13.08,0,0,0-2.76,7.31c0,.82-.2,2.87.65,3.31,1.21.62,2.3-1.36,2.81-2.12C435.51,516.79,436.63,515.05,437.62,513.29Z"/><path class="cls-24" d="M447.62,509.1a8.31,8.31,0,0,0,2.68-1.74,6.41,6.41,0,0,0,1.75-3.09,1.23,1.23,0,0,0-.1-.89c-.31-.4-1.08,0-1.76.39-1.39.8-2.85,1.6-4.37,2.34-1.06.53-2.79,1-3.4,2.41C441.23,511.52,446.34,509.78,447.62,509.1Z"/><path class="cls-24" d="M445.65,498.92c-.06-.14-.14-.28-.27-.31a.73.73,0,0,0-.49.14,8,8,0,0,0-3.48,4.6,8.24,8.24,0,0,0,0,4.24c.22.86.8,3,2,2.51.91-.37,1.55-2.22,1.92-3.09a12.94,12.94,0,0,0,1-4.08A8.25,8.25,0,0,0,445.65,498.92Z"/><path class="cls-24" d="M449.12,499.9a7.25,7.25,0,0,0-1.41,2.47,2,2,0,0,0,.29,1.52c.1.19,1.52.52,4.8-5.44a8.83,8.83,0,0,0,1.13-3.23c0-1-.91,0-1.51.72C451.3,497.2,450.18,498.53,449.12,499.9Z"/><path class="cls-24" d="M333.12,535c3.4-2,6.38-4.64,9.53-7a21.44,21.44,0,0,1,8.05-4.26c3-.67,6.42-.07,8.48,2.2a14.19,14.19,0,0,0,1.64,1.82,6.44,6.44,0,0,0,4,1,43,43,0,0,0,15.83-3c4.45-1.75,8.68-4.26,13.4-5A18.89,18.89,0,0,1,411.8,528c1.48,2,2.93,4.63,5.43,4.84.81.07,1.62-.14,2.42-.08,2.94.23,4.38,3.67,4.89,6.57.45,2.62.66,5.4-.39,7.84-1.26,2.94-4.12,4.86-7,6.24-6.52,3.11-13.82,4.27-21,4.59a98.86,98.86,0,0,1-21-1.31c-14.33-2.44-27.86-8-41.23-13.53-3.71-1.53-7.79-2.77-11.31-4.66.36-1,3.84-.86,5-1.18A22.78,22.78,0,0,0,333.12,535Z"/><path class="cls-24" d="M306.09,540.5l-1.53-.23A234.39,234.39,0,0,1,311.44,508a79,79,0,0,1,7-17.06c4.36-7.39,7.75-8,8.12-8l.18,1.54h0s-3.14.57-7.24,7.72C315.72,498.84,310.31,512.6,306.09,540.5Z"/><path class="cls-5" d="M327.3,481.52a2.59,2.59,0,0,1-1.14.66c-.79.17-.76-1-.81-1.56a13.09,13.09,0,0,1,.48-5,10.11,10.11,0,0,1,2.6-4.31,2.65,2.65,0,0,1,1.76-.88,2,2,0,0,1,1.63,1.18,2.57,2.57,0,0,1,.23.6,4.88,4.88,0,0,1-.21,3,11.82,11.82,0,0,1-1.48,2.64,35.59,35.59,0,0,1-2.49,3.13C327.69,481.12,327.5,481.33,327.3,481.52Z"/><path class="cls-5" d="M334.85,483.09a12.09,12.09,0,0,1-2.09.82,19.19,19.19,0,0,1-3.55.88,3.31,3.31,0,0,1-2.65-.59,4.83,4.83,0,0,1-.42-.47,1.72,1.72,0,0,1-.39-1.73,9.85,9.85,0,0,1,2.42-2.85,13.81,13.81,0,0,1,2.19-1.6,8.49,8.49,0,0,1,1.87-.84,12.34,12.34,0,0,1,2.27-.36,4.15,4.15,0,0,1,2.24.21,2.88,2.88,0,0,1,1.37,1.8,2.21,2.21,0,0,1,.09,1.05,1.51,1.51,0,0,1-.13.41,3.83,3.83,0,0,1-.48.73A9.21,9.21,0,0,1,334.85,483.09Z"/><path class="cls-5" d="M333.66,491.35a3.72,3.72,0,0,1-.64.22,4.71,4.71,0,0,1-3.66-1,6.86,6.86,0,0,1-3.85-5.33c0-.24-.15-.59-.18-.92a1,1,0,0,1,.05-.51c.33-.75,2-.31,2.51-.26a23.46,23.46,0,0,1,5.42,1.19,14.14,14.14,0,0,1,2.65,1.29,1.88,1.88,0,0,1,1.08,1.4,3.11,3.11,0,0,1-1,2A6.9,6.9,0,0,1,333.66,491.35Z"/><path class="cls-5" d="M324.84,496.39a2.33,2.33,0,0,1-1.22-.09,3.42,3.42,0,0,1-1.64-1,1.77,1.77,0,0,1-.16-.22,3.15,3.15,0,0,1-.39-1.1,12.45,12.45,0,0,1-.05-3.5A12.82,12.82,0,0,1,322,487a8.06,8.06,0,0,1,1.15-2,7.32,7.32,0,0,1,1.16-1.32,1.32,1.32,0,0,1,.53-.24c.66-.12,1,.33,1.13.91.2.77.4,1.53.61,2.29.25.94.46,1.89.62,2.84a11.47,11.47,0,0,1,.19,1.93,6.43,6.43,0,0,1-1.57,4.3A2.08,2.08,0,0,1,324.84,496.39Z"/><path class="cls-5" d="M321,487.42a7.47,7.47,0,0,1-1.33,1.11,4.5,4.5,0,0,1-1.78.58,3.89,3.89,0,0,1-2.16-.28,2.34,2.34,0,0,1-1.32-1.65c0-.11,0-.21,0-.31a3.15,3.15,0,0,1,.92-2,9.86,9.86,0,0,1,4-2.36c1.15-.41,3-1.14,4.35-.8a2,2,0,0,1,.58.23c1.25.73-.58,2.63-1.12,3.25C322.46,486,321.71,486.69,321,487.42Z"/><path class="cls-5" d="M325.38,482.23a10.26,10.26,0,0,1-6-.76,8.31,8.31,0,0,1-2.72-1.94,3.46,3.46,0,0,1-.8-1.27,2.77,2.77,0,0,1,0-1.43,3.63,3.63,0,0,1,.61-1.41,4.25,4.25,0,0,1,1.94-1.51l.24-.09a3.61,3.61,0,0,1,1.22-.18,4.35,4.35,0,0,1,1.58.41,7.84,7.84,0,0,1,3.08,2.63,11.39,11.39,0,0,1,1.72,4C326.32,481.44,326.14,482.08,325.38,482.23Z"/><path class="cls-18" d="M325.37,485.93a1.63,1.63,0,0,1-1.06-.52,4.81,4.81,0,0,1-1.18-1.45,2,2,0,0,1,0-1.64,5.24,5.24,0,0,1,1.39-1.82,1.66,1.66,0,0,1,.74-.49,1.22,1.22,0,0,1,.81.13,4.33,4.33,0,0,1,1.23,1l.05.05a2.07,2.07,0,0,1,.69,1.14,2,2,0,0,1-.32,1.16,9.25,9.25,0,0,1-1.26,1.78A1.66,1.66,0,0,1,325.37,485.93Z"/><path class="cls-19" d="M325.37,485.93a1.63,1.63,0,0,1-1.06-.52,4.81,4.81,0,0,1-1.18-1.45,6.47,6.47,0,0,0,1.32,0,3.21,3.21,0,0,0,2.29-1.62,6.88,6.88,0,0,1,.61-1.14,2.07,2.07,0,0,1,.69,1.14,2,2,0,0,1-.32,1.16,9.25,9.25,0,0,1-1.26,1.78A1.66,1.66,0,0,1,325.37,485.93Z"/><path class="cls-24" d="M311.9,525.44s9.82-9.45,8.5-17.11c0,0-5.51,10.41-8.5,12.57,0,0,6.94-15.2,5.63-21.31,0,0-5.39,16.4-11.13,21.07,0,0,8.61-25.62,1.79-36.51,0,0,0,19.87-6.46,33.39,0,0,1.91-34.7-10.41-41.4,0,0,7.66,19.62,6.46,41.17,0,0-3.47-20.23-9.57-25.14,0,0,5.5,19.75,4.06,26.09,0,0-3.47-11.25-10.17-13.64,0,0,7.3,10.17,5.75,20.82Z"/><path class="cls-24" d="M300,533.7l-2-.39c7.19-36.79,6.56-56.41,4.76-66.4-1.94-10.77-5.58-12.88-5.61-12.9h0l.91-1.84c.45.22,4.42,2.46,6.58,13.65,1.25,6.48,1.64,14.71,1.17,24.48A312.27,312.27,0,0,1,300,533.7Z"/><path class="cls-19" d="M301.42,444.09c-1.24-2.93-3.16-6-6.51-7.3a5.35,5.35,0,0,0-4.65.15,4.48,4.48,0,0,0-1.67,2.53,17.09,17.09,0,0,0,.61,11.37,15,15,0,0,0,3.31,5.3,17.51,17.51,0,0,0,6.86,4,5,5,0,0,0,2,.34,2.9,2.9,0,0,0,2.2-1.48C305.83,454.92,303.17,448.21,301.42,444.09Z"/><path class="cls-18" d="M305.49,443.29a11.06,11.06,0,0,0-.75-4.13,4.6,4.6,0,0,0-8-1.12,11.8,11.8,0,0,0-2.18,4.59c-.73,2.43-1.39,5-.88,7.47a16.65,16.65,0,0,0,2.2,5c1.36,2.34,6.34,8.35,8.05,3.1C305.43,453.55,305.67,448.17,305.49,443.29Z"/><polygon class="cls-11" points="282.96 531.61 279.63 520.48 317.84 523.52 313.81 534.26 282.96 531.61"/><path class="cls-24" d="M278.14,520.6l41.12,4a1.33,1.33,0,0,0,1.44-1.09l.67-3.78a1.33,1.33,0,0,0-1.17-1.56L278.41,514a1.33,1.33,0,0,0-1.47,1.32v4A1.33,1.33,0,0,0,278.14,520.6Z"/><path class="cls-16" d="M113.11,330.78c.24,4.48-.89,17.79-.93,32.71h0c0,21,5.25,41.7,13.21,52.25,13,17.19,44.11,37.9,44.11,37.9s7.21,16.18,16.14,13.05,13.63-6.31,12.21-13.33-18.51-7.47-23.32-11.14-34.94-38.18-37.89-48.4c-1.34-4.6-1-19.48-.19-34.4h0C137.43,341.27,139,323,139,323s1.1-18.07-9.57-18.31S112.54,320,113.11,330.78Z"/><path class="cls-5" d="M139.05,322.61l.13,29.05a1.72,1.72,0,0,1-2.09,1.84c-7.92-2.51-18.27.9-23,2.77a1.76,1.76,0,0,1-2.24-2c.58-6.09,1.77-19.27,1.55-22.06-1-12.15,4.76-29.93,15.43-30S139.05,322.61,139.05,322.61Z"/><path class="cls-19" d="M418.55,562.83l-25.6,38a28.83,28.83,0,0,1-26.35,12.6l-81.7-7-7.4-42.46a46,46,0,0,0-11.28-24.13l-7.64-8.5-56.42-62.8a31.91,31.91,0,0,0-21-10.49l-36.31-3.12a6.74,6.74,0,0,1-6.13-7.29,6.73,6.73,0,0,1,6-6.11,6.45,6.45,0,0,1,1.32,0l34.79,3,9.17.79a23.85,23.85,0,0,1,15.48,7.6l63.37,68.94a39.33,39.33,0,0,0,25.62,12.59l115.27,9.91A11.94,11.94,0,0,1,418.55,562.83Z"/><path class="cls-7" d="M181.13,458l-36.31-3.12a6.74,6.74,0,0,1-6.13-7.29,6.73,6.73,0,0,1,6-6.11,6.45,6.45,0,0,1,1.32,0l34.79,3c.13.16.26.3.37.45C186.58,452.29,181.13,458,181.13,458Z"/><path class="cls-23" d="M118.44,408.12S128.1,504.24,131,560.74s10.12,88.52,10.12,88.52l-16.65,1.9S98.55,572,99.81,551.88s-30-98.68-21.4-122.75S118.44,408.12,118.44,408.12Z"/><path class="cls-22" d="M16.74,646.93H33.5S71.62,574.7,76.91,545.58s13.51-68.46,21-94,11.43-18.41,21.14-41.35-8-59.54,9.21-80.27c13.36-16.09,10-26.87,0-34l0,0a47.57,47.57,0,0,0-10.05-5.26L101.42,284s-22.27,8.87-31.53,25.08-10,27.39-10,42.23c0,15.24-15,27.33-16.35,63S53.29,543.14,46.59,555C39.64,567.2,16.74,646.93,16.74,646.93Z"/><path class="cls-21" d="M112.52,353.33l-13.74-4.39a2.61,2.61,0,0,0-3.26,1.64c-3.26,9.69-13.94,45.51,4.13,52.51s12.22-10.34,14.68-47.11A2.61,2.61,0,0,0,112.52,353.33Z"/><path class="cls-20" d="M131.21,564.5,100.45,568l19.24,81.55a5.85,5.85,0,0,1-.38,3.62,16.5,16.5,0,0,0-.8,9.88,3.34,3.34,0,0,0,3.67,2.67l37.92,0a1.85,1.85,0,0,0,.84-3.37c-3.7-2.52-9-4.54-16.13-9.69-1.89-1.36-3.89-5.21-4.16-7.53Z"/><path class="cls-21" d="M69.83,572.79,41.17,564.5,16.3,639a5.75,5.75,0,0,1-1.73,3.19A16.6,16.6,0,0,0,10,651a3.35,3.35,0,0,0,2.36,3.88l37.36,10.81a1.85,1.85,0,0,0,2.07-2.78,56.36,56.36,0,0,0-12.5-13.8,5.67,5.67,0,0,1-2-6.09Z"/><path class="cls-5" d="M117.08,325.51c17.2-1.82,11.2-29.55,11.2-29.55v0l0,0a47.57,47.57,0,0,0-10.05-5.26L101.42,284C97.18,294.85,99.88,327.33,117.08,325.51Z"/><path class="cls-16" d="M155.14,258.52a44,44,0,0,1-.35,6.12c-2.86,23.82-32.19,12.57-32.19,12.57l-4.41,13.45s-10.59.88-16.76-6.62c0,0,3.33-21.62,10.75-36.28.73-1.43,1.49-2.8,2.29-4.07h0c3.12-4.94,6.84-8.48,11.2-9.05,13.73-1.78,26.17,3.36,28.91,18A33.71,33.71,0,0,1,155.14,258.52Z"/><path class="cls-19" d="M257.65,602.64l-1.77,38a11.55,11.55,0,0,0,17.23,11l50.27-42.51a3.77,3.77,0,0,0,1.57-4.83l-4-8.86a3.77,3.77,0,0,0-5.46-1.63L276.61,632.3a3.78,3.78,0,0,1-5.79-3.51l1.47-34.37a3.77,3.77,0,0,0-6.7-2.69l-7.12,8.88A3.79,3.79,0,0,0,257.65,602.64Z"/><path class="cls-7" d="M124.39,257.38s-.33-5.45-4.61-4.45a4.62,4.62,0,0,0-2.4,7.45,1.23,1.23,0,0,1-.5,2c-2.64,1-7.22,2.06-10.1-.92,0,0-2.61-9.82,5.4-13.68S142,255.22,142,255.22s-10.29-.09-11.2,7.28,4.52,12.05,7.32,10.41,9.89-5.61,15.3-2.64-7.17,18.91-16.33,17C128.17,285.45,115.84,282.11,124.39,257.38Z"/><path class="cls-18" d="M439.05,562.83l-25.6,38a28.83,28.83,0,0,1-26.35,12.6l-115.19-9.91-14.23-1.22-7.4-42.46A45.9,45.9,0,0,0,239,535.67l-57.34-63.74a31.92,31.92,0,0,0-21-10.48l-36.3-3.12a6.73,6.73,0,1,1,1.15-13.42l34,2.92,10,.86c.82.07,1.64.18,2.44.33a23.73,23.73,0,0,1,13,7.27l7.24,7.86,49.42,53.51a39.35,39.35,0,0,0,25.62,12.59L377,539.69l53.22,4.57A11.94,11.94,0,0,1,439.05,562.83Z"/><path class="cls-7" d="M160.62,461.45l-36.3-3.12a6.73,6.73,0,1,1,1.15-13.42l34,2.92C165.29,453.73,160.62,461.45,160.62,461.45Z"/><path class="cls-16" d="M145,466.62c-8.92,3.16-16.17-13-16.17-13S97.62,433,84.61,415.85c-8-10.53-13.35-31.22-13.36-52.21h0c0-4.12.08-8.12.2-11.84h0c.3-9.77.82-17.63.64-20.87-.6-10.76,5.61-26.31,16.28-26.11S98,323.09,98,323.09s-1,12.32-1.94,26.79c-.19,3.14-.37,6.38-.53,9.61h0c-.75,14.92-1.07,29.8.28,34.4,3,10.21,33.21,44.64,38,48.29s21.92,4.05,23.36,11.07S153.93,463.46,145,466.62Z"/><path class="cls-21" d="M155.15,252.69c-4.33.61-9.9,0-15.52-1.19a157.65,157.65,0,0,1-21.4-6.36h0c-2.24-.84-3.63-1.4-3.74-1.44h0a28.35,28.35,0,0,1,2.15-5c5.79-10.35,16.28-9.89,28.71-6.29a11.62,11.62,0,0,1,4.18,2.18C156.45,240.23,155.15,252.69,155.15,252.69Z"/><path class="cls-18" d="M121.67,243.69c-.69,1.44-2.07,1.67-3.44,1.45h0a12.41,12.41,0,0,1-3.74-1.44h0a28.35,28.35,0,0,1,2.15-5h0S123.32,240.27,121.67,243.69Z"/><path class="cls-5" d="M155.15,252.69c-4.33.61-9.9,0-15.52-1.19-.84-.78-.62-1.95-.63-3.1,0-2.17,0-4.32,0-6.49a8.33,8.33,0,0,1,.36-3,5.79,5.79,0,0,1,1.69-2.21,10.14,10.14,0,0,1,6.49-2.33,9.88,9.88,0,0,1,2,.2,13.16,13.16,0,0,1,3.5,4.57,24.09,24.09,0,0,1,2.13,8.63A29.71,29.71,0,0,1,155.15,252.69Z"/><path class="cls-10" d="M166.65,261.39l-11.51-2.87-43-10.76c.73-1.43,1.49-2.8,2.29-4.07h0s30,7.56,40.11,8.93l.56.07c5.52.67,10,3.83,12.74,6.39A1.35,1.35,0,0,1,166.65,261.39Z"/><path class="cls-7" d="M155.15,247.78a7.63,7.63,0,0,1-4,.25,6.09,6.09,0,0,1-1.63-.82,4.41,4.41,0,0,1-1.62-1.56,4.11,4.11,0,0,1-.38-1.41,5,5,0,0,1,.21-2.4,4,4,0,0,1,2.25-2.13,8.75,8.75,0,0,1,3-.56A24.09,24.09,0,0,1,155.15,247.78Z"/><path class="cls-5" d="M98,323.09l-.7,25.65a1.67,1.67,0,0,1-2.14,1.57c-7.85-2.41-18.29.34-23.06,1.88a1.68,1.68,0,0,1-2.17-1.83c.75-5.37,2.31-17,2.17-19.44-.6-10.76,5.61-26.31,16.28-26.11S98,323.09,98,323.09Z"/><path class="cls-19" d="M439.05,562.83l-25.6,38a28.83,28.83,0,0,1-26.35,12.6l-115.19-9.91s94.85-4.31,105-63.79l53.22,4.57A11.94,11.94,0,0,1,439.05,562.83Z"/><circle class="cls-7" cx="390.37" cy="633.67" r="32.7" transform="translate(-337.4 789.46) rotate(-70.45)"/><circle class="cls-24" cx="390.37" cy="633.67" r="20.19" transform="translate(-304.86 367.99) rotate(-37.45)"/><circle class="cls-5" cx="390.37" cy="633.67" r="10.5" transform="translate(-315.49 397.68) rotate(-39.88)"/><g class="cls-14"><ellipse class="cls-7" cx="387.37" cy="636.67" rx="3.97" ry="5.2" transform="translate(-357.53 613.57) rotate(-56.91)"/></g><path class="cls-7" d="M394.33,618.63c-.19,1.57-2.11,2.74-4.3,2.6s-3.8-1.52-3.62-3.09,2.12-2.73,4.3-2.6S394.52,617.06,394.33,618.63Z"/><path class="cls-7" d="M394.33,649.2c-.19,1.57-2.11,2.73-4.3,2.6s-3.8-1.52-3.62-3.09,2.12-2.73,4.3-2.6S394.52,647.63,394.33,649.2Z"/><path class="cls-7" d="M403.8,625.84c-1.24,1-3.42.44-4.87-1.21s-1.62-3.76-.38-4.74,3.43-.44,4.88,1.2S405.05,624.86,403.8,625.84Z"/><path class="cls-7" d="M382.19,647.45c-1.24,1-3.43.44-4.88-1.2s-1.61-3.77-.37-4.74,3.43-.44,4.88,1.2S383.43,646.47,382.19,647.45Z"/><path class="cls-7" d="M405.41,637.63c-1.57-.19-2.73-2.11-2.6-4.3s1.52-3.8,3.09-3.62,2.73,2.12,2.6,4.3S407,637.82,405.41,637.63Z"/><path class="cls-7" d="M374.84,637.63c-1.57-.19-2.73-2.11-2.6-4.3s1.52-3.8,3.09-3.62,2.74,2.12,2.6,4.3S376.41,637.82,374.84,637.63Z"/><path class="cls-7" d="M398.21,647.1c-1-1.24-.44-3.42,1.2-4.87s3.76-1.62,4.74-.38.44,3.43-1.2,4.88S399.19,648.35,398.21,647.1Z"/><ellipse class="cls-7" cx="379.56" cy="622.86" rx="3.97" ry="2.85" transform="translate(-329.26 450.83) rotate(-45)"/><path class="cls-16" d="M151.21,275.78a1.19,1.19,0,0,0-.71-1.77,6.45,6.45,0,0,0-6.18,1.24c-2.64,2.4,2,3.3,3.69,3.55a1.18,1.18,0,0,0,1-.33A14.14,14.14,0,0,0,151.21,275.78Z"/><path class="cls-16" d="M134.28,442.76s11.27,2.05,14.55,1.09,3.44,5-3,5.2S133.25,447.12,134.28,442.76Z"/><path class="cls-16" d="M167.19,437.56s11.17,5.37,13.57,6.87.27,3.53-2.85,3.83c-1.86.18-4.11-1-5.62-2a4.31,4.31,0,0,0-3.68-.5c-3,1-11.39-.9-15-3.63C148.49,438.3,159.55,432.31,167.19,437.56Z"/><path class="cls-7" d="M1035.63,604.63c-.27,1.23-.54,2.46-.8,3.69a21,21,0,0,1,.77-3.6Z"/><path class="cls-7" d="M1041,583.92a3,3,0,0,1,0-2.28,4.42,4.42,0,0,1,1.13-1.45C1041.74,581.42,1041.37,582.67,1041,583.92Z"/><rect class="cls-24" y="665.76" width="1366" height="102.24"/><path class="cls-27" d="M509.23,682.37c-6.46,2-15,2.1-22.9,2.1H84.77c-8.63,0-19.21-.54-22.54-4-5.94-6.25,13.08-11.27,31.15-14.68H508.94a22.42,22.42,0,0,1,6.34,3.86C519.9,673.88,518,679.64,509.23,682.37Z"/><path class="cls-27" d="M1111.1,682.37c-4,2-9.26,2.1-14.16,2.1H848.56c-5.34,0-11.88-.54-13.94-4-3.68-6.25,8.09-11.27,19.26-14.68h257a15.06,15.06,0,0,1,3.93,3.86C1117.7,673.88,1116.51,679.64,1111.1,682.37Z"/><path class="cls-28" d="M40.06,715.35l-8.53-16.7c-1.13-2.22-4.58-.28-3.45,1.94l8.53,16.7C37.74,719.51,41.19,717.56,40.06,715.35Z"/><path class="cls-28" d="M56.64,717.92c-.08-2.46-4.08-2.47-4,0a49.09,49.09,0,0,1-.85,11c-.47,2.41,3.39,3.45,3.86,1A54.11,54.11,0,0,0,56.64,717.92Z"/><path class="cls-28" d="M80.92,710.37c-.64-2.39-4.5-1.38-3.85,1a17.87,17.87,0,0,1,.61,4.93c0,2.47,4,2.47,4,0A21.74,21.74,0,0,0,80.92,710.37Z"/><path class="cls-28" d="M117.07,706.06A123.74,123.74,0,0,1,109.7,692c-1-2.26-4.46-.31-3.46,1.94A126.32,126.32,0,0,0,113.62,708C114.92,710.13,118.37,708.2,117.07,706.06Z"/><path class="cls-28" d="M140.66,714.4v7c0,2.47,4,2.47,4,0v-7C144.66,711.93,140.66,711.93,140.66,714.4Z"/><path class="cls-28" d="M169.32,677.6a2,2,0,0,0-2,1.92l-.66,6.08c-.12,1,1,1.92,2,1.92a2,2,0,0,0,2-1.92l.66-6.08C171.44,678.49,170.32,677.6,169.32,677.6Z"/><path class="cls-28" d="M201.56,710.05a99.82,99.82,0,0,0-5.64-17c-1-2.25-4.85-1.27-3.85,1a100.12,100.12,0,0,1,5.64,17C198.27,713.48,202.13,712.46,201.56,710.05Z"/><path class="cls-28" d="M195.91,747.49l-3-7.68c-.89-2.29-4.76-1.3-3.85,1l3,7.68C193,750.8,196.82,749.81,195.91,747.49Z"/><path class="cls-28" d="M239.65,726.88v12.48c0,2.47,4,2.47,4,0V726.88C243.65,724.41,239.65,724.41,239.65,726.88Z"/><path class="cls-28" d="M233.65,699.68a43.74,43.74,0,0,1-2,9.38c-.78,2.36,3.08,3.37,3.86,1a48.72,48.72,0,0,0,2.17-10.4C237.9,697.22,233.9,697.24,233.65,699.68Z"/><path class="cls-28" d="M270.37,687.83a94.69,94.69,0,0,1-5.67-9.28c-1.17-2.2-4.63-.26-3.45,1.94a95.89,95.89,0,0,0,5.67,9.28C268.33,691.82,271.8,689.9,270.37,687.83Z"/><path class="cls-28" d="M299,715q-.78,4-1.55,7.91c-.47,2.42,3.38,3.45,3.85,1q.78-3.95,1.55-7.91C303.33,713.56,299.48,712.52,299,715Z"/><path class="cls-28" d="M352.8,708.24l-1.5,15.84c-.23,2.46,3.77,2.45,4,0l1.5-15.84C357,705.78,353,705.8,352.8,708.24Z"/><path class="cls-28" d="M326.73,683.25l-.75-4.32a2,2,0,0,0-2.46-1.34,2,2,0,0,0-1.4,2.36l.75,4.32a2,2,0,0,0,2.46,1.34A2,2,0,0,0,326.73,683.25Z"/><path class="cls-28" d="M338.73,736.53,335,724.29c-.72-2.37-4.59-1.36-3.86,1l3.75,12.24C335.6,739.92,339.46,738.91,338.73,736.53Z"/><path class="cls-28" d="M396.61,708a46.89,46.89,0,0,0-6.31,14.82c-.57,2.4,3.29,3.43,3.85,1a43.57,43.57,0,0,1,5.92-13.9C401.43,707.85,398,705.92,396.61,708Z"/><path class="cls-28" d="M457.13,737.28q-2.62-7.56-5.24-15.13c-.81-2.33-4.68-1.33-3.86,1l5.25,15.12C454.09,740.63,458,739.63,457.13,737.28Z"/><path class="cls-28" d="M502.78,711.64A9,9,0,0,1,499,708c-1.22-2.17-4.67-.24-3.45,1.94a12.92,12.92,0,0,0,5.19,5C503,716.16,505,712.84,502.78,711.64Z"/><path class="cls-28" d="M463,699.35a66.93,66.93,0,0,1-5.79-11.06c-.93-2.28-4.8-1.29-3.86,1a71.57,71.57,0,0,0,6.2,12C460.91,703.38,464.38,701.46,463,699.35Z"/><path class="cls-28" d="M559.35,690.74l-6,10.1c-1.27,2.15,2.18,4.09,3.46,1.94l6-10.1C564.08,690.53,560.63,688.59,559.35,690.74Z"/><path class="cls-28" d="M595,732.45l-6.76-10.79c-1.32-2.12-4.78-.19-3.45,1.94l6.76,10.79C592.9,736.51,596.36,734.58,595,732.45Z"/><path class="cls-28" d="M530,741.19l2.79-12.43c.54-2.43-3.27-3.49-3.82-1l-2.79,12.43C525.59,742.58,529.41,743.64,530,741.19Z"/><path class="cls-28" d="M621.7,715.35l-8.53-16.7c-1.14-2.22-4.59-.28-3.46,1.94l8.53,16.7C619.38,719.51,622.83,717.56,621.7,715.35Z"/><path class="cls-28" d="M690.92,732.43c-.08-2.46-4.08-2.47-4,0a49.1,49.1,0,0,1-.86,11c-.47,2.41,3.39,3.45,3.86,1A53.53,53.53,0,0,0,690.92,732.43Z"/><path class="cls-28" d="M662.56,710.37c-.65-2.39-4.5-1.38-3.86,1a17.87,17.87,0,0,1,.61,4.93c0,2.47,4,2.47,4,0A21.73,21.73,0,0,0,662.56,710.37Z"/><path class="cls-28" d="M698.7,706.06A123.74,123.74,0,0,1,691.33,692c-1-2.26-4.46-.31-3.46,1.94A126.32,126.32,0,0,0,695.25,708C696.55,710.13,700,708.2,698.7,706.06Z"/><path class="cls-28" d="M722.29,714.4v7c0,2.47,4,2.47,4,0v-7C726.29,711.93,722.29,711.93,722.29,714.4Z"/><path class="cls-28" d="M751,677.6a2,2,0,0,0-2,1.92l-.66,6.08c-.12,1,1,1.92,2,1.92a2,2,0,0,0,2-1.92l.66-6.08C753.07,678.49,752,677.6,751,677.6Z"/><path class="cls-28" d="M783.19,710.05a99.82,99.82,0,0,0-5.64-17c-1-2.25-4.84-1.27-3.85,1a100.12,100.12,0,0,1,5.64,17C779.91,713.48,783.76,712.46,783.19,710.05Z"/><path class="cls-28" d="M777.55,747.49l-3-7.68c-.9-2.29-4.77-1.3-3.86,1l3,7.68C774.59,750.8,778.45,749.81,777.55,747.49Z"/><path class="cls-28" d="M821.28,726.88v12.48c0,2.47,4,2.47,4,0V726.88C825.28,724.41,821.28,724.41,821.28,726.88Z"/><path class="cls-28" d="M815.28,699.68a43.74,43.74,0,0,1-2,9.38c-.77,2.36,3.09,3.37,3.86,1a48.11,48.11,0,0,0,2.17-10.4C819.53,697.22,815.53,697.24,815.28,699.68Z"/><path class="cls-28" d="M852,687.83a94.6,94.6,0,0,1-5.66-9.28c-1.18-2.2-4.63-.26-3.46,1.94a95.89,95.89,0,0,0,5.67,9.28C850,691.82,853.43,689.9,852,687.83Z"/><path class="cls-28" d="M880.64,715c-.52,2.64-1,5.28-1.55,7.91-.47,2.42,3.38,3.45,3.86,1,.51-2.63,1-5.27,1.54-7.91C885,713.56,881.11,712.52,880.64,715Z"/><path class="cls-28" d="M934.43,708.24l-1.5,15.84c-.23,2.46,3.77,2.45,4,0l1.5-15.84C938.66,705.78,934.66,705.8,934.43,708.24Z"/><path class="cls-28" d="M908.18,685.05l-.75-4.32a2,2,0,0,0-2.46-1.34,2,2,0,0,0-1.39,2.36l.75,4.32a2,2,0,0,0,2.46,1.34A2,2,0,0,0,908.18,685.05Z"/><path class="cls-28" d="M920.36,736.53l-3.75-12.24c-.72-2.37-4.58-1.36-3.85,1l3.75,12.24C917.23,739.92,921.09,738.91,920.36,736.53Z"/><path class="cls-28" d="M978.24,708a46.89,46.89,0,0,0-6.31,14.82c-.56,2.4,3.29,3.43,3.85,1A43.79,43.79,0,0,1,981.7,710C983.06,707.85,979.6,705.92,978.24,708Z"/><path class="cls-28" d="M1038.77,737.28l-5.25-15.13c-.81-2.33-4.67-1.33-3.86,1l5.25,15.12C1035.72,740.63,1039.58,739.63,1038.77,737.28Z"/><path class="cls-28" d="M1084.41,711.64a9.09,9.09,0,0,1-3.76-3.66c-1.22-2.17-4.67-.24-3.45,1.94a12.92,12.92,0,0,0,5.19,5C1084.65,716.16,1086.67,712.84,1084.41,711.64Z"/><path class="cls-28" d="M1044.65,699.35a66.23,66.23,0,0,1-5.8-11.06c-.93-2.28-4.8-1.29-3.86,1a72.33,72.33,0,0,0,6.2,12C1042.55,703.38,1046,701.46,1044.65,699.35Z"/><path class="cls-28" d="M1141,690.74l-6,10.1c-1.28,2.15,2.18,4.09,3.45,1.94l6-10.1C1145.71,690.53,1142.26,688.59,1141,690.74Z"/><path class="cls-28" d="M1176.66,732.45l-6.76-10.79c-1.32-2.12-4.78-.19-3.45,1.94l6.76,10.79C1174.53,736.51,1178,734.58,1176.66,732.45Z"/></g></svg>