<svg xmlns="http://www.w3.org/2000/svg" viewBox="0 0 500 500"><defs><style>.cls-1{fill:#e6f4f4;}.cls-2{fill:#b08fcc;}.cls-3{fill:#0d7f99;}.cls-4{fill:#d8a87c;}.cls-5{fill:#906fb2;}.cls-6{fill:#0d6472;}.cls-7{fill:#ce915f;}</style></defs><g id="Layer_1" data-name="Layer 1"><rect class="cls-1" width="500" height="500"/><ellipse class="cls-2" cx="108.5" cy="190.91" rx="50.43" ry="53.34"/><ellipse class="cls-3" cx="252.18" cy="200.89" rx="50.43" ry="53.34"/><path class="cls-3" d="M292,244.94a55.31,55.31,0,0,1-79.69,0c-31.34,12.83-53.4,42.32-53.4,76.43v41.82H345.42V321.37C345.42,287.26,323.36,257.77,292,244.94Z"/><path class="cls-2" d="M180,256.86A89,89,0,0,0,148.34,235a55.31,55.31,0,0,1-79.69,0c-31.34,12.83-53.4,42.31-53.4,76.42v41.83H151.67V321.37C151.67,296.68,162.2,273.63,180,256.86Z"/><ellipse class="cls-4" cx="391.5" cy="190.14" rx="50.43" ry="53.34"/><path class="cls-4" d="M431.35,234.2a55.31,55.31,0,0,1-79.69,0,89.13,89.13,0,0,0-30,20.18c19.45,16.94,31.05,41.06,31.05,67v31.08H484.75V310.63C484.75,276.51,462.69,247,431.35,234.2Z"/><path class="cls-5" d="M121,237a4,4,0,0,1-1.31-7.78c16.22-5.65,27.2-20.62,27.31-37.25.12-18.46-13.28-34.9-31.88-39.07a4,4,0,1,1,1.76-7.8c22.23,5,38.27,24.72,38.12,46.93-.13,20-13.27,38-32.69,44.75A4,4,0,0,1,121,237Z"/><path class="cls-6" d="M265,247a4,4,0,0,1-1.31-7.78c16.22-5.65,27.2-20.62,27.31-37.25.12-18.46-13.28-34.9-31.88-39.07a4,4,0,0,1,1.76-7.8c22.23,5,38.27,24.72,38.12,46.93-.13,20-13.27,38-32.69,44.75A4,4,0,0,1,265,247Z"/><path class="cls-7" d="M401,236a4,4,0,0,1-1.31-7.78c16.22-5.65,27.2-20.62,27.31-37.25.12-18.46-13.28-34.9-31.88-39.07a4,4,0,0,1,1.76-7.8c22.23,5,38.27,24.72,38.12,46.93-.13,20-13.27,38-32.69,44.75A4,4,0,0,1,401,236Z"/></g></svg>