<svg id="Layer_1" data-name="Layer 1" xmlns="http://www.w3.org/2000/svg" viewBox="0 0 500 500"><defs><style>.cls-1{fill:#7cb8dd;}.cls-2{fill:#f2f2f2;}.cls-3{fill:#ccc;}.cls-4{fill:#fff;}.cls-5{fill:#b3b3b3;}.cls-6{fill:#666;}.cls-7{fill:#cd92e8;}.cls-8{fill:#9166af;}</style></defs><rect class="cls-1" width="500" height="500"/><g id="ASHP"><rect class="cls-2" x="64.83" y="127.34" width="391.65" height="255.33"/><rect class="cls-3" x="43.39" y="122.81" width="413.08" height="11.02"/><rect class="cls-4" x="34.87" y="117.33" width="430.26" height="19.47" rx="1.2"/><rect class="cls-3" x="339.63" y="165.41" width="95.21" height="189.13" rx="32.48"/><rect class="cls-5" x="348.28" y="185.76" width="77.9" height="8.66" rx="0.53"/><rect class="cls-5" x="348.28" y="326.41" width="77.9" height="8.66" rx="0.53"/><rect class="cls-5" x="348.28" y="302.97" width="77.9" height="8.66" rx="0.53"/><rect class="cls-5" x="348.28" y="279.53" width="77.9" height="8.66" rx="0.53"/><rect class="cls-5" x="348.28" y="256.09" width="77.9" height="8.66" rx="0.53"/><rect class="cls-5" x="348.28" y="232.64" width="77.9" height="8.66" rx="0.53"/><rect class="cls-5" x="348.28" y="209.2" width="77.9" height="8.66" rx="0.53"/><circle class="cls-6" cx="195.27" cy="260.04" r="91.39"/><path class="cls-2" d="M263.57,259.76c-15.44-19.26-50.2-10.71-63.82-2.84.07-1.39.2-3.08.47-5.18.71-5.33,2.19-16.52,8.22-24.64,6.7-9,14.95-6.27,19.16-15.06A20,20,0,0,0,229,199.72c-2.77-12-18.4-18.67-30.11-19.17-15.63-.66-31.6,9.5-37,23.28-9.58,24.6,19.47,52.47,32.14,58.08-1.32.42-3.51,2.12-8.95,4.37-5,2.05-15.4,6.36-25.45,5.2-11.18-1.28-12.91-9.81-22.62-9.07a20.16,20.16,0,0,0-11.36,5c-9,8.38-7,25.27-1.54,35.66,7.24,13.86,24,22.62,38.64,20.38,27.35-4.19,36.58-46.91,33.93-58.65a59.23,59.23,0,0,1,6.23,4.22c4.26,3.27,13.21,10.15,17.23,19.43,4.48,10.33-2,16.09,3.46,24.13a20.05,20.05,0,0,0,10,7.34c11.75,3.58,25.37-6.6,31.66-16.5C273.62,290.2,272.81,271.3,263.57,259.76Z"/><circle class="cls-7" cx="195.3" cy="261.06" r="17.88"/><circle class="cls-8" cx="195.3" cy="261.06" r="12.51"/><rect class="cls-3" x="103.77" y="233.03" width="183.92" height="5"/><rect class="cls-3" x="118.92" y="191.92" width="153.63" height="5"/><rect class="cls-3" x="103.77" y="274.14" width="183.92" height="5"/><rect class="cls-3" x="118.92" y="315.25" width="153.63" height="5"/><rect class="cls-3" x="133.73" y="177.11" width="5" height="159.76"/><rect class="cls-3" x="192.15" y="164.12" width="5" height="192.58"/><rect class="cls-3" x="250.58" y="181.43" width="5" height="155.43"/><path class="cls-4" d="M195.51,363A102.74,102.74,0,1,1,298.25,260.28,102.86,102.86,0,0,1,195.51,363Zm0-194.48a91.74,91.74,0,1,0,91.74,91.74A91.84,91.84,0,0,0,195.51,168.54Z"/><rect class="cls-3" x="43.39" y="131.33" width="21.3" height="251.34"/></g></svg>