<svg id="Layer_1" data-name="Layer 1" xmlns="http://www.w3.org/2000/svg" viewBox="0 0 746.39 1252.44"><defs><style>.cls-1{opacity:0.9;}.cls-2{fill:#caeded;}.cls-3{fill:#a3d3d1;}.cls-4{fill:#83c0c6;}.cls-5{fill:#4b94a0;}.cls-6{fill:#2f7084;}.cls-7{fill:#27647b;}.cls-8{fill:#024557;}</style></defs><g class="cls-1"><path class="cls-2" d="M620.21,766.56c-.32-49.65-.63-99.3,29.18-137.43s89.58-64.61,110.4-107.9S762.31,418,783,375.86s80.12-66.2,136.11-80.24,108.51-17.87,153.46-41.57,82.49-67.12,130.28-89.5,105.83-23.43,163.71-24.49v626.5Z" transform="translate(-620.14 -140.06)"/><path class="cls-3" d="M726.82,766.56c-.31-42.5-.47-85.13,25.08-117.83s76.65-55.35,94.48-92.42,2.36-88.44,20-124.58S935,374.93,983,362.88s93-15.36,131.54-35.61c38.64-20.26,70.81-57.6,111.66-76.66,41-19.2,90.69-20.12,140.37-21.05v537Z" transform="translate(-620.14 -140.06)"/><path class="cls-4" d="M833.44,766.56c-.16-35.48-.47-71,20.82-98.11s64-46.2,78.86-77.05,1.89-73.75,16.56-103.93c14.83-30.06,57.25-47.27,97.31-57.33,39.91-10.06,77.44-12.71,109.62-29.66,32-16.94,58.83-47.92,93.05-63.94,34.07-15.89,75.55-16.69,116.87-17.48v447.5Z" transform="translate(-620.14 -140.06)"/><path class="cls-5" d="M940.06,766.56c-.16-28.33-.32-56.8,16.72-78.51s51.1-36.94,63.08-61.7c11.83-24.62,1.42-58.92,13.25-83s45.74-37.87,77.76-45.94,62-10.2,87.69-23.7,47.16-38.4,74.44-51.11,60.41-13.37,93.53-14v358Z" transform="translate(-620.14 -140.06)"/><path class="cls-6" d="M1046.68,766.56c-.16-21.32-.32-42.5,12.46-58.92s38.48-27.67,47.31-46.2c9-18.54,1.11-44.22,9.94-62.36s34.38-28.34,58.35-34.43,46.53-7.54,65.77-17.74,35.33-28.73,55.83-38.39,45.43-10.06,70.19-10.46v268.5Z" transform="translate(-620.14 -140.06)"/><path class="cls-7" d="M1153.29,766.56c-.15-14.17-.15-28.33,8.36-39.32s25.55-18.41,31.55-30.72c5.83-12.44.79-29.52,6.62-41.57s22.87-18.93,38.8-22.91c16.09-4.1,31.07-5.16,43.85-11.91,12.93-6.75,23.65-19.2,37.22-25.55s30.28-6.76,46.84-7v179Z" transform="translate(-620.14 -140.06)"/><path class="cls-8" d="M1259.91,766.56c0-7.15-.16-14.17,4.1-19.6s12.94-9.26,15.77-15.49c3-6.09.48-14.69,3.32-20.78,3-6,11.51-9.4,19.55-11.39,7.89-2,15.46-2.51,21.93-6,6.31-3.44,11.67-9.53,18.61-12.84,6.78-3.18,15.14-3.31,23.34-3.44v89.5Z" transform="translate(-620.14 -140.06)"/></g><g class="cls-1"><path class="cls-2" d="M620.21,766c-.32,49.65-.63,99.3,29.18,137.43S739,968,759.79,1011.33,762.31,1114.6,783,1156.7s80.12,66.2,136.11,80.23,108.51,17.88,153.46,41.58,82.49,67.12,130.28,89.5,105.83,23.43,163.71,24.49V766Z" transform="translate(-620.14 -140.06)"/><path class="cls-3" d="M726.82,766c-.31,42.5-.47,85.13,25.08,117.83s76.65,55.34,94.48,92.42,2.36,88.44,20,124.58,68.6,56.8,116.55,68.85,93,15.35,131.54,35.61c38.64,20.26,70.81,57.59,111.66,76.66,41,19.2,90.69,20.12,140.37,21V766Z" transform="translate(-620.14 -140.06)"/><path class="cls-4" d="M833.44,766c-.16,35.48-.47,71,20.82,98.11s64,46.2,78.86,77,1.89,73.75,16.56,103.93c14.83,30.06,57.25,47.27,97.31,57.33,39.91,10.06,77.44,12.71,109.62,29.66,32,16.94,58.83,47.92,93.05,63.94,34.07,15.89,75.55,16.69,116.87,17.48V766Z" transform="translate(-620.14 -140.06)"/><path class="cls-5" d="M940.06,766c-.16,28.33-.32,56.8,16.72,78.51s51.1,36.94,63.09,61.7c11.82,24.62,1.41,58.91,13.24,83s45.74,37.87,77.76,45.94,62,10.2,87.69,23.7,47.16,38.4,74.44,51.11,60.41,13.37,93.53,14V766Z" transform="translate(-620.14 -140.06)"/><path class="cls-6" d="M1046.68,766c-.16,21.32-.32,42.5,12.46,58.92s38.48,27.67,47.31,46.2c9,18.54,1.11,44.22,9.94,62.36s34.38,28.33,58.35,34.42,46.53,7.55,65.77,17.75,35.33,28.73,55.83,38.39,45.43,10.06,70.19,10.46V766Z" transform="translate(-620.14 -140.06)"/><path class="cls-7" d="M1153.29,766c-.15,14.17-.15,28.33,8.36,39.32s25.55,18.4,31.55,30.72c5.83,12.44.79,29.52,6.62,41.57s22.87,18.93,38.8,22.9c16.09,4.11,31.07,5.17,43.85,11.92,12.93,6.75,23.65,19.2,37.22,25.55s30.28,6.76,46.84,7V766Z" transform="translate(-620.14 -140.06)"/><path class="cls-8" d="M1259.91,766c0,7.15-.16,14.17,4.1,19.59s12.94,9.27,15.77,15.5c3,6.09.48,14.69,3.32,20.78,3,6,11.51,9.4,19.55,11.39,7.89,2,15.46,2.51,21.93,6,6.31,3.44,11.67,9.53,18.61,12.84,6.78,3.18,15.14,3.31,23.34,3.44V766Z" transform="translate(-620.14 -140.06)"/></g></svg>