<svg id="Layer_1" data-name="Layer 1" xmlns="http://www.w3.org/2000/svg" viewBox="0 0 500 500"><defs><style>.cls-1{fill:#7cb8dd;}.cls-2{fill:#a97140;}.cls-3{fill:#915927;}.cls-4{fill:#774a2b;}.cls-5{fill:#d59657;}.cls-6{fill:#ad7341;}.cls-7{fill:#d4584e;}.cls-8{fill:#303030;}.cls-9{fill:#48453e;}.cls-10,.cls-11,.cls-14,.cls-9{stroke:#000;stroke-miterlimit:10;}.cls-11,.cls-9{stroke-width:0.5px;}.cls-10{fill:none;stroke-width:3px;}.cls-11{fill:#706e6a;}.cls-12{fill:#020202;}.cls-13{fill:#ddd3c0;}.cls-14{fill:#fb4;}.cls-15{fill:#f2f2f2;}.cls-16{fill:#1a1a1a;}.cls-17{fill:#ddcfb6;}.cls-18{fill:#fff;}</style></defs><rect class="cls-1" width="500" height="500"/><path class="cls-2" d="M148.76,454.61H54.29v34.55h94.47a17.28,17.28,0,0,0,0-34.55Z"/><circle class="cls-3" cx="131.93" cy="471.89" r="17.27"/><path class="cls-3" d="M148.76,485.38H54.29v3.78h94.47A17.27,17.27,0,0,0,166,471.89c0-.64,0-1.27-.1-1.89A17.28,17.28,0,0,1,148.76,485.38Z"/><path class="cls-4" d="M159.86,464.18a.48.48,0,0,1-.39-.19,13.42,13.42,0,0,0-10.71-5.29H130.15a.49.49,0,0,1,0-1h18.61a14.41,14.41,0,0,1,11.49,5.67.5.5,0,0,1-.09.69A.47.47,0,0,1,159.86,464.18Z"/><path class="cls-4" d="M148.76,486.06a.5.5,0,0,1,0-1,13.41,13.41,0,0,0,10.71-5.28.48.48,0,0,1,.69-.09.49.49,0,0,1,.09.68A14.39,14.39,0,0,1,148.76,486.06Z"/><path class="cls-4" d="M97.31,459.55h-24a.49.49,0,1,1,0-1h24a.49.49,0,0,1,0,1Z"/><path class="cls-4" d="M144.29,482.61h-17.4a.49.49,0,1,1,0-1h17.4a.49.49,0,1,1,0,1Z"/><path class="cls-4" d="M89.05,484.85H73.35a.49.49,0,1,1,0-1h15.7a.49.49,0,0,1,0,1Z"/><path class="cls-4" d="M114.61,474.73H93.22a.49.49,0,1,1,0-1h21.39a.49.49,0,0,1,0,1Z"/><path class="cls-4" d="M131.44,466.31H118.88a.49.49,0,1,1,0-1h12.56a.49.49,0,0,1,0,1Z"/><circle class="cls-5" cx="54.29" cy="471.89" r="17.27"/><path class="cls-6" d="M54.45,487a14.14,14.14,0,0,1-10.29-3.93c-2.42-2.32-5.25-6.12-5-11a16.76,16.76,0,0,1,4.67-10.28c3.41-3.55,6.78-5.17,10.31-5,4.18.42,6.86,2.16,9.61,4.64,2.34,2.25,5.46,5.76,5.64,10.28,0,3.75-1.15,6.53-3.94,9.62-2.4,2.5-6.25,5.5-11,5.68Zm-.88-29.26c-3,0-6,1.53-9,4.67a15.79,15.79,0,0,0-4.41,9.69c-.25,4.54,2.4,8.08,4.67,10.25A13.06,13.06,0,0,0,54.44,486c4.42-.17,8.05-3,10.31-5.37,2.63-2.92,3.67-5.42,3.68-8.93-.13-3.15-1.82-6.2-5.33-9.58-2.6-2.34-5.13-4-9-4.39Z"/><path class="cls-6" d="M54,482.91a10.55,10.55,0,0,1-6.8-2.43,10.94,10.94,0,0,1-3.83-7.69c-.08-6.21,4.34-11.41,10.06-11.86h.16a12.16,12.16,0,0,1,11.69,10c.65,5.67-3.75,10.89-10,11.9h0A10.43,10.43,0,0,1,54,482.91Zm-.38-21h-.15c-5.17.41-9.19,5.17-9.12,10.84a9.94,9.94,0,0,0,3.48,7,9.66,9.66,0,0,0,7.29,2.14c5.74-.93,9.78-5.67,9.19-10.79A11.15,11.15,0,0,0,53.62,461.91Z"/><path class="cls-6" d="M54.13,479.38a7.11,7.11,0,0,1-4.33-1.44,7.2,7.2,0,0,1-2.84-5,7.59,7.59,0,0,1,6.36-8.43,7.88,7.88,0,0,1,8.41,6.32,7.49,7.49,0,0,1-6.32,8.45h0A8,8,0,0,1,54.13,479.38Zm0-13.94a4.87,4.87,0,0,0-.66,0,6.59,6.59,0,0,0-5.49,7.34,6.26,6.26,0,0,0,2.44,4.34,6.33,6.33,0,0,0,4.86,1.15A6.54,6.54,0,0,0,60.77,471,6.92,6.92,0,0,0,54.09,465.44Z"/><path class="cls-6" d="M54.29,476.2a4.21,4.21,0,0,1-4.15-3.55,4.33,4.33,0,0,1,3.46-5,4.43,4.43,0,0,1,5,3.44,4.11,4.11,0,0,1-.62,3.12,4.42,4.42,0,0,1-2.82,1.89h0A4.26,4.26,0,0,1,54.29,476.2Zm0-7.61a3.27,3.27,0,0,0-.54,0,3.35,3.35,0,0,0-2.65,3.87A3.22,3.22,0,0,0,55,475.15a3.43,3.43,0,0,0,2.2-1.47,3.15,3.15,0,0,0,.48-2.38A3.43,3.43,0,0,0,54.3,468.59Z"/><path class="cls-6" d="M54.35,474.39A2.54,2.54,0,0,1,53,474a2.46,2.46,0,0,1-1-1.6,2.5,2.5,0,0,1,2-2.93,2.53,2.53,0,0,1,2.93,2,2.4,2.4,0,0,1-.36,1.84,2.47,2.47,0,0,1-1.6,1.09h0A2.22,2.22,0,0,1,54.35,474.39Zm0-4a1.27,1.27,0,0,0-.28,0,1.52,1.52,0,0,0-1.19,1.78,1.48,1.48,0,0,0,1.77,1.18,1.51,1.51,0,0,0,1-.66,1.47,1.47,0,0,0,.22-1.11A1.55,1.55,0,0,0,54.36,470.38Z"/><path class="cls-2" d="M186.34,454.61H91.87v34.55h94.47a17.28,17.28,0,0,0,0-34.55Z"/><path class="cls-3" d="M186.34,485.38H91.87v3.78h94.47a17.27,17.27,0,0,0,17.27-17.27,16.84,16.84,0,0,0-.1-1.89A17.27,17.27,0,0,1,186.34,485.38Z"/><path class="cls-4" d="M197.44,464.18a.49.49,0,0,1-.39-.19,13.42,13.42,0,0,0-10.71-5.29H167.73a.49.49,0,0,1,0-1h18.61a14.41,14.41,0,0,1,11.49,5.67.48.48,0,0,1-.09.69A.47.47,0,0,1,197.44,464.18Z"/><path class="cls-4" d="M186.34,486.06a.5.5,0,0,1,0-1,13.41,13.41,0,0,0,10.71-5.28.49.49,0,0,1,.69-.09.47.47,0,0,1,.09.68A14.39,14.39,0,0,1,186.34,486.06Z"/><path class="cls-4" d="M134.89,459.55h-24a.49.49,0,0,1,0-1h24a.49.49,0,1,1,0,1Z"/><path class="cls-4" d="M181.88,482.61H164.47a.49.49,0,0,1,0-1h17.41a.49.49,0,0,1,0,1Z"/><path class="cls-4" d="M126.63,484.85h-15.7a.49.49,0,1,1,0-1h15.7a.49.49,0,0,1,0,1Z"/><path class="cls-4" d="M152.2,474.73H130.8a.49.49,0,1,1,0-1h21.4a.49.49,0,1,1,0,1Z"/><path class="cls-4" d="M169,466.31H156.46a.49.49,0,1,1,0-1H169a.49.49,0,1,1,0,1Z"/><circle class="cls-5" cx="91.87" cy="471.89" r="17.27"/><path class="cls-6" d="M92,487a14.1,14.1,0,0,1-10.28-3.93c-2.43-2.32-5.26-6.12-5-11a16.76,16.76,0,0,1,4.67-10.28c3.41-3.55,6.78-5.17,10.32-5,4.17.42,6.85,2.16,9.6,4.64,2.34,2.25,5.46,5.76,5.64,10.28,0,3.75-1.15,6.53-3.94,9.62-2.4,2.5-6.25,5.5-11,5.68Zm-.88-29.26c-3,0-6,1.53-9,4.67a15.77,15.77,0,0,0-4.41,9.69c-.24,4.54,2.41,8.08,4.68,10.25A13,13,0,0,0,92,486c4.42-.17,8-3,10.31-5.37,2.64-2.92,3.67-5.42,3.68-8.93-.13-3.15-1.82-6.2-5.33-9.58-2.59-2.34-5.13-4-9-4.39Z"/><path class="cls-6" d="M91.58,482.91a10.5,10.5,0,0,1-6.79-2.43A10.91,10.91,0,0,1,81,472.79c-.08-6.21,4.34-11.41,10.06-11.86h.16a12.16,12.16,0,0,1,11.69,10c.66,5.67-3.74,10.89-10,11.9h0A10.31,10.31,0,0,1,91.58,482.91Zm-.38-21h-.14c-5.18.41-9.2,5.17-9.13,10.84a10,10,0,0,0,3.48,7,9.67,9.67,0,0,0,7.29,2.14c5.75-.93,9.78-5.67,9.19-10.79A11.15,11.15,0,0,0,91.2,461.91Z"/><path class="cls-6" d="M91.71,479.38a7.11,7.11,0,0,1-4.33-1.44,7.19,7.19,0,0,1-2.83-5,7.59,7.59,0,0,1,6.35-8.43,7.9,7.9,0,0,1,8.42,6.32A7.5,7.5,0,0,1,93,479.27h0A8,8,0,0,1,91.71,479.38Zm0-13.94a5,5,0,0,0-.67,0,6.59,6.59,0,0,0-5.49,7.34,6.23,6.23,0,0,0,7.31,5.49A6.53,6.53,0,0,0,98.35,471,6.91,6.91,0,0,0,91.68,465.44Z"/><path class="cls-6" d="M91.87,476.2a4.2,4.2,0,0,1-2.39-.75,4.15,4.15,0,0,1-1.75-2.8,4.32,4.32,0,0,1,3.45-5,4.43,4.43,0,0,1,5,3.44,4.11,4.11,0,0,1-.62,3.12,4.39,4.39,0,0,1-2.82,1.89h0A4.26,4.26,0,0,1,91.87,476.2Zm0-7.61a3.23,3.23,0,0,0-.53,0,3.35,3.35,0,0,0-2.66,3.87,3.24,3.24,0,0,0,3.85,2.65,3.48,3.48,0,0,0,2.2-1.47,3.14,3.14,0,0,0,.47-2.38A3.43,3.43,0,0,0,91.88,468.59Z"/><path class="cls-6" d="M91.93,474.39a2.48,2.48,0,0,1-1.37-.42,2.44,2.44,0,0,1-1-1.6,2.49,2.49,0,0,1,4.89-1,2.44,2.44,0,0,1-.35,1.84,2.47,2.47,0,0,1-1.61,1.09h0A2.22,2.22,0,0,1,91.93,474.39Zm0-4a1.33,1.33,0,0,0-.28,0,1.52,1.52,0,0,0-1.19,1.78,1.48,1.48,0,0,0,1.77,1.18,1.55,1.55,0,0,0,1-.66,1.51,1.51,0,0,0,.21-1.11A1.54,1.54,0,0,0,91.94,470.38Z"/><path class="cls-2" d="M148.76,420.07H54.29v34.54h94.47a17.27,17.27,0,0,0,0-34.54Z"/><path class="cls-3" d="M149.21,437.34a17.28,17.28,0,1,1-17.28-17.27A17.28,17.28,0,0,1,149.21,437.34Z"/><path class="cls-3" d="M148.76,450.83H54.29v3.78h94.47A17.27,17.27,0,0,0,166,437.34c0-.64,0-1.27-.1-1.89A17.28,17.28,0,0,1,148.76,450.83Z"/><path class="cls-4" d="M159.86,429.63a.48.48,0,0,1-.39-.19,13.42,13.42,0,0,0-10.71-5.29H130.15a.49.49,0,0,1,0-1h18.61a14.41,14.41,0,0,1,11.49,5.67.5.5,0,0,1-.09.69A.47.47,0,0,1,159.86,429.63Z"/><path class="cls-4" d="M148.76,451.51a.49.49,0,0,1,0-1,13.42,13.42,0,0,0,10.71-5.29.48.48,0,0,1,.69-.09.5.5,0,0,1,.09.69A14.41,14.41,0,0,1,148.76,451.51Z"/><path class="cls-4" d="M97.31,425h-24a.5.5,0,0,1,0-1h24a.5.5,0,0,1,0,1Z"/><path class="cls-4" d="M144.29,448.06h-17.4a.49.49,0,1,1,0-1h17.4a.49.49,0,1,1,0,1Z"/><path class="cls-4" d="M89.05,450.3H73.35a.49.49,0,1,1,0-1h15.7a.49.49,0,1,1,0,1Z"/><path class="cls-4" d="M114.61,440.18H93.22a.49.49,0,1,1,0-1h21.39a.49.49,0,0,1,0,1Z"/><path class="cls-4" d="M131.44,431.76H118.88a.48.48,0,0,1-.49-.49.49.49,0,0,1,.49-.49h12.56a.49.49,0,0,1,.49.49A.48.48,0,0,1,131.44,431.76Z"/><circle class="cls-5" cx="54.29" cy="437.34" r="17.27"/><path class="cls-6" d="M54.45,452.45a14.14,14.14,0,0,1-10.29-3.93c-2.42-2.32-5.25-6.11-5-11a16.76,16.76,0,0,1,4.67-10.28c3.41-3.55,6.78-5.17,10.31-5,4.18.43,6.86,2.16,9.61,4.64,2.34,2.26,5.46,5.76,5.64,10.28,0,3.75-1.15,6.53-3.94,9.62-2.4,2.5-6.25,5.5-11,5.68Zm-.88-29.26c-3,0-6,1.53-9,4.68a15.77,15.77,0,0,0-4.41,9.69c-.25,4.53,2.4,8.07,4.67,10.25a13.09,13.09,0,0,0,9.61,3.66c4.42-.17,8.05-3,10.31-5.37,2.63-2.92,3.67-5.42,3.68-8.93-.13-3.15-1.82-6.2-5.33-9.58-2.6-2.34-5.13-4-9-4.38Z"/><path class="cls-6" d="M54,448.36a10.55,10.55,0,0,1-6.8-2.43,10.92,10.92,0,0,1-3.83-7.69c-.08-6.21,4.34-11.4,10.06-11.86h.16a12.16,12.16,0,0,1,11.69,10c.65,5.67-3.75,10.89-10,11.9h0C54.82,448.34,54.41,448.36,54,448.36Zm-.38-21h-.15c-5.17.41-9.19,5.18-9.12,10.84a9.94,9.94,0,0,0,3.48,7,9.66,9.66,0,0,0,7.29,2.14c5.74-.93,9.78-5.67,9.19-10.79A11.15,11.15,0,0,0,53.62,427.36Z"/><path class="cls-6" d="M54.13,444.83a7.11,7.11,0,0,1-4.33-1.44,7.2,7.2,0,0,1-2.84-5A7.59,7.59,0,0,1,53.32,430a7.88,7.88,0,0,1,8.41,6.32,7.49,7.49,0,0,1-6.32,8.45h0A7,7,0,0,1,54.13,444.83Zm0-13.94a4.87,4.87,0,0,0-.66,0,6.59,6.59,0,0,0-5.49,7.34,6.26,6.26,0,0,0,2.44,4.34,6.33,6.33,0,0,0,4.86,1.15,6.53,6.53,0,0,0,5.53-7.32A6.92,6.92,0,0,0,54.09,430.89Z"/><path class="cls-6" d="M54.29,441.65a4.21,4.21,0,0,1-4.15-3.54,4.32,4.32,0,0,1,3.46-5,4.41,4.41,0,0,1,5,3.43,4.11,4.11,0,0,1-.62,3.12,4.42,4.42,0,0,1-2.82,1.89h0A4.26,4.26,0,0,1,54.29,441.65Zm0-7.61a3.27,3.27,0,0,0-.54,0A3.35,3.35,0,0,0,51.11,438,3.22,3.22,0,0,0,55,440.6a3.43,3.43,0,0,0,2.2-1.47,3.15,3.15,0,0,0,.48-2.38A3.44,3.44,0,0,0,54.3,434Z"/><path class="cls-6" d="M54.35,439.84a2.45,2.45,0,0,1-2.42-2,2.51,2.51,0,0,1,2-2.93,2.53,2.53,0,0,1,2.93,2,2.43,2.43,0,0,1-.36,1.85,2.54,2.54,0,0,1-1.6,1.09h0A2.94,2.94,0,0,1,54.35,439.84Zm0-4a1.27,1.27,0,0,0-.28,0,1.52,1.52,0,0,0-1.19,1.78,1.48,1.48,0,0,0,1.77,1.18,1.51,1.51,0,0,0,1-.66,1.46,1.46,0,0,0,.22-1.11A1.55,1.55,0,0,0,54.36,435.83Z"/><path class="cls-2" d="M186.34,420.07H91.87v34.54h94.47a17.27,17.27,0,0,0,0-34.54Z"/><path class="cls-3" d="M186.34,450.83H91.87v3.78h94.47a17.27,17.27,0,0,0,17.27-17.27,16.84,16.84,0,0,0-.1-1.89A17.27,17.27,0,0,1,186.34,450.83Z"/><path class="cls-4" d="M197.44,429.63a.49.49,0,0,1-.39-.19,13.42,13.42,0,0,0-10.71-5.29H167.73a.49.49,0,1,1,0-1h18.61a14.41,14.41,0,0,1,11.49,5.67.48.48,0,0,1-.09.69A.47.47,0,0,1,197.44,429.63Z"/><path class="cls-4" d="M186.34,451.51a.49.49,0,0,1,0-1,13.42,13.42,0,0,0,10.71-5.29.49.49,0,0,1,.78.6A14.41,14.41,0,0,1,186.34,451.51Z"/><path class="cls-4" d="M134.89,425h-24a.5.5,0,0,1,0-1h24a.5.5,0,0,1,0,1Z"/><path class="cls-4" d="M181.88,448.06H164.47a.49.49,0,1,1,0-1h17.41a.49.49,0,1,1,0,1Z"/><path class="cls-4" d="M126.63,450.3h-15.7a.49.49,0,0,1,0-1h15.7a.49.49,0,1,1,0,1Z"/><path class="cls-4" d="M152.2,440.18H130.8a.49.49,0,0,1,0-1h21.4a.49.49,0,0,1,0,1Z"/><path class="cls-4" d="M169,431.76H156.46a.48.48,0,0,1-.49-.49.49.49,0,0,1,.49-.49H169a.49.49,0,0,1,.49.49A.48.48,0,0,1,169,431.76Z"/><path class="cls-5" d="M109.15,437.34a17.28,17.28,0,1,1-17.28-17.27A17.28,17.28,0,0,1,109.15,437.34Z"/><path class="cls-6" d="M92,452.45a14.1,14.1,0,0,1-10.28-3.93c-2.43-2.32-5.26-6.11-5-11a16.76,16.76,0,0,1,4.67-10.28c3.41-3.55,6.78-5.17,10.32-5,4.17.43,6.85,2.16,9.6,4.64,2.34,2.26,5.46,5.76,5.64,10.28,0,3.75-1.15,6.53-3.94,9.62-2.4,2.5-6.25,5.5-11,5.68Zm-.88-29.26c-3,0-6,1.53-9,4.68a15.74,15.74,0,0,0-4.41,9.69c-.24,4.53,2.41,8.07,4.68,10.25a13.07,13.07,0,0,0,9.6,3.66c4.42-.17,8-3,10.31-5.37,2.64-2.92,3.67-5.42,3.68-8.93-.13-3.15-1.82-6.2-5.33-9.58-2.59-2.34-5.13-4-9-4.38Z"/><path class="cls-6" d="M91.58,448.36a10.5,10.5,0,0,1-6.79-2.43A10.89,10.89,0,0,1,81,438.24c-.08-6.21,4.34-11.4,10.06-11.86h.16a12.16,12.16,0,0,1,11.69,10c.66,5.67-3.74,10.89-10,11.9h0C92.41,448.34,92,448.36,91.58,448.36Zm-.38-21h-.14c-5.18.41-9.2,5.18-9.13,10.84a10,10,0,0,0,3.48,7,9.67,9.67,0,0,0,7.29,2.14c5.75-.93,9.78-5.67,9.19-10.79A11.15,11.15,0,0,0,91.2,427.36Z"/><path class="cls-6" d="M91.71,444.83a7.11,7.11,0,0,1-4.33-1.44,7.19,7.19,0,0,1-2.83-5A7.59,7.59,0,0,1,90.9,430a7.9,7.9,0,0,1,8.42,6.32A7.5,7.5,0,0,1,93,444.72h0A7,7,0,0,1,91.71,444.83Zm0-13.94a5,5,0,0,0-.67,0,6.59,6.59,0,0,0-5.49,7.34,6.23,6.23,0,0,0,7.31,5.49,6.52,6.52,0,0,0,5.52-7.32A6.91,6.91,0,0,0,91.68,430.89Z"/><path class="cls-6" d="M91.87,441.65a4.2,4.2,0,0,1-2.39-.75,4.13,4.13,0,0,1-1.75-2.79,4.31,4.31,0,0,1,3.45-5,4.41,4.41,0,0,1,5,3.43,4.11,4.11,0,0,1-.62,3.12,4.39,4.39,0,0,1-2.82,1.89h0A4.26,4.26,0,0,1,91.87,441.65Zm0-7.61a3.23,3.23,0,0,0-.53,0A3.35,3.35,0,0,0,88.69,438a3.24,3.24,0,0,0,3.85,2.65,3.48,3.48,0,0,0,2.2-1.47,3.14,3.14,0,0,0,.47-2.38A3.44,3.44,0,0,0,91.88,434Z"/><path class="cls-6" d="M91.93,439.84a2.48,2.48,0,0,1-1.37-.42,2.42,2.42,0,0,1-1-1.6,2.49,2.49,0,0,1,4.89-1,2.47,2.47,0,0,1-.35,1.85,2.54,2.54,0,0,1-1.61,1.09h0A2.94,2.94,0,0,1,91.93,439.84Zm0-4a1.33,1.33,0,0,0-.28,0,1.52,1.52,0,0,0-1.19,1.78,1.49,1.49,0,0,0,.63,1,1.44,1.44,0,0,0,1.14.22,1.55,1.55,0,0,0,1-.66,1.5,1.5,0,0,0,.21-1.11A1.54,1.54,0,0,0,91.94,435.83Z"/><path class="cls-2" d="M169,385.52H74.48v34.55H169a17.28,17.28,0,1,0,0-34.55Z"/><path class="cls-3" d="M169.4,402.79a17.28,17.28,0,1,1-17.27-17.27A17.28,17.28,0,0,1,169.4,402.79Z"/><path class="cls-3" d="M169,416.28H74.48v3.79H169a17.28,17.28,0,0,0,17.28-17.28,16.83,16.83,0,0,0-.11-1.89A17.27,17.27,0,0,1,169,416.28Z"/><path class="cls-4" d="M180.06,395.09a.47.47,0,0,1-.39-.2A13.45,13.45,0,0,0,169,389.61H150.34a.5.5,0,0,1,0-1H169a14.39,14.39,0,0,1,11.49,5.68.5.5,0,0,1-.38.79Z"/><path class="cls-4" d="M169,417a.49.49,0,1,1,0-1,13.46,13.46,0,0,0,10.72-5.29.47.47,0,0,1,.68-.09.48.48,0,0,1,.09.69A14.41,14.41,0,0,1,169,417Z"/><path class="cls-4" d="M117.5,390.46h-24a.49.49,0,0,1,0-1h24a.49.49,0,1,1,0,1Z"/><path class="cls-4" d="M164.49,413.52H147.08a.5.5,0,0,1,0-1h17.41a.5.5,0,0,1,0,1Z"/><path class="cls-4" d="M109.24,415.75H93.54a.49.49,0,0,1,0-1h15.7a.49.49,0,1,1,0,1Z"/><path class="cls-4" d="M134.81,405.63h-21.4a.49.49,0,1,1,0-1h21.4a.49.49,0,1,1,0,1Z"/><path class="cls-4" d="M151.64,397.22H139.07a.49.49,0,0,1-.49-.49.48.48,0,0,1,.49-.49h12.57a.48.48,0,0,1,.49.49A.49.49,0,0,1,151.64,397.22Z"/><path class="cls-5" d="M91.76,402.79a17.28,17.28,0,1,1-17.28-17.27A17.28,17.28,0,0,1,91.76,402.79Z"/><path class="cls-6" d="M74.64,417.9A14.12,14.12,0,0,1,64.36,414c-2.43-2.32-5.25-6.11-5-11A16.75,16.75,0,0,1,64,392.65c3.41-3.55,6.78-5.17,10.32-5,4.17.43,6.85,2.16,9.6,4.64,2.34,2.26,5.46,5.76,5.64,10.28,0,3.75-1.15,6.53-3.94,9.62-2.4,2.5-6.24,5.5-11,5.68h0Zm-.87-29.26c-3,0-6,1.54-9,4.68A15.88,15.88,0,0,0,60.35,403c-.24,4.53,2.41,8.07,4.68,10.25a13.05,13.05,0,0,0,9.61,3.66c4.42-.17,8-3,10.31-5.37,2.63-2.91,3.66-5.42,3.67-8.93-.12-3.15-1.82-6.2-5.33-9.58-2.59-2.34-5.12-4-9-4.38Z"/><path class="cls-6" d="M74.2,413.81a10.55,10.55,0,0,1-6.8-2.42,10.91,10.91,0,0,1-3.84-7.69c-.07-6.22,4.34-11.41,10.06-11.87h.16a12.16,12.16,0,0,1,11.69,10c.66,5.67-3.74,10.89-10,11.9h0Q74.82,413.81,74.2,413.81Zm-.39-21h-.14c-5.17.41-9.2,5.18-9.13,10.84a9.93,9.93,0,0,0,3.49,7,9.65,9.65,0,0,0,7.29,2.14c5.74-.93,9.77-5.67,9.18-10.79A11.15,11.15,0,0,0,73.81,392.81Z"/><path class="cls-6" d="M74.32,410.28a7.16,7.16,0,0,1-7.16-6.45,7.59,7.59,0,0,1,6.35-8.43,7.9,7.9,0,0,1,8.42,6.32,7.5,7.5,0,0,1-6.32,8.45h0A7.89,7.89,0,0,1,74.32,410.28Zm0-13.94a5,5,0,0,0-.67,0,6.6,6.6,0,0,0-5.49,7.34,6.23,6.23,0,0,0,7.31,5.49A6.52,6.52,0,0,0,81,401.89,6.92,6.92,0,0,0,74.29,396.34Z"/><path class="cls-6" d="M74.48,407.1a4.2,4.2,0,0,1-2.39-.75,4.15,4.15,0,0,1-1.75-2.79,4.32,4.32,0,0,1,3.46-5,4.4,4.4,0,0,1,5,3.43,4.19,4.19,0,0,1-.61,3.13A4.39,4.39,0,0,1,75.34,407h0A4.19,4.19,0,0,1,74.48,407.1Zm0-7.61a3.27,3.27,0,0,0-.53.05,3.32,3.32,0,0,0-2.65,3.86,3.22,3.22,0,0,0,3.84,2.65,3.44,3.44,0,0,0,2.2-1.47,3.14,3.14,0,0,0,.47-2.38A3.44,3.44,0,0,0,74.49,399.49Z"/><path class="cls-6" d="M74.54,405.29a2.47,2.47,0,0,1-2.42-2,2.49,2.49,0,0,1,4.89-1,2.42,2.42,0,0,1-.35,1.85,2.54,2.54,0,0,1-1.61,1.09h0A2.94,2.94,0,0,1,74.54,405.29Zm0-4a1.33,1.33,0,0,0-.28,0,1.52,1.52,0,0,0-.55,2.75,1.5,1.5,0,0,0,1.13.22,1.6,1.6,0,0,0,1-.67,1.46,1.46,0,0,0,.21-1.11A1.54,1.54,0,0,0,74.55,401.28Z"/><path class="cls-2" d="M206.53,385.52H112.07v34.55h94.46a17.28,17.28,0,1,0,0-34.55Z"/><path class="cls-3" d="M206.53,416.28H112.07v3.79h94.46a17.28,17.28,0,0,0,17.28-17.28,16.83,16.83,0,0,0-.11-1.89A17.26,17.26,0,0,1,206.53,416.28Z"/><path class="cls-4" d="M217.64,395.09a.49.49,0,0,1-.39-.2,13.43,13.43,0,0,0-10.72-5.28h-18.6a.5.5,0,0,1,0-1h18.6A14.42,14.42,0,0,1,218,394.3a.49.49,0,0,1-.09.68A.5.5,0,0,1,217.64,395.09Z"/><path class="cls-4" d="M206.53,417a.49.49,0,0,1,0-1,13.44,13.44,0,0,0,10.72-5.29.48.48,0,0,1,.69-.09.5.5,0,0,1,.09.69A14.44,14.44,0,0,1,206.53,417Z"/><path class="cls-4" d="M155.08,390.46h-24a.49.49,0,0,1,0-1h24a.49.49,0,1,1,0,1Z"/><path class="cls-4" d="M202.07,413.52h-17.4a.5.5,0,0,1,0-1h17.4a.5.5,0,0,1,0,1Z"/><path class="cls-4" d="M146.82,415.75h-15.7a.49.49,0,0,1,0-1h15.7a.49.49,0,0,1,0,1Z"/><path class="cls-4" d="M172.39,405.63H151a.49.49,0,0,1,0-1h21.4a.49.49,0,0,1,0,1Z"/><path class="cls-4" d="M189.22,397.22H176.66a.49.49,0,0,1-.49-.49.48.48,0,0,1,.49-.49h12.56a.48.48,0,0,1,.49.49A.49.49,0,0,1,189.22,397.22Z"/><path class="cls-5" d="M129.34,402.79a17.28,17.28,0,1,1-17.27-17.27A17.28,17.28,0,0,1,129.34,402.79Z"/><path class="cls-6" d="M112.23,417.9A14.12,14.12,0,0,1,101.94,414c-2.43-2.32-5.25-6.11-5-11a16.7,16.7,0,0,1,4.67-10.28c3.41-3.55,6.78-5.17,10.31-5,4.17.43,6.85,2.16,9.61,4.64,2.34,2.26,5.46,5.76,5.63,10.28a13.31,13.31,0,0,1-3.93,9.62c-2.4,2.5-6.25,5.5-11,5.68Zm-.88-29.26c-3,0-6,1.54-9,4.68a15.81,15.81,0,0,0-4.4,9.69c-.25,4.53,2.4,8.07,4.67,10.25a13.05,13.05,0,0,0,9.61,3.66c4.42-.17,8-3,10.31-5.37,2.63-2.91,3.66-5.42,3.67-8.93-.12-3.15-1.81-6.2-5.32-9.58-2.6-2.34-5.13-4-9-4.38Z"/><path class="cls-6" d="M111.78,413.81a10.55,10.55,0,0,1-6.8-2.42,10.94,10.94,0,0,1-3.83-7.69c-.08-6.22,4.34-11.41,10.06-11.87h.16a12.17,12.17,0,0,1,11.69,10c.65,5.67-3.75,10.89-10,11.9h0C112.6,413.79,112.19,413.81,111.78,413.81Zm-.38-21h-.15c-5.17.41-9.19,5.18-9.12,10.84a9.88,9.88,0,0,0,3.48,7,9.65,9.65,0,0,0,7.29,2.14c5.74-.93,9.78-5.67,9.18-10.79A11.14,11.14,0,0,0,111.4,392.81Z"/><path class="cls-6" d="M111.9,410.28a7.19,7.19,0,0,1-4.33-1.43,7.27,7.27,0,0,1-2.83-5,7.59,7.59,0,0,1,6.35-8.43,7.89,7.89,0,0,1,8.42,6.32,7.5,7.5,0,0,1-6.32,8.45h0A8,8,0,0,1,111.9,410.28Zm0-13.94a4.87,4.87,0,0,0-.66,0,6.59,6.59,0,0,0-5.49,7.34,6.21,6.21,0,0,0,7.3,5.49,6.53,6.53,0,0,0,5.53-7.32A6.93,6.93,0,0,0,111.87,396.34Z"/><path class="cls-6" d="M112.06,407.1a4.2,4.2,0,0,1-4.14-3.54,4.32,4.32,0,0,1,3.46-5,4.39,4.39,0,0,1,5,3.43,4.1,4.1,0,0,1-.61,3.13,4.37,4.37,0,0,1-2.82,1.88h0A4.12,4.12,0,0,1,112.06,407.1Zm0-7.61a3.28,3.28,0,0,0-3.19,3.91,3.22,3.22,0,0,0,3.84,2.65,3.4,3.4,0,0,0,2.2-1.47,3.14,3.14,0,0,0,.47-2.38A3.43,3.43,0,0,0,112.08,399.49Z"/><path class="cls-6" d="M112.12,405.29a2.47,2.47,0,0,1-2.42-2,2.49,2.49,0,0,1,4.89-1,2.42,2.42,0,0,1-.35,1.85,2.54,2.54,0,0,1-1.6,1.09h0A3.05,3.05,0,0,1,112.12,405.29Zm0-4-.28,0a1.51,1.51,0,0,0-1.18,1.78,1.49,1.49,0,0,0,.63,1,1.52,1.52,0,0,0,1.14.22,1.56,1.56,0,0,0,1-.67,1.46,1.46,0,0,0,.21-1.11A1.54,1.54,0,0,0,112.13,401.28Z"/><path class="cls-2" d="M188.73,351H94.26v34.55h94.47a17.28,17.28,0,1,0,0-34.55Z"/><path class="cls-3" d="M188.73,381.74H94.26v3.78h94.47A17.28,17.28,0,0,0,206,368.24a16.83,16.83,0,0,0-.11-1.89A17.28,17.28,0,0,1,188.73,381.74Z"/><path class="cls-4" d="M199.84,360.54a.49.49,0,0,1-.39-.19,13.41,13.41,0,0,0-10.72-5.29H170.12a.49.49,0,0,1,0-1h18.61a14.38,14.38,0,0,1,11.49,5.67.47.47,0,0,1-.09.68A.46.46,0,0,1,199.84,360.54Z"/><path class="cls-4" d="M188.73,382.41a.49.49,0,0,1,0-1,13.44,13.44,0,0,0,10.72-5.29.49.49,0,0,1,.68-.09.48.48,0,0,1,.09.69A14.41,14.41,0,0,1,188.73,382.41Z"/><path class="cls-4" d="M137.28,355.91h-24a.49.49,0,0,1,0-1h24a.49.49,0,1,1,0,1Z"/><path class="cls-4" d="M184.27,379H166.86a.49.49,0,0,1,0-1h17.41a.49.49,0,1,1,0,1Z"/><path class="cls-4" d="M129,381.2h-15.7a.49.49,0,0,1,0-1H129a.49.49,0,0,1,0,1Z"/><path class="cls-4" d="M154.59,371.09h-21.4a.5.5,0,0,1,0-1h21.4a.5.5,0,0,1,0,1Z"/><path class="cls-4" d="M171.42,362.67H158.85a.49.49,0,0,1,0-1h12.57a.49.49,0,1,1,0,1Z"/><circle class="cls-5" cx="94.26" cy="368.24" r="17.27"/><path class="cls-6" d="M94.42,383.36a14.16,14.16,0,0,1-10.28-3.93c-2.43-2.33-5.25-6.12-5-11a16.75,16.75,0,0,1,4.66-10.29c3.42-3.55,6.79-5.17,10.32-5,4.17.43,6.85,2.17,9.6,4.64,2.35,2.26,5.46,5.77,5.64,10.28,0,3.75-1.15,6.53-3.94,9.62-2.4,2.5-6.24,5.51-11,5.69h0Zm-.87-29.27c-3,0-6,1.54-9,4.68a15.81,15.81,0,0,0-4.4,9.69c-.25,4.53,2.4,8.08,4.67,10.25a13.05,13.05,0,0,0,9.61,3.66c4.42-.17,8-3,10.31-5.37,2.63-2.91,3.66-5.42,3.67-8.93-.12-3.15-1.82-6.2-5.33-9.58-2.59-2.34-5.12-4-9-4.38Z"/><path class="cls-6" d="M94,379.27a10.56,10.56,0,0,1-6.8-2.43,10.86,10.86,0,0,1-3.83-7.69c-.08-6.21,4.34-11.41,10.05-11.86h.16a12.16,12.16,0,0,1,11.69,10c.66,5.68-3.74,10.89-10,11.91h0C94.8,379.24,94.39,379.27,94,379.27Zm-.39-21h-.14c-5.17.41-9.2,5.17-9.12,10.84a9.86,9.86,0,0,0,3.48,7,9.65,9.65,0,0,0,7.29,2.14c5.74-.93,9.77-5.67,9.18-10.79A11.16,11.16,0,0,0,93.59,358.26Z"/><path class="cls-6" d="M94.1,375.74a7.18,7.18,0,0,1-7.16-6.46,7.58,7.58,0,0,1,6.35-8.42,7.89,7.89,0,0,1,8.42,6.31,7.51,7.51,0,0,1-6.32,8.46h0A7.9,7.9,0,0,1,94.1,375.74Zm0-13.94-.67,0a6.6,6.6,0,0,0-5.49,7.35,6.23,6.23,0,0,0,7.31,5.48,6.51,6.51,0,0,0,5.52-7.31A6.91,6.91,0,0,0,94.07,361.8Z"/><path class="cls-6" d="M94.26,372.55A4.2,4.2,0,0,1,90.12,369a4.32,4.32,0,0,1,3.46-5,4.4,4.4,0,0,1,5,3.44,4.12,4.12,0,0,1-.61,3.12,4.36,4.36,0,0,1-2.83,1.88h0A4.19,4.19,0,0,1,94.26,372.55Zm0-7.61a3.29,3.29,0,0,0-.54.05,3.32,3.32,0,0,0-2.65,3.86,3.2,3.2,0,0,0,3.84,2.65,3.41,3.41,0,0,0,2.2-1.46,3.17,3.17,0,0,0,.47-2.39A3.43,3.43,0,0,0,94.28,364.94Z"/><path class="cls-6" d="M94.32,370.74a2.41,2.41,0,0,1-1.37-.42,2.45,2.45,0,0,1-1-1.6,2.49,2.49,0,0,1,4.89-1,2.42,2.42,0,0,1-.35,1.85,2.54,2.54,0,0,1-1.61,1.09h0A2.94,2.94,0,0,1,94.32,370.74Zm0-4-.28,0a1.51,1.51,0,0,0-1.18,1.78,1.46,1.46,0,0,0,.63,1,1.52,1.52,0,0,0,1.14.22,1.57,1.57,0,0,0,1-.67,1.45,1.45,0,0,0,.21-1.11A1.55,1.55,0,0,0,94.33,366.73Z"/><path class="cls-2" d="M223.92,454.61H129.45v34.55h94.47a17.28,17.28,0,1,0,0-34.55Z"/><path class="cls-3" d="M223.92,485.38H129.45v3.78h94.47a17.28,17.28,0,0,0,17.28-17.27,16.83,16.83,0,0,0-.11-1.89A17.27,17.27,0,0,1,223.92,485.38Z"/><path class="cls-4" d="M235,464.18a.47.47,0,0,1-.39-.19,13.44,13.44,0,0,0-10.72-5.29H205.31a.49.49,0,0,1,0-1h18.61a14.41,14.41,0,0,1,11.49,5.67.48.48,0,0,1-.38.79Z"/><path class="cls-4" d="M223.92,486.06a.5.5,0,0,1,0-1,13.43,13.43,0,0,0,10.72-5.28.49.49,0,1,1,.77.59A14.39,14.39,0,0,1,223.92,486.06Z"/><path class="cls-4" d="M172.47,459.55h-24a.49.49,0,0,1,0-1h24a.49.49,0,0,1,0,1Z"/><path class="cls-4" d="M219.46,482.61H202.05a.49.49,0,0,1,0-1h17.41a.49.49,0,1,1,0,1Z"/><path class="cls-4" d="M164.21,484.85h-15.7a.49.49,0,0,1,0-1h15.7a.49.49,0,1,1,0,1Z"/><path class="cls-4" d="M189.78,474.73h-21.4a.49.49,0,0,1,0-1h21.4a.49.49,0,0,1,0,1Z"/><path class="cls-4" d="M206.61,466.31H194a.49.49,0,0,1,0-1h12.57a.49.49,0,1,1,0,1Z"/><circle class="cls-5" cx="129.45" cy="471.89" r="17.27"/><path class="cls-6" d="M129.61,487a14.12,14.12,0,0,1-10.28-3.93c-2.43-2.32-5.25-6.12-5-11A16.75,16.75,0,0,1,119,461.75c3.42-3.55,6.79-5.17,10.32-5,4.17.42,6.85,2.16,9.6,4.64,2.35,2.25,5.46,5.76,5.64,10.28,0,3.75-1.15,6.53-3.94,9.62-2.4,2.5-6.24,5.5-11,5.68h0Zm-.87-29.26c-3,0-6,1.53-9,4.67a15.81,15.81,0,0,0-4.4,9.69c-.25,4.54,2.4,8.08,4.67,10.25a13.06,13.06,0,0,0,9.61,3.67c4.42-.17,8-3,10.31-5.37,2.63-2.92,3.66-5.42,3.67-8.93-.12-3.15-1.82-6.2-5.33-9.58-2.59-2.34-5.12-4-9-4.39Z"/><path class="cls-6" d="M129.17,482.91a10.51,10.51,0,0,1-6.8-2.43,10.86,10.86,0,0,1-3.83-7.69c-.08-6.21,4.34-11.41,10-11.86h.16a12.16,12.16,0,0,1,11.69,10c.66,5.67-3.74,10.89-10,11.9h0A10.43,10.43,0,0,1,129.17,482.91Zm-.39-21h-.14c-5.17.41-9.2,5.17-9.12,10.84a9.9,9.9,0,0,0,3.48,7,9.65,9.65,0,0,0,7.29,2.14c5.74-.93,9.77-5.67,9.18-10.79A11.15,11.15,0,0,0,128.78,461.91Z"/><path class="cls-6" d="M129.29,479.38a7.18,7.18,0,0,1-7.16-6.45,7.59,7.59,0,0,1,6.35-8.43,7.9,7.9,0,0,1,8.42,6.32,7.5,7.5,0,0,1-6.32,8.45h0A7.9,7.9,0,0,1,129.29,479.38Zm0-13.94a5.12,5.12,0,0,0-.67,0,6.58,6.58,0,0,0-5.48,7.34,6.21,6.21,0,0,0,7.3,5.49,6.53,6.53,0,0,0,5.52-7.32A6.91,6.91,0,0,0,129.26,465.44Z"/><path class="cls-6" d="M129.45,476.2a4.19,4.19,0,0,1-4.14-3.55,4.33,4.33,0,0,1,3.46-5,4.42,4.42,0,0,1,5,3.44,4.11,4.11,0,0,1-.61,3.12,4.41,4.41,0,0,1-2.83,1.89h0A4.12,4.12,0,0,1,129.45,476.2Zm0-7.61a3.27,3.27,0,0,0-.54,0,3.33,3.33,0,0,0-2.65,3.87,3.2,3.2,0,0,0,1.34,2.14,3.24,3.24,0,0,0,2.5.51,3.46,3.46,0,0,0,2.2-1.47,3.14,3.14,0,0,0,.47-2.38A3.42,3.42,0,0,0,129.47,468.59Z"/><path class="cls-6" d="M129.51,474.39a2.51,2.51,0,0,1-1.37-.42,2.48,2.48,0,0,1-1-1.6,2.49,2.49,0,0,1,4.89-1,2.4,2.4,0,0,1-.35,1.84,2.47,2.47,0,0,1-1.61,1.09h0A2.22,2.22,0,0,1,129.51,474.39Zm0-4a1.33,1.33,0,0,0-.28,0,1.51,1.51,0,0,0-1.18,1.78,1.42,1.42,0,0,0,.63,1,1.47,1.47,0,0,0,1.14.22,1.56,1.56,0,0,0,1-.66,1.46,1.46,0,0,0,.21-1.11A1.54,1.54,0,0,0,129.52,470.38Z"/><path class="cls-2" d="M223.92,420.07H129.45v34.54h94.47a17.27,17.27,0,1,0,0-34.54Z"/><path class="cls-3" d="M223.92,450.83H129.45v3.78h94.47a17.28,17.28,0,0,0,17.28-17.27,16.83,16.83,0,0,0-.11-1.89A17.27,17.27,0,0,1,223.92,450.83Z"/><path class="cls-4" d="M235,429.63a.47.47,0,0,1-.39-.19,13.44,13.44,0,0,0-10.72-5.29H205.31a.49.49,0,0,1,0-1h18.61a14.41,14.41,0,0,1,11.49,5.67.48.48,0,0,1-.38.79Z"/><path class="cls-4" d="M223.92,451.51a.49.49,0,0,1,0-1,13.44,13.44,0,0,0,10.72-5.29.48.48,0,0,1,.69-.09.49.49,0,0,1,.08.69A14.41,14.41,0,0,1,223.92,451.51Z"/><path class="cls-4" d="M172.47,425h-24a.5.5,0,0,1,0-1h24a.5.5,0,0,1,0,1Z"/><path class="cls-4" d="M219.46,448.06H202.05a.49.49,0,0,1,0-1h17.41a.49.49,0,1,1,0,1Z"/><path class="cls-4" d="M164.21,450.3h-15.7a.49.49,0,0,1,0-1h15.7a.49.49,0,1,1,0,1Z"/><path class="cls-4" d="M189.78,440.18h-21.4a.49.49,0,1,1,0-1h21.4a.49.49,0,1,1,0,1Z"/><path class="cls-4" d="M206.61,431.76H194a.48.48,0,0,1-.49-.49.49.49,0,0,1,.49-.49h12.57a.49.49,0,0,1,.49.49A.48.48,0,0,1,206.61,431.76Z"/><path class="cls-5" d="M146.73,437.34a17.28,17.28,0,1,1-17.28-17.27A17.28,17.28,0,0,1,146.73,437.34Z"/><path class="cls-6" d="M129.61,452.45a14.12,14.12,0,0,1-10.28-3.93c-2.43-2.32-5.25-6.11-5-11A16.75,16.75,0,0,1,119,427.2c3.42-3.55,6.79-5.17,10.32-5,4.17.43,6.85,2.16,9.6,4.64,2.35,2.26,5.46,5.76,5.64,10.28,0,3.75-1.15,6.53-3.94,9.62-2.4,2.5-6.24,5.5-11,5.68h0Zm-.87-29.26c-3,0-6,1.53-9,4.68a15.78,15.78,0,0,0-4.4,9.69c-.25,4.53,2.4,8.07,4.67,10.25a13.09,13.09,0,0,0,9.61,3.66c4.42-.17,8-3,10.31-5.37,2.63-2.92,3.66-5.42,3.67-8.93-.12-3.15-1.82-6.2-5.33-9.58-2.59-2.34-5.12-4-9-4.38Z"/><path class="cls-6" d="M129.17,448.36a10.51,10.51,0,0,1-6.8-2.43,10.84,10.84,0,0,1-3.83-7.69c-.08-6.21,4.34-11.4,10-11.86h.16a12.16,12.16,0,0,1,11.69,10c.66,5.67-3.74,10.89-10,11.9h0C130,448.34,129.58,448.36,129.17,448.36Zm-.39-21h-.14c-5.17.41-9.2,5.18-9.12,10.84a9.9,9.9,0,0,0,3.48,7,9.65,9.65,0,0,0,7.29,2.14c5.74-.93,9.77-5.67,9.18-10.79A11.15,11.15,0,0,0,128.78,427.36Z"/><path class="cls-6" d="M129.29,444.83a7.18,7.18,0,0,1-7.16-6.45,7.59,7.59,0,0,1,6.35-8.43,7.9,7.9,0,0,1,8.42,6.32,7.5,7.5,0,0,1-6.32,8.45h0A6.92,6.92,0,0,1,129.29,444.83Zm0-13.94a5.12,5.12,0,0,0-.67,0,6.58,6.58,0,0,0-5.48,7.34,6.21,6.21,0,0,0,7.3,5.49,6.52,6.52,0,0,0,5.52-7.32A6.91,6.91,0,0,0,129.26,430.89Z"/><path class="cls-6" d="M129.45,441.65a4.2,4.2,0,0,1-4.14-3.54,4.32,4.32,0,0,1,3.46-5,4.4,4.4,0,0,1,5,3.43,4.11,4.11,0,0,1-.61,3.12,4.41,4.41,0,0,1-2.83,1.89h0A4.12,4.12,0,0,1,129.45,441.65Zm0-7.61a3.27,3.27,0,0,0-.54,0,3.33,3.33,0,0,0-2.65,3.87,3.22,3.22,0,0,0,3.84,2.65,3.46,3.46,0,0,0,2.2-1.47,3.14,3.14,0,0,0,.47-2.38A3.43,3.43,0,0,0,129.47,434Z"/><path class="cls-6" d="M129.51,439.84a2.51,2.51,0,0,1-1.37-.42,2.45,2.45,0,0,1-1-1.6,2.49,2.49,0,0,1,4.89-1,2.43,2.43,0,0,1-.35,1.85,2.54,2.54,0,0,1-1.61,1.09h0A2.94,2.94,0,0,1,129.51,439.84Zm0-4a1.33,1.33,0,0,0-.28,0,1.51,1.51,0,0,0-1.18,1.78,1.42,1.42,0,0,0,.63,1,1.43,1.43,0,0,0,1.14.22,1.56,1.56,0,0,0,1-.66,1.46,1.46,0,0,0,.21-1.11A1.54,1.54,0,0,0,129.52,435.83Z"/><g id="BiomassBoiler"><rect class="cls-7" x="188.66" y="93.01" width="261.62" height="396.75"/><polygon class="cls-8" points="444.65 47.7 201.8 47.7 188.03 93.01 449.65 93.01 444.65 47.7"/><rect x="188.66" y="290.21" width="261.62" height="7.23"/><rect class="cls-9" x="239.98" y="427.77" width="158.98" height="35.05" rx="2.36"/><line class="cls-10" x1="365.58" y1="432.78" x2="365.58" y2="457.81"/><line class="cls-10" x1="354.2" y1="432.78" x2="354.2" y2="457.81"/><line class="cls-10" x1="342.83" y1="432.78" x2="342.83" y2="457.81"/><line class="cls-10" x1="331.46" y1="432.78" x2="331.46" y2="457.81"/><line class="cls-10" x1="320.09" y1="432.78" x2="320.09" y2="457.81"/><line class="cls-10" x1="308.72" y1="432.78" x2="308.72" y2="457.81"/><line class="cls-10" x1="297.35" y1="432.78" x2="297.35" y2="457.81"/><line class="cls-10" x1="285.98" y1="432.78" x2="285.98" y2="457.81"/><line class="cls-10" x1="274.61" y1="432.78" x2="274.61" y2="457.81"/><line class="cls-10" x1="263.24" y1="432.78" x2="263.24" y2="457.81"/><line class="cls-10" x1="251.87" y1="432.78" x2="251.87" y2="457.81"/><line class="cls-10" x1="388.32" y1="432.78" x2="388.32" y2="457.81"/><line class="cls-10" x1="376.95" y1="432.78" x2="376.95" y2="457.81"/><path class="cls-9" d="M273.07,105.91h91.49a56.9,56.9,0,0,1,56.9,56.9v91.27a17.06,17.06,0,0,1-17.06,17.06H233.23a17.06,17.06,0,0,1-17.06-17.06V162.81A56.9,56.9,0,0,1,273.07,105.91Z"/><path class="cls-11" d="M286.91,118.43h63.8A56.29,56.29,0,0,1,407,174.71v69.82a14.09,14.09,0,0,1-14.09,14.09H244.72a14.09,14.09,0,0,1-14.09-14.09V174.71a56.29,56.29,0,0,1,56.29-56.29Z"/><path class="cls-12" d="M313.25,127.19h11.11A71.61,71.61,0,0,1,396,198.8v39a12,12,0,0,1-12,12H253.66a12,12,0,0,1-12-12v-39A71.61,71.61,0,0,1,313.25,127.19Z"/><path class="cls-13" d="M318.81,134.07h0a69.56,69.56,0,0,1,69.56,69.56v37.55a1.79,1.79,0,0,1-1.79,1.79H251a1.79,1.79,0,0,1-1.79-1.79V203.64a69.56,69.56,0,0,1,69.56-69.56Z"/><rect x="333.04" y="132.91" width="5.01" height="111.13"/><rect x="321.88" y="133.51" width="5.01" height="111.13"/><rect x="310.73" y="133.1" width="5.01" height="111.13"/><rect x="299.58" y="134.7" width="5.01" height="111.13"/><rect x="288.43" y="135.29" width="5.01" height="111.13"/><rect x="277.28" y="137.89" width="5.01" height="111.13"/><rect x="266.12" y="150.37" width="5.01" height="94.86"/><rect x="254.97" y="160.66" width="5.01" height="83.87"/><rect x="366.49" y="144.84" width="5.01" height="101.12"/><rect x="377.65" y="160.64" width="5.01" height="84.84"/><rect x="355.34" y="140.83" width="5.01" height="106.12"/><rect x="344.19" y="137.67" width="5.01" height="111.13"/><path class="cls-14" d="M306.54,173.66h24.55a23.09,23.09,0,0,1,23.09,23.09v8a7.1,7.1,0,0,1-7.1,7.1H290.55a7.1,7.1,0,0,1-7.1-7.1v-8A23.09,23.09,0,0,1,306.54,173.66Z"/><circle class="cls-15" cx="260.89" cy="116.45" r="4.92"/><circle class="cls-15" cx="317.9" cy="112.23" r="4.92"/><circle class="cls-15" cx="371.92" cy="115.17" r="4.92"/><circle class="cls-15" cx="273.96" cy="266.2" r="4.92"/><circle class="cls-15" cx="318.22" cy="266.2" r="4.92"/><circle class="cls-15" cx="362.48" cy="266.2" r="4.92"/><polygon points="412.97 177.53 412.97 182.62 398.33 182.62 398.33 187.71 412.97 187.71 412.97 193.06 417.11 193.06 417.11 177.53 412.97 177.53"/><polygon points="412.97 206.32 412.97 211.41 398.33 211.41 398.33 216.5 412.97 216.5 412.97 221.85 417.11 221.85 417.11 206.32 412.97 206.32"/><rect class="cls-16" x="219.1" y="184.19" width="9.22" height="37.77" rx="0.62"/><path class="cls-9" d="M222.15,314.9H415a6.24,6.24,0,0,1,6.24,6.24v78.94a6,6,0,0,1-6,6H222a6,6,0,0,1-6-6V321.14a6.24,6.24,0,0,1,6.24-6.24Z"/><path class="cls-11" d="M228.16,325.54H409a4.78,4.78,0,0,1,4.78,4.78v60.52a4.64,4.64,0,0,1-4.64,4.64H228a4.64,4.64,0,0,1-4.64-4.64V330.32A4.78,4.78,0,0,1,228.16,325.54Z"/><path d="M243.19,330.19H393.93a4.17,4.17,0,0,1,4.17,4.17v52.47a4,4,0,0,1-4,4H243a4,4,0,0,1-4-4V334.36A4.17,4.17,0,0,1,243.19,330.19Z"/><path class="cls-17" d="M256.66,336.06H380.46a3.4,3.4,0,0,1,3.4,3.4v42.31a3.18,3.18,0,0,1-3.18,3.18H256.45a3.18,3.18,0,0,1-3.18-3.18V339.46a3.4,3.4,0,0,1,3.4-3.4Z"/><rect x="354.94" y="335.77" width="3.76" height="50.07"/><rect x="345.44" y="335.77" width="3.76" height="50.07"/><rect x="335.95" y="335.77" width="3.76" height="50.07"/><rect x="326.46" y="335.77" width="3.76" height="50.07"/><rect x="316.96" y="335.77" width="3.76" height="50.07"/><rect x="307.47" y="335.77" width="3.76" height="50.07"/><rect x="297.98" y="335.77" width="3.76" height="50.07"/><rect x="288.49" y="335.77" width="3.76" height="50.07"/><rect x="278.99" y="335.77" width="3.76" height="50.07"/><rect x="269.5" y="335.77" width="3.76" height="50.07"/><rect x="260.01" y="335.77" width="3.76" height="50.07"/><rect x="373.92" y="335.77" width="3.76" height="50.07"/><rect x="364.43" y="335.77" width="3.76" height="50.07"/><circle class="cls-15" cx="273.96" cy="321.07" r="4.92"/><circle class="cls-15" cx="318.22" cy="321.07" r="4.92"/><circle class="cls-15" cx="362.48" cy="321.07" r="4.92"/><circle class="cls-15" cx="273.96" cy="401.19" r="4.92"/><circle class="cls-15" cx="318.22" cy="401.19" r="4.92"/><circle class="cls-15" cx="362.48" cy="401.19" r="4.92"/><polygon points="415.47 341.51 415.47 346.6 400.83 346.6 400.83 351.69 415.47 351.69 415.47 357.05 419.61 357.05 419.61 341.51 415.47 341.51"/><polygon points="415.47 364.04 415.47 369.13 400.83 369.13 400.83 374.22 415.47 374.22 415.47 379.58 419.61 379.58 419.61 364.04 415.47 364.04"/><rect class="cls-16" x="216.87" y="350.68" width="6.16" height="25.25" rx="0.41"/><ellipse class="cls-18" cx="417.73" cy="70.35" rx="13.77" ry="12.16"/></g></svg>