<svg id="visual" viewBox="0 0 900 600" width="900" height="600" xmlns="http://www.w3.org/2000/svg" xmlns:xlink="http://www.w3.org/1999/xlink" version="1.1"><rect x="0" y="0" width="900" height="600" fill="#ffffff"></rect><defs><linearGradient id="grad1_0" x1="33.3%" y1="0%" x2="100%" y2="100%"><stop offset="20%" stop-color="#b3d8dd" stop-opacity="1"></stop><stop offset="80%" stop-color="#b3d8dd" stop-opacity="1"></stop></linearGradient></defs><defs><linearGradient id="grad1_1" x1="33.3%" y1="0%" x2="100%" y2="100%"><stop offset="20%" stop-color="#b3d8dd" stop-opacity="1"></stop><stop offset="80%" stop-color="#c0dee3" stop-opacity="1"></stop></linearGradient></defs><defs><linearGradient id="grad1_2" x1="33.3%" y1="0%" x2="100%" y2="100%"><stop offset="20%" stop-color="#cde5e8" stop-opacity="1"></stop><stop offset="80%" stop-color="#c0dee3" stop-opacity="1"></stop></linearGradient></defs><defs><linearGradient id="grad1_3" x1="33.3%" y1="0%" x2="100%" y2="100%"><stop offset="20%" stop-color="#cde5e8" stop-opacity="1"></stop><stop offset="80%" stop-color="#d9ebee" stop-opacity="1"></stop></linearGradient></defs><defs><linearGradient id="grad1_4" x1="33.3%" y1="0%" x2="100%" y2="100%"><stop offset="20%" stop-color="#e6f2f4" stop-opacity="1"></stop><stop offset="80%" stop-color="#d9ebee" stop-opacity="1"></stop></linearGradient></defs><defs><linearGradient id="grad1_5" x1="33.3%" y1="0%" x2="100%" y2="100%"><stop offset="20%" stop-color="#e6f2f4" stop-opacity="1"></stop><stop offset="80%" stop-color="#f2f8f9" stop-opacity="1"></stop></linearGradient></defs><defs><linearGradient id="grad1_6" x1="33.3%" y1="0%" x2="100%" y2="100%"><stop offset="20%" stop-color="#ffffff" stop-opacity="1"></stop><stop offset="80%" stop-color="#f2f8f9" stop-opacity="1"></stop></linearGradient></defs><defs><linearGradient id="grad2_0" x1="0%" y1="0%" x2="66.7%" y2="100%"><stop offset="20%" stop-color="#b3d8dd" stop-opacity="1"></stop><stop offset="80%" stop-color="#b3d8dd" stop-opacity="1"></stop></linearGradient></defs><defs><linearGradient id="grad2_1" x1="0%" y1="0%" x2="66.7%" y2="100%"><stop offset="20%" stop-color="#c0dee3" stop-opacity="1"></stop><stop offset="80%" stop-color="#b3d8dd" stop-opacity="1"></stop></linearGradient></defs><defs><linearGradient id="grad2_2" x1="0%" y1="0%" x2="66.7%" y2="100%"><stop offset="20%" stop-color="#c0dee3" stop-opacity="1"></stop><stop offset="80%" stop-color="#cde5e8" stop-opacity="1"></stop></linearGradient></defs><defs><linearGradient id="grad2_3" x1="0%" y1="0%" x2="66.7%" y2="100%"><stop offset="20%" stop-color="#d9ebee" stop-opacity="1"></stop><stop offset="80%" stop-color="#cde5e8" stop-opacity="1"></stop></linearGradient></defs><defs><linearGradient id="grad2_4" x1="0%" y1="0%" x2="66.7%" y2="100%"><stop offset="20%" stop-color="#d9ebee" stop-opacity="1"></stop><stop offset="80%" stop-color="#e6f2f4" stop-opacity="1"></stop></linearGradient></defs><defs><linearGradient id="grad2_5" x1="0%" y1="0%" x2="66.7%" y2="100%"><stop offset="20%" stop-color="#f2f8f9" stop-opacity="1"></stop><stop offset="80%" stop-color="#e6f2f4" stop-opacity="1"></stop></linearGradient></defs><defs><linearGradient id="grad2_6" x1="0%" y1="0%" x2="66.7%" y2="100%"><stop offset="20%" stop-color="#f2f8f9" stop-opacity="1"></stop><stop offset="80%" stop-color="#ffffff" stop-opacity="1"></stop></linearGradient></defs><g transform="translate(900, 0)"><path d="M0 540.8C-77.4 539.6 -154.9 538.3 -207 499.7C-259.1 461.1 -285.8 385.1 -333 333C-380.3 281 -447.9 252.8 -486 201.3C-524 149.8 -532.4 74.9 -540.8 0L0 0Z" fill="#f9fcfc"></path><path d="M0 463.6C-66.4 462.5 -132.7 461.4 -177.4 428.3C-222.1 395.2 -245 330.1 -285.5 285.5C-325.9 240.8 -383.9 216.7 -416.5 172.5C-449.1 128.4 -456.4 64.2 -463.6 0L0 0Z" fill="#ecf5f6"></path><path d="M0 386.3C-55.3 385.4 -110.6 384.5 -147.8 356.9C-185 329.3 -204.2 275.1 -237.9 237.9C-271.6 200.7 -319.9 180.6 -347.1 143.8C-374.3 107 -380.3 53.5 -386.3 0L0 0Z" fill="#e0eff1"></path><path d="M0 309C-44.2 308.3 -88.5 307.6 -118.3 285.5C-148 263.5 -163.3 220.1 -190.3 190.3C-217.3 160.6 -256 144.5 -277.7 115C-299.4 85.6 -304.2 42.8 -309 0L0 0Z" fill="#d3e8eb"></path><path d="M0 231.8C-33.2 231.2 -66.4 230.7 -88.7 214.1C-111 197.6 -122.5 165 -142.7 142.7C-163 120.4 -192 108.4 -208.3 86.3C-224.6 64.2 -228.2 32.1 -231.8 0L0 0Z" fill="#c6e2e5"></path><path d="M0 154.5C-22.1 154.2 -44.2 153.8 -59.1 142.8C-74 131.7 -81.7 110 -95.2 95.2C-108.6 80.3 -128 72.2 -138.8 57.5C-149.7 42.8 -152.1 21.4 -154.5 0L0 0Z" fill="#b9dbe0"></path><path d="M0 77.3C-11.1 77.1 -22.1 76.9 -29.6 71.4C-37 65.9 -40.8 55 -47.6 47.6C-54.3 40.1 -64 36.1 -69.4 28.8C-74.9 21.4 -76.1 10.7 -77.3 0L0 0Z" fill="#b3d8dd"></path></g><g transform="translate(0, 600)"><path d="M0 -540.8C69.1 -532.6 138.3 -524.4 207 -499.7C275.7 -474.9 344 -433.6 374.8 -374.8C405.6 -315.9 398.9 -239.5 420.4 -174.1C441.8 -108.7 491.3 -54.4 540.8 0L0 0Z" fill="#f9fcfc"></path><path d="M0 -463.6C59.3 -456.5 118.5 -449.5 177.4 -428.3C236.3 -407.1 294.8 -371.7 321.2 -321.2C347.6 -270.8 341.9 -205.3 360.3 -149.2C378.7 -93.2 421.1 -46.6 463.6 0L0 0Z" fill="#ecf5f6"></path><path d="M0 -386.3C49.4 -380.4 98.8 -374.6 147.8 -356.9C196.9 -339.2 245.7 -309.7 267.7 -267.7C289.7 -225.7 285 -171.1 300.3 -124.4C315.6 -77.7 350.9 -38.8 386.3 0L0 0Z" fill="#e0eff1"></path><path d="M0 -309C39.5 -304.4 79 -299.7 118.3 -285.5C157.5 -271.4 196.5 -247.8 214.2 -214.2C231.8 -180.5 228 -136.9 240.2 -99.5C252.5 -62.1 280.8 -31.1 309 0L0 0Z" fill="#d3e8eb"></path><path d="M0 -231.8C29.6 -228.3 59.3 -224.7 88.7 -214.1C118.1 -203.5 147.4 -185.8 160.6 -160.6C173.8 -135.4 171 -102.6 180.2 -74.6C189.3 -46.6 210.6 -23.3 231.8 0L0 0Z" fill="#c6e2e5"></path><path d="M0 -154.5C19.8 -152.2 39.5 -149.8 59.1 -142.8C78.8 -135.7 98.3 -123.9 107.1 -107.1C115.9 -90.3 114 -68.4 120.1 -49.7C126.2 -31.1 140.4 -15.5 154.5 0L0 0Z" fill="#b9dbe0"></path><path d="M0 -77.3C9.9 -76.1 19.8 -74.9 29.6 -71.4C39.4 -67.8 49.1 -61.9 53.5 -53.5C57.9 -45.1 57 -34.2 60.1 -24.9C63.1 -15.5 70.2 -7.8 77.3 0L0 0Z" fill="#b3d8dd"></path></g></svg>