<svg id="visual" viewBox="0 0 900 600" width="900" height="600" xmlns="http://www.w3.org/2000/svg" xmlns:xlink="http://www.w3.org/1999/xlink" version="1.1"><rect x="0" y="0" width="900" height="600" fill="#ffffff"></rect><defs><linearGradient id="grad1_0" x1="33.3%" y1="0%" x2="100%" y2="100%"><stop offset="20%" stop-color="#cddce7" stop-opacity="1"></stop><stop offset="80%" stop-color="#cddce7" stop-opacity="1"></stop></linearGradient></defs><defs><linearGradient id="grad1_1" x1="33.3%" y1="0%" x2="100%" y2="100%"><stop offset="20%" stop-color="#cddce7" stop-opacity="1"></stop><stop offset="80%" stop-color="#d4e1ea" stop-opacity="1"></stop></linearGradient></defs><defs><linearGradient id="grad1_2" x1="33.3%" y1="0%" x2="100%" y2="100%"><stop offset="20%" stop-color="#dbe6ee" stop-opacity="1"></stop><stop offset="80%" stop-color="#d4e1ea" stop-opacity="1"></stop></linearGradient></defs><defs><linearGradient id="grad1_3" x1="33.3%" y1="0%" x2="100%" y2="100%"><stop offset="20%" stop-color="#dbe6ee" stop-opacity="1"></stop><stop offset="80%" stop-color="#e2ebf1" stop-opacity="1"></stop></linearGradient></defs><defs><linearGradient id="grad1_4" x1="33.3%" y1="0%" x2="100%" y2="100%"><stop offset="20%" stop-color="#eaf0f5" stop-opacity="1"></stop><stop offset="80%" stop-color="#e2ebf1" stop-opacity="1"></stop></linearGradient></defs><defs><linearGradient id="grad1_5" x1="33.3%" y1="0%" x2="100%" y2="100%"><stop offset="20%" stop-color="#eaf0f5" stop-opacity="1"></stop><stop offset="80%" stop-color="#f1f5f8" stop-opacity="1"></stop></linearGradient></defs><defs><linearGradient id="grad1_6" x1="33.3%" y1="0%" x2="100%" y2="100%"><stop offset="20%" stop-color="#f8fafc" stop-opacity="1"></stop><stop offset="80%" stop-color="#f1f5f8" stop-opacity="1"></stop></linearGradient></defs><defs><linearGradient id="grad1_7" x1="33.3%" y1="0%" x2="100%" y2="100%"><stop offset="20%" stop-color="#f8fafc" stop-opacity="1"></stop><stop offset="80%" stop-color="#ffffff" stop-opacity="1"></stop></linearGradient></defs><defs><linearGradient id="grad2_0" x1="0%" y1="0%" x2="66.7%" y2="100%"><stop offset="20%" stop-color="#cddce7" stop-opacity="1"></stop><stop offset="80%" stop-color="#cddce7" stop-opacity="1"></stop></linearGradient></defs><defs><linearGradient id="grad2_1" x1="0%" y1="0%" x2="66.7%" y2="100%"><stop offset="20%" stop-color="#d4e1ea" stop-opacity="1"></stop><stop offset="80%" stop-color="#cddce7" stop-opacity="1"></stop></linearGradient></defs><defs><linearGradient id="grad2_2" x1="0%" y1="0%" x2="66.7%" y2="100%"><stop offset="20%" stop-color="#d4e1ea" stop-opacity="1"></stop><stop offset="80%" stop-color="#dbe6ee" stop-opacity="1"></stop></linearGradient></defs><defs><linearGradient id="grad2_3" x1="0%" y1="0%" x2="66.7%" y2="100%"><stop offset="20%" stop-color="#e2ebf1" stop-opacity="1"></stop><stop offset="80%" stop-color="#dbe6ee" stop-opacity="1"></stop></linearGradient></defs><defs><linearGradient id="grad2_4" x1="0%" y1="0%" x2="66.7%" y2="100%"><stop offset="20%" stop-color="#e2ebf1" stop-opacity="1"></stop><stop offset="80%" stop-color="#eaf0f5" stop-opacity="1"></stop></linearGradient></defs><defs><linearGradient id="grad2_5" x1="0%" y1="0%" x2="66.7%" y2="100%"><stop offset="20%" stop-color="#f1f5f8" stop-opacity="1"></stop><stop offset="80%" stop-color="#eaf0f5" stop-opacity="1"></stop></linearGradient></defs><defs><linearGradient id="grad2_6" x1="0%" y1="0%" x2="66.7%" y2="100%"><stop offset="20%" stop-color="#f1f5f8" stop-opacity="1"></stop><stop offset="80%" stop-color="#f8fafc" stop-opacity="1"></stop></linearGradient></defs><defs><linearGradient id="grad2_7" x1="0%" y1="0%" x2="66.7%" y2="100%"><stop offset="20%" stop-color="#ffffff" stop-opacity="1"></stop><stop offset="80%" stop-color="#f8fafc" stop-opacity="1"></stop></linearGradient></defs><g transform="translate(900, 0)"><path d="M0 540.8C-39.4 549.5 -78.7 558.2 -105.5 530.4C-132.3 502.7 -146.5 438.6 -169.5 409.3C-192.6 379.9 -224.4 385.4 -252.2 377.5C-280 369.6 -303.8 348.4 -328.8 328.8C-353.8 309.3 -380 291.4 -399.9 267.2C-419.9 243.1 -433.6 212.6 -440.7 182.5C-447.8 152.4 -448.3 122.6 -463.9 92.3C-479.5 61.9 -510.2 31 -540.8 0L0 0Z" fill="#fbfcfd"></path><path d="M0 473.2C-34.4 480.8 -68.9 488.4 -92.3 464.1C-115.8 439.9 -128.2 383.8 -148.3 358.1C-168.5 332.5 -196.4 337.2 -220.7 330.3C-245 323.4 -265.8 304.8 -287.7 287.7C-309.6 270.6 -332.5 255 -349.9 233.8C-367.4 212.7 -379.4 186.1 -385.6 159.7C-391.8 133.4 -392.3 107.3 -405.9 80.7C-419.6 54.2 -446.4 27.1 -473.2 0L0 0Z" fill="#f4f7fa"></path><path d="M0 405.6C-29.5 412.1 -59 418.6 -79.1 397.8C-99.2 377 -109.9 329 -127.1 307C-144.4 285 -168.3 289 -189.2 283.1C-210 277.2 -227.9 261.3 -246.6 246.6C-265.3 231.9 -285 218.5 -300 200.4C-314.9 182.3 -325.2 159.5 -330.5 136.9C-335.8 114.3 -336.2 92 -347.9 69.2C-359.6 46.4 -382.6 23.2 -405.6 0L0 0Z" fill="#edf2f6"></path><path d="M0 338C-24.6 343.4 -49.2 348.9 -65.9 331.5C-82.7 314.2 -91.6 274.1 -106 255.8C-120.3 237.5 -140.3 240.9 -157.6 235.9C-175 231 -189.9 217.7 -205.5 205.5C-221.1 193.3 -237.5 182.1 -250 167C-262.4 151.9 -271 132.9 -275.4 114.1C-279.9 95.3 -280.2 76.7 -289.9 57.7C-299.7 38.7 -318.9 19.3 -338 0L0 0Z" fill="#e6edf3"></path><path d="M0 270.4C-19.7 274.7 -39.4 279.1 -52.8 265.2C-66.1 251.4 -73.2 219.3 -84.8 204.6C-96.3 190 -112.2 192.7 -126.1 188.7C-140 184.8 -151.9 174.2 -164.4 164.4C-176.9 154.6 -190 145.7 -200 133.6C-209.9 121.5 -216.8 106.3 -220.3 91.3C-223.9 76.2 -224.2 61.3 -232 46.1C-239.8 31 -255.1 15.5 -270.4 0L0 0Z" fill="#dfe8f0"></path><path d="M0 202.8C-14.8 206.1 -29.5 209.3 -39.6 198.9C-49.6 188.5 -54.9 164.5 -63.6 153.5C-72.2 142.5 -84.2 144.5 -94.6 141.6C-105 138.6 -113.9 130.6 -123.3 123.3C-132.7 116 -142.5 109.3 -150 100.2C-157.5 91.2 -162.6 79.7 -165.3 68.5C-167.9 57.2 -168.1 46 -174 34.6C-179.8 23.2 -191.3 11.6 -202.8 0L0 0Z" fill="#d8e3ec"></path><path d="M0 135.2C-9.8 137.4 -19.7 139.5 -26.4 132.6C-33.1 125.7 -36.6 109.7 -42.4 102.3C-48.1 95 -56.1 96.3 -63.1 94.4C-70 92.4 -76 87.1 -82.2 82.2C-88.4 77.3 -95 72.8 -100 66.8C-105 60.8 -108.4 53.2 -110.2 45.6C-111.9 38.1 -112.1 30.7 -116 23.1C-119.9 15.5 -127.5 7.7 -135.2 0L0 0Z" fill="#d1dee9"></path><path d="M0 67.6C-4.9 68.7 -9.8 69.8 -13.2 66.3C-16.5 62.8 -18.3 54.8 -21.2 51.2C-24.1 47.5 -28.1 48.2 -31.5 47.2C-35 46.2 -38 43.5 -41.1 41.1C-44.2 38.7 -47.5 36.4 -50 33.4C-52.5 30.4 -54.2 26.6 -55.1 22.8C-56 19.1 -56 15.3 -58 11.5C-59.9 7.7 -63.8 3.9 -67.6 0L0 0Z" fill="#cddce7"></path></g><g transform="translate(0, 600)"><path d="M0 -540.8C32.6 -522.7 65.1 -504.6 98.7 -496.3C132.3 -488 166.9 -489.5 198.2 -478.6C229.5 -467.6 257.5 -444.1 277.8 -415.7C298 -387.4 310.6 -354.2 325.3 -325.3C340 -296.3 356.8 -271.5 368.3 -246.1C379.9 -220.7 386.1 -194.7 417.6 -173C449 -151.2 505.7 -133.6 530.4 -105.5C555.2 -77.4 548 -38.7 540.8 0L0 0Z" fill="#fbfcfd"></path><path d="M0 -473.2C28.5 -457.4 57 -441.5 86.4 -434.2C115.8 -427 146.1 -428.4 173.5 -418.7C200.8 -409.1 225.3 -388.6 243.1 -363.8C260.8 -339 271.8 -310 284.6 -284.6C297.5 -259.3 312.2 -237.6 322.3 -215.4C332.4 -193.1 337.9 -170.4 365.4 -151.4C392.9 -132.3 442.5 -116.9 464.1 -92.3C485.8 -67.7 479.5 -33.9 473.2 0L0 0Z" fill="#f4f7fa"></path><path d="M0 -405.6C24.4 -392 48.8 -378.4 74 -372.2C99.2 -366 125.2 -367.2 148.7 -358.9C172.2 -350.7 193.1 -333.1 208.3 -311.8C223.5 -290.5 232.9 -265.7 244 -244C255 -222.2 267.6 -203.6 276.3 -184.6C284.9 -165.5 289.6 -146.1 313.2 -129.7C336.8 -113.4 379.3 -100.2 397.8 -79.1C416.4 -58 411 -29 405.6 0L0 0Z" fill="#edf2f6"></path><path d="M0 -338C20.4 -326.7 40.7 -315.4 61.7 -310.2C82.7 -305 104.3 -306 123.9 -299.1C143.5 -292.2 161 -277.5 173.6 -259.8C186.3 -242.1 194.1 -221.4 203.3 -203.3C212.5 -185.2 223 -169.7 230.2 -153.8C237.4 -138 241.3 -121.7 261 -108.1C280.7 -94.5 316.1 -83.5 331.5 -65.9C347 -48.4 342.5 -24.2 338 0L0 0Z" fill="#e6edf3"></path><path d="M0 -270.4C16.3 -261.3 32.6 -252.3 49.4 -248.1C66.2 -244 83.5 -244.8 99.1 -239.3C114.8 -233.8 128.8 -222 138.9 -207.9C149 -193.7 155.3 -177.1 162.6 -162.6C170 -148.1 178.4 -135.8 184.2 -123.1C189.9 -110.4 193.1 -97.4 208.8 -86.5C224.5 -75.6 252.9 -66.8 265.2 -52.8C277.6 -38.7 274 -19.3 270.4 0L0 0Z" fill="#dfe8f0"></path><path d="M0 -202.8C12.2 -196 24.4 -189.2 37 -186.1C49.6 -183 62.6 -183.6 74.3 -179.5C86.1 -175.3 96.6 -166.5 104.2 -155.9C111.8 -145.3 116.5 -132.8 122 -122C127.5 -111.1 133.8 -101.8 138.1 -92.3C142.5 -82.8 144.8 -73 156.6 -64.9C168.4 -56.7 189.6 -50.1 198.9 -39.6C208.2 -29 205.5 -14.5 202.8 0L0 0Z" fill="#d8e3ec"></path><path d="M0 -135.2C8.1 -130.7 16.3 -126.1 24.7 -124.1C33.1 -122 41.7 -122.4 49.6 -119.6C57.4 -116.9 64.4 -111 69.4 -103.9C74.5 -96.8 77.6 -88.6 81.3 -81.3C85 -74.1 89.2 -67.9 92.1 -61.5C95 -55.2 96.5 -48.7 104.4 -43.2C112.3 -37.8 126.4 -33.4 132.6 -26.4C138.8 -19.3 137 -9.7 135.2 0L0 0Z" fill="#d1dee9"></path><path d="M0 -67.6C4.1 -65.3 8.1 -63.1 12.3 -62C16.5 -61 20.9 -61.2 24.8 -59.8C28.7 -58.4 32.2 -55.5 34.7 -52C37.3 -48.4 38.8 -44.3 40.7 -40.7C42.5 -37 44.6 -33.9 46 -30.8C47.5 -27.6 48.3 -24.3 52.2 -21.6C56.1 -18.9 63.2 -16.7 66.3 -13.2C69.4 -9.7 68.5 -4.8 67.6 0L0 0Z" fill="#cddce7"></path></g></svg>