<svg id="visual" viewBox="0 0 900 600" width="900" height="600" xmlns="http://www.w3.org/2000/svg" xmlns:xlink="http://www.w3.org/1999/xlink" version="1.1"><rect x="0" y="0" width="900" height="600" fill="#FFFFFF"></rect><defs><linearGradient id="grad1_0" x1="33.3%" y1="0%" x2="100%" y2="100%"><stop offset="20%" stop-color="#ffae61" stop-opacity="1"></stop><stop offset="80%" stop-color="#ffae61" stop-opacity="1"></stop></linearGradient></defs><defs><linearGradient id="grad1_1" x1="33.3%" y1="0%" x2="100%" y2="100%"><stop offset="20%" stop-color="#ffae61" stop-opacity="1"></stop><stop offset="80%" stop-color="#ffbb7b" stop-opacity="1"></stop></linearGradient></defs><defs><linearGradient id="grad1_2" x1="33.3%" y1="0%" x2="100%" y2="100%"><stop offset="20%" stop-color="#ffc995" stop-opacity="1"></stop><stop offset="80%" stop-color="#ffbb7b" stop-opacity="1"></stop></linearGradient></defs><defs><linearGradient id="grad1_3" x1="33.3%" y1="0%" x2="100%" y2="100%"><stop offset="20%" stop-color="#ffc995" stop-opacity="1"></stop><stop offset="80%" stop-color="#ffd6af" stop-opacity="1"></stop></linearGradient></defs><defs><linearGradient id="grad1_4" x1="33.3%" y1="0%" x2="100%" y2="100%"><stop offset="20%" stop-color="#ffe4c9" stop-opacity="1"></stop><stop offset="80%" stop-color="#ffd6af" stop-opacity="1"></stop></linearGradient></defs><defs><linearGradient id="grad1_5" x1="33.3%" y1="0%" x2="100%" y2="100%"><stop offset="20%" stop-color="#ffe4c9" stop-opacity="1"></stop><stop offset="80%" stop-color="#fff1e4" stop-opacity="1"></stop></linearGradient></defs><defs><linearGradient id="grad1_6" x1="33.3%" y1="0%" x2="100%" y2="100%"><stop offset="20%" stop-color="#ffffff" stop-opacity="1"></stop><stop offset="80%" stop-color="#fff1e4" stop-opacity="1"></stop></linearGradient></defs><defs><linearGradient id="grad2_0" x1="0%" y1="0%" x2="66.7%" y2="100%"><stop offset="20%" stop-color="#ffae61" stop-opacity="1"></stop><stop offset="80%" stop-color="#ffae61" stop-opacity="1"></stop></linearGradient></defs><defs><linearGradient id="grad2_1" x1="0%" y1="0%" x2="66.7%" y2="100%"><stop offset="20%" stop-color="#ffbb7b" stop-opacity="1"></stop><stop offset="80%" stop-color="#ffae61" stop-opacity="1"></stop></linearGradient></defs><defs><linearGradient id="grad2_2" x1="0%" y1="0%" x2="66.7%" y2="100%"><stop offset="20%" stop-color="#ffbb7b" stop-opacity="1"></stop><stop offset="80%" stop-color="#ffc995" stop-opacity="1"></stop></linearGradient></defs><defs><linearGradient id="grad2_3" x1="0%" y1="0%" x2="66.7%" y2="100%"><stop offset="20%" stop-color="#ffd6af" stop-opacity="1"></stop><stop offset="80%" stop-color="#ffc995" stop-opacity="1"></stop></linearGradient></defs><defs><linearGradient id="grad2_4" x1="0%" y1="0%" x2="66.7%" y2="100%"><stop offset="20%" stop-color="#ffd6af" stop-opacity="1"></stop><stop offset="80%" stop-color="#ffe4c9" stop-opacity="1"></stop></linearGradient></defs><defs><linearGradient id="grad2_5" x1="0%" y1="0%" x2="66.7%" y2="100%"><stop offset="20%" stop-color="#fff1e4" stop-opacity="1"></stop><stop offset="80%" stop-color="#ffe4c9" stop-opacity="1"></stop></linearGradient></defs><defs><linearGradient id="grad2_6" x1="0%" y1="0%" x2="66.7%" y2="100%"><stop offset="20%" stop-color="#fff1e4" stop-opacity="1"></stop><stop offset="80%" stop-color="#ffffff" stop-opacity="1"></stop></linearGradient></defs><g transform="translate(900, 0)"><path d="M0 486.7C-69.8 485.6 -139.6 484.5 -186.3 449.7C-232.9 414.9 -256.5 346.3 -299.8 299.8C-343.1 253.3 -406.2 228.8 -440.7 182.5C-475.1 136.2 -480.9 68.1 -486.7 0L0 0Z" fill="#fff8f1"></path><path d="M0 417.2C-59.8 416.3 -119.7 415.3 -159.7 385.5C-199.7 355.6 -219.8 296.8 -257 257C-294.1 217.1 -348.2 196.1 -377.7 156.5C-407.3 116.8 -412.2 58.4 -417.2 0L0 0Z" fill="#ffead7"></path><path d="M0 347.7C-49.9 346.9 -99.7 346.1 -133.1 321.2C-166.4 296.3 -183.2 247.4 -214.2 214.2C-245.1 180.9 -290.2 163.5 -314.8 130.4C-339.4 97.3 -343.5 48.7 -347.7 0L0 0Z" fill="#ffddbc"></path><path d="M0 278.1C-39.9 277.5 -79.8 276.9 -106.4 257C-133.1 237.1 -146.6 197.9 -171.3 171.3C-196.1 144.7 -232.1 130.8 -251.8 104.3C-271.5 77.9 -274.8 38.9 -278.1 0L0 0Z" fill="#ffcfa2"></path><path d="M0 208.6C-29.9 208.1 -59.8 207.7 -79.8 192.7C-99.8 177.8 -109.9 148.4 -128.5 128.5C-147.1 108.6 -174.1 98.1 -188.9 78.2C-203.6 58.4 -206.1 29.2 -208.6 0L0 0Z" fill="#ffc288"></path><path d="M0 139.1C-19.9 138.8 -39.9 138.4 -53.2 128.5C-66.6 118.5 -73.3 98.9 -85.7 85.7C-98 72.4 -116.1 65.4 -125.9 52.2C-135.8 38.9 -137.4 19.5 -139.1 0L0 0Z" fill="#ffb56e"></path><path d="M0 69.5C-10 69.4 -19.9 69.2 -26.6 64.2C-33.3 59.3 -36.6 49.5 -42.8 42.8C-49 36.2 -58 32.7 -63 26.1C-67.9 19.5 -68.7 9.7 -69.5 0L0 0Z" fill="#ffae61"></path></g><g transform="translate(0, 600)"><path d="M0 -486.7C60.6 -472.9 121.2 -459 181.4 -437.9C241.6 -416.8 301.5 -388.5 344.2 -344.2C386.9 -299.9 412.4 -239.5 433.3 -179.5C454.2 -119.4 470.5 -59.7 486.7 0L0 0Z" fill="#fff8f1"></path><path d="M0 -417.2C51.9 -405.3 103.9 -393.4 155.5 -375.4C207.1 -357.3 258.4 -333 295 -295C331.6 -257 353.5 -205.3 371.4 -153.8C389.3 -102.4 403.3 -51.2 417.2 0L0 0Z" fill="#ffead7"></path><path d="M0 -347.7C43.3 -337.8 86.5 -327.9 129.6 -312.8C172.6 -297.7 215.3 -277.5 245.8 -245.8C276.3 -214.2 294.6 -171.1 309.5 -128.2C324.4 -85.3 336.1 -42.7 347.7 0L0 0Z" fill="#ffddbc"></path><path d="M0 -278.1C34.6 -270.2 69.2 -262.3 103.7 -250.2C138.1 -238.2 172.3 -222 196.7 -196.7C221.1 -171.3 235.7 -136.9 247.6 -102.6C259.5 -68.3 268.8 -34.1 278.1 0L0 0Z" fill="#ffcfa2"></path><path d="M0 -208.6C26 -202.7 51.9 -196.7 77.7 -187.7C103.6 -178.6 129.2 -166.5 147.5 -147.5C165.8 -128.5 176.7 -102.6 185.7 -76.9C194.7 -51.2 201.6 -25.6 208.6 0L0 0Z" fill="#ffc288"></path><path d="M0 -139.1C17.3 -135.1 34.6 -131.1 51.8 -125.1C69 -119.1 86.1 -111 98.3 -98.3C110.5 -85.7 117.8 -68.4 123.8 -51.3C129.8 -34.1 134.4 -17.1 139.1 0L0 0Z" fill="#ffb56e"></path><path d="M0 -69.5C8.7 -67.6 17.3 -65.6 25.9 -62.6C34.5 -59.5 43.1 -55.5 49.2 -49.2C55.3 -42.8 58.9 -34.2 61.9 -25.6C64.9 -17.1 67.2 -8.5 69.5 0L0 0Z" fill="#ffae61"></path></g></svg>