<svg id="visual" viewBox="0 0 900 600" width="900" height="600" xmlns="http://www.w3.org/2000/svg" xmlns:xlink="http://www.w3.org/1999/xlink" version="1.1"><rect x="0" y="0" width="900" height="600" fill="#ffffff"></rect><g transform="translate(591.1197884925336 295.7340258336866)"><path d="M61.9 -77.9C113.1 -77.6 210.3 -127.6 258 -123C305.6 -118.3 303.8 -59.2 252.6 -29.6C201.3 0 100.7 0 62.3 20.6C23.8 41.3 47.7 82.6 47.7 129.4C47.7 176.2 23.8 228.6 -44.5 305.7C-112.8 382.8 -225.7 484.5 -241.8 447C-258 409.5 -177.5 232.8 -246.1 135C-314.7 37.3 -532.3 18.7 -568.8 -21.1C-605.4 -60.8 -460.7 -121.7 -391.5 -218.2C-322.2 -314.8 -328.4 -447.1 -275.7 -446.5C-223 -445.9 -111.5 -312.5 -53.1 -220.5C5.3 -128.6 10.7 -78.1 61.9 -77.9" fill="#cddce7"></path></g></svg>