<svg xmlns="http://www.w3.org/2000/svg" viewBox="0 0 500 500"><defs><style>.cls-1{fill:#7cb8dd;}.cls-2{fill:#8fdaef;}.cls-3{fill:#b1db89;}.cls-4{fill:#5dab2b;}.cls-5{fill:#ffc34a;}.cls-6{fill:#fff;}.cls-7{fill:#d84a61;}</style></defs><g id="Layer_5" data-name="Layer 5"><rect class="cls-1" width="500" height="500"/><path class="cls-2" d="M223.6,428.15c2,0,3.89,0,5.82-.11-9-8.37-21.63-12.92-34.85-17.7-17.89-6.47-36.39-13.15-45.93-30.35-1-1.86-1.9-3.77-2.75-5.61-1.57-3.43-3-6.67-5.29-9-3.29-3.35-8.41-4.93-13.83-6.6-6.69-2.07-14.28-4.42-19.23-10.8s-5.61-15-6.1-22.56c-.58-9-1.26-14.72-5.72-17.41a24.89,24.89,0,0,0-4.22-1.79c-3.82-1.38-8.58-3.1-10.91-8.05-1.58-3.36-1.22-6.75-.94-9.47a18.44,18.44,0,0,0,.16-3.45c-.39-3.91-4.19-6.49-10.42-10.26a79.11,79.11,0,0,1-6.75-4.43,34.82,34.82,0,0,1-8.08-8.89C56,353.72,131.26,428.15,223.6,428.15Z"/><path class="cls-2" d="M340.79,280.11a57.17,57.17,0,0,1,9.39-31.35,46.3,46.3,0,0,1-2.65-17.71c0-.59.07-1.19.1-1.79.16-2.53.31-4.93-.42-6.6-1.36-3.13-6.09-4.39-10.06-4.52-1.62,0-3.29,0-5,.05-4.29.14-8.74.29-13.28-1.1-4.21-1.28-7.62-3.61-10.93-5.86-3.11-2.12-6.05-4.12-9.11-4.79-3.79-.82-8.06.33-12.57,1.55a72.06,72.06,0,0,1-7.92,1.82c-6.56,1-13.66-.9-18.07-4.85a13.14,13.14,0,0,1-4.57-10.47c.27-6.47,5.06-11,8.92-14.65,3.53-3.34,5.64-5.5,5.09-7.32s-3.83-2.55-8.74-3.34c-5.87-.94-13.17-2.11-16.63-8.59-3.86-7.21.4-15.59,6.36-19.82a44.06,44.06,0,0,1,9.18-4.65,52.3,52.3,0,0,0,5.41-2.44c7.91-4.33,9.52-15.88,10.81-25.15a62.91,62.91,0,0,1,1.79-9.61,169.61,169.61,0,0,0-92.79-4.49c.21.94.43,1.87.65,2.83.5,2.14,1,4.35,1.45,6.57a56.19,56.19,0,0,1,1.23,11.42c-.18,17.65-10.85,29.52-21.16,41-6.87,7.64-13.27,15.85-14.88,24.68a19.36,19.36,0,0,1,9,4.53,18.34,18.34,0,0,1,6.5,14.41,33.1,33.1,0,0,1-2.55,10.25c-1.25,3.35-2.33,6.25-1.71,8.66.67,2.6,3.33,4.66,6.4,7.06A40.26,40.26,0,0,1,176.7,232c9.43,11.51,4.39,28.89-5.46,40.11a132,132,0,0,1-10.1,10c-5.69,5.23-11.06,10.17-14.45,16.36-1.18,2.17-1.49,4.66-1.1,5.82.08.25.13.27.2.3.5.23,1.88-.13,4.09-1.06l38-15.91c4.79-2,11.35-4.76,18.22-3.36,12.09,2.48,17.84,16.13,17.1,27.72a83.82,83.82,0,0,1-2.66,14.72A74.31,74.31,0,0,0,218.1,340c-.46,8.4,2.15,17,4.68,25.23l18.91,62a169.48,169.48,0,0,0,134-94.34A57.37,57.37,0,0,1,340.79,280.11Z"/><path class="cls-3" d="M57.42,238.11c.37,10.39,4.54,19.59,11.19,24.65a68.43,68.43,0,0,0,5.89,3.84c6.66,4,14.21,8.63,15.12,17.72a26.72,26.72,0,0,1-.17,5.44c-.18,1.74-.35,3.38.06,4.26.59,1.26,2.9,2.09,5.34,3a33.9,33.9,0,0,1,6,2.62c9.2,5.54,9.88,16,10.47,25.21.43,6.7.84,13,4,17.17,3,3.92,8.54,5.62,14.36,7.41,6.06,1.87,12.92,4,17.95,9.12,3.45,3.53,5.37,7.71,7.22,11.77.8,1.74,1.56,3.39,2.41,4.92,7.74,14,23.73,19.75,40.66,25.87,10.15,3.66,20.52,7.41,29.51,13.11l-14.08-46.11c-2.64-8.68-5.64-18.51-5.09-28.65A82.46,82.46,0,0,1,211,324.34a75.61,75.61,0,0,0,2.4-13c.48-7.55-2.85-16.13-9.25-17.44-3.59-.74-7.76.82-12.44,2.79l-38,15.91c-2.54,1.06-7.27,3.05-11.92,1a10.11,10.11,0,0,1-5.52-6.16c-1.6-4.74-.12-10.18,1.8-13.69,4.17-7.62,10.39-13.34,16.42-18.88a124.23,124.23,0,0,0,9.37-9.23c6.93-7.91,11.13-20.19,5.24-27.38a32.12,32.12,0,0,0-5.17-4.61c-3.92-3.06-8.37-6.52-9.88-12.38-1.39-5.39.42-10.25,2-14.54a25.24,25.24,0,0,0,2-7.21,9.38,9.38,0,0,0-10.15-8.93,4.93,4.93,0,0,1-5.73-4.76c-.29-14,8.37-25.66,17.78-36.13s18.49-20.58,18.64-34.51a46.75,46.75,0,0,0-1.05-9.41c-.4-2.06-.9-4.19-1.37-6.24-.22-.92-.43-1.85-.64-2.78-23.93,6.21-49.46,22.17-76,47.5C66,176.3,58,233.24,57.42,238.11Z"/><path class="cls-3" d="M365.13,163.87c-18.23-29.31-44.35-50-78-61.64-.51,1.89-1,5.12-1.32,7.65-1.5,10.86-3.57,25.73-15.83,32.44a62.32,62.32,0,0,1-6.41,2.92,36.69,36.69,0,0,0-7.21,3.56c-2.46,1.75-4.43,5.18-3.37,7.15,1.16,2.17,5.4,2.85,9.5,3.51,6,1,14.25,2.29,16.62,10.24,2.32,7.77-3.51,13.28-7.76,17.3-2.83,2.67-5.75,5.43-5.85,7.9a3.26,3.26,0,0,0,1.3,2.72c2.17,1.94,6.47,3,10,2.45a66,66,0,0,0,6.84-1.59c5.2-1.4,11.09-3,17.22-1.67,4.94,1.07,9,3.84,12.58,6.28,2.82,1.92,5.48,3.73,8.25,4.58,3,.91,6.44.8,10.1.68,1.28,0,2.59-.08,3.92-.08.59,0,1.18,0,1.77,0,9,.31,16,4.21,18.76,10.44,1.67,3.84,1.44,7.72,1.23,11.14,0,.54-.07,1.09-.09,1.63a38,38,0,0,0,.47,7.87,57.86,57.86,0,0,1,7.28-6.11Z"/><polygon class="cls-4" points="285.48 101.67 285.49 101.67 287.05 97 285.48 101.67"/><path class="cls-5" d="M398.06,327.52a47.41,47.41,0,0,0,23.08-88.83V94.93a23.09,23.09,0,0,0-23.08-23.08h0A23.08,23.08,0,0,0,375,94.93V238.69a47.41,47.41,0,0,0,23.08,88.83Zm-19.75-48.7A19.74,19.74,0,0,1,393.2,259.7a4.34,4.34,0,0,1-.07-.63V170.93a4.93,4.93,0,1,1,9.85,0v88.14a4.34,4.34,0,0,1-.06.63,19.74,19.74,0,1,1-24.61,19.12Z"/><path class="cls-6" d="M431,233.26V94.93a32.93,32.93,0,0,0-65.86,0v51.82c-16.58-21.89-40.89-42.47-76.51-54.42l-.42-.11a179.14,179.14,0,0,0-109.82-6.28h-.11q-18.32,3.8-37.54,14.58a180,180,0,0,0-47.15,35.76l-.87.81a125.72,125.72,0,0,0-23.25,31.21,177.82,177.82,0,0,0-24.78,90.76C44.68,357.73,124.94,438,223.6,438c71.18,0,132.78-41.78,161.58-102.1A57.26,57.26,0,0,0,431,233.26Zm-331.48-89c26.5-25.33,52-41.29,76-47.5.21.93.42,1.86.64,2.78.47,2,1,4.18,1.37,6.24a46.75,46.75,0,0,1,1.05,9.41c-.15,13.93-9.13,23.93-18.64,34.51s-18.07,22.09-17.78,36.13a4.93,4.93,0,0,0,5.73,4.76A9.38,9.38,0,0,1,158,199.48a25.24,25.24,0,0,1-2,7.21c-1.59,4.29-3.4,9.15-2,14.54,1.51,5.86,6,9.32,9.88,12.38a32.12,32.12,0,0,1,5.17,4.61c5.89,7.19,1.69,19.47-5.24,27.38a124.23,124.23,0,0,1-9.37,9.23c-6,5.54-12.25,11.26-16.42,18.88-1.92,3.51-3.4,9-1.8,13.69a10.11,10.11,0,0,0,5.52,6.16c4.65,2.08,9.38.09,11.92-1l38-15.91c4.68-2,8.85-3.53,12.44-2.79,6.4,1.31,9.73,9.89,9.25,17.44a75.61,75.61,0,0,1-2.4,13,82.46,82.46,0,0,0-2.69,15.09c-.55,10.14,2.45,20,5.09,28.65l14.08,46.11c-9-5.7-19.36-9.45-29.51-13.11C181,395,165,389.18,157.26,375.21c-.85-1.53-1.61-3.18-2.41-4.92-1.85-4.06-3.77-8.24-7.22-11.77-5-5.13-11.89-7.25-17.95-9.12-5.82-1.79-11.32-3.49-14.36-7.41-3.21-4.14-3.62-10.47-4-17.17-.59-9.22-1.27-19.67-10.47-25.21a33.9,33.9,0,0,0-6-2.62c-2.44-.88-4.75-1.71-5.34-3-.41-.88-.24-2.52-.06-4.26a26.72,26.72,0,0,0,.17-5.44c-.91-9.09-8.46-13.67-15.12-17.72a68.43,68.43,0,0,1-5.89-3.84C62,257.7,57.79,248.5,57.42,238.11,58,233.24,66,176.3,99.51,144.22ZM62.64,270.6A79.11,79.11,0,0,0,69.39,275c6.23,3.77,10,6.35,10.42,10.26a18.44,18.44,0,0,1-.16,3.45c-.28,2.72-.64,6.11.94,9.47,2.33,5,7.09,6.67,10.91,8.05a24.89,24.89,0,0,1,4.22,1.79c4.46,2.69,5.14,8.37,5.72,17.41.49,7.52,1,16,6.1,22.56s12.54,8.73,19.23,10.8c5.42,1.67,10.54,3.25,13.83,6.6,2.24,2.29,3.72,5.53,5.29,9,.85,1.84,1.72,3.75,2.75,5.61,9.54,17.2,28,23.88,45.93,30.35,13.22,4.78,25.8,9.33,34.85,17.7-1.93.06-3.87.11-5.82.11-92.34,0-167.62-74.43-169-166.44A34.82,34.82,0,0,0,62.64,270.6ZM241.69,427.18l-18.91-62c-2.53-8.27-5.14-16.83-4.68-25.23a74.31,74.31,0,0,1,2.42-13.3A83.82,83.82,0,0,0,223.18,312c.74-11.59-5-25.24-17.1-27.72-6.87-1.4-13.43,1.35-18.22,3.36l-38,15.91c-2.21.93-3.59,1.29-4.09,1.06-.07,0-.12-.05-.2-.3-.39-1.16-.08-3.65,1.1-5.82,3.39-6.19,8.76-11.13,14.45-16.36a132,132,0,0,0,10.1-10c9.85-11.22,14.89-28.6,5.46-40.11a40.26,40.26,0,0,0-6.73-6.14c-3.07-2.4-5.73-4.46-6.4-7.06-.62-2.41.46-5.31,1.71-8.66a33.1,33.1,0,0,0,2.55-10.25,18.34,18.34,0,0,0-6.5-14.41,19.36,19.36,0,0,0-9-4.53c1.61-8.83,8-17,14.88-24.68,10.31-11.48,21-23.35,21.16-41a56.19,56.19,0,0,0-1.23-11.42c-.44-2.22-1-4.43-1.45-6.57-.22-1-.44-1.89-.65-2.83a169.61,169.61,0,0,1,92.79,4.49,62.91,62.91,0,0,0-1.79,9.61c-1.29,9.27-2.9,20.82-10.81,25.15a52.3,52.3,0,0,1-5.41,2.44,44.06,44.06,0,0,0-9.18,4.65c-6,4.23-10.22,12.61-6.36,19.82,3.46,6.48,10.76,7.65,16.63,8.59,4.91.79,8.18,1.45,8.74,3.34s-1.56,4-5.09,7.32c-3.86,3.64-8.65,8.18-8.92,14.65A13.14,13.14,0,0,0,260.22,205c4.41,3.95,11.51,5.86,18.07,4.85a72.06,72.06,0,0,0,7.92-1.82c4.51-1.22,8.78-2.37,12.57-1.55,3.06.67,6,2.67,9.11,4.79,3.31,2.25,6.72,4.58,10.93,5.86,4.54,1.39,9,1.24,13.28,1.1,1.76-.05,3.43-.1,5-.05,4,.13,8.7,1.39,10.06,4.52.73,1.67.58,4.07.42,6.6,0,.6-.07,1.2-.1,1.79a46.3,46.3,0,0,0,2.65,17.71,57.19,57.19,0,0,0,25.54,84.08A169.48,169.48,0,0,1,241.69,427.18ZM357.38,231.5c0-.54.05-1.09.09-1.63.21-3.42.44-7.3-1.23-11.14-2.71-6.23-9.72-10.13-18.76-10.44-.59,0-1.18,0-1.77,0-1.33,0-2.64,0-3.92.08-3.66.12-7.11.23-10.1-.68-2.77-.85-5.43-2.66-8.25-4.58-3.58-2.44-7.64-5.21-12.58-6.28-6.13-1.32-12,.27-17.22,1.67a66,66,0,0,1-6.84,1.59c-3.54.54-7.84-.51-10-2.45a3.26,3.26,0,0,1-1.3-2.72c.1-2.47,3-5.23,5.85-7.9,4.25-4,10.08-9.53,7.76-17.3-2.37-7.95-10.61-9.28-16.62-10.24-4.1-.66-8.34-1.34-9.5-3.51-1.06-2,.91-5.4,3.37-7.15a36.69,36.69,0,0,1,7.21-3.56,62.32,62.32,0,0,0,6.41-2.92c12.26-6.71,14.33-21.58,15.83-32.44.36-2.53.81-5.76,1.32-7.65,33.66,11.66,59.78,32.33,78,61.64v69.39a57.86,57.86,0,0,0-7.28,6.11A38,38,0,0,1,357.38,231.5ZM285.49,101.67h0L287.05,97Zm65.15,178.44A47.39,47.39,0,0,1,375,238.69V94.93a23.08,23.08,0,0,1,23.08-23.08h0a23.09,23.09,0,0,1,23.08,23.08V238.69a47.41,47.41,0,1,1-70.5,41.42Z"/><path class="cls-7" d="M417.81,278.82a19.75,19.75,0,0,0-14.89-19.12,4.34,4.34,0,0,0,.06-.63V170.93a4.93,4.93,0,1,0-9.85,0v88.14a4.34,4.34,0,0,0,.07.63,19.74,19.74,0,1,0,24.61,19.12Z"/></g></svg>