<svg xmlns="http://www.w3.org/2000/svg" viewBox="0 0 500 500"><defs><style>.cls-1{fill:#e6f4f4;}.cls-2{fill:#0d7f99;}.cls-3{fill:#efeae4;}.cls-3,.cls-4,.cls-5{fill-rule:evenodd;}.cls-4{fill:#d8a87c;}.cls-5{fill:#b08fcc;}</style></defs><g id="Layer_4" data-name="Layer 4"><rect class="cls-1" width="500" height="500"/><circle class="cls-2" cx="250" cy="246" r="226.49" transform="translate(-100.72 248.83) rotate(-45)"/><polygon class="cls-3" points="338.98 366.36 338.98 389.32 119.64 389.32 119.64 125.64 161.02 125.64 161.02 102.68 341.42 102.68 380.36 141.62 380.36 366.36 338.98 366.36"/><path class="cls-4" d="M162.79,360.17V136.25H130.25V378.71H328.36V364.59H167.22A4.42,4.42,0,0,1,162.79,360.17Z"/><path class="cls-5" d="M335,165.59H206.38a4.42,4.42,0,1,1,0-8.84H335a4.42,4.42,0,1,1,0,8.84ZM369.75,146,337,113.29H171.64V355.75H369.75V146ZM206.38,194.93a4.42,4.42,0,1,1,0-8.84H335a4.42,4.42,0,1,1,0,8.84Zm0,20.5H335a4.42,4.42,0,1,1,0,8.84H206.38a4.42,4.42,0,1,1,0-8.84Zm0,29.34H335a4.42,4.42,0,1,1,0,8.84H206.38a4.42,4.42,0,1,1,0-8.84Zm0,29.34H335a4.43,4.43,0,0,1,0,8.85H206.38a4.43,4.43,0,0,1,0-8.85Zm0,29.34H335a4.43,4.43,0,0,1,0,8.85H206.38a4.43,4.43,0,0,1,0-8.85Z"/></g></svg>