<svg xmlns="http://www.w3.org/2000/svg" xmlns:xlink="http://www.w3.org/1999/xlink" viewBox="0 0 1427.53 768"><defs><style>.cls-1,.cls-35,.cls-49,.cls-54,.cls-55,.cls-60,.cls-64,.cls-82,.cls-85{fill:none;}.cls-2{clip-path:url(#clip-path);}.cls-3{fill:#b0f4f2;}.cls-4{fill:url(#New_Gradient_Swatch);}.cls-5{fill:url(#New_Gradient_Swatch-2);}.cls-6{fill:#88a84c;}.cls-7{fill:#98b74e;}.cls-8{fill:#a6cc69;}.cls-9{fill:url(#New_Gradient_Swatch-3);}.cls-10{fill:url(#New_Gradient_Swatch-4);}.cls-11{fill:url(#New_Gradient_Swatch-5);}.cls-12{fill:url(#New_Gradient_Swatch-6);}.cls-13{fill:#0d6c7c;}.cls-14{fill:#0d7f99;}.cls-15{fill:#1694a8;}.cls-16{fill:#106b7a;}.cls-17{fill:#e6f4f4;}.cls-18{fill:#f2ede2;}.cls-19{fill:#d4dddd;}.cls-20{fill:#c6cece;}.cls-21,.cls-58,.cls-81{fill:#fff;}.cls-22{fill:#8fdaef;}.cls-23{fill:#9ae3f4;}.cls-24{fill:#efede8;}.cls-25{fill:#d6d5d2;}.cls-26{fill:#d6d2c9;}.cls-27{fill:#534741;}.cls-28{fill:#a3403b;}.cls-29{fill:#ccc;}.cls-30,.cls-57,.cls-80{fill:#e6e6e6;}.cls-31{fill:#d4584e;}.cls-32{fill:#303030;}.cls-33{fill:#682b27;}.cls-34{fill:#48453e;}.cls-34,.cls-35,.cls-36,.cls-39,.cls-49,.cls-57,.cls-58,.cls-60,.cls-79,.cls-80,.cls-81,.cls-82,.cls-83{stroke:#000;}.cls-34,.cls-35,.cls-36,.cls-39,.cls-49,.cls-54,.cls-55,.cls-57,.cls-58,.cls-60,.cls-64,.cls-67,.cls-68,.cls-69,.cls-70,.cls-71,.cls-72,.cls-79,.cls-80,.cls-81,.cls-82,.cls-83,.cls-84,.cls-85{stroke-miterlimit:10;}.cls-34,.cls-36,.cls-79,.cls-80,.cls-81,.cls-82,.cls-83,.cls-84{stroke-width:0.5px;}.cls-35{stroke-width:3px;}.cls-36{fill:#706e6a;}.cls-37{fill:#020202;}.cls-38{fill:#ddd3c0;}.cls-39{fill:#fb4;}.cls-40,.cls-79{fill:#f2f2f2;}.cls-41{fill:#1a1a1a;}.cls-42{fill:#ddcfb6;}.cls-43{fill:#1c1c1c;}.cls-44{fill:#a97140;}.cls-45{fill:#915927;}.cls-46{fill:#774a2b;}.cls-47{fill:#d59657;}.cls-48{fill:#ad7341;}.cls-50{fill:#b3b3b3;}.cls-51{fill:#666;}.cls-52{fill:#cd92e8;}.cls-53{fill:#9166af;}.cls-54{stroke:#ccc;}.cls-55,.cls-64,.cls-67,.cls-84,.cls-85{stroke:#fff;}.cls-55{stroke-width:5px;}.cls-56{fill:#736357;}.cls-59{fill:#00a99d;}.cls-60{stroke-width:4px;}.cls-61{fill:#fff5ab;}.cls-62{fill:#e5bd88;}.cls-63{fill:url(#linear-gradient);}.cls-65{fill:#c1272d;}.cls-66{fill:#eae3ce;}.cls-67{fill:#0071bc;}.cls-68,.cls-69,.cls-70,.cls-71,.cls-72{stroke:#1b1464;stroke-width:2px;}.cls-68{fill:url(#linear-gradient-2);}.cls-69{fill:url(#linear-gradient-3);}.cls-70{fill:url(#linear-gradient-4);}.cls-71{fill:url(#linear-gradient-5);}.cls-72{fill:url(#linear-gradient-6);}.cls-73{fill:#754c24;}.cls-74{fill:#59381d;}.cls-75{fill:#42210b;}.cls-76{fill:url(#linear-gradient-7);}.cls-77{fill:#999;}.cls-78,.cls-83{fill:#7fe4ff;}.cls-84{fill:url(#linear-gradient-8);}.cls-85{stroke-width:0.75px;}</style><clipPath id="clip-path" transform="translate(54.95)"><rect class="cls-1" width="1366" height="768"/></clipPath><linearGradient id="New_Gradient_Swatch" x1="501.82" y1="290.96" x2="501.82" y2="201.81" gradientUnits="userSpaceOnUse"><stop offset="0" stop-color="#fff" stop-opacity="0.1"/><stop offset="0.42" stop-color="#fff" stop-opacity="0.47"/><stop offset="1" stop-color="#fff"/></linearGradient><linearGradient id="New_Gradient_Swatch-2" x1="999.25" y1="354.12" x2="999.25" y2="264.96" xlink:href="#New_Gradient_Swatch"/><linearGradient id="New_Gradient_Swatch-3" x1="152.53" y1="164.45" x2="152.53" y2="75.3" xlink:href="#New_Gradient_Swatch"/><linearGradient id="New_Gradient_Swatch-4" x1="132" y1="354.61" x2="132" y2="215.16" xlink:href="#New_Gradient_Swatch"/><linearGradient id="New_Gradient_Swatch-5" x1="1278.86" y1="119.63" x2="1278.86" y2="30.48" xlink:href="#New_Gradient_Swatch"/><linearGradient id="New_Gradient_Swatch-6" x1="1202.79" y1="246.13" x2="1202.79" y2="156.98" xlink:href="#New_Gradient_Swatch"/><linearGradient id="linear-gradient" x1="1051.79" y1="347.69" x2="1334.01" y2="347.69" gradientUnits="userSpaceOnUse"><stop offset="0" stop-color="#4d4d4d"/><stop offset="0.12"/><stop offset="0.49" stop-color="#00126a"/><stop offset="0.88"/><stop offset="1" stop-color="#4d4d4d"/></linearGradient><linearGradient id="linear-gradient-2" x1="169.61" y1="428.25" x2="309.09" y2="428.25" xlink:href="#linear-gradient"/><linearGradient id="linear-gradient-3" x1="159.09" y1="428.25" x2="298.57" y2="428.25" xlink:href="#linear-gradient"/><linearGradient id="linear-gradient-4" x1="148.56" y1="428.25" x2="288.04" y2="428.25" xlink:href="#linear-gradient"/><linearGradient id="linear-gradient-5" x1="138.04" y1="428.25" x2="277.52" y2="428.25" xlink:href="#linear-gradient"/><linearGradient id="linear-gradient-6" x1="127.52" y1="428.25" x2="266.99" y2="428.25" xlink:href="#linear-gradient"/><linearGradient id="linear-gradient-7" x1="162.54" y1="678.83" x2="162.54" y2="716.23" gradientUnits="userSpaceOnUse"><stop offset="0" stop-color="red"/><stop offset="0.29" stop-color="#a22b45"/><stop offset="0.68" stop-color="#2e609c"/><stop offset="0.85" stop-color="#0075be"/></linearGradient><linearGradient id="linear-gradient-8" x1="422.57" y1="307.49" x2="603.95" y2="307.49" gradientUnits="userSpaceOnUse"><stop offset="0" stop-color="#666e75"/><stop offset="0.17" stop-color="#000020"/><stop offset="0.49" stop-color="#001f33"/><stop offset="0.79" stop-color="#000020"/><stop offset="1" stop-color="#666e75"/></linearGradient></defs><g id="Background"><g class="cls-2"><rect class="cls-3" x="54.95" width="1366" height="481.12"/><path class="cls-4" d="M741.07,268.55a22.51,22.51,0,0,0-39.68-14.47,22.54,22.54,0,0,0-40-3.17,24.67,24.67,0,0,0-2.79-5.85A25.06,25.06,0,0,0,624,237.67a26,26,0,0,0-2.87,2.17,32.57,32.57,0,0,0-51-18.19,39.44,39.44,0,0,0-6.32-8.17,40.08,40.08,0,0,0-62,6.72,34.32,34.32,0,0,0-5.54-7.18,35,35,0,0,0-56.94,11,32.52,32.52,0,0,0-58.31,19.66c0,1,.05,1.91.13,2.85a25,25,0,0,0-39.81-6,24.76,24.76,0,0,0-7.23,15.63,20,20,0,0,0-38.76,2.48h-1.71a18.45,18.45,0,1,0-12.62,31.87l.5,0v0H713.85a22.53,22.53,0,0,0,9.44,0h1.28v-.31A22.44,22.44,0,0,0,741.07,268.55Zm-297.5-10H442.4l.49-.95Zm-58.83,0h-.68c0-.47,0-.94,0-1.41C384.27,257.66,384.5,258.12,384.74,258.59Z" transform="translate(54.95)"/><path class="cls-5" d="M1238.5,331.7a22.52,22.52,0,0,0-39.68-14.47,22.55,22.55,0,0,0-40-3.17,24.6,24.6,0,0,0-2.79-5.84,25,25,0,0,0-37.44-5.22,32.56,32.56,0,0,0-51-18.19,39.44,39.44,0,0,0-6.32-8.17,40.08,40.08,0,0,0-62,6.72,34.64,34.64,0,0,0-5.54-7.19,35,35,0,0,0-56.94,11A32.52,32.52,0,0,0,878.5,306.8c0,1,0,1.91.13,2.85a25,25,0,0,0-39.81-6,24.73,24.73,0,0,0-7.23,15.62,20,20,0,0,0-38.76,2.48h-1.71a18.46,18.46,0,1,0-12.62,31.88c.17,0,.33,0,.5,0v0h432.28a22.53,22.53,0,0,0,9.44,0H1222v-.32A22.43,22.43,0,0,0,1238.5,331.7Zm-297.5-10h-1.17l.49-.95C940.54,321.11,940.77,321.43,941,321.74Zm-58.83,0h-.68c0-.47,0-.93,0-1.4C881.7,320.81,881.93,321.28,882.17,321.74Z" transform="translate(54.95)"/><path class="cls-6" d="M0,377.12a1007.07,1007.07,0,0,1,196.52-60.36c278-55,448.12,35.61,796.2,61.76,85.58,6.43,214,11.38,373.28-1.4V507.59L0,480.94Z" transform="translate(54.95)"/><path class="cls-7" d="M0,614.22H1366V451.48C1160.42,397.59,998.89,400,889,412.39,737,429.48,589.81,476.1,379.75,482.8c-98.39,3.13-178.48-3.33-202.48-5.66C100.64,469.67,38.71,459,0,451.48Z" transform="translate(54.95)"/><path class="cls-8" d="M0,768H1366V598.66c-30-3-76.74-7-134-9.36-139.1-5.69-240.3,2.72-281,5.46C669.46,613.67,584.91,542,278,560.66a1879,1879,0,0,0-278,38Z" transform="translate(54.95)"/><path class="cls-1" d="M3.4,132.08H4.57c-.23-.31-.46-.63-.68-1Z" transform="translate(54.95)"/><path class="cls-1" d="M-54.94,132.08h.68q-.36-.69-.69-1.41C-54.93,131.14-54.93,131.61-54.94,132.08Z" transform="translate(54.95)"/><path class="cls-9" d="M279.57,119.63a22.48,22.48,0,0,0-17.18,7.94,22.54,22.54,0,0,0-40-3.17,24.6,24.6,0,0,0-2.79-5.84A25.06,25.06,0,0,0,185,111.17a25.93,25.93,0,0,0-2.87,2.16,32.56,32.56,0,0,0-51-18.18A39.49,39.49,0,0,0,124.85,87a40.08,40.08,0,0,0-62,6.72A35,35,0,0,0,3,92.54V164H274.85a23,23,0,0,0,9.44,0h1.28v-.32a22.4,22.4,0,0,0-6-44ZM3.4,132.08l.49-1c.22.32.45.64.68,1Z" transform="translate(54.95)"/><path class="cls-1" d="M20.14,326.4c.2-.21.38-.44.57-.67H19.37C19.62,326,19.88,326.19,20.14,326.4Z" transform="translate(54.95)"/><path class="cls-10" d="M232.5,296.84a28.26,28.26,0,0,0-7.74,1.07,32.1,32.1,0,0,0-46.71-9.83,49.17,49.17,0,0,0-56.72-30.92A63.6,63.6,0,0,0,3,253.84V354.61H236V353.4a28.38,28.38,0,0,0-3.5-56.56ZM20.14,326.4c-.26-.21-.52-.44-.77-.67h1.34C20.52,326,20.34,326.19,20.14,326.4Z" transform="translate(54.95)"/><path class="cls-1" d="M1371.4,87.26h1.17l-.68-1C1371.73,86.63,1371.56,86.94,1371.4,87.26Z" transform="translate(54.95)"/><path class="cls-1" d="M1313.06,87.26h.68q-.36-.7-.69-1.41C1313.07,86.32,1313.07,86.79,1313.06,87.26Z" transform="translate(54.95)"/><path class="cls-11" d="M1342.57,39.94a32.43,32.43,0,0,0-32.5,32.37c0,1,0,1.91.13,2.85a25,25,0,0,0-39.81-6,24.76,24.76,0,0,0-7.23,15.62,20,20,0,0,0-38.76,2.49h-1.71a18.45,18.45,0,1,0-12.62,31.87l.5,0v0h155.58l-.67-69.76A32.47,32.47,0,0,0,1342.57,39.94Zm-29.51,47.32c0-.47,0-.94,0-1.41q.33.7.69,1.41Z" transform="translate(54.95)"/><path class="cls-1" d="M1220.4,213.76h1.17c-.23-.31-.46-.63-.68-.95Z" transform="translate(54.95)"/><path class="cls-1" d="M1162.06,213.76h.68c-.24-.46-.47-.93-.69-1.4C1162.07,212.82,1162.07,213.29,1162.06,213.76Z" transform="translate(54.95)"/><path class="cls-12" d="M1348.17,176.83a39.49,39.49,0,0,0-6.32-8.18,40.1,40.1,0,0,0-56.56,0,39.65,39.65,0,0,0-5.43,6.73,34.64,34.64,0,0,0-5.54-7.19,35,35,0,0,0-56.94,11,32.53,32.53,0,0,0-58.31,19.67c0,1,0,1.91.13,2.85a25,25,0,0,0-39.81-6,24.76,24.76,0,0,0-7.23,15.63,20,20,0,0,0-38.76,2.48h-1.71a18.46,18.46,0,1,0-12.62,31.88c.17,0,.33,0,.5,0v0H1365V170.53A32.42,32.42,0,0,0,1348.17,176.83Zm-186.11,36.93c0-.47,0-.94,0-1.4.22.47.45.94.69,1.4Zm58.34,0,.49-.95c.22.32.45.64.68.95Z" transform="translate(54.95)"/></g></g><g id="Layer_2" data-name="Layer 2"><g id="Layer_1" data-name="Layer 1"><rect class="cls-13" x="689.04" y="469.95" width="29.41" height="11.7" transform="translate(1462.45 951.61) rotate(-180)"/><rect class="cls-14" x="767.7" y="403.15" width="10.21" height="36.4" transform="translate(1600.56 842.7) rotate(-180)"/><polygon class="cls-15" points="807.22 417.94 807.22 403.15 822.65 403.15 822.65 439.23 807.22 417.94"/><rect class="cls-16" x="767.7" y="393.44" width="10.21" height="9.71" transform="translate(1600.56 796.59) rotate(-180)"/><rect class="cls-14" x="752.27" y="393.44" width="15.43" height="9.71" transform="translate(1574.92 796.59) rotate(-180)"/><rect class="cls-13" x="767.7" y="383.74" width="14.24" height="9.71" transform="translate(1604.59 777.18) rotate(-180)"/><rect class="cls-15" x="747.52" y="383.74" width="20.18" height="9.71" transform="translate(1570.17 777.18) rotate(-180)"/><polygon class="cls-17" points="881 383.38 1017.01 494.49 1017.01 583.24 1017.01 609.98 755.35 609.98 755.35 486.02 881 383.38"/><rect class="cls-18" x="911.97" y="518.48" width="105" height="84"/><rect class="cls-19" x="961.06" y="466.61" width="101.25" height="145.36" transform="translate(2078.32 1078.59) rotate(-180)"/><polygon class="cls-15" points="880 355.97 1016.01 467.08 1016.01 481.79 880 370.67 744 481.79 744 467.08 880 355.97"/><rect class="cls-20" x="961.06" y="481.69" width="101.25" height="14.99" transform="translate(2078.32 978.38) rotate(-180)"/><rect class="cls-13" x="960.28" y="467.23" width="110.13" height="16" transform="translate(2085.64 950.46) rotate(-180)"/><rect class="cls-21" x="725.18" y="514.4" width="53.29" height="53.29" transform="translate(1558.6 1082.09) rotate(-180)"/><rect class="cls-19" x="772.16" y="514.4" width="7.97" height="53.29"/><polygon class="cls-22" points="829.56 518.26 829.56 556.13 791.69 518.26 829.56 518.26"/><polygon class="cls-22" points="784 528.19 819.63 563.82 809.26 563.82 784 534.3 784 528.19"/><polygon class="cls-23" points="784 534.3 809.26 563.82 784 563.82 784 534.3"/><polygon class="cls-23" points="784 518.26 791.69 518.26 829.56 556.13 829.56 563.82 819.63 563.82 784 528.19 784 518.26"/><rect class="cls-13" x="767.93" y="567.69" width="10.63" height="5.16" transform="translate(1601.45 1140.54) rotate(-180)"/><rect class="cls-19" x="717.21" y="572.85" width="61.35" height="3.04" transform="translate(1550.73 1148.74) rotate(-180)"/><rect class="cls-15" x="707.79" y="567.69" width="60.14" height="5.16" transform="translate(1530.68 1140.54) rotate(-180)"/><rect class="cls-20" x="1014.25" y="602.29" width="103.11" height="18.38"/><rect class="cls-19" x="699.4" y="602.29" width="261.66" height="18.38" transform="translate(1715.41 1222.95) rotate(-180)"/><rect class="cls-24" x="808.14" y="517.41" width="41.98" height="85.55" transform="translate(1713.2 1120.36) rotate(-180)"/><rect class="cls-25" x="808.14" y="517.41" width="41.98" height="8.02" transform="translate(1713.2 1042.83) rotate(-180)"/><rect class="cls-20" x="800.32" y="517.41" width="7.82" height="85.55" transform="translate(1663.41 1120.36) rotate(-180)"/><rect class="cls-21" x="802.59" y="418.04" width="53.29" height="53.29" transform="translate(1713.42 889.37) rotate(-180)"/><rect class="cls-19" x="849.57" y="418.04" width="7.97" height="53.29"/><polygon class="cls-22" points="906.97 421.9 906.97 459.78 869.1 421.9 906.97 421.9"/><polygon class="cls-22" points="861.41 431.83 897.04 467.46 886.67 467.46 861.41 437.94 861.41 431.83"/><polygon class="cls-23" points="861.41 437.94 886.67 467.46 861.41 467.46 861.41 437.94"/><polygon class="cls-23" points="861.41 421.9 869.1 421.9 906.97 459.78 906.97 467.46 897.04 467.46 861.41 431.83 861.41 421.9"/><rect class="cls-13" x="845.34" y="471.33" width="10.63" height="5.16" transform="translate(1756.27 947.82) rotate(-180)"/><rect class="cls-19" x="794.62" y="476.49" width="61.35" height="3.04" transform="translate(1705.54 956.02) rotate(-180)"/><rect class="cls-15" x="785.2" y="471.33" width="60.14" height="5.16" transform="translate(1685.5 947.82) rotate(-180)"/><rect class="cls-17" x="788.29" y="602.29" width="51.46" height="9.69" transform="translate(1683 1214.26) rotate(-180)"/><rect class="cls-20" x="894.32" y="602.29" width="11.13" height="9.69"/><rect class="cls-17" x="768.91" y="611.98" width="51.46" height="9.02" transform="translate(1644.23 1232.98) rotate(-180)"/><rect class="cls-20" x="875.32" y="611.98" width="30.08" height="9.02"/><polygon class="cls-19" points="754.35 488.03 754.35 473.33 880 370.71 1016.01 481.79 1016.01 496.49 880 385.41 754.35 488.03"/><polygon class="cls-14" points="1125.95 467.6 1016.01 467.6 880 355.97 989.94 355.97 1125.95 467.6"/><rect class="cls-26" x="911.99" y="518.5" width="18" height="84"/><rect class="cls-27" x="913.97" y="598.48" width="102" height="4"/><polyline class="cls-28" points="999.51 602.68 969.9 602.68 969.9 546.87 999.73 546.87 1004.94 543.56 1005.97 544.67 1005.97 599.16"/><rect class="cls-29" x="990.09" y="522.98" width="1.73" height="30.04"/><rect class="cls-30" x="991.82" y="523.48" width="3.11" height="16.09"/><rect class="cls-31" x="963.6" y="547.94" width="36.08" height="54.71"/><polygon class="cls-32" points="998.9 541.7 965.41 541.7 963.51 547.95 999.59 547.95 998.9 541.7"/><line class="cls-33" x1="963.6" y1="575.64" x2="999.67" y2="575.64"/><rect x="963.6" y="575.14" width="36.08" height="1"/><rect class="cls-34" x="970.67" y="594.11" width="21.92" height="4.83" rx="2.42"/><line class="cls-35" x1="987.99" y1="594.8" x2="987.99" y2="598.25"/><line class="cls-35" x1="986.42" y1="594.8" x2="986.42" y2="598.25"/><line class="cls-35" x1="984.86" y1="594.8" x2="984.86" y2="598.25"/><line class="cls-35" x1="983.29" y1="594.8" x2="983.29" y2="598.25"/><line class="cls-35" x1="981.72" y1="594.8" x2="981.72" y2="598.25"/><line class="cls-35" x1="980.15" y1="594.8" x2="980.15" y2="598.25"/><line class="cls-35" x1="978.59" y1="594.8" x2="978.59" y2="598.25"/><line class="cls-35" x1="977.02" y1="594.8" x2="977.02" y2="598.25"/><line class="cls-35" x1="975.45" y1="594.8" x2="975.45" y2="598.25"/><line class="cls-35" x1="973.88" y1="594.8" x2="973.88" y2="598.25"/><line class="cls-35" x1="972.31" y1="594.8" x2="972.31" y2="598.25"/><line class="cls-35" x1="991.13" y1="594.8" x2="991.13" y2="598.25"/><line class="cls-35" x1="989.56" y1="594.8" x2="989.56" y2="598.25"/><path class="cls-34" d="M981.54,549.72h0a14.15,14.15,0,0,1,14.15,14.15v5.92a2.71,2.71,0,0,1-2.71,2.71H970.1a2.71,2.71,0,0,1-2.71-2.71v-5.92a14.15,14.15,0,0,1,14.15-14.15Z"/><path class="cls-36" d="M981.54,551.45h0a12.16,12.16,0,0,1,12.16,12.16v4.84a2.33,2.33,0,0,1-2.33,2.33H971.71a2.33,2.33,0,0,1-2.33-2.33v-4.84a12.16,12.16,0,0,1,12.16-12.16Z"/><path class="cls-37" d="M981.54,552.66h0a10.64,10.64,0,0,1,10.64,10.64v4.24a2,2,0,0,1-2,2H972.94a2,2,0,0,1-2-2V563.3A10.64,10.64,0,0,1,981.54,552.66Z"/><path class="cls-38" d="M981.54,553.61h0a9.59,9.59,0,0,1,9.59,9.59v3.59a1.84,1.84,0,0,1-1.84,1.84H973.79a1.84,1.84,0,0,1-1.84-1.84V563.2A9.59,9.59,0,0,1,981.54,553.61Z"/><rect x="983.51" y="553.45" width="0.69" height="15.32"/><rect x="981.97" y="553.53" width="0.69" height="15.32"/><rect x="980.43" y="553.61" width="0.69" height="15.32"/><rect x="978.89" y="553.69" width="0.69" height="15.32"/><rect x="977.35" y="553.78" width="0.69" height="15.32"/><rect x="975.82" y="553.86" width="0.69" height="15.32"/><rect x="974.28" y="555.58" width="0.69" height="13.08"/><rect x="972.74" y="557.27" width="0.69" height="11.56"/><rect x="988.12" y="555.09" width="0.69" height="13.94"/><rect x="989.66" y="556.99" width="0.69" height="11.7"/><rect x="986.58" y="554.54" width="0.69" height="14.63"/><rect x="985.04" y="554.1" width="0.69" height="15.32"/><path class="cls-39" d="M981.54,559.07h0a4.88,4.88,0,0,1,4.88,4.88v.39a0,0,0,0,1,0,0h-9.75a0,0,0,0,1,0,0v-.39A4.88,4.88,0,0,1,981.54,559.07Z"/><circle class="cls-40" cx="974.8" cy="551.04" r="0.68"/><circle class="cls-40" cx="981.42" cy="550.6" r="0.68"/><circle class="cls-40" cx="988.04" cy="551.14" r="0.68"/><circle class="cls-40" cx="975.36" cy="571.83" r="0.68"/><circle class="cls-40" cx="981.46" cy="571.83" r="0.68"/><circle class="cls-40" cx="987.57" cy="571.83" r="0.68"/><polygon points="994.53 559.6 994.53 560.3 992.51 560.3 992.51 561 994.53 561 994.53 561.74 995.1 561.74 995.1 559.6 994.53 559.6"/><polygon points="994.53 563.57 994.53 564.27 992.51 564.27 992.51 564.97 994.53 564.97 994.53 565.71 995.1 565.71 995.1 563.57 994.53 563.57"/><rect class="cls-41" x="967.79" y="560.52" width="1.27" height="5.21" rx="0.64"/><path class="cls-34" d="M973.74,578.54h15.53a6.39,6.39,0,0,1,6.39,6.39v0a6.19,6.19,0,0,1-6.19,6.19H973.55a6.19,6.19,0,0,1-6.19-6.19v0a6.39,6.39,0,0,1,6.39-6.39Z"/><path class="cls-36" d="M973.28,580h16.45a4.9,4.9,0,0,1,4.9,4.9v0a4.75,4.75,0,0,1-4.75,4.75H973.13a4.75,4.75,0,0,1-4.75-4.75v0a4.9,4.9,0,0,1,4.9-4.9Z"/><path d="M974.81,580.65H988.2a4.27,4.27,0,0,1,4.27,4.27v0a4.09,4.09,0,0,1-4.09,4.09H974.63a4.09,4.09,0,0,1-4.09-4.09v0a4.27,4.27,0,0,1,4.27-4.27Z"/><path class="cls-42" d="M976,581.46h11a3.48,3.48,0,0,1,3.48,3.48v0a3.26,3.26,0,0,1-3.26,3.26H975.77a3.26,3.26,0,0,1-3.26-3.26v0a3.48,3.48,0,0,1,3.48-3.48Z"/><rect x="986.53" y="581.42" width="0.52" height="6.9"/><rect x="985.22" y="581.42" width="0.52" height="6.9"/><rect x="983.91" y="581.42" width="0.52" height="6.9"/><rect x="982.6" y="581.42" width="0.52" height="6.9"/><rect x="981.29" y="581.42" width="0.52" height="6.9"/><rect x="979.98" y="581.42" width="0.52" height="6.9"/><rect x="978.67" y="581.42" width="0.52" height="6.9"/><rect x="977.36" y="581.42" width="0.52" height="6.9"/><rect x="976.05" y="581.42" width="0.52" height="6.9"/><rect x="974.74" y="581.42" width="0.52" height="6.9"/><rect x="973.44" y="581.42" width="0.52" height="6.9"/><rect x="989.14" y="581.42" width="0.52" height="6.9"/><rect x="987.83" y="581.42" width="0.52" height="6.9"/><circle class="cls-40" cx="975.36" cy="579.39" r="0.68"/><circle class="cls-40" cx="981.46" cy="579.39" r="0.68"/><circle class="cls-40" cx="987.57" cy="579.39" r="0.68"/><circle class="cls-40" cx="975.36" cy="590.44" r="0.68"/><circle class="cls-40" cx="981.46" cy="590.44" r="0.68"/><circle class="cls-40" cx="987.57" cy="590.44" r="0.68"/><polygon points="994.87 582.21 994.87 582.91 992.86 582.91 992.86 583.62 994.87 583.62 994.87 584.35 995.44 584.35 995.44 582.21 994.87 582.21"/><polygon points="994.87 585.32 994.87 586.02 992.86 586.02 992.86 586.72 994.87 586.72 994.87 587.46 995.44 587.46 995.44 585.32 994.87 585.32"/><rect class="cls-41" x="967.49" y="583.48" width="0.85" height="3.48" rx="0.42"/><ellipse class="cls-21" cx="995.18" cy="544.82" rx="1.9" ry="1.68"/><polygon points="1005.97 544.75 1005.11 538.5 998.9 541.7 999.59 547.95 1005.97 544.75"/><polygon class="cls-43" points="1005.11 538.5 971.62 538.5 965.41 541.7 998.9 541.7 1005.11 538.5"/><path class="cls-44" d="M884.61,595.57H872.68v4.37h11.93a2.19,2.19,0,1,0,0-4.37Z" transform="translate(54.95)"/><circle class="cls-45" cx="937.44" cy="597.76" r="2.18"/><path class="cls-45" d="M884.61,599.46H872.68v.48h11.93a2.19,2.19,0,0,0,2.19-2.18,1.79,1.79,0,0,0,0-.24A2.18,2.18,0,0,1,884.61,599.46Z" transform="translate(54.95)"/><path class="cls-46" d="M886,596.78l0,0a1.69,1.69,0,0,0-1.36-.67h-2.35a.06.06,0,0,1-.06-.06.06.06,0,0,1,.06-.06h2.35a1.83,1.83,0,0,1,1.46.71.07.07,0,0,1,0,.09Z" transform="translate(54.95)"/><path class="cls-46" d="M884.61,599.54a.06.06,0,0,1-.06-.06.06.06,0,0,1,.06-.06,1.69,1.69,0,0,0,1.36-.67.06.06,0,0,1,.08,0,.07.07,0,0,1,0,.09A1.83,1.83,0,0,1,884.61,599.54Z" transform="translate(54.95)"/><path class="cls-46" d="M878.12,596.2h-3a.06.06,0,0,1-.06-.06.07.07,0,0,1,.06-.07h3a.07.07,0,0,1,.06.07A.06.06,0,0,1,878.12,596.2Z" transform="translate(54.95)"/><path class="cls-46" d="M884.05,599.11h-2.2a.06.06,0,0,1-.06-.06.06.06,0,0,1,.06-.06h2.2a.06.06,0,0,1,.06.06A.06.06,0,0,1,884.05,599.11Z" transform="translate(54.95)"/><path class="cls-46" d="M877.07,599.39h-2a.06.06,0,0,1,0-.12h2a.06.06,0,1,1,0,.12Z" transform="translate(54.95)"/><path class="cls-46" d="M880.3,598.11h-2.7a.06.06,0,0,1-.06-.06.06.06,0,0,1,.06-.06h2.7a.06.06,0,0,1,.06.06A.05.05,0,0,1,880.3,598.11Z" transform="translate(54.95)"/><path class="cls-46" d="M882.43,597.05h-1.59a.06.06,0,0,1,0-.12h1.59a.06.06,0,1,1,0,.12Z" transform="translate(54.95)"/><circle class="cls-47" cx="927.64" cy="597.76" r="2.18"/><path class="cls-48" d="M872.7,599.66a1.75,1.75,0,0,1-1.29-.49,1.8,1.8,0,0,1-.63-1.4,2.07,2.07,0,0,1,.59-1.3,1.67,1.67,0,0,1,1.3-.62,2.3,2.3,0,0,1,1.92,1.88,1.67,1.67,0,0,1-.49,1.22,2.15,2.15,0,0,1-1.39.71Zm-.11-3.69a1.58,1.58,0,0,0-1.13.59,2,2,0,0,0-.56,1.22,1.72,1.72,0,0,0,.59,1.3,1.63,1.63,0,0,0,1.21.46,2,2,0,0,0,1.3-.68,1.51,1.51,0,0,0,.47-1.13,1.87,1.87,0,0,0-.67-1.21,1.92,1.92,0,0,0-1.14-.55Z" transform="translate(54.95)"/><path class="cls-48" d="M872.65,599.15a1.33,1.33,0,0,1-.86-.31,1.41,1.41,0,0,1-.49-1,1.45,1.45,0,0,1,1.28-1.5h0a1.53,1.53,0,0,1,1.47,1.27,1.42,1.42,0,0,1-1.26,1.5h-.16Zm0-2.65h0a1.31,1.31,0,0,0-1.15,1.36,1.22,1.22,0,0,0,1.36,1.16,1.31,1.31,0,0,0,1.16-1.37A1.4,1.4,0,0,0,872.6,596.5Z" transform="translate(54.95)"/><path class="cls-48" d="M872.66,598.7a.88.88,0,0,1-.54-.18.93.93,0,0,1-.36-.63,1,1,0,0,1,.8-1.07,1,1,0,0,1,1.06.8,1,1,0,0,1-.79,1.07h-.17Zm0-1.76h-.08a.83.83,0,0,0-.7.92.81.81,0,0,0,.31.55.82.82,0,0,0,.61.15.83.83,0,0,0,.7-.93A.87.87,0,0,0,872.66,596.94Z" transform="translate(54.95)"/><path class="cls-48" d="M872.68,598.3a.55.55,0,0,1-.3-.09.53.53,0,0,1-.22-.36.55.55,0,0,1,.44-.63.56.56,0,0,1,.63.44.55.55,0,0,1-.08.39.57.57,0,0,1-.36.24h-.11Zm0-1h-.07a.44.44,0,0,0-.34.49.41.41,0,0,0,.17.27.41.41,0,0,0,.32.07.49.49,0,0,0,.28-.19.4.4,0,0,0,.06-.3A.45.45,0,0,0,872.69,597.34Z" transform="translate(54.95)"/><path class="cls-48" d="M872.69,598.07a.34.34,0,0,1-.17-.05.32.32,0,0,1,.11-.57.31.31,0,0,1,.37.24.34.34,0,0,1,0,.24.3.3,0,0,1-.2.13h-.07Zm0-.51h0a.2.2,0,0,0-.07.35.22.22,0,0,0,.14,0,.19.19,0,0,0,.15-.22A.2.2,0,0,0,872.69,597.56Z" transform="translate(54.95)"/><path class="cls-44" d="M889.36,595.57H877.43v4.37h11.93a2.19,2.19,0,0,0,0-4.37Z" transform="translate(54.95)"/><path class="cls-45" d="M889.36,599.46H877.43v.48h11.93a2.18,2.18,0,0,0,2.18-2.18,1.85,1.85,0,0,0,0-.24A2.19,2.19,0,0,1,889.36,599.46Z" transform="translate(54.95)"/><path class="cls-46" d="M890.76,596.78l0,0a1.67,1.67,0,0,0-1.35-.67H887A.06.06,0,0,1,887,596,.06.06,0,0,1,887,596h2.35a1.83,1.83,0,0,1,1.45.71.06.06,0,0,1,0,.09Z" transform="translate(54.95)"/><path class="cls-46" d="M889.36,599.54a.06.06,0,0,1-.06-.06.06.06,0,0,1,.06-.06,1.67,1.67,0,0,0,1.35-.67.07.07,0,0,1,.09,0,.06.06,0,0,1,0,.09A1.83,1.83,0,0,1,889.36,599.54Z" transform="translate(54.95)"/><path class="cls-46" d="M882.86,596.2h-3a.07.07,0,0,1-.07-.06.07.07,0,0,1,.07-.07h3s.06,0,.06.07A.06.06,0,0,1,882.86,596.2Z" transform="translate(54.95)"/><path class="cls-46" d="M888.8,599.11h-2.2a.06.06,0,0,1-.06-.06.05.05,0,0,1,.06-.06h2.2a.06.06,0,0,1,.06.06A.06.06,0,0,1,888.8,599.11Z" transform="translate(54.95)"/><path class="cls-46" d="M881.82,599.39h-2a.06.06,0,1,1,0-.12h2a.06.06,0,0,1,0,.12Z" transform="translate(54.95)"/><path class="cls-46" d="M885.05,598.11h-2.7s-.07,0-.07-.06a.07.07,0,0,1,.07-.06h2.7a.06.06,0,0,1,.06.06A.06.06,0,0,1,885.05,598.11Z" transform="translate(54.95)"/><path class="cls-46" d="M887.17,597.05h-1.58a.06.06,0,1,1,0-.12h1.58a.06.06,0,1,1,0,.12Z" transform="translate(54.95)"/><circle class="cls-47" cx="932.38" cy="597.76" r="2.18"/><path class="cls-48" d="M877.45,599.66a1.78,1.78,0,0,1-1.3-.49,1.84,1.84,0,0,1-.63-1.4,2.19,2.19,0,0,1,.59-1.3,1.68,1.68,0,0,1,1.3-.62,2,2,0,0,1,1.22.58,2,2,0,0,1,.71,1.3,1.68,1.68,0,0,1-.5,1.22,2.12,2.12,0,0,1-1.39.71Zm-.11-3.69a1.6,1.6,0,0,0-1.14.59,2,2,0,0,0-.55,1.22,1.69,1.69,0,0,0,.59,1.3,1.63,1.63,0,0,0,1.21.46,2,2,0,0,0,1.3-.68,1.59,1.59,0,0,0,.47-1.13,1.84,1.84,0,0,0-.68-1.21,1.89,1.89,0,0,0-1.14-.55Z" transform="translate(54.95)"/><path class="cls-48" d="M877.39,599.15a1.33,1.33,0,0,1-.85-.31,1.37,1.37,0,0,1-.49-1,1.45,1.45,0,0,1,1.27-1.5h0a1.54,1.54,0,0,1,1.48,1.27,1.43,1.43,0,0,1-1.27,1.5h-.16Zm0-2.65h0a1.29,1.29,0,0,0-.72,2.25,1.27,1.27,0,0,0,.93.27,1.31,1.31,0,0,0,1.16-1.37A1.42,1.42,0,0,0,877.35,596.5Z" transform="translate(54.95)"/><path class="cls-48" d="M877.41,598.7a.91.91,0,0,1-.55-.18.88.88,0,0,1-.35-.63,1,1,0,0,1,.8-1.07,1,1,0,0,1,1.06.8,1,1,0,0,1-.8,1.07h-.16Zm0-1.76h-.09a.82.82,0,0,0-.69.92.74.74,0,0,0,.31.55.82.82,0,0,0,.61.15.84.84,0,0,0,.7-.93A.88.88,0,0,0,877.41,596.94Z" transform="translate(54.95)"/><path class="cls-48" d="M877.43,598.3a.47.47,0,0,1-.3-.1.49.49,0,0,1-.22-.35.54.54,0,0,1,.43-.63.56.56,0,0,1,.63.44.54.54,0,0,1-.07.39.6.6,0,0,1-.36.24h-.11Zm0-1h-.07a.42.42,0,0,0-.33.49.41.41,0,0,0,.17.27.38.38,0,0,0,.31.07.43.43,0,0,0,.28-.19.4.4,0,0,0,.06-.3A.43.43,0,0,0,877.43,597.34Z" transform="translate(54.95)"/><path class="cls-48" d="M877.44,598.07a.41.41,0,0,1-.18-.05.34.34,0,0,1-.13-.2.31.31,0,0,1,.25-.37.32.32,0,0,1,.37.24.3.3,0,0,1,0,.24.26.26,0,0,1-.2.13h-.06Zm0-.51h0a.19.19,0,0,0-.15.22.22.22,0,0,0,.08.13.26.26,0,0,0,.15,0,.2.2,0,0,0,.12-.08.17.17,0,0,0,0-.14A.2.2,0,0,0,877.44,597.56Z" transform="translate(54.95)"/><path class="cls-44" d="M884.61,591.21H872.68v4.36h11.93a2.18,2.18,0,1,0,0-4.36Z" transform="translate(54.95)"/><path class="cls-45" d="M884.67,593.39a2.18,2.18,0,1,1-2.18-2.18A2.18,2.18,0,0,1,884.67,593.39Z" transform="translate(54.95)"/><path class="cls-45" d="M884.61,595.1H872.68v.47h11.93a2.18,2.18,0,0,0,2.19-2.18,1.94,1.94,0,0,0,0-.24A2.18,2.18,0,0,1,884.61,595.1Z" transform="translate(54.95)"/><path class="cls-46" d="M886,592.42l0,0a1.69,1.69,0,0,0-1.36-.67h-2.35a.06.06,0,0,1-.06-.06.07.07,0,0,1,.06-.07h2.35a1.81,1.81,0,0,1,1.46.72.07.07,0,0,1,0,.09Z" transform="translate(54.95)"/><path class="cls-46" d="M884.61,595.18a.06.06,0,0,1,0-.12,1.72,1.72,0,0,0,1.36-.67.05.05,0,0,1,.08,0,.07.07,0,0,1,0,.09A1.83,1.83,0,0,1,884.61,595.18Z" transform="translate(54.95)"/><path class="cls-46" d="M878.12,591.83h-3a.06.06,0,0,1-.06-.06.06.06,0,0,1,.06-.06h3a.06.06,0,0,1,.06.06A.06.06,0,0,1,878.12,591.83Z" transform="translate(54.95)"/><path class="cls-46" d="M884.05,594.75h-2.2a.07.07,0,0,1-.06-.07.06.06,0,0,1,.06-.06h2.2a.06.06,0,0,1,.06.06A.07.07,0,0,1,884.05,594.75Z" transform="translate(54.95)"/><path class="cls-46" d="M877.07,595h-2A.06.06,0,0,1,875,595a.06.06,0,0,1,.06-.06h2s.07,0,.07.06A.07.07,0,0,1,877.07,595Z" transform="translate(54.95)"/><path class="cls-46" d="M880.3,593.75h-2.7a.06.06,0,0,1,0-.12h2.7a.06.06,0,1,1,0,.12Z" transform="translate(54.95)"/><path class="cls-46" d="M882.43,592.69h-1.59a.06.06,0,0,1-.06-.06.07.07,0,0,1,.06-.07h1.59a.07.07,0,0,1,.06.07A.06.06,0,0,1,882.43,592.69Z" transform="translate(54.95)"/><circle class="cls-47" cx="927.64" cy="593.39" r="2.18"/><path class="cls-48" d="M872.7,595.3a1.76,1.76,0,0,1-1.29-.5,1.78,1.78,0,0,1-.63-1.39,2.05,2.05,0,0,1,.59-1.3,1.68,1.68,0,0,1,1.3-.63,2.07,2.07,0,0,1,1.21.59,2,2,0,0,1,.71,1.3,1.67,1.67,0,0,1-.49,1.21,2.11,2.11,0,0,1-1.39.72Zm-.11-3.69a1.58,1.58,0,0,0-1.13.59,2,2,0,0,0-.56,1.22,1.68,1.68,0,0,0,.59,1.29,1.63,1.63,0,0,0,1.21.47,2,2,0,0,0,1.3-.68,1.53,1.53,0,0,0,.47-1.13,1.85,1.85,0,0,0-.67-1.21,1.92,1.92,0,0,0-1.14-.55Z" transform="translate(54.95)"/><path class="cls-48" d="M872.65,594.78a1.33,1.33,0,0,1-.86-.3,1.41,1.41,0,0,1-.49-1,1.44,1.44,0,0,1,1.28-1.5h0a1.53,1.53,0,0,1,1.47,1.26,1.43,1.43,0,0,1-1.26,1.51h-.16Zm0-2.65h0a1.32,1.32,0,0,0-1.15,1.37,1.22,1.22,0,0,0,1.36,1.15,1.3,1.3,0,0,0,1.16-1.36A1.41,1.41,0,0,0,872.6,592.13Z" transform="translate(54.95)"/><path class="cls-48" d="M872.66,594.34a.88.88,0,0,1-.54-.18.93.93,0,0,1-.36-.64,1,1,0,0,1,.8-1.06,1,1,0,0,1,1.06.8.94.94,0,0,1-.79,1.06h0Zm0-1.76h-.08a.84.84,0,0,0-.7.93.83.83,0,0,0,.31.55.77.77,0,0,0,.61.14.81.81,0,0,0,.7-.92A.87.87,0,0,0,872.66,592.58Z" transform="translate(54.95)"/><path class="cls-48" d="M872.68,593.94a.57.57,0,0,1-.3-.1.51.51,0,0,1-.22-.35.55.55,0,0,1,.44-.63.54.54,0,0,1,.55.83.57.57,0,0,1-.36.24h-.11Zm0-1h-.07a.44.44,0,0,0-.34.49.41.41,0,0,0,.17.27.4.4,0,0,0,.32.06.47.47,0,0,0,.28-.18.4.4,0,0,0,.06-.3A.45.45,0,0,0,872.69,593Z" transform="translate(54.95)"/><path class="cls-48" d="M872.69,593.71a.27.27,0,0,1-.17-.06.26.26,0,0,1-.13-.2.31.31,0,0,1,.24-.37.32.32,0,0,1,.37.25.31.31,0,0,1,0,.23.35.35,0,0,1-.2.14h-.07Zm0-.51h0a.18.18,0,0,0-.15.22.16.16,0,0,0,.08.12.18.18,0,0,0,.26,0,.19.19,0,0,0,0-.14A.2.2,0,0,0,872.69,593.2Z" transform="translate(54.95)"/><path class="cls-44" d="M889.36,591.21H877.43v4.36h11.93a2.18,2.18,0,1,0,0-4.36Z" transform="translate(54.95)"/><path class="cls-45" d="M889.36,595.1H877.43v.47h11.93a2.17,2.17,0,0,0,2.18-2.18,1.93,1.93,0,0,0,0-.24A2.19,2.19,0,0,1,889.36,595.1Z" transform="translate(54.95)"/><path class="cls-46" d="M890.76,592.42l0,0a1.67,1.67,0,0,0-1.35-.67H887a.06.06,0,0,1-.06-.06.07.07,0,0,1,.06-.07h2.35a1.81,1.81,0,0,1,1.45.72.06.06,0,0,1,0,.09Z" transform="translate(54.95)"/><path class="cls-46" d="M889.36,595.18a.06.06,0,0,1,0-.12,1.7,1.7,0,0,0,1.35-.67.06.06,0,1,1,.1.08A1.83,1.83,0,0,1,889.36,595.18Z" transform="translate(54.95)"/><path class="cls-46" d="M882.86,591.83h-3s-.07,0-.07-.06a.07.07,0,0,1,.07-.06h3a.06.06,0,0,1,.06.06A.05.05,0,0,1,882.86,591.83Z" transform="translate(54.95)"/><path class="cls-46" d="M888.8,594.75h-2.2s-.06,0-.06-.07a.06.06,0,0,1,.06-.06h2.2a.06.06,0,0,1,.06.06A.07.07,0,0,1,888.8,594.75Z" transform="translate(54.95)"/><path class="cls-46" d="M881.82,595h-2a.07.07,0,0,1-.07-.06s0-.06.07-.06h2a.06.06,0,0,1,.06.06A.06.06,0,0,1,881.82,595Z" transform="translate(54.95)"/><path class="cls-46" d="M885.05,593.75h-2.7a.06.06,0,1,1,0-.12h2.7a.06.06,0,1,1,0,.12Z" transform="translate(54.95)"/><path class="cls-46" d="M887.17,592.69h-1.58a.07.07,0,0,1-.07-.06.07.07,0,0,1,.07-.07h1.58a.07.07,0,0,1,.07.07A.07.07,0,0,1,887.17,592.69Z" transform="translate(54.95)"/><path class="cls-47" d="M879.61,593.39a2.18,2.18,0,1,1-2.18-2.18A2.18,2.18,0,0,1,879.61,593.39Z" transform="translate(54.95)"/><path class="cls-48" d="M877.45,595.3a1.79,1.79,0,0,1-1.3-.5,1.81,1.81,0,0,1-.63-1.39,2.16,2.16,0,0,1,.59-1.3,1.69,1.69,0,0,1,1.3-.63,2.07,2.07,0,0,1,1.22.59,2,2,0,0,1,.71,1.3,1.68,1.68,0,0,1-.5,1.21,2.09,2.09,0,0,1-1.39.72Zm-.11-3.69a1.6,1.6,0,0,0-1.14.59,2,2,0,0,0-.55,1.22,1.81,1.81,0,0,0,1.8,1.76,2,2,0,0,0,1.3-.68,1.61,1.61,0,0,0,.47-1.13,1.82,1.82,0,0,0-.68-1.21,1.89,1.89,0,0,0-1.14-.55Z" transform="translate(54.95)"/><path class="cls-48" d="M877.39,594.78a1.32,1.32,0,0,1-.85-.3,1.37,1.37,0,0,1-.49-1,1.44,1.44,0,0,1,1.27-1.5h0a1.54,1.54,0,0,1,1.48,1.26,1.44,1.44,0,0,1-1.27,1.51h-.16Zm0-2.65h0a1.33,1.33,0,0,0-1.16,1.37,1.29,1.29,0,0,0,.44.88,1.23,1.23,0,0,0,.93.27,1.3,1.3,0,0,0,1.16-1.36A1.43,1.43,0,0,0,877.35,592.13Z" transform="translate(54.95)"/><path class="cls-48" d="M877.41,594.34a.91.91,0,0,1-.55-.18.88.88,0,0,1-.35-.64,1,1,0,0,1,.8-1.06,1,1,0,0,1,1.06.8.94.94,0,0,1-.8,1.06h0Zm0-1.76h-.09a.83.83,0,0,0-.69.93.76.76,0,0,0,.31.55.77.77,0,0,0,.61.14.82.82,0,0,0,.7-.92A.88.88,0,0,0,877.41,592.58Z" transform="translate(54.95)"/><path class="cls-48" d="M877.43,593.94a.54.54,0,0,1-.3-.1.51.51,0,0,1-.22-.35.54.54,0,0,1,.43-.63.55.55,0,0,1,.56.83.6.6,0,0,1-.36.24h-.11Zm0-1h-.07a.42.42,0,0,0-.33.49.41.41,0,0,0,.17.27.38.38,0,0,0,.31.06.42.42,0,0,0,.28-.18.4.4,0,0,0,.06-.3A.43.43,0,0,0,877.43,593Z" transform="translate(54.95)"/><path class="cls-48" d="M877.44,593.71a.32.32,0,0,1-.18-.06.29.29,0,0,1-.13-.2.32.32,0,0,1,.62-.12.28.28,0,0,1,0,.23.3.3,0,0,1-.2.14h-.06Zm0-.51h0a.19.19,0,0,0-.15.22.2.2,0,0,0,.08.12.21.21,0,0,0,.15,0,.2.2,0,0,0,.12-.08.19.19,0,0,0,0-.14A.2.2,0,0,0,877.44,593.2Z" transform="translate(54.95)"/><path class="cls-44" d="M887.16,586.85H875.23v4.36h11.93a2.18,2.18,0,1,0,0-4.36Z" transform="translate(54.95)"/><path class="cls-45" d="M887.22,589a2.18,2.18,0,1,1-2.18-2.18A2.19,2.19,0,0,1,887.22,589Z" transform="translate(54.95)"/><path class="cls-45" d="M887.16,590.73H875.23v.48h11.93a2.19,2.19,0,0,0,2.19-2.18,1.94,1.94,0,0,0,0-.24A2.18,2.18,0,0,1,887.16,590.73Z" transform="translate(54.95)"/><path class="cls-46" d="M888.57,588.06a.05.05,0,0,1-.05,0,1.72,1.72,0,0,0-1.36-.67h-2.35a.06.06,0,0,1-.06-.06.06.06,0,0,1,.06-.06h2.35a1.81,1.81,0,0,1,1.46.72.06.06,0,0,1,0,.08Z" transform="translate(54.95)"/><path class="cls-46" d="M887.16,590.82a.06.06,0,0,1-.06-.06.07.07,0,0,1,.06-.07,1.71,1.71,0,0,0,1.36-.66s.06,0,.08,0a.06.06,0,0,1,0,.08A1.81,1.81,0,0,1,887.16,590.82Z" transform="translate(54.95)"/><path class="cls-46" d="M880.67,587.47h-3a.06.06,0,1,1,0-.12h3a.06.06,0,1,1,0,.12Z" transform="translate(54.95)"/><path class="cls-46" d="M886.6,590.38h-2.2a.06.06,0,0,1-.06-.06.06.06,0,0,1,.06-.06h2.2a.06.06,0,0,1,.06.06A.05.05,0,0,1,886.6,590.38Z" transform="translate(54.95)"/><path class="cls-46" d="M879.62,590.67h-2a.07.07,0,0,1-.06-.07.06.06,0,0,1,.06-.06h2a.07.07,0,0,1,.07.06A.07.07,0,0,1,879.62,590.67Z" transform="translate(54.95)"/><path class="cls-46" d="M882.85,589.39h-2.7a.06.06,0,0,1-.06-.06.07.07,0,0,1,.06-.07h2.7s.06,0,.06.07A.06.06,0,0,1,882.85,589.39Z" transform="translate(54.95)"/><path class="cls-46" d="M885,588.33h-1.59a.07.07,0,0,1-.06-.07.06.06,0,0,1,.06-.06H885a.06.06,0,0,1,.06.06A.07.07,0,0,1,885,588.33Z" transform="translate(54.95)"/><path class="cls-47" d="M877.42,589a2.19,2.19,0,1,1-2.19-2.18A2.19,2.19,0,0,1,877.42,589Z" transform="translate(54.95)"/><path class="cls-48" d="M875.25,590.94a1.76,1.76,0,0,1-1.29-.5,1.78,1.78,0,0,1-.63-1.39,2,2,0,0,1,.59-1.3,1.68,1.68,0,0,1,1.3-.63,2.33,2.33,0,0,1,1.92,1.89,1.67,1.67,0,0,1-.49,1.21,2.11,2.11,0,0,1-1.39.72Zm-.11-3.7a1.62,1.62,0,0,0-1.13.59,2,2,0,0,0-.56,1.23,1.68,1.68,0,0,0,.59,1.29,1.63,1.63,0,0,0,1.21.46,2,2,0,0,0,1.31-.67A1.55,1.55,0,0,0,877,589a1.83,1.83,0,0,0-.67-1.21,1.88,1.88,0,0,0-1.14-.56Z" transform="translate(54.95)"/><path class="cls-48" d="M875.2,590.42a1.28,1.28,0,0,1-.86-.31,1.34,1.34,0,0,1-.48-1,1.43,1.43,0,0,1,1.27-1.49h0a1.53,1.53,0,0,1,1.47,1.26,1.42,1.42,0,0,1-1.26,1.5h-.16Zm-.05-2.65h0a1.31,1.31,0,0,0-1.15,1.37,1.25,1.25,0,0,0,.44.88,1.2,1.2,0,0,0,.92.27,1.31,1.31,0,0,0,1.16-1.36A1.41,1.41,0,0,0,875.15,587.77Z" transform="translate(54.95)"/><path class="cls-48" d="M875.21,590a.93.93,0,0,1-.9-.82,1,1,0,0,1,.8-1.06,1,1,0,0,1,1.06.79.94.94,0,0,1-.79,1.07h0Zm0-1.76h-.08a.84.84,0,0,0-.7.93.81.81,0,0,0,.31.54.74.74,0,0,0,.61.15.82.82,0,0,0,.7-.92A.86.86,0,0,0,875.21,588.22Z" transform="translate(54.95)"/><path class="cls-48" d="M875.23,589.57a.55.55,0,0,1-.3-.09.51.51,0,0,1-.22-.35.54.54,0,0,1,.44-.63.55.55,0,0,1,.63.43.53.53,0,0,1-.08.39.53.53,0,0,1-.36.24h-.11Zm0-1h-.07a.43.43,0,0,0-.34.49.44.44,0,0,0,.17.27.44.44,0,0,0,.32.06.47.47,0,0,0,.28-.18.4.4,0,0,0,.06-.3A.44.44,0,0,0,875.24,588.61Z" transform="translate(54.95)"/><path class="cls-48" d="M875.24,589.34a.26.26,0,0,1-.17-.05.3.3,0,0,1-.13-.2.31.31,0,0,1,.24-.37.32.32,0,0,1,.37.25.31.31,0,0,1,0,.23.35.35,0,0,1-.2.14h-.07Zm0-.5h0a.2.2,0,0,0-.15.23.2.2,0,0,0,.08.12.17.17,0,0,0,.14,0,.2.2,0,0,0,.13-.09.22.22,0,0,0,0-.14A.19.19,0,0,0,875.24,588.84Z" transform="translate(54.95)"/><path class="cls-44" d="M891.91,586.85H880v4.36h11.93a2.18,2.18,0,1,0,0-4.36Z" transform="translate(54.95)"/><path class="cls-45" d="M891.91,590.73H880v.48h11.93a2.18,2.18,0,0,0,2.18-2.18,1.93,1.93,0,0,0,0-.24A2.19,2.19,0,0,1,891.91,590.73Z" transform="translate(54.95)"/><path class="cls-46" d="M893.31,588.06s0,0,0,0a1.7,1.7,0,0,0-1.35-.67h-2.35a.06.06,0,0,1-.06-.06.06.06,0,0,1,.06-.06h2.35a1.81,1.81,0,0,1,1.45.72.05.05,0,0,1,0,.08Z" transform="translate(54.95)"/><path class="cls-46" d="M891.91,590.82a.06.06,0,0,1-.06-.06.07.07,0,0,1,.06-.07,1.69,1.69,0,0,0,1.35-.66.06.06,0,0,1,.09,0,.05.05,0,0,1,0,.08A1.81,1.81,0,0,1,891.91,590.82Z" transform="translate(54.95)"/><path class="cls-46" d="M885.41,587.47h-3a.06.06,0,1,1,0-.12h3a.06.06,0,1,1,0,.12Z" transform="translate(54.95)"/><path class="cls-46" d="M891.35,590.38h-2.2a.05.05,0,0,1-.06-.06.06.06,0,0,1,.06-.06h2.2a.06.06,0,0,1,.06.06A.06.06,0,0,1,891.35,590.38Z" transform="translate(54.95)"/><path class="cls-46" d="M884.37,590.67h-2s-.06,0-.06-.07a.06.06,0,0,1,.06-.06h2a.06.06,0,0,1,.06.06A.07.07,0,0,1,884.37,590.67Z" transform="translate(54.95)"/><path class="cls-46" d="M887.6,589.39h-2.7a.07.07,0,0,1-.07-.06.07.07,0,0,1,.07-.07h2.7a.07.07,0,0,1,.06.07A.06.06,0,0,1,887.6,589.39Z" transform="translate(54.95)"/><path class="cls-46" d="M889.72,588.33h-1.58s-.06,0-.06-.07a.06.06,0,0,1,.06-.06h1.58a.07.07,0,0,1,.07.06A.07.07,0,0,1,889.72,588.33Z" transform="translate(54.95)"/><path class="cls-47" d="M882.16,589a2.18,2.18,0,1,1-2.18-2.18A2.18,2.18,0,0,1,882.16,589Z" transform="translate(54.95)"/><path class="cls-48" d="M880,590.94a1.79,1.79,0,0,1-1.3-.5,1.85,1.85,0,0,1-.63-1.39,2.13,2.13,0,0,1,.59-1.3,1.69,1.69,0,0,1,1.3-.63,2,2,0,0,1,1.22.59,2,2,0,0,1,.71,1.3,1.68,1.68,0,0,1-.5,1.21,2.09,2.09,0,0,1-1.39.72Zm-.11-3.7a1.63,1.63,0,0,0-1.14.59,2,2,0,0,0-.55,1.23,1.65,1.65,0,0,0,.59,1.29,1.63,1.63,0,0,0,1.21.46,2,2,0,0,0,1.3-.67,1.61,1.61,0,0,0,.47-1.13,1.8,1.8,0,0,0-.68-1.21,1.83,1.83,0,0,0-1.14-.56Z" transform="translate(54.95)"/><path class="cls-48" d="M879.94,590.42a1.27,1.27,0,0,1-.85-.31,1.35,1.35,0,0,1-.49-1,1.43,1.43,0,0,1,1.27-1.49h0a1.54,1.54,0,0,1,1.48,1.26,1.42,1.42,0,0,1-1.27,1.5h-.16Zm0-2.65h0a1.31,1.31,0,0,0-1.15,1.37,1.24,1.24,0,0,0,.43.88,1.23,1.23,0,0,0,.93.27,1.31,1.31,0,0,0,1.16-1.36A1.43,1.43,0,0,0,879.9,587.77Z" transform="translate(54.95)"/><path class="cls-48" d="M880,590a.92.92,0,0,1-.55-.19.86.86,0,0,1-.35-.63.94.94,0,0,1,.8-1.06,1,1,0,0,1,1.06.79.94.94,0,0,1-.8,1.07h0Zm0-1.76h-.09a.83.83,0,0,0-.69.93.79.79,0,0,0,.92.69.83.83,0,0,0,.7-.92A.87.87,0,0,0,880,588.22Z" transform="translate(54.95)"/><path class="cls-48" d="M880,589.57a.53.53,0,0,1-.3-.09.51.51,0,0,1-.22-.35.53.53,0,0,1,.43-.63.55.55,0,0,1,.63.43.52.52,0,0,1-.07.39.56.56,0,0,1-.36.24H880Zm0-1h-.07a.42.42,0,0,0-.33.49.44.44,0,0,0,.17.27.44.44,0,0,0,.59-.12.4.4,0,0,0,.06-.3A.43.43,0,0,0,880,588.61Z" transform="translate(54.95)"/><path class="cls-48" d="M880,589.34a.31.31,0,0,1-.18-.05.34.34,0,0,1-.13-.2.32.32,0,0,1,.25-.37.32.32,0,0,1,.37.25.31.31,0,0,1,0,.23.34.34,0,0,1-.21.14H880Zm0-.5h0a.2.2,0,0,0-.15.23.2.2,0,0,0,.08.12.21.21,0,0,0,.15,0,.18.18,0,0,0,.12-.09.17.17,0,0,0,0-.14A.19.19,0,0,0,880,588.84Z" transform="translate(54.95)"/><path class="cls-44" d="M889.66,582.48H877.73v4.37h11.93a2.19,2.19,0,0,0,0-4.37Z" transform="translate(54.95)"/><path class="cls-45" d="M889.66,586.37H877.73v.48h11.93a2.18,2.18,0,0,0,2.18-2.18,1.93,1.93,0,0,0,0-.24A2.18,2.18,0,0,1,889.66,586.37Z" transform="translate(54.95)"/><path class="cls-46" d="M891.06,583.69l0,0a1.69,1.69,0,0,0-1.36-.67h-2.35a.06.06,0,0,1-.06-.06.06.06,0,0,1,.06-.06h2.35a1.83,1.83,0,0,1,1.45.71.06.06,0,0,1,0,.09Z" transform="translate(54.95)"/><path class="cls-46" d="M889.66,586.46a.07.07,0,0,1-.06-.07.06.06,0,0,1,.06-.06,1.69,1.69,0,0,0,1.36-.67.06.06,0,0,1,.08,0,.06.06,0,0,1,0,.09A1.84,1.84,0,0,1,889.66,586.46Z" transform="translate(54.95)"/><path class="cls-46" d="M883.16,583.11h-3a.06.06,0,0,1-.06-.06s0-.07.06-.07h3a.07.07,0,0,1,.07.07A.07.07,0,0,1,883.16,583.11Z" transform="translate(54.95)"/><path class="cls-46" d="M889.1,586h-2.2a.06.06,0,0,1-.06-.06.06.06,0,0,1,.06-.06h2.2a.06.06,0,0,1,.06.06A.06.06,0,0,1,889.1,586Z" transform="translate(54.95)"/><path class="cls-46" d="M882.12,586.3h-2a.05.05,0,0,1-.06-.06.06.06,0,0,1,.06-.06h2a.06.06,0,0,1,.06.06A.05.05,0,0,1,882.12,586.3Z" transform="translate(54.95)"/><path class="cls-46" d="M885.35,585h-2.7s-.06,0-.06-.07a.06.06,0,0,1,.06-.06h2.7a.06.06,0,0,1,.06.06A.07.07,0,0,1,885.35,585Z" transform="translate(54.95)"/><path class="cls-46" d="M887.48,584h-1.59a.06.06,0,1,1,0-.12h1.59a.06.06,0,0,1,0,.12Z" transform="translate(54.95)"/><circle class="cls-47" cx="932.68" cy="584.67" r="2.18"/><path class="cls-48" d="M877.75,586.57a1.79,1.79,0,0,1-1.3-.49,1.85,1.85,0,0,1-.63-1.4,2.13,2.13,0,0,1,.59-1.29,1.67,1.67,0,0,1,1.31-.63,2.3,2.3,0,0,1,1.92,1.88,1.65,1.65,0,0,1-.5,1.22,2.1,2.1,0,0,1-1.38.71Zm-.11-3.69a1.61,1.61,0,0,0-1.14.59,2,2,0,0,0-.55,1.22,1.71,1.71,0,0,0,.59,1.3,1.63,1.63,0,0,0,1.21.46,2,2,0,0,0,1.3-.68,1.51,1.51,0,0,0,.47-1.13,1.84,1.84,0,0,0-.68-1.21,1.87,1.87,0,0,0-1.13-.55Z" transform="translate(54.95)"/><path class="cls-48" d="M877.7,586.06a1.33,1.33,0,0,1-.86-.31,1.35,1.35,0,0,1-.49-1,1.45,1.45,0,0,1,1.27-1.5h0a1.54,1.54,0,0,1,1.48,1.27,1.42,1.42,0,0,1-1.26,1.5h-.16Zm-.05-2.65h0a1.31,1.31,0,0,0-1.15,1.37,1.23,1.23,0,0,0,.44.88,1.25,1.25,0,0,0,.92.27,1.31,1.31,0,0,0,1.16-1.37A1.4,1.4,0,0,0,877.65,583.41Z" transform="translate(54.95)"/><path class="cls-48" d="M877.71,585.61a.89.89,0,0,1-.9-.81,1,1,0,0,1,.8-1.07,1,1,0,0,1,1.06.8,1,1,0,0,1-.8,1.07h-.16Zm0-1.76h-.09a.82.82,0,0,0-.69.92.81.81,0,0,0,.31.55.82.82,0,0,0,.61.15.83.83,0,0,0,.7-.93A.87.87,0,0,0,877.71,583.85Z" transform="translate(54.95)"/><path class="cls-48" d="M877.73,585.21a.52.52,0,0,1-.52-.45.55.55,0,0,1,.44-.63.56.56,0,0,1,.63.44.55.55,0,0,1-.08.39.57.57,0,0,1-.36.24h-.11Zm0-1h-.06a.41.41,0,0,0-.34.48.41.41,0,0,0,.17.27.4.4,0,0,0,.32.07.44.44,0,0,0,.27-.19.39.39,0,0,0,.06-.3A.43.43,0,0,0,877.73,584.25Z" transform="translate(54.95)"/><path class="cls-48" d="M877.74,585a.34.34,0,0,1-.17-.05.35.35,0,0,1-.14-.2.32.32,0,0,1,.62-.13.33.33,0,0,1,0,.24.34.34,0,0,1-.21.14h-.06Zm0-.5h0a.18.18,0,0,0-.15.22.16.16,0,0,0,.08.13.22.22,0,0,0,.14,0,.2.2,0,0,0,.12-.08.17.17,0,0,0,0-.14A.19.19,0,0,0,877.74,584.48Z" transform="translate(54.95)"/><path class="cls-44" d="M894.11,595.57H882.18v4.37h11.93a2.19,2.19,0,0,0,0-4.37Z" transform="translate(54.95)"/><path class="cls-45" d="M894.11,599.46H882.18v.48h11.93a2.19,2.19,0,0,0,2.18-2.18,1.79,1.79,0,0,0,0-.24A2.17,2.17,0,0,1,894.11,599.46Z" transform="translate(54.95)"/><path class="cls-46" d="M895.51,596.78l0,0a1.69,1.69,0,0,0-1.35-.67h-2.35a.07.07,0,0,1-.07-.06s0-.06.07-.06h2.35a1.83,1.83,0,0,1,1.45.71.07.07,0,0,1,0,.09Z" transform="translate(54.95)"/><path class="cls-46" d="M894.11,599.54s-.07,0-.07-.06a.07.07,0,0,1,.07-.06,1.69,1.69,0,0,0,1.35-.67.06.06,0,1,1,.1.08A1.83,1.83,0,0,1,894.11,599.54Z" transform="translate(54.95)"/><path class="cls-46" d="M887.61,596.2h-3a.06.06,0,0,1-.06-.06.07.07,0,0,1,.06-.07h3a.07.07,0,0,1,.06.07A.06.06,0,0,1,887.61,596.2Z" transform="translate(54.95)"/><path class="cls-46" d="M893.54,599.11h-2.2a.06.06,0,0,1-.06-.06.06.06,0,0,1,.06-.06h2.2a.05.05,0,0,1,.06.06A.06.06,0,0,1,893.54,599.11Z" transform="translate(54.95)"/><path class="cls-46" d="M886.57,599.39h-2a.06.06,0,0,1,0-.12h2a.06.06,0,0,1,0,.12Z" transform="translate(54.95)"/><path class="cls-46" d="M889.79,598.11h-2.7a.06.06,0,0,1-.06-.06.06.06,0,0,1,.06-.06h2.7a.07.07,0,0,1,.07.06S889.83,598.11,889.79,598.11Z" transform="translate(54.95)"/><path class="cls-46" d="M891.92,597.05h-1.59a.06.06,0,0,1,0-.12h1.59a.06.06,0,1,1,0,.12Z" transform="translate(54.95)"/><circle class="cls-47" cx="937.13" cy="597.76" r="2.18"/><path class="cls-48" d="M882.2,599.66a1.76,1.76,0,0,1-1.3-.49,1.8,1.8,0,0,1-.63-1.4,2.13,2.13,0,0,1,.59-1.3,1.67,1.67,0,0,1,1.3-.62,2,2,0,0,1,1.21.58,2,2,0,0,1,.72,1.3,1.73,1.73,0,0,1-.5,1.22,2.15,2.15,0,0,1-1.39.71Zm-.11-3.69a1.58,1.58,0,0,0-1.14.59,2,2,0,0,0-.56,1.22,1.76,1.76,0,0,0,.59,1.3,1.65,1.65,0,0,0,1.22.46,2,2,0,0,0,1.3-.68,1.54,1.54,0,0,0,.46-1.13,1.83,1.83,0,0,0-.67-1.21,1.92,1.92,0,0,0-1.14-.55Z" transform="translate(54.95)"/><path class="cls-48" d="M882.14,599.15a1.33,1.33,0,0,1-.86-.31,1.4,1.4,0,0,1-.48-1,1.45,1.45,0,0,1,1.27-1.5h0a1.53,1.53,0,0,1,1.47,1.27,1.42,1.42,0,0,1-1.26,1.5h-.16Zm0-2.65h0a1.31,1.31,0,0,0-1.15,1.36,1.27,1.27,0,0,0,.44.89,1.25,1.25,0,0,0,.92.27,1.3,1.3,0,0,0,1.16-1.37A1.4,1.4,0,0,0,882.09,596.5Z" transform="translate(54.95)"/><path class="cls-48" d="M882.16,598.7a.91.91,0,0,1-.55-.18.93.93,0,0,1-.36-.63,1,1,0,0,1,.8-1.07,1,1,0,0,1,1.07.8,1,1,0,0,1-.8,1.07h-.16Zm0-1.76h-.08a.83.83,0,0,0-.7.92.81.81,0,0,0,.31.55.84.84,0,0,0,.62.15.82.82,0,0,0,.69-.93A.87.87,0,0,0,882.15,596.94Z" transform="translate(54.95)"/><path class="cls-48" d="M882.18,598.3a.5.5,0,0,1-.31-.1.52.52,0,0,1-.22-.35.55.55,0,0,1,.44-.63.56.56,0,0,1,.63.44.5.5,0,0,1-.08.39.57.57,0,0,1-.36.24h-.1Zm0-1h-.07a.42.42,0,0,0-.33.49.37.37,0,0,0,.16.27.41.41,0,0,0,.32.07.46.46,0,0,0,.28-.19.4.4,0,0,0,.06-.3A.43.43,0,0,0,882.18,597.34Z" transform="translate(54.95)"/><path class="cls-48" d="M882.18,598.07A.34.34,0,0,1,882,598a.3.3,0,0,1-.13-.2.31.31,0,0,1,.25-.37.32.32,0,0,1,.37.24.34.34,0,0,1,0,.24.3.3,0,0,1-.2.13h-.07Zm0-.51h0a.19.19,0,0,0-.15.22.22.22,0,0,0,.08.13.22.22,0,0,0,.14,0,.22.22,0,0,0,.13-.08.22.22,0,0,0,0-.14A.19.19,0,0,0,882.18,597.56Z" transform="translate(54.95)"/><path class="cls-44" d="M894.11,591.21H882.18v4.36h11.93a2.18,2.18,0,1,0,0-4.36Z" transform="translate(54.95)"/><path class="cls-45" d="M894.11,595.1H882.18v.47h11.93a2.18,2.18,0,0,0,2.18-2.18,1.94,1.94,0,0,0,0-.24A2.17,2.17,0,0,1,894.11,595.1Z" transform="translate(54.95)"/><path class="cls-46" d="M895.51,592.42l0,0a1.69,1.69,0,0,0-1.35-.67h-2.35a.07.07,0,0,1-.07-.06.07.07,0,0,1,.07-.07h2.35a1.81,1.81,0,0,1,1.45.72.07.07,0,0,1,0,.09Z" transform="translate(54.95)"/><path class="cls-46" d="M894.11,595.18a.06.06,0,1,1,0-.12,1.71,1.71,0,0,0,1.35-.67.06.06,0,0,1,.09,0,.07.07,0,0,1,0,.09A1.83,1.83,0,0,1,894.11,595.18Z" transform="translate(54.95)"/><path class="cls-46" d="M887.61,591.83h-3a.06.06,0,0,1-.06-.06.06.06,0,0,1,.06-.06h3a.06.06,0,0,1,.06.06A.06.06,0,0,1,887.61,591.83Z" transform="translate(54.95)"/><path class="cls-46" d="M893.54,594.75h-2.2a.07.07,0,0,1-.06-.07.06.06,0,0,1,.06-.06h2.2a.06.06,0,0,1,.06.06S893.58,594.75,893.54,594.75Z" transform="translate(54.95)"/><path class="cls-46" d="M886.57,595h-2a.06.06,0,0,1-.06-.06.06.06,0,0,1,.06-.06h2a.06.06,0,0,1,.06.06A.06.06,0,0,1,886.57,595Z" transform="translate(54.95)"/><path class="cls-46" d="M889.79,593.75h-2.7a.06.06,0,0,1,0-.12h2.7a.06.06,0,1,1,0,.12Z" transform="translate(54.95)"/><path class="cls-46" d="M891.92,592.69h-1.59a.06.06,0,0,1-.06-.06.07.07,0,0,1,.06-.07h1.59a.07.07,0,0,1,.06.07A.06.06,0,0,1,891.92,592.69Z" transform="translate(54.95)"/><path class="cls-47" d="M884.36,593.39a2.19,2.19,0,1,1-2.18-2.18A2.18,2.18,0,0,1,884.36,593.39Z" transform="translate(54.95)"/><path class="cls-48" d="M882.2,595.3a1.92,1.92,0,0,1-1.93-1.89,2.1,2.1,0,0,1,.59-1.3,1.68,1.68,0,0,1,1.3-.63,2,2,0,0,1,1.21.59,2,2,0,0,1,.72,1.3,1.72,1.72,0,0,1-.5,1.21,2.11,2.11,0,0,1-1.39.72Zm-.11-3.69a1.58,1.58,0,0,0-1.14.59,2,2,0,0,0-.56,1.22,1.72,1.72,0,0,0,.59,1.29,1.66,1.66,0,0,0,1.22.47,2,2,0,0,0,1.3-.68,1.55,1.55,0,0,0,.46-1.13,1.8,1.8,0,0,0-.67-1.21,1.92,1.92,0,0,0-1.14-.55Z" transform="translate(54.95)"/><path class="cls-48" d="M882.14,594.78a1.33,1.33,0,0,1-.86-.3,1.4,1.4,0,0,1-.48-1,1.44,1.44,0,0,1,1.27-1.5h0a1.53,1.53,0,0,1,1.47,1.26,1.42,1.42,0,0,1-1.26,1.51h-.16Zm0-2.65h0a1.32,1.32,0,0,0-1.15,1.37,1.25,1.25,0,0,0,.44.88,1.2,1.2,0,0,0,.92.27,1.28,1.28,0,0,0,1.16-1.36A1.41,1.41,0,0,0,882.09,592.13Z" transform="translate(54.95)"/><path class="cls-48" d="M882.16,594.34a.91.91,0,0,1-.55-.18.93.93,0,0,1-.36-.64,1,1,0,0,1,.8-1.06,1,1,0,0,1,1.07.8.94.94,0,0,1-.8,1.06h0Zm0-1.76h-.08a.84.84,0,0,0-.7.93.83.83,0,0,0,.31.55.79.79,0,0,0,.62.14.81.81,0,0,0,.69-.92A.87.87,0,0,0,882.15,592.58Z" transform="translate(54.95)"/><path class="cls-48" d="M882.18,593.94a.57.57,0,0,1-.31-.1.55.55,0,0,1,.22-1,.56.56,0,0,1,.63.43.52.52,0,0,1-.08.4.57.57,0,0,1-.36.24h-.1Zm0-1h-.07a.42.42,0,0,0-.33.49.37.37,0,0,0,.16.27.41.41,0,0,0,.32.06.45.45,0,0,0,.28-.18.4.4,0,0,0,.06-.3A.43.43,0,0,0,882.18,593Z" transform="translate(54.95)"/><path class="cls-48" d="M882.18,593.71a.27.27,0,0,1-.17-.06.26.26,0,0,1-.13-.2.32.32,0,0,1,.25-.37.33.33,0,0,1,.37.25.32.32,0,0,1,0,.23.35.35,0,0,1-.2.14h-.07Zm0-.51h0a.19.19,0,0,0-.15.22.2.2,0,0,0,.08.12.17.17,0,0,0,.14,0,.22.22,0,0,0,.13-.08.24.24,0,0,0,0-.14A.19.19,0,0,0,882.18,593.2Z" transform="translate(54.95)"/><rect class="cls-19" x="1282.06" y="533.17" width="129.04" height="97.8"/><path class="cls-49" d="M1101.09,631.1" transform="translate(54.95)"/><path class="cls-49" d="M1190.89,624.53" transform="translate(54.95)"/><rect class="cls-14" x="1406" y="398.01" width="13.05" height="13.57"/><path class="cls-19" d="M1356.15,465.33V408.9l-60.27-78.54-68.5,89.26-.27,56,68.67-85.19Z" transform="translate(54.95)"/><polygon class="cls-19" points="1411.1 465.33 1350.73 390.44 1282.06 475.63 1282.06 535.94 1411.1 535.94 1411.1 465.33"/><polygon class="cls-20" points="1372.21 343.76 1350.83 315.9 1330.96 341.79 1282.33 405.16 1282.33 421.39 1350.83 332.13 1411.1 410.67 1411.1 394.44 1372.21 343.76"/><polygon class="cls-13" points="1350.66 306 1419.33 395.26 1419.33 411.49 1350.66 322.23 1281.98 411.49 1281.98 395.26 1350.66 306"/><rect class="cls-20" x="1281.91" y="631.1" width="129.19" height="21.37"/><rect class="cls-15" x="983.71" y="393.94" width="244.29" height="16.77" transform="translate(2266.67 804.65) rotate(-180)"/><path class="cls-14" d="M984.24,393.88h244.29l67.7-87.88h-244Z" transform="translate(54.95)"/><polygon class="cls-17" points="1046.08 414.89 1046.08 481.08 1046.08 546.97 1046.08 630.95 1282.95 630.95 1282.95 546.97 1282.95 481.08 1282.95 414.89 1046.08 414.89"/><rect class="cls-19" x="1046.08" y="631.1" width="236.04" height="21.37"/><path class="cls-20" d="M991.38,410.8v9.6h237.15v-9.71Z" transform="translate(54.95)"/><rect class="cls-21" x="1155.49" y="551.91" width="49.55" height="49.55" transform="translate(2415.48 1153.37) rotate(-180)"/><rect class="cls-19" x="1203.03" y="551.91" width="7.41" height="49.55"/><polygon class="cls-22" points="1256.4 555.5 1256.4 590.72 1221.18 555.5 1256.4 555.5"/><polygon class="cls-22" points="1214.03 564.74 1247.16 597.87 1237.53 597.87 1214.03 570.42 1214.03 564.74"/><polygon class="cls-23" points="1214.03 570.42 1237.53 597.87 1214.03 597.87 1214.03 570.42"/><polygon class="cls-23" points="1214.03 555.5 1221.18 555.5 1256.4 590.72 1256.4 597.87 1247.16 597.87 1214.03 564.74 1214.03 555.5"/><rect class="cls-13" x="1195.24" y="601.46" width="9.89" height="4.8" transform="translate(2455.32 1207.72) rotate(-180)"/><rect class="cls-19" x="1148.07" y="606.26" width="57.05" height="2.82" transform="translate(2408.15 1215.35) rotate(-180)"/><rect class="cls-15" x="1139.32" y="601.46" width="55.92" height="4.8" transform="translate(2389.51 1207.72) rotate(-180)"/><rect class="cls-21" x="1019.83" y="441.56" width="49.55" height="49.55" transform="translate(2144.15 932.67) rotate(-180)"/><rect class="cls-19" x="1067.36" y="441.56" width="7.41" height="49.55"/><polygon class="cls-22" points="1120.73 445.15 1120.73 480.37 1085.52 445.15 1120.73 445.15"/><polygon class="cls-22" points="1078.37 454.38 1111.5 487.52 1101.87 487.52 1078.37 460.07 1078.37 454.38"/><polygon class="cls-23" points="1078.37 460.07 1101.87 487.52 1078.37 487.52 1078.37 460.07"/><polygon class="cls-23" points="1078.37 445.15 1085.52 445.15 1120.73 480.37 1120.73 487.52 1111.5 487.52 1078.37 454.38 1078.37 445.15"/><rect class="cls-13" x="1059.58" y="491.11" width="9.89" height="4.8" transform="translate(2183.99 987.02) rotate(-180)"/><rect class="cls-19" x="1012.41" y="495.91" width="57.05" height="2.82" transform="translate(2136.83 994.64) rotate(-180)"/><rect class="cls-15" x="1003.66" y="491.11" width="55.92" height="4.8" transform="translate(2118.19 987.02) rotate(-180)"/><rect class="cls-21" x="1019.83" y="551.91" width="49.55" height="49.55" transform="translate(2144.15 1153.37) rotate(-180)"/><rect class="cls-19" x="1067.36" y="551.91" width="7.41" height="49.55"/><polygon class="cls-22" points="1120.73 555.5 1120.73 590.72 1085.52 555.5 1120.73 555.5"/><polygon class="cls-22" points="1078.37 564.74 1111.5 597.87 1101.87 597.87 1078.37 570.42 1078.37 564.74"/><polygon class="cls-23" points="1078.37 570.42 1101.87 597.87 1078.37 597.87 1078.37 570.42"/><polygon class="cls-23" points="1078.37 555.5 1085.52 555.5 1120.73 590.72 1120.73 597.87 1111.5 597.87 1078.37 564.74 1078.37 555.5"/><rect class="cls-13" x="1059.58" y="601.46" width="9.89" height="4.8" transform="translate(2183.99 1207.72) rotate(-180)"/><rect class="cls-19" x="1012.41" y="606.26" width="57.05" height="2.82" transform="translate(2136.83 1215.35) rotate(-180)"/><rect class="cls-15" x="1003.66" y="601.46" width="55.92" height="4.8" transform="translate(2118.19 1207.72) rotate(-180)"/><rect class="cls-17" x="1072.05" y="630.48" width="51.15" height="11.36" transform="translate(2250.2 1272.33) rotate(-180)"/><rect class="cls-20" x="1174.02" y="630.44" width="6.68" height="11.66"/><rect class="cls-17" x="1055.63" y="641.85" width="55.64" height="10.62" transform="translate(2221.86 1294.31) rotate(-180)"/><rect class="cls-20" x="1163.69" y="642.09" width="17.21" height="10.37"/><rect class="cls-24" x="1088.14" y="554.42" width="37.6" height="76.64" transform="translate(2268.84 1185.47) rotate(-180)"/><rect class="cls-25" x="1088.14" y="554.42" width="37.6" height="7.18" transform="translate(2268.84 1116.02) rotate(-180)"/><rect class="cls-20" x="1081.14" y="554.42" width="7" height="76.64" transform="translate(2224.24 1185.47) rotate(-180)"/><rect class="cls-18" x="1166.48" y="420.29" width="117.13" height="95.44"/><rect class="cls-40" x="1309.77" y="566.15" width="86.07" height="56.11"/><rect class="cls-29" x="1305.06" y="565.16" width="90.78" height="2.42"/><rect class="cls-40" x="1303.18" y="563.95" width="94.55" height="4.28" rx="1.2"/><rect class="cls-29" x="1370.16" y="574.52" width="20.92" height="41.56" rx="5.87"/><rect class="cls-50" x="1372.06" y="578.99" width="17.12" height="1.9" rx="0.53"/><rect class="cls-50" x="1372.06" y="609.9" width="17.12" height="1.9" rx="0.53"/><rect class="cls-50" x="1372.06" y="604.75" width="17.12" height="1.9" rx="0.53"/><rect class="cls-50" x="1372.06" y="599.6" width="17.12" height="1.9" rx="0.53"/><rect class="cls-50" x="1372.06" y="594.45" width="17.12" height="1.9" rx="0.53"/><rect class="cls-50" x="1372.06" y="589.29" width="17.12" height="1.9" rx="0.53"/><rect class="cls-50" x="1372.06" y="584.14" width="17.12" height="1.9" rx="0.53"/><circle class="cls-51" cx="1338.43" cy="595.31" r="20.08"/><path class="cls-40" d="M1298.49,595.25c-3.39-4.23-11-2.35-14-.62,0-.31,0-.68.1-1.14a11.84,11.84,0,0,1,1.81-5.41c1.47-2,3.28-1.38,4.21-3.31a4.4,4.4,0,0,0,.3-2.71c-.61-2.63-4.05-4.1-6.62-4.21a8.62,8.62,0,0,0-8.12,5.11c-2.11,5.41,4.27,11.53,7.06,12.76-.29.1-.77.47-2,1a11.78,11.78,0,0,1-5.59,1.15c-2.46-.28-2.84-2.16-5-2a4.44,4.44,0,0,0-2.5,1.09c-2,1.84-1.53,5.55-.34,7.84a8.64,8.64,0,0,0,8.5,4.47c6-.92,8-10.3,7.45-12.88a14.59,14.59,0,0,1,5.16,5.19c1,2.27-.45,3.54.76,5.31a4.36,4.36,0,0,0,2.19,1.61c2.58.79,5.58-1.45,7-3.63A8.64,8.64,0,0,0,1298.49,595.25Z" transform="translate(54.95)"/><circle class="cls-52" cx="1338.44" cy="595.54" r="3.93"/><circle class="cls-53" cx="1338.44" cy="595.54" r="2.75"/><line class="cls-54" x1="1318.33" y1="589.93" x2="1358.75" y2="589.93"/><line class="cls-54" x1="1321.66" y1="580.89" x2="1355.42" y2="580.89"/><line class="cls-54" x1="1318.33" y1="598.96" x2="1358.75" y2="598.96"/><line class="cls-54" x1="1321.66" y1="608" x2="1355.42" y2="608"/><line class="cls-54" x1="1325.46" y1="577.09" x2="1325.46" y2="612.2"/><line class="cls-54" x1="1338.3" y1="574.24" x2="1338.3" y2="616.56"/><line class="cls-54" x1="1351.14" y1="578.04" x2="1351.14" y2="612.2"/><circle class="cls-55" cx="1338.49" cy="595.37" r="21.37"/><rect class="cls-29" x="1305.06" y="567.03" width="4.68" height="55.23"/><rect class="cls-26" x="1166.64" y="420.29" width="19.52" height="93.27"/><rect class="cls-56" x="1165.55" y="510.97" width="118.21" height="4.34"/><path class="cls-29" d="M1171,499.41v6.41c3.12,1.11,8.13,1.28,14.4,1.2a41.38,41.38,0,0,0,13.38-2.4v-5.21a69.51,69.51,0,0,1-27.78,0Z" transform="translate(54.95)"/><line class="cls-29" x1="1211.78" y1="443.68" x2="1214.68" y2="441.39"/><polygon class="cls-29" points="1217.4 497 1214.68 494.7 1217.4 494.92 1217.4 497"/><polygon class="cls-29" points="1259.34 441.39 1262.06 443.69 1259.34 445.2 1259.34 441.39"/><polygon class="cls-29" points="1225.91 505.82 1223.2 502.32 1229.59 504.04 1225.91 505.82"/><path class="cls-29" d="M1162.45,497" transform="translate(54.95)"/><path class="cls-1" d="M1184.14,439.88a68.75,68.75,0,0,1,8.21.41v-20h-15v20A65.55,65.55,0,0,1,1184.14,439.88Z" transform="translate(54.95)"/><path class="cls-1" d="M1184.14,443.68c-2.39,0-4.66.18-6.79.42h0a68.35,68.35,0,0,1,15,0h0A66.65,66.65,0,0,0,1184.14,443.68Z" transform="translate(54.95)"/><path class="cls-29" d="M1198.23,420.8h-5.88v19.88a68.75,68.75,0,0,0-8.21-.41c-2.39,0-4.66.18-6.79.41V420.8h-5.88v20.79a69.47,69.47,0,0,0-9,2.46v3.79a66.4,66.4,0,0,1,9-2.46h0a65.7,65.7,0,0,0-9,2.5V497a68.23,68.23,0,0,0,44.81,0V447.89a66.73,66.73,0,0,0-9-2.5h0a68.34,68.34,0,0,1,9,2.46v-3.79a68.34,68.34,0,0,0-9-2.46Zm-5.88,23.67a68.35,68.35,0,0,0-15,0h0c2.13-.24,4.4-.39,6.79-.42a66.65,66.65,0,0,1,8.21.42Z" transform="translate(54.95)"/><rect class="cls-40" x="1223.71" y="420.8" width="5.88" height="30.22"/><rect class="cls-40" x="1244.59" y="420.8" width="5.88" height="30.22"/><path class="cls-21" d="M1204.54,445.2a67.72,67.72,0,0,0-44.81,0v-3.81a67.72,67.72,0,0,1,44.81,0Z" transform="translate(54.95)"/><path class="cls-57" d="M1204.54,492.63a111.09,111.09,0,0,1-44.81,0V445.25a66.91,66.91,0,0,1,44.81,0Z" transform="translate(54.95)"/><path class="cls-58" d="M1204.54,445.2a67.72,67.72,0,0,0-44.81,0v-3.81a67.72,67.72,0,0,1,44.81,0Z" transform="translate(54.95)"/><path class="cls-58" d="M1204.54,490.89a67.72,67.72,0,0,1-44.81,0v3.81a67.72,67.72,0,0,0,44.81,0Z" transform="translate(54.95)"/><path class="cls-58" d="M1196,502.32a41.18,41.18,0,0,1-27.78,0v-5.21a69.51,69.51,0,0,0,27.78,0Z" transform="translate(54.95)"/><ellipse class="cls-59" cx="1250.58" cy="480.18" rx="7.81" ry="7.72"/><line class="cls-49" x1="1236.48" y1="455.52" x2="1241.45" y2="450.41"/><path class="cls-58" d="M1182.14,462.14a7,7,0,1,1,7.09-7A7.07,7.07,0,0,1,1182.14,462.14Zm0-12a5,5,0,1,0,5.07,5A5,5,0,0,0,1182.14,450.11Z" transform="translate(54.95)"/><line class="cls-60" x1="1231.31" y1="501.52" x2="1233.95" y2="501.52"/><line class="cls-60" x1="1240.23" y1="501.52" x2="1242.87" y2="501.52"/><ellipse class="cls-35" cx="1237.29" cy="501.52" rx="1.12" ry="1.1"/><polygon class="cls-61" points="1252.78 472.97 1246.47 481.35 1250.41 481.35 1248.51 487.28 1254.68 479.19 1250.8 479.19 1252.78 472.97"/><polygon class="cls-62" points="1278.72 391.72 1054.42 391.72 1112.34 314.19 1336.64 314.19 1278.72 391.72"/><polygon class="cls-63" points="1276.1 386.46 1051.79 386.46 1109.71 308.93 1334.01 308.93 1276.1 386.46"/><polygon class="cls-62" points="1052.16 386.46 1054.79 391.72 1058.51 386.46 1052.16 386.46"/><polygon class="cls-62" points="1330.08 314.19 1336.64 314.19 1334.01 308.93 1330.08 314.19"/><line class="cls-64" x1="1222.36" y1="308.2" x2="1164.82" y2="385.73"/><line class="cls-64" x1="1278.35" y1="308.94" x2="1220.8" y2="386.47"/><line class="cls-64" x1="1166.38" y1="309.68" x2="1108.84" y2="387.21"/><line class="cls-64" x1="1082.68" y1="345.11" x2="1306.61" y2="345.11"/><rect class="cls-17" x="482.41" y="471.54" width="255.22" height="134.2"/><rect class="cls-14" x="673.16" y="300.41" width="8.34" height="29.74"/><polygon class="cls-15" points="694.11 312.5 694.11 300.41 681.5 300.41 681.5 329.89 694.11 312.5"/><rect class="cls-16" x="673.16" y="292.48" width="8.34" height="7.93"/><rect class="cls-14" x="681.5" y="292.48" width="12.61" height="7.93"/><rect class="cls-13" x="669.86" y="284.55" width="11.64" height="7.93"/><rect class="cls-15" x="681.5" y="284.55" width="16.49" height="7.93"/><rect class="cls-13" x="735.41" y="356.75" width="11.18" height="8.79"/><rect class="cls-13" x="405.4" y="353.77" width="76.78" height="11.24"/><polygon class="cls-17" points="614.89 285.89 482.41 376.92 482.41 449.64 482.41 471.54 737.28 471.54 737.28 369.99 614.89 285.89"/><rect class="cls-13" x="530.14" y="482.09" width="6.72" height="4.19"/><rect class="cls-19" x="530.14" y="486.58" width="50.13" height="1.16"/><rect class="cls-15" x="535.84" y="482.09" width="45.53" height="4.19"/><rect class="cls-24" x="600.48" y="536.35" width="34.3" height="69.9"/><rect class="cls-25" x="600.48" y="536.35" width="34.3" height="6.55"/><rect class="cls-20" x="634.78" y="536.35" width="6.39" height="69.9"/><rect class="cls-17" x="604.82" y="605.74" width="41.89" height="7.89"/><rect class="cls-20" x="545.12" y="605.71" width="5.99" height="7.92" transform="translate(1151.18 1219.34) rotate(180)"/><rect class="cls-17" x="618.1" y="613.63" width="42.05" height="7.37"/><rect class="cls-20" x="545.18" y="613.63" width="18.58" height="7.37" transform="translate(1163.9 1234.63) rotate(180)"/><rect class="cls-13" x="659.32" y="482.09" width="6.72" height="4.19"/><rect class="cls-19" x="659.32" y="486.58" width="50.13" height="1.16"/><rect class="cls-15" x="665.02" y="482.09" width="45.53" height="4.19"/><rect class="cls-21" x="530.22" y="512.92" width="43.54" height="43.54"/><rect class="cls-19" x="518.81" y="512.92" width="3.84" height="43.54" transform="translate(1096.4 1069.38) rotate(180)"/><polygon class="cls-22" points="533.37 516.08 533.37 547.02 564.32 516.08 533.37 516.08"/><polygon class="cls-22" points="570.6 524.19 541.49 553.3 549.96 553.3 570.6 529.18 570.6 524.19"/><polygon class="cls-23" points="570.6 529.18 549.96 553.3 570.6 553.3 570.6 529.18"/><polygon class="cls-23" points="570.6 516.08 564.32 516.08 533.37 547.02 533.37 553.3 541.49 553.3 570.6 524.19 570.6 516.08"/><rect class="cls-13" x="530.14" y="556.31" width="6.72" height="4.19"/><rect class="cls-19" x="530.14" y="560.8" width="50.13" height="1.16"/><rect class="cls-15" x="535.84" y="556.31" width="45.53" height="4.19"/><rect class="cls-21" x="659.4" y="512.92" width="43.54" height="43.54"/><rect class="cls-19" x="647.99" y="512.92" width="3.84" height="43.54" transform="translate(1354.77 1069.38) rotate(180)"/><polygon class="cls-22" points="662.56 516.08 662.56 547.02 693.5 516.08 662.56 516.08"/><polygon class="cls-22" points="699.78 524.19 670.67 553.3 679.14 553.3 699.78 529.18 699.78 524.19"/><polygon class="cls-23" points="699.78 529.18 679.14 553.3 699.78 553.3 699.78 529.18"/><polygon class="cls-23" points="699.78 516.08 693.5 516.08 662.56 547.02 662.56 553.3 670.67 553.3 699.78 524.19 699.78 516.08"/><rect class="cls-13" x="659.32" y="556.31" width="6.72" height="4.19"/><rect class="cls-19" x="659.32" y="560.8" width="50.13" height="1.16"/><rect class="cls-15" x="665.02" y="556.31" width="45.53" height="4.19"/><line class="cls-64" x1="711.95" y1="354.14" x2="711.95" y2="444.14"/><rect class="cls-65" x="396.95" y="348.99" width="3.58"/><polygon class="cls-19" points="414.25 376.66 414.25 605.74 482.41 605.74 482.41 498.27 482.41 472.57 482.41 365.1 482.2 365.1 482.2 376.66 414.25 376.66"/><polygon class="cls-20" points="482.2 365.1 482.2 365.04 405.42 365.04 405.42 365.1 414.25 365.1 482.2 365.1"/><rect class="cls-20" x="414.25" y="365.1" width="67.95" height="11.56"/><polygon class="cls-66" points="482.84 373.59 614.09 286.09 735.29 368.27 735.29 433.31 483.43 433.31 482.84 373.59"/><polygon class="cls-19" points="737.12 370 737.12 357.99 614.8 274.14 482.41 364.9 482.41 376.92 614.8 286.15 737.12 370"/><polygon class="cls-15" points="614.41 262.27 482.23 353.06 482.23 365.08 614.41 274.29 746.59 365.08 746.59 353.06 614.41 262.27"/><rect class="cls-14" x="673.16" y="300.41" width="8.34" height="29.74"/><rect class="cls-14" x="681.5" y="292.48" width="12.61" height="7.93"/><rect class="cls-15" x="681.5" y="284.55" width="16.49" height="7.93"/><rect class="cls-13" x="735.41" y="356.75" width="11.18" height="8.79"/><rect class="cls-17" x="482.41" y="471.54" width="255.22" height="134.2"/><polygon class="cls-17" points="614.89 285.89 482.41 376.92 482.41 449.64 482.41 471.54 737.28 471.54 737.28 369.99 614.89 285.89"/><rect class="cls-21" x="508.95" y="497.05" width="53.96" height="53.96"/><rect class="cls-19" x="507.95" y="497.05" width="4.76" height="53.96" transform="translate(1075.62 1048.05) rotate(180)"/><polygon class="cls-22" points="512.86 500.96 512.86 539.31 551.21 500.96 512.86 500.96"/><polygon class="cls-22" points="558.99 511.01 522.91 547.09 533.41 547.09 558.99 517.2 558.99 511.01"/><polygon class="cls-23" points="558.99 517.2 533.41 547.09 558.99 547.09 558.99 517.2"/><polygon class="cls-23" points="558.99 500.96 551.21 500.96 512.86 539.31 512.86 547.09 522.91 547.09 558.99 511.01 558.99 500.96"/><rect class="cls-13" x="508.85" y="550.81" width="8.33" height="5.2"/><rect class="cls-19" x="508.85" y="556.38" width="62.13" height="1.44"/><rect class="cls-15" x="515.91" y="550.81" width="56.42" height="5.2"/><rect class="cls-21" x="659.58" y="497.05" width="53.96" height="53.96"/><rect class="cls-19" x="658.58" y="497.05" width="4.76" height="53.96" transform="translate(1376.88 1048.05) rotate(180)"/><polygon class="cls-22" points="663.49 500.96 663.49 539.31 701.84 500.96 663.49 500.96"/><polygon class="cls-22" points="709.63 511.01 673.54 547.09 684.04 547.09 709.63 517.2 709.63 511.01"/><polygon class="cls-23" points="709.63 517.2 684.04 547.09 709.63 547.09 709.63 517.2"/><polygon class="cls-23" points="709.63 500.96 701.84 500.96 663.49 539.31 663.49 547.09 673.54 547.09 709.63 511.01 709.63 500.96"/><rect class="cls-13" x="659.48" y="550.81" width="8.33" height="5.2"/><rect class="cls-19" x="659.48" y="556.38" width="62.13" height="1.44"/><rect class="cls-15" x="666.54" y="550.81" width="56.42" height="5.2"/><polygon class="cls-18" points="482.25 372.15 614.09 278.98 737.07 364.89 736.48 444.14 483.43 443.54 482.25 372.15"/><polygon class="cls-26" points="737.2 443.64 690.2 443.64 690.2 320.64 737.2 364.64 737.2 443.64"/><rect class="cls-56" x="482.25" y="440.12" width="254.23" height="4"/><polygon class="cls-15" points="694.11 312.5 694.11 300.41 681.5 300.41 681.5 329.89 694.11 312.5"/><rect class="cls-16" x="673.16" y="292.48" width="8.34" height="7.93"/><rect class="cls-13" x="669.86" y="284.55" width="11.64" height="7.93"/><rect class="cls-13" x="405.4" y="353.77" width="76.78" height="11.24"/><path class="cls-14" d="M427.31,353.77h-77l137.81-91.28,71.3-.22Z" transform="translate(54.95)"/><polygon class="cls-19" points="737.12 370 737.12 357.99 614.8 274.14 482.41 364.9 482.41 376.92 614.8 286.15 737.12 370"/><polygon class="cls-15" points="614.41 262.27 482.23 353.06 482.23 365.08 614.41 274.29 746.59 365.08 746.59 353.06 614.41 262.27"/><polygon class="cls-19" points="414.25 376.66 414.25 605.74 482.41 605.74 482.41 498.27 482.41 472.57 482.41 365.1 482.2 365.1 482.2 376.66 414.25 376.66"/><rect class="cls-20" x="414.25" y="365.1" width="67.95" height="11.56"/><rect class="cls-20" x="414.25" y="600.1" width="68.15" height="20"/><rect class="cls-19" x="482.41" y="599.73" width="254.87" height="21"/><rect class="cls-24" x="584.8" y="499.08" width="48.98" height="100.68"/><rect class="cls-25" x="584.8" y="499.08" width="48.98" height="9.44"/><rect class="cls-20" x="633.79" y="499.08" width="9.12" height="100.68"/><rect class="cls-17" x="591.01" y="599.02" width="59.83" height="11.36"/><rect class="cls-20" x="529.27" y="598.98" width="8.56" height="11.41" transform="translate(1122.05 1209.36) rotate(180)"/><rect class="cls-17" x="609.97" y="610.38" width="60.06" height="10.62"/><rect class="cls-20" x="529.36" y="610.38" width="26.54" height="10.62" transform="translate(1140.21 1231.38) rotate(180)"/><rect class="cls-13" x="437.94" y="491.04" width="31.93" height="12.5"/><rect class="cls-14" x="373.38" y="419.64" width="11.08" height="38.9"/><polygon class="cls-15" points="401.22 435.45 401.22 419.64 384.46 419.64 384.46 458.2 401.22 435.45"/><rect class="cls-16" x="373.38" y="409.26" width="11.08" height="10.37"/><rect class="cls-14" x="384.46" y="409.26" width="16.75" height="10.37"/><rect class="cls-13" x="369" y="398.89" width="15.46" height="10.37"/><rect class="cls-15" x="384.46" y="398.89" width="21.91" height="10.37"/><rect class="cls-19" x="64.58" y="487.46" width="109.94" height="155.36"/><polygon class="cls-15" points="322.19 369.21 174.52 487.96 174.52 503.68 322.19 384.93 469.87 503.68 469.87 487.96 322.19 369.21"/><rect class="cls-13" x="54.95" y="488.52" width="119.57" height="15.13"/><rect class="cls-20" x="64.58" y="503.58" width="109.94" height="16.02"/><polygon class="cls-17" points="322.19 400.64 174.52 519.39 174.52 614.25 174.52 642.82 458.62 642.82 458.62 510.35 322.19 400.64"/><rect class="cls-21" x="198.65" y="538.54" width="57.86" height="56.95"/><rect class="cls-19" x="201.56" y="538.54" width="8.66" height="56.95" transform="translate(466.72 1134.02) rotate(180)"/><polygon class="cls-22" points="202.85 542.66 202.85 583.14 243.97 542.66 202.85 542.66"/><polygon class="cls-22" points="252.31 553.28 213.63 591.36 224.88 591.36 252.31 559.81 252.31 553.28"/><polygon class="cls-23" points="252.31 559.81 224.88 591.36 252.31 591.36 252.31 559.81"/><polygon class="cls-23" points="252.31 542.66 243.97 542.66 202.85 583.14 202.85 591.36 213.63 591.36 252.31 553.28 252.31 542.66"/><rect class="cls-13" x="198.55" y="595.49" width="11.54" height="5.52"/><rect class="cls-19" x="198.55" y="601.01" width="66.62" height="3.25"/><rect class="cls-15" x="210.09" y="595.49" width="65.3" height="5.52"/><rect class="cls-21" x="372.77" y="538.54" width="57.86" height="56.95"/><rect class="cls-19" x="375.68" y="538.54" width="8.66" height="56.95" transform="translate(814.96 1134.02) rotate(180)"/><polygon class="cls-22" points="376.97 542.66 376.97 583.14 418.09 542.66 376.97 542.66"/><polygon class="cls-22" points="426.43 553.28 387.75 591.36 399 591.36 426.43 559.81 426.43 553.28"/><polygon class="cls-23" points="426.43 559.81 399 591.36 426.43 591.36 426.43 559.81"/><polygon class="cls-23" points="426.43 542.66 418.09 542.66 376.97 583.14 376.97 591.36 387.75 591.36 426.43 553.28 426.43 542.66"/><rect class="cls-13" x="372.67" y="595.49" width="11.54" height="5.52"/><rect class="cls-19" x="372.67" y="601.01" width="66.62" height="3.25"/><rect class="cls-15" x="384.21" y="595.49" width="65.3" height="5.52"/><rect class="cls-20" x="9.53" y="632.47" width="111.96" height="19.64" transform="translate(185.96 1284.58) rotate(180)"/><rect class="cls-19" x="174.52" y="632.47" width="284.1" height="19.64"/><rect class="cls-24" x="294.98" y="541.75" width="45.58" height="91.43"/><rect class="cls-25" x="294.98" y="541.75" width="45.58" height="8.57"/><rect class="cls-20" x="340.56" y="541.75" width="8.49" height="91.43"/><rect class="cls-21" x="288.72" y="435.55" width="57.86" height="56.95"/><rect class="cls-19" x="291.63" y="435.55" width="8.66" height="56.95" transform="translate(646.86 928.05) rotate(180)"/><polygon class="cls-22" points="292.92 439.68 292.92 480.16 334.04 439.68 292.92 439.68"/><polygon class="cls-22" points="342.38 450.29 303.7 488.37 314.95 488.37 342.38 456.82 342.38 450.29"/><polygon class="cls-23" points="342.38 456.82 314.95 488.37 342.38 488.37 342.38 456.82"/><polygon class="cls-23" points="342.38 439.68 334.04 439.68 292.92 480.16 292.92 488.37 303.7 488.37 342.38 450.29 342.38 439.68"/><rect class="cls-13" x="288.62" y="492.5" width="11.54" height="5.52"/><rect class="cls-19" x="288.62" y="498.02" width="66.62" height="3.25"/><rect class="cls-15" x="300.16" y="492.5" width="65.3" height="5.52"/><rect class="cls-17" x="306.23" y="632.47" width="55.88" height="10.36"/><rect class="cls-20" x="239.61" y="632.47" width="12.08" height="10.36" transform="translate(546.26 1275.29) rotate(-180)"/><rect class="cls-17" x="327.27" y="642.82" width="55.88" height="9.64"/><rect class="cls-20" x="239.67" y="642.82" width="32.65" height="9.64" transform="translate(566.94 1295.29) rotate(180)"/><polygon class="cls-19" points="458.62 510.35 458.62 494.64 322.19 384.96 174.52 503.68 174.52 519.39 322.19 400.67 458.62 510.35"/><polygon class="cls-14" points="55.15 488.52 174.52 488.52 322.19 369.21 202.82 369.21 55.15 488.52"/><polygon class="cls-67" points="137.53 424.61 190.45 424.61 255.91 371.7 203 371.7 137.53 424.61"/><line class="cls-64" x1="152.35" y1="424.34" x2="217.56" y2="371.69"/><line class="cls-64" x1="165.33" y1="424.61" x2="230.85" y2="371.69"/><line class="cls-64" x1="178.31" y1="424.88" x2="244.14" y2="371.69"/><line class="cls-64" x1="148.17" y1="415.77" x2="201.19" y2="415.77"/><line class="cls-64" x1="158.89" y1="406.94" x2="211.91" y2="406.94"/><line class="cls-64" x1="169.61" y1="398.11" x2="222.64" y2="398.11"/><line class="cls-64" x1="180.93" y1="389.27" x2="233.95" y2="389.27"/><line class="cls-64" x1="191.65" y1="380.44" x2="244.67" y2="380.44"/><polygon class="cls-67" points="68.74 480.73 121.66 480.73 187.12 427.82 134.2 427.82 68.74 480.73"/><line class="cls-64" x1="83.56" y1="480.45" x2="148.77" y2="427.81"/><line class="cls-64" x1="96.54" y1="480.72" x2="162.06" y2="427.81"/><line class="cls-64" x1="109.52" y1="481" x2="175.35" y2="427.81"/><line class="cls-64" x1="79.37" y1="471.89" x2="132.39" y2="471.89"/><line class="cls-64" x1="90.09" y1="463.06" x2="143.12" y2="463.06"/><line class="cls-64" x1="100.82" y1="454.22" x2="153.84" y2="454.22"/><line class="cls-64" x1="112.13" y1="445.39" x2="165.15" y2="445.39"/><line class="cls-64" x1="122.86" y1="436.55" x2="175.88" y2="436.55"/><polygon class="cls-68" points="175.48 481.74 169.61 481.74 303.23 374.76 309.09 374.76 175.48 481.74"/><polygon class="cls-69" points="164.95 481.74 159.09 481.74 292.7 374.76 298.57 374.76 164.95 481.74"/><polygon class="cls-70" points="154.43 481.74 148.56 481.74 282.18 374.76 288.04 374.76 154.43 481.74"/><polygon class="cls-71" points="143.9 481.74 138.04 481.74 271.66 374.76 277.52 374.76 143.9 481.74"/><polygon class="cls-72" points="133.38 481.74 127.52 481.74 261.13 374.76 266.99 374.76 133.38 481.74"/><rect class="cls-21" x="121.2" y="482.15" width="52.97" height="4.63" rx="2.1"/><rect class="cls-21" x="259.96" y="370.13" width="52.97" height="4.63" rx="2.1"/></g></g><g id="Technologies"><polygon class="cls-73" points="352.14 720 183.17 720 64.24 666.09 233.21 666.09 352.14 720"/><polygon class="cls-74" points="212.79 666.09 331.72 720 352.14 720 234.01 666.09 212.79 666.09"/><polygon class="cls-75" points="232.93 666 63.95 666 83.77 674.89 252.75 674.89 232.93 666"/><path class="cls-76" d="M273.82,714.07c0,1.19-.65,2.16-1.45,2.16H132.57A24.64,24.64,0,0,1,122.33,714l-.84-.38-14.24-6.47a1,1,0,0,1,.36-1.86H221.89a.56.56,0,0,0,.23-1.07l-1.59-.72a5.61,5.61,0,0,0-2.34-.51H100.24a10,10,0,0,1-4.14-.9l-7.53-3.42-5.06-2.3-3.29-1.49a1.48,1.48,0,0,1,.61-2.83H193.22a.47.47,0,0,0,.19-.9l-2.07-.95a5.07,5.07,0,0,0-2.07-.45H72.52a16.52,16.52,0,0,1-6.85-1.48l-6.23-2.83-5.07-2.3-2-.92a1.7,1.7,0,0,1-1.11-1.61A1.74,1.74,0,0,1,53,678.83h146.8a2.21,2.21,0,0,1,0,4.32H67.63a.61.61,0,0,0-.25,1.16l1.42.65a5.49,5.49,0,0,0,2.25.49H189.63a7.63,7.63,0,0,1,3.19.69l3.91,1.78,9.1,4.14,5.95,2.67a.88.88,0,0,1-.36,1.68l-115.22,0a.49.49,0,0,0-.2.93l2.06.94a4.88,4.88,0,0,0,2,.43H217.8a11.71,11.71,0,0,1,4.88,1.06l7.15,3.26,5.06,2.3,4.84,2.11a1.14,1.14,0,0,1-.45,2.19H125.76a.58.58,0,0,0-.24,1.11l1,.48a8,8,0,0,0,3.31.72H272.37C273.17,711.92,273.82,712.88,273.82,714.07Z" transform="translate(54.95)"/><rect class="cls-77" x="482.56" y="400.22" width="114.11" height="5.66"/><rect class="cls-77" x="482.56" y="416.27" width="114.11" height="5.66"/><rect class="cls-40" x="484.44" y="398.34" width="114.12" height="5.66"/><rect class="cls-40" x="484.45" y="414.38" width="114.11" height="5.66"/><path class="cls-50" d="M527.61,424a8.4,8.4,0,0,1-8.4,8.39H450a8.4,8.4,0,0,1-8.4-8.39V398.79a8.42,8.42,0,0,1,3.65-6.93l4.06-2.78a8.4,8.4,0,0,1,5.52-1.44l65.15,6a8.39,8.39,0,0,1,7.62,8.36Z" transform="translate(54.95)"/><path class="cls-30" d="M522.18,429.74H454.81a8.23,8.23,0,0,1-8.23-8.23v-25.8a8.23,8.23,0,0,1,8.23-8.23h64.57a8.24,8.24,0,0,1,8.23,8.23V424.3A5.44,5.44,0,0,1,522.18,429.74Z" transform="translate(54.95)"/><rect class="cls-21" x="528.54" y="387.75" width="26.74" height="41.72"/><path class="cls-78" d="M491.33,417.72c-.27,2.41-2.5,5.21-5.17,5.17a5.41,5.41,0,0,1-4.72-4.09c-.63-2.6,1.59-3.62,2.62-8.58.7-3.35.23-5.5.82-5.62s1.13,1.93,3.08,5.77C490.44,415.28,491.53,415.84,491.33,417.72Z" transform="translate(54.95)"/><path class="cls-50" d="M527.61,424.42" transform="translate(54.95)"/><rect class="cls-77" x="627.02" y="334.63" width="6.16" height="39.31"/><rect class="cls-77" x="648.9" y="334.63" width="6.16" height="39.31"/><path class="cls-77" d="M609.57,367.77a70.19,70.19,0,0,0-47,0v-4a70.35,70.35,0,0,1,47,0Z" transform="translate(54.95)"/><path class="cls-77" d="M609.57,414.48a122.41,122.41,0,0,1-47,0V367.33a73.65,73.65,0,0,1,47,0Z" transform="translate(54.95)"/><path class="cls-77" d="M609.57,367.28a74.56,74.56,0,0,0-47,0v-3.79a74.56,74.56,0,0,1,47,0Z" transform="translate(54.95)"/><path class="cls-77" d="M609.57,412.76a74.56,74.56,0,0,1-47,0v3.79a74.56,74.56,0,0,0,47,0Z" transform="translate(54.95)"/><path class="cls-77" d="M603.05,424.12a42.76,42.76,0,0,1-29.11,0v-5.53a71.74,71.74,0,0,0,29.11,0Z" transform="translate(54.95)"/><path class="cls-77" d="M593.14,411H579v-8h14.1Zm-12-2.08h9.93v-3.8h-9.93Z" transform="translate(54.95)"/><path class="cls-77" d="M593.83,390.88c-.42,3.74-3.88,8.1-8,8-3.45-.06-6.56-3.17-7.33-6.33-1-4,2.47-5.62,4.07-13.31,1.09-5.2.36-8.54,1.28-8.72s1.74,3,4.77,8.95C592.45,387.1,594.15,388,593.83,390.88Z" transform="translate(54.95)"/><path class="cls-77" d="M582.87,387.66h.79v4.21h-.79Zm.37,1.74h2.45v.76h-2.45Zm1.94-1.74H586v4.21h-.79Z" transform="translate(54.95)"/><path class="cls-77" d="M586.74,391.15l1.45-1.9a1.35,1.35,0,0,0,.15-.26.59.59,0,0,0,0-.25h0a.32.32,0,0,0-.11-.27.46.46,0,0,0-.31-.09.41.41,0,0,0-.32.13.66.66,0,0,0-.15.37h-.81a1.55,1.55,0,0,1,.19-.68,1.13,1.13,0,0,1,.44-.43,1.36,1.36,0,0,1,.65-.15,1.54,1.54,0,0,1,.67.13.9.9,0,0,1,.42.37,1.1,1.1,0,0,1,.15.59h0a1.63,1.63,0,0,1-.1.57,2.12,2.12,0,0,1-.28.51l-1,1.3h1.44v.77h-2.49Z" transform="translate(54.95)"/><rect class="cls-77" x="637.05" y="424.55" width="2.41" height="4.81"/><rect class="cls-77" x="650.59" y="424.25" width="2.41" height="4.81"/><rect class="cls-79" x="637.39" y="423.07" width="3.19" height="5.52" rx="0.76"/><rect class="cls-79" x="651.41" y="423.07" width="3.19" height="5.52" rx="0.76"/><rect class="cls-40" x="632.03" y="329.79" width="6.16" height="39.31"/><rect class="cls-40" x="653.91" y="329.79" width="6.16" height="39.31"/><path class="cls-21" d="M614.58,362.94a70.19,70.19,0,0,0-47,0v-4a70.35,70.35,0,0,1,47,0Z" transform="translate(54.95)"/><path class="cls-80" d="M614.58,413.22a115.44,115.44,0,0,1-47,0V363a69.4,69.4,0,0,1,47,0Z" transform="translate(54.95)"/><path class="cls-81" d="M614.58,362.94a70.19,70.19,0,0,0-47,0v-4a70.35,70.35,0,0,1,47,0Z" transform="translate(54.95)"/><path class="cls-81" d="M614.58,411.38a70.19,70.19,0,0,1-47,0v4a70.35,70.35,0,0,0,47,0Z" transform="translate(54.95)"/><path class="cls-81" d="M605.65,423.5a42.76,42.76,0,0,1-29.11,0V418a71.74,71.74,0,0,0,29.11,0Z" transform="translate(54.95)"/><line class="cls-82" x1="639.99" y1="422.65" x2="642.76" y2="422.65"/><line class="cls-82" x1="649.34" y1="422.65" x2="652.1" y2="422.65"/><circle class="cls-82" cx="646.26" cy="422.65" r="1.17"/><path class="cls-81" d="M598.15,406.18h-14.1v-8h14.1Zm-12-2.09h9.93v-3.8h-9.93Z" transform="translate(54.95)"/><path class="cls-83" d="M598.83,386.05c-.41,3.74-3.87,8.09-8,8-3.45-.06-6.56-3.17-7.33-6.34-1-4,2.47-5.61,4.07-13.3,1.08-5.21.36-8.54,1.28-8.72s1.74,3,4.76,9C597.46,382.26,599.16,383.15,598.83,386.05Z" transform="translate(54.95)"/><path class="cls-21" d="M587.58,384h.79v4.21h-.79Zm.37,1.74h2.45v.77H588Zm1.93-1.74h.8v4.21h-.8Z" transform="translate(54.95)"/><path class="cls-21" d="M591.45,387.53l1.45-1.9a1.74,1.74,0,0,0,.15-.26.85.85,0,0,0,.05-.25h0a.33.33,0,0,0-.11-.26.43.43,0,0,0-.31-.1.44.44,0,0,0-.32.13.66.66,0,0,0-.15.37h-.81a1.59,1.59,0,0,1,.19-.68,1.13,1.13,0,0,1,.44-.43,1.34,1.34,0,0,1,.64-.15,1.56,1.56,0,0,1,.68.13,1,1,0,0,1,.42.37,1.16,1.16,0,0,1,.15.6h0a1.9,1.9,0,0,1-.1.57,1.8,1.8,0,0,1-.28.51l-1,1.31h1.44v.76h-2.49Z" transform="translate(54.95)"/><polygon class="cls-84" points="482.77 348.3 422.57 348.3 543.75 266.69 603.95 266.69 482.77 348.3"/><line class="cls-85" x1="484.24" y1="306.95" x2="544.09" y2="306.95"/><line class="cls-85" x1="452.66" y1="348.15" x2="573.43" y2="266.84"/></g></svg>