<svg xmlns="http://www.w3.org/2000/svg" viewBox="0 0 500 500"><defs><style>.cls-1{fill:#e6f4f4;}.cls-2{fill:#8fdaef;}.cls-3{fill:#efeae4;}.cls-4{fill:#1976d2;}.cls-5{fill:#ce915f;}.cls-6{fill:#d8a87c;}.cls-7{fill:#906fb2;}.cls-8{fill:#b08fcc;}.cls-9{fill:#0d6472;}.cls-10{fill:#0d7f99;}</style></defs><g id="Layer_3" data-name="Layer 3"><rect class="cls-1" width="500" height="500"/><path class="cls-2" d="M268,75.87l.37,0Z"/><path class="cls-2" d="M106.07,223.1l0-.95Z"/><path class="cls-2" d="M264,75.42l.87.09Z"/><path class="cls-2" d="M259.85,75.08l1.4.1Z"/><path class="cls-3" d="M348.73,122.76l-6.18,8.82-8.87,1.4-1.28,7.61,3.75.91-1.08,4.9-8.8-1.77-8,1.77-1.68,4.48,1.38,9.5,4.72,2.22,7.93,0,5.36-.48,1.64-4.3L346,146.84l5.5,1.15,5.42-5,1,3.84,13.36,9.1-1.65,2.17-6-.29,2.33,3.28,3.7.82,4.34-1.81-.07-5.28,1.91-1-1.54-1.66-8.91-5L363,140.59h7.4l1.28,1.29a144.54,144.54,0,0,0-15.29-20l-1.25-.19Z"/><path class="cls-2" d="M106.22,226.57c0-.31,0-.61,0-.91C106.18,226,106.2,226.26,106.22,226.57Z"/><path class="cls-2" d="M106.43,229.9l0-.39Z"/><path class="cls-3" d="M380.28,177.31H377.5l-3-2.15-15.12-3.88V161.4l-19.2,1.51-5.95,3.23h-7.63l-3.75-.41-9.25,5.21v9.72l-18.89,13.72,1.57,5.88h3.85l-1,5.58-2.69,1-.15,14.59L308,234.88c3.59-2,7.32-4,11.22-5.95a234.54,234.54,0,0,1,74.29-22.35A142.88,142.88,0,0,0,386,171.37l-5.69.54Z"/><path class="cls-3" d="M252.5,256.23l-11.94-4.56-.56-8.59-4-7-10.78-.15L219,226l-5.54-2.75-.3,3-10.07.59-3.7-5.16-10.52-2.14L181,228.69A232.15,232.15,0,0,1,250.89,281a219.28,219.28,0,0,1,19.7-19.59l-3-5Z"/><path class="cls-2" d="M121.31,210.74l14.94,3.69v-2.16c-5.64-1.45-11.08-2.62-16.27-3.58Z"/><path class="cls-2" d="M106,218.74c0-1.64,0-3.27.09-4.9C106,215.47,106,217.1,106,218.74Z"/><path class="cls-2" d="M237.45,75.29l2.39-.19Z"/><path class="cls-2" d="M255.5,74.86c.69,0,1.38,0,2.06.08C256.88,74.9,256.19,74.88,255.5,74.86Z"/><path class="cls-2" d="M107.07,201.23q.17-1.35.36-2.7Q107.23,199.88,107.07,201.23Z"/><path class="cls-2" d="M224.41,77l.41-.08Z"/><path class="cls-2" d="M228.05,76.42l.55-.08Z"/><path class="cls-2" d="M233.63,75.68l1.91-.22Z"/><path class="cls-2" d="M245.76,74.81c1.41,0,2.82-.07,4.24-.07C248.58,74.74,247.17,74.77,245.76,74.81Z"/><path class="cls-2" d="M250,74.74c1.27,0,2.55,0,3.81.05C252.55,74.76,251.27,74.74,250,74.74Z"/><path class="cls-2" d="M106.14,212.52c.07-1.46.15-2.91.25-4.36C106.29,209.61,106.21,211.06,106.14,212.52Z"/><path class="cls-2" d="M241.57,75l2.76-.13Z"/><path class="cls-2" d="M106.85,203.18c-.13,1.14-.24,2.27-.33,3.42h0C106.62,205.45,106.72,204.32,106.85,203.18Z"/><path class="cls-2" d="M110.68,193l-1.82-2.83q-.67,3.33-1.2,6.71L110,197Z"/><path class="cls-3" d="M115.28,201.47l4.7,7.22c5.19,1,10.63,2.13,16.27,3.58V212l5.95.86-.13,1a236.39,236.39,0,0,1,22.6,7.65l1.51.62-.67-10.24-9.95-1.74,4-7.57-1.16-4.37L145.34,207l-8.23-1-2.92-6.48,1.76-6.67,4.56-8.44L151,179.07h20.17l-.06,6.19,7.25,3.42-.55-10.58,5.2-5.32,10.55-7,.74-4.9,10.53-11,11.15-6.23-1-.83,7.56-7.16,2.77.73,1.27,1.61,2.88-3.2.72-.34L227,134l-3.21-1.05v-3.09l1.72-1.4h3.71l1.72.76,1.5,3,1.79-.3v-.27l.53.19,5.24-.79.74-2.61,3,.76V132L241,134l.42,3,9.47,2.94,0,.11,2.17-.18.15-4.15-7.52-3.43-.41-2,6.24-2.16.26-6-6.54-4L244.83,108l-9,4.41h-3.26l.82-7.73-12.16-2.9-5.05,3.84v11.73l-9.06,2.86-3.63,7.66-4,.63v-9.76l-8.5-1.21-4.26-2.79-1.73-6.33,15.24-9,7.49-2.3.75,5.06,4.15-.19.3-2.57,4.35-.6.06-.91-1.86-.79-.42-2.67L220.5,94l3.22-3.4.18-.22h0l1-1,11.23-1.42,5,4.25-13,7,16.53,4,2.18-5.57H254l2.58-4.86-5.12-1.33V85.23l-16.06-7.16-11.08,1.27-6.25,3.32.42,8-6.56-1-1-4.44,6.29-5.74-3.31-.16Q207.54,81,201.4,83.21l-.22.58,4.27.72-.86,4.3-7.26.45-1.12,2.83-10.52.3s-.05-1.1-.14-2.36a144.77,144.77,0,0,0-75.65,95.44L117.76,197Zm75.05-50.89L187.89,153h-5.46l.86-3.74,2.58-.22.53-1.28,3.93-.56Zm1.27-6.78-2.55,1.66-3.21.59v-5.68h5.76Zm4.87-4,2.61,1.62L197,143.2l-2.09-1.74ZM193,144.13h.45l6.47,1.92v3.36h-5.43L193,147.23Zm-4.27-9.23,3.52,3.2-3.52.87Zm-14.89.53,4.89-2h6.71v2h1.5V139H176.67l-3.82-1.05Zm-1,9.23,3.93-4.29h5.65l-7.22,10.21-3-1.62Zm-5.24-24.27,4,1-1.38,5.46-4.38,1.4-2.74-5.69Z"/><path class="cls-2" d="M106.52,206.6c0,.18,0,.36,0,.54,0-.18,0-.36,0-.54Z"/><path class="cls-2" d="M106.85,203.18c.07-.65.14-1.3.22-2C107,201.88,106.92,202.53,106.85,203.18Z"/><path class="cls-2" d="M107.65,196.87c-.08.55-.14,1.11-.22,1.66.08-.55.15-1.1.23-1.66Z"/><path class="cls-2" d="M201.42,83.15A142.11,142.11,0,0,0,185.55,90V90a142.72,142.72,0,0,1,15.85-6.82Z"/><path class="cls-2" d="M109.88,185.44c-.37,1.55-.72,3.12-1,4.69v0c.32-1.58.67-3.14,1-4.69Z"/><path class="cls-2" d="M106.09,213.84c0-.44,0-.88,0-1.32C106.12,213,106.11,213.4,106.09,213.84Z"/><path class="cls-2" d="M106,222.15c0-1.13,0-2.27,0-3.41C106,219.88,106,221,106,222.15Z"/><path class="cls-2" d="M106.4,229.51c-.07-1-.13-2-.18-2.94Q106.29,228,106.4,229.51Z"/><path class="cls-2" d="M106.39,208.16c0-.34,0-.68.08-1C106.44,207.48,106.42,207.82,106.39,208.16Z"/><path class="cls-2" d="M106.17,225.66c0-.85-.07-1.71-.1-2.56C106.1,224,106.13,224.81,106.17,225.66Z"/><path class="cls-2" d="M261.25,75.18c.91.07,1.83.15,2.74.24Z"/><path class="cls-2" d="M264.86,75.51c1.06.1,2.11.23,3.16.36C267,75.74,265.92,75.61,264.86,75.51Z"/><path class="cls-4" d="M386,171.37a144.27,144.27,0,0,0-14-29.18l-.31-.31A143.79,143.79,0,0,1,386,171.37Z"/><path class="cls-2" d="M356.38,121.86l.18,0a143.69,143.69,0,0,0-88.17-46A144,144,0,0,1,356.38,121.86Z"/><path class="cls-2" d="M213.83,79.32h.1Q219.09,78,224.41,77C220.83,77.67,217.3,78.42,213.83,79.32Z"/><path class="cls-2" d="M228.6,76.34c1.67-.25,3.34-.47,5-.66C231.94,75.87,230.27,76.09,228.6,76.34Z"/><path class="cls-2" d="M239.84,75.1l1.73-.11Z"/><path class="cls-2" d="M257.56,74.94l2.29.14Z"/><path class="cls-2" d="M224.82,77c1.08-.19,2.15-.37,3.23-.53C227,76.58,225.9,76.76,224.82,77Z"/><path class="cls-2" d="M235.54,75.46l1.91-.17Z"/><path class="cls-2" d="M253.81,74.79l1.69.07Z"/><path class="cls-2" d="M244.33,74.86l1.43,0Z"/><polygon class="cls-2" points="186.93 138.97 186.93 135.43 185.43 135.43 185.43 133.4 178.72 133.4 173.83 135.43 172.85 137.92 176.67 138.97 186.93 138.97"/><polygon class="cls-2" points="170.27 126.83 171.65 121.37 167.61 120.39 163.15 122.54 165.89 128.23 170.27 126.83"/><polygon class="cls-2" points="182.43 140.37 176.78 140.37 172.85 144.66 172.22 148.96 175.21 150.58 182.43 140.37"/><path class="cls-2" d="M120,208.69l-4.7-7.22,2.48-4.49-7.86-11.51c-.37,1.55-.72,3.11-1,4.69l1.82,2.83-.7,4-2.32-.11c-.08.56-.15,1.11-.23,1.66q-.2,1.35-.36,2.7c-.08.65-.15,1.3-.22,2-.13,1.14-.23,2.27-.33,3.42C110.79,207.14,115.28,207.82,120,208.69Z"/><polygon class="cls-2" points="188.72 134.9 188.72 138.97 192.24 138.1 188.72 134.9"/><path class="cls-2" d="M136.25,212v.25q2.88.73,5.82,1.57l.13-1Z"/><path class="cls-2" d="M211,85.23l1,4.44,6.56,1-.42-8,6.25-3.32,11.08-1.27,16.06,7.16v6.13l5.12,1.33L254,97.55h-7.22l-2.18,5.57-16.53-4,13-7-5-4.25-11.23,1.42-1,1h0l-.18.22L220.5,94l-5.36.45.42,2.67,1.86.79-.06.91-4.35.6-.3,2.57-4.15.19-.75-5.06-7.49,2.3-15.24,9,1.73,6.33,4.26,2.79,8.5,1.21v9.76l4-.63,3.63-7.66,9.06-2.86V105.61l5.05-3.84,12.16,2.9-.82,7.73h3.26l9-4.41.41,10.14,6.54,4-.26,6-6.24,2.16.41,2,7.52,3.43-.15,4.15-2.17.18,0-.11L241.38,137l-.42-3,2.78-1.93v-2.82l-3-.76-.74,2.61-5.24.79-.53-.19v.27l-1.79.3-1.5-3-1.72-.76h-3.71l-1.72,1.4v3.09L227,134l3.16.46-.72.34-2.88,3.2-1.27-1.61-2.77-.73L215,142.81l1,.83-11.15,6.23-10.53,11-.74,4.9-10.55,7-5.2,5.32.55,10.58-7.25-3.42.06-6.19H151l-10.44,5.32L136,192.83l-1.76,6.67,2.92,6.48,8.23,1,13.06-8.82,1.16,4.37-4,7.57,9.95,1.74.67,10.24q7.74,3.12,14.8,6.58l7.85-9.09,10.52,2.14,3.7,5.16,10.07-.59.3-3L219,226l6.25,9.88,10.78.15,4,7,.56,8.59,11.94,4.56,15,.15,3,5A225.18,225.18,0,0,1,308,234.88l-11.68-13.44.15-14.59,2.69-1,1-5.58h-3.85l-1.57-5.88,18.89-13.72v-9.72l9.25-5.21,3.75.41h7.63l5.95-3.23,19.2-1.51v9.88l15.12,3.88,3,2.15h2.78v-5.4l5.69-.54a143.79,143.79,0,0,0-14.3-29.49l-1.28-1.29H363l2.35,6.67,8.91,5,1.54,1.66-1.91,1,.07,5.28L369.61,162l-3.7-.82-2.33-3.28,6,.29,1.65-2.17-13.36-9.1-1-3.84-5.42,5-5.5-1.15-8.39,10.94-1.64,4.3-5.36.48-7.93,0-4.72-2.22-1.38-9.5,1.68-4.48,8-1.77,8.8,1.77,1.08-4.9-3.75-.91,1.28-7.61,8.87-1.4,6.18-8.82,6.4-1.09,1.25.19a144,144,0,0,0-88-45.95l-.37,0c-1-.13-2.1-.26-3.16-.36l-.87-.09c-.91-.09-1.83-.17-2.74-.24l-1.4-.1-2.29-.14c-.68,0-1.37-.06-2.06-.08l-1.69-.07c-1.26,0-2.54-.05-3.81-.05s-2.83,0-4.24.07l-1.43,0-2.76.13-1.73.11-2.39.19-1.91.17-1.91.22c-1.69.19-3.36.41-5,.66l-.55.08c-1.08.16-2.15.34-3.23.53l-.41.08q-5.31,1-10.48,2.3l3.31.16Z"/><polygon class="cls-2" points="199.91 149.41 199.91 146.05 193.44 144.13 192.99 144.13 192.99 147.23 194.49 149.41 199.91 149.41"/><path class="cls-2" d="M196.21,92.09l1.12-2.83,7.26-.45.86-4.3-4.27-.72.22-.58A142.72,142.72,0,0,0,185.55,90c.09,1.26.14,2.36.14,2.36Z"/><path class="cls-2" d="M166.53,227.36l13.62,2.29.83-1q-7.06-3.45-14.8-6.58Z"/><polygon class="cls-2" points="199.08 141.46 196.47 139.84 194.9 141.46 196.99 143.2 199.08 141.46"/><polygon class="cls-2" points="185.84 146.05 189.05 145.46 191.6 143.8 191.6 140.37 185.84 140.37 185.84 146.05"/><polygon class="cls-2" points="185.87 149.07 183.29 149.29 182.43 153.03 187.89 153.03 190.33 150.58 190.33 147.23 186.4 147.79 185.87 149.07"/><path class="cls-5" d="M452.48,255.22l3.67-14.82s-141.33-27.85-206.08,64.07v15.45C308.64,236.77,429.87,251.63,452.48,255.22Z"/><path class="cls-6" d="M43.85,240.4l3.67,14.82c22.61-3.59,143.84-18.45,202.41,64.7V304.47C185.18,212.55,43.85,240.4,43.85,240.4Z"/><path class="cls-7" d="M452.48,224.21l3.67-14.82s-141.33-27.85-206.08,64.07v15.45C308.64,205.76,429.87,220.62,452.48,224.21Z"/><path class="cls-8" d="M43.85,209.39l3.67,14.82c22.61-3.59,143.84-18.45,202.41,64.7V273.46C185.18,181.54,43.85,209.39,43.85,209.39Z"/><path class="cls-9" d="M250.07,470.8s53.71-61.07,167.76-39.74l38.32-154.51s-141.33-27.86-206.08,64.07Z"/><path class="cls-10" d="M249.93,470.8s-53.71-61.07-167.76-39.74L43.85,276.55s141.33-27.86,206.08,64.07Z"/></g></svg>