<svg xmlns="http://www.w3.org/2000/svg" xmlns:xlink="http://www.w3.org/1999/xlink" viewBox="0 0 1366.39 768"><defs><style>.cls-1{fill:#b0f4f2;}.cls-2{fill:url(#New_Gradient_Swatch);}.cls-3{fill:url(#New_Gradient_Swatch-2);}.cls-4{fill:url(#New_Gradient_Swatch-3);}.cls-5{fill:url(#New_Gradient_Swatch-4);}.cls-6{fill:url(#New_Gradient_Swatch-5);}.cls-7{fill:url(#New_Gradient_Swatch-6);}.cls-8{fill:#88a84c;}.cls-9{fill:#98b74e;}.cls-10{fill:#a6cc69;}.cls-11,.cls-42,.cls-57,.cls-58,.cls-60,.cls-64,.cls-65,.cls-66{fill:none;}.cls-12{fill:#e6f4f4;}.cls-13{fill:#ccc;}.cls-14{fill:#d7dddd;}.cls-15{fill:#929999;}.cls-16{fill:#125a66;}.cls-17{fill:#186a72;}.cls-18{fill:#0d7a8c;}.cls-19{fill:#0d7f99;}.cls-20{fill:#dce5e5;}.cls-21{fill:#a2e0ea;}.cls-22{fill:#f2f2f2;}.cls-23,.cls-28{opacity:0.1;}.cls-24,.cls-63{fill:#fff;}.cls-25{fill:#e6e6e6;}.cls-26,.cls-31{fill:#efe8e4;}.cls-26,.cls-58,.cls-59,.cls-60,.cls-61,.cls-62{stroke:#fff;}.cls-26,.cls-41,.cls-42,.cls-43,.cls-46,.cls-57,.cls-58,.cls-59,.cls-60,.cls-61,.cls-62,.cls-63,.cls-64,.cls-65,.cls-66,.cls-71{stroke-miterlimit:10;}.cls-26,.cls-65{stroke-width:4px;}.cls-27{fill:#c9bcb3;}.cls-29{fill:#f4edea;}.cls-30{fill:#d4dddd;}.cls-32{fill:#d3d3d3;}.cls-33{fill:#999;}.cls-34{fill:#ff1d25;}.cls-35{fill:#3fa9f5;}.cls-36{fill:gray;}.cls-37{fill:#b3b3b3;}.cls-38{fill:#d4584e;}.cls-39{fill:#303030;}.cls-40{fill:#682b27;}.cls-41{fill:#48453e;}.cls-41,.cls-42,.cls-43,.cls-46{stroke:#000;}.cls-41,.cls-43{stroke-width:0.5px;}.cls-42{stroke-width:3px;}.cls-43{fill:#706e6a;}.cls-44{fill:#020202;}.cls-45{fill:#ddd3c0;}.cls-46{fill:#fb4;}.cls-47{fill:#1a1a1a;}.cls-48{fill:#ddcfb6;}.cls-49{fill:#a97140;}.cls-50{fill:#915927;}.cls-51{fill:#774a2b;}.cls-52{fill:#d59657;}.cls-53{fill:#ad7341;}.cls-54{fill:#666;}.cls-55{fill:#cd92e8;}.cls-56{fill:#9166af;}.cls-57{stroke:#ccc;}.cls-58{stroke-width:5px;}.cls-59{fill:#4aa5dd;}.cls-61{fill:url(#linear-gradient);}.cls-62{fill:url(#linear-gradient-2);}.cls-63{stroke:#4d4d4d;stroke-linecap:round;}.cls-63,.cls-66{stroke-width:6px;}.cls-64,.cls-65{stroke:#f2f2f2;stroke-linecap:square;}.cls-64{stroke-width:2px;}.cls-66{stroke:#c69c6d;}.cls-67{fill:#603813;}.cls-68{fill:url(#linear-gradient-3);}.cls-69{fill:#42210b;}.cls-70{fill:#efefef;}.cls-71{fill:#fff5ab;stroke:#666;stroke-width:0.25px;}</style><linearGradient id="New_Gradient_Swatch" x1="501.06" y1="291.52" x2="501.06" y2="202.37" gradientUnits="userSpaceOnUse"><stop offset="0" stop-color="#fff" stop-opacity="0.1"/><stop offset="0.42" stop-color="#fff" stop-opacity="0.47"/><stop offset="1" stop-color="#fff"/></linearGradient><linearGradient id="New_Gradient_Swatch-2" x1="998.49" y1="354.68" x2="998.49" y2="265.52" xlink:href="#New_Gradient_Swatch"/><linearGradient id="New_Gradient_Swatch-3" x1="151.77" y1="165.01" x2="151.77" y2="75.86" xlink:href="#New_Gradient_Swatch"/><linearGradient id="New_Gradient_Swatch-4" x1="131.24" y1="355.17" x2="131.24" y2="215.72" xlink:href="#New_Gradient_Swatch"/><linearGradient id="New_Gradient_Swatch-5" x1="1278.1" y1="120.19" x2="1278.1" y2="31.04" xlink:href="#New_Gradient_Swatch"/><linearGradient id="New_Gradient_Swatch-6" x1="1202.03" y1="246.69" x2="1202.03" y2="157.54" xlink:href="#New_Gradient_Swatch"/><linearGradient id="linear-gradient" x1="537.31" y1="166.94" x2="778.31" y2="166.94" gradientUnits="userSpaceOnUse"><stop offset="0" stop-color="#4d4d4d"/><stop offset="0" stop-color="gray"/><stop offset="0.1" stop-color="#03020b"/><stop offset="0.5" stop-color="#1b1464"/><stop offset="0.9"/><stop offset="1" stop-color="#666"/></linearGradient><linearGradient id="linear-gradient-2" x1="246" y1="291.44" x2="477.31" y2="291.44" xlink:href="#linear-gradient"/><linearGradient id="linear-gradient-3" x1="228.58" y1="654.95" x2="228.58" y2="598" gradientUnits="userSpaceOnUse"><stop offset="0" stop-color="#3fa9f5"/><stop offset="1" stop-color="#c1272d"/></linearGradient></defs><g id="Background"><rect id="Sky" class="cls-1" y="0.44" width="1366" height="481.12"/><g id="Clouds"><path class="cls-2" d="M740.31,269.11a22.51,22.51,0,0,0-39.67-14.47,22.54,22.54,0,0,0-40-3.17,25,25,0,0,0-37.36-13.24,24.1,24.1,0,0,0-2.88,2.17,32.56,32.56,0,0,0-51-18.19,40.05,40.05,0,0,0-68.3-1.45,35,35,0,0,0-62.49,3.78,32.52,32.52,0,0,0-58.31,19.66c0,1,.05,1.91.14,2.85a25.07,25.07,0,0,0-39.82-6,24.76,24.76,0,0,0-7.23,15.62,20,20,0,0,0-38.76,2.48h-1.71A18.46,18.46,0,1,0,280.31,291c.17,0,.33,0,.5,0v0H713.09a22.53,22.53,0,0,0,9.44,0h1.28v-.31A22.44,22.44,0,0,0,740.31,269.11Zm-297.49-10h-1.18c.17-.31.33-.62.49-.95C442.35,258.51,442.58,258.83,442.82,259.14Zm-58.84,0h-.68c0-.46,0-.93,0-1.4C383.51,258.21,383.74,258.68,384,259.14Z" transform="translate(1 -0.56)"/><path class="cls-3" d="M1237.74,332.26a22.51,22.51,0,0,0-39.67-14.47,22.54,22.54,0,0,0-40-3.17,25.4,25.4,0,0,0-2.79-5.84,25.08,25.08,0,0,0-37.45-5.23,32.56,32.56,0,0,0-51-18.18,40,40,0,0,0-68.3-1.45,35,35,0,0,0-62.49,3.78,32.52,32.52,0,0,0-58.31,19.66c0,1,0,1.91.13,2.85a24.58,24.58,0,0,0-4.45-6,25.07,25.07,0,0,0-35.36,0,24.71,24.71,0,0,0-7.23,15.62,20,20,0,0,0-38.76,2.48h-1.71a18.46,18.46,0,1,0-12.62,31.88c.17,0,.33,0,.5,0v0h432.28a22.53,22.53,0,0,0,9.44,0h1.28v-.32A22.43,22.43,0,0,0,1237.74,332.26Zm-297.49-10h-1.18c.17-.31.33-.63.49-.95C939.78,321.67,940,322,940.25,322.3Zm-58.84,0h-.68c0-.47,0-.94,0-1.4C880.94,321.37,881.17,321.84,881.41,322.3Z" transform="translate(1 -0.56)"/><path class="cls-4" d="M278.81,120.19a22.44,22.44,0,0,0-17.17,7.94,22.54,22.54,0,0,0-40-3.17,24.81,24.81,0,0,0-2.79-5.84,25.06,25.06,0,0,0-34.57-7.39,24,24,0,0,0-2.88,2.16,32.56,32.56,0,0,0-51-18.18,40.05,40.05,0,0,0-68.3-1.46,35.08,35.08,0,0,0-55-7.18,34.82,34.82,0,0,0-4.83,6v71.41H274.09a22.53,22.53,0,0,0,9.44,0h1.28v-.31a22.4,22.4,0,0,0-6-44ZM2.64,132.64l.49-.95c.22.32.45.64.69.95Z" transform="translate(1 -0.56)"/><path class="cls-5" d="M231.74,297.4a28.26,28.26,0,0,0-7.74,1.07,32.1,32.1,0,0,0-46.71-9.83,49,49,0,0,0-46-32.08,50,50,0,0,0-10.67,1.15A63.61,63.61,0,0,0,2.23,254.4V355.17h233V354a28.38,28.38,0,0,0-3.5-56.56ZM19.38,327c-.26-.22-.52-.44-.77-.67H20C19.76,326.52,19.58,326.74,19.38,327Z" transform="translate(1 -0.56)"/><path class="cls-6" d="M1341.81,40.5a32.43,32.43,0,0,0-32.5,32.37c0,1,0,1.91.14,2.85a25.07,25.07,0,0,0-39.82-6,24.73,24.73,0,0,0-7.23,15.62,20,20,0,0,0-38.76,2.48h-1.71a18.46,18.46,0,1,0-12.62,31.88c.17,0,.33,0,.5,0v0h155.58l-.67-69.76A32.45,32.45,0,0,0,1341.81,40.5ZM1312.3,87.81c0-.46,0-.93,0-1.4.22.47.45.94.69,1.4Z" transform="translate(1 -0.56)"/><path class="cls-7" d="M1347.41,177.39a40.05,40.05,0,0,0-68.3-1.46,35.08,35.08,0,0,0-55-7.18,34.87,34.87,0,0,0-7.44,11,32.52,32.52,0,0,0-58.31,19.67c0,1,0,1.91.14,2.85a25,25,0,0,0-47,9.61,20,20,0,0,0-38.76,2.48h-1.71a18.46,18.46,0,1,0-12.62,31.88c.17,0,.33,0,.5,0v0h305.44V171.09A32.42,32.42,0,0,0,1347.41,177.39ZM1161.3,214.32c0-.47,0-.94,0-1.41q.33.72.69,1.41Zm58.34,0,.49-.95c.22.32.45.64.69.95Z" transform="translate(1 -0.56)"/></g><g id="Ground"><path class="cls-8" d="M-.76,377.68a1007.3,1007.3,0,0,1,196.52-60.36c278-55,448.12,35.61,796.21,61.76,85.57,6.43,214,11.38,373.27-1.4V508.15L-.76,481.5Z" transform="translate(1 -0.56)"/><path class="cls-9" d="M-.76,614.78h1366V452c-205.57-53.88-367.11-51.44-477-39.08C736.22,430,589.05,476.66,379,483.35c-98.39,3.14-178.47-3.32-202.48-5.65C99.89,470.23,38,459.51-.76,452Z" transform="translate(1 -0.56)"/><path class="cls-10" d="M-.76,768.56h1366V599.22c-30-3-76.73-7-134-9.36-139.1-5.69-240.3,2.72-281,5.46-281.53,18.91-366.09-52.75-673-34.1a1879.32,1879.32,0,0,0-278,38Z" transform="translate(1 -0.56)"/></g><rect id="Snip" class="cls-11" x="0.24" width="1366" height="768"/></g><g id="Houses"><rect class="cls-12" x="813.53" y="300.51" width="288.89" height="247.62"/><rect class="cls-12" x="1101.42" y="402.81" width="110.05" height="146.32"/><rect class="cls-13" x="1101.42" y="394.57" width="110.05" height="8.24"/><rect class="cls-14" x="1101.42" y="548.13" width="110.05" height="23.69"/><rect class="cls-15" x="1101.42" y="548.13" width="110.05" height="2.75"/><rect class="cls-16" x="1101.42" y="308.6" width="46.07" height="5.97"/><rect class="cls-17" x="1101.42" y="387.04" width="110.39" height="7.53"/><polygon class="cls-18" points="1212 387.04 1101.4 387.04 1101.4 314.44 1147.4 314.44 1212 387.04"/><rect class="cls-13" x="812.53" y="292.27" width="288.89" height="8.24"/><polygon class="cls-19" points="1051.81 213.44 861.81 213.44 811.81 286.44 1101.81 286.44 1051.81 213.44"/><rect class="cls-16" x="861.97" y="207.3" width="190" height="5.97"/><rect class="cls-17" x="812.47" y="286.3" width="289" height="5.97"/><rect class="cls-14" x="812.53" y="548.13" width="288.89" height="23.69"/><rect class="cls-15" x="812.53" y="548.13" width="288.89" height="2.75"/><rect class="cls-12" x="898.12" y="555.03" width="117.7" height="7.9"/><rect class="cls-20" x="884.08" y="562.92" width="145.79" height="7.9"/><rect class="cls-20" x="912.17" y="547.13" width="89.61" height="7.9"/><rect class="cls-21" x="856.38" y="439.41" width="31.45" height="58.06"/><path class="cls-22" d="M890.31,498V440h-3.49V498H855.38V440h-3.49V498h-4.17v3.49h46.76V498Z" transform="translate(1 -0.56)"/><rect class="cls-13" x="848.72" y="500.96" width="46.76" height="1.15"/><g class="cls-23"><polygon class="cls-24" points="887.82 474.81 887.82 475.82 866.17 497.47 865.16 497.47 887.82 474.81"/><polygon class="cls-24" points="887.82 462.86 887.82 465.9 856.38 497.35 856.38 494.31 887.82 462.86"/><polygon class="cls-24" points="877.28 444.83 863.72 458.38 862.58 459.53 857.52 464.58 856.38 465.73 856.38 462.01 857.52 460.86 858.85 459.53 860 458.38 877.32 441.07 877.28 444.83"/><polygon class="cls-24" points="886.67 449.54 878.43 457.78 876.68 459.53 872.67 463.54 871.52 464.69 857.71 478.5 857.52 478.69 856.38 479.83 856.38 473.94 866.92 463.4 870.79 459.53 872.67 457.64 886.67 443.64 886.67 449.54"/><polygon class="cls-24" points="887.82 480.38 887.82 487.44 877.79 497.47 870.73 497.47 887.82 480.38"/></g><path class="cls-25" d="M885.67,457.29v1.65h-8.24v-1.65h-1.15v1.65h-4.61v-1.65h-1.14v1.65h-4.61v-1.65h-1.15v1.65h-8.25v-1.65h-1.14V498h31.44V457.29Zm-9.39,2.8v8.34h-4.61v-8.34Zm0,17.82h-4.61v-8.34h4.61Zm0,9.49h-4.61v-8.34h4.61Zm-5.75,0h-4.61v-8.34h4.61Zm-4.61-17.83h4.61v8.34h-4.61Zm4.61-9.48v8.34h-4.61v-8.34Zm-14,0h8.25v8.34h-8.25Zm0,9.48h8.25v8.34h-8.25Zm0,9.49h8.25v8.34h-8.25Zm0,17.82v-8.33h8.25v8.33Zm9.4,0v-8.33h4.61v8.33Zm10.36,0h-4.61v-8.33h4.61Zm9.39,0h-8.24v-8.33h8.24Zm0-9.48h-8.24v-8.34h8.24Zm0-9.49h-8.24v-8.34h8.24Zm0-9.48h-8.24v-8.34h8.24Z" transform="translate(1 -0.56)"/><path class="cls-25" d="M885.67,436.48V440h-8.24v-3.49h-1.15V440h-4.61v-3.49h-1.14V440h-4.61v-3.49h-1.15V440h-8.25v-3.49h-1.14v33.09h31.44V436.48Zm-20.9,31.95h-8.25v-8.34h8.25Zm0-9.49h-8.25V450.6h8.25Zm0-9.48h-8.25v-8.34h8.25Zm5.76,19h-4.61v-8.34h4.61Zm0-9.49h-4.61V450.6h4.61Zm0-9.48h-4.61v-8.34h4.61Zm5.75,19h-4.61v-8.34h4.61Zm0-9.49h-4.61V450.6h4.61Zm0-9.48h-4.61v-8.34h4.61Zm9.39,19h-8.24v-8.34h8.24Zm0-9.49h-8.24V450.6h8.24Zm0-9.48h-8.24v-8.34h8.24Z" transform="translate(1 -0.56)"/><rect class="cls-22" x="852.89" y="435.92" width="38.42" height="3.49"/><rect class="cls-26" x="988" y="425.44" width="112" height="121"/><rect class="cls-27" x="880.95" y="319.65" width="0.5" height="72.6"/><rect class="cls-21" x="855.28" y="322.21" width="23.11" height="67.48"/><g class="cls-23"><polygon class="cls-24" points="878.39 363.36 878.39 364.53 862.48 389.7 861.74 389.7 878.39 363.36"/><polygon class="cls-24" points="878.39 349.47 878.39 353 855.28 389.55 855.28 386.02 878.39 349.47"/><polygon class="cls-24" points="873.78 323.55 860.68 344.26 859.84 345.6 856.13 351.47 855.28 352.81 855.28 348.48 856.13 347.14 857.1 345.6 857.95 344.26 871.04 323.55 873.78 323.55"/><polygon class="cls-24" points="877.54 333.98 871.49 343.57 870.2 345.6 867.26 350.25 866.41 351.59 856.26 367.65 856.13 367.86 855.28 369.2 855.28 362.35 863.03 350.1 865.87 345.6 867.26 343.41 877.54 327.14 877.54 333.98"/><polygon class="cls-24" points="878.39 369.82 878.39 378.04 871.02 389.7 865.83 389.7 878.39 369.82"/></g><path class="cls-22" d="M851.72,320.21v72.61H880V320.21Zm25.67,70H854.28V322.77h23.11Z" transform="translate(1 -0.56)"/><path class="cls-25" d="M854.28,322.77v67.48h23.11V322.77Zm16.7,1.34h5.07v9.69H871Zm5.07,42.76H871v-9.69h5.07ZM871,368.21h5.07v9.68H871Zm0-12.36v-9.69h5.07v9.69Zm0-20.72h5.07v9.69H871Zm-4.48-11h3.14v9.69H866.5Zm3.14,42.76H866.5v-9.69h3.14Zm-3.14,1.34h3.14v9.68H866.5Zm0-12.36v-9.69h3.14v9.69Zm0-20.72h3.14v9.69H866.5Zm-4.47-11h3.14v9.69H862Zm3.14,42.76H862v-9.69h3.14ZM862,368.21h3.14v9.68H862Zm0-12.36v-9.69h3.14v9.69Zm0-20.72h3.14v9.69H862Zm-6.41-11h5.07v9.69h-5.07Zm5.07,42.76h-5.07v-9.69h5.07Zm-5.07,1.34h5.07v9.68h-5.07Zm0-12.36v-9.69h5.07v9.69Zm0-20.72h5.07v9.69h-5.07Zm0,53.79v-9.69h5.07v9.69Zm6.41,0v-9.69h3.14v9.69Zm4.47,0v-9.69h3.14v9.69Zm4.48,0v-9.69h5.07v9.69Z" transform="translate(1 -0.56)"/><rect class="cls-21" x="884.01" y="322.21" width="23.11" height="67.48"/><g class="cls-23"><polygon class="cls-24" points="907.12 363.36 907.12 364.53 891.21 389.7 890.47 389.7 907.12 363.36"/><polygon class="cls-24" points="907.12 349.47 907.12 353 884.01 389.55 884.01 386.02 907.12 349.47"/><polygon class="cls-24" points="902.5 323.55 889.41 344.26 888.56 345.6 884.85 351.47 884.01 352.81 884.01 348.48 884.85 347.14 885.83 345.6 886.67 344.26 899.77 323.55 902.5 323.55"/><polygon class="cls-24" points="906.27 333.98 900.21 343.57 898.93 345.6 895.98 350.25 895.14 351.59 884.99 367.65 884.85 367.86 884.01 369.2 884.01 362.35 891.76 350.1 894.6 345.6 895.98 343.41 906.27 327.14 906.27 333.98"/><polygon class="cls-24" points="907.12 369.82 907.12 378.04 899.75 389.7 894.55 389.7 907.12 369.82"/></g><path class="cls-22" d="M880.45,320.21v72.61h28.23V320.21Zm25.67,70H883V322.77h23.11Z" transform="translate(1 -0.56)"/><path class="cls-25" d="M883,322.77v67.48h23.11V322.77Zm16.69,1.34h5.08v9.69H899.7Zm5.08,42.76H899.7v-9.69h5.08Zm-5.08,1.34h5.08v9.68H899.7Zm0-12.36v-9.69h5.08v9.69Zm0-20.72h5.08v9.69H899.7Zm-4.47-11h3.14v9.69h-3.14Zm3.14,42.76h-3.14v-9.69h3.14Zm-3.14,1.34h3.14v9.68h-3.14Zm0-12.36v-9.69h3.14v9.69Zm0-20.72h3.14v9.69h-3.14Zm-4.47-11h3.13v9.69h-3.13Zm3.13,42.76h-3.13v-9.69h3.13Zm-3.13,1.34h3.13v9.68h-3.13Zm0-12.36v-9.69h3.13v9.69Zm0-20.72h3.13v9.69h-3.13Zm-6.42-11h5.08v9.69h-5.08Zm5.08,42.76h-5.08v-9.69h5.08Zm-5.08,1.34h5.08v9.68h-5.08Zm0-12.36v-9.69h5.08v9.69Zm0-20.72h5.08v9.69h-5.08Zm0,53.79v-9.69h5.08v9.69Zm6.42,0v-9.69h3.13v9.69Zm4.47,0v-9.69h3.14v9.69Zm4.47,0v-9.69h5.08v9.69Z" transform="translate(1 -0.56)"/><rect class="cls-27" x="956.95" y="319.65" width="0.5" height="72.6"/><rect class="cls-21" x="931.28" y="322.21" width="23.11" height="67.48"/><g class="cls-23"><polygon class="cls-24" points="954.39 363.36 954.39 364.53 938.48 389.7 937.74 389.7 954.39 363.36"/><polygon class="cls-24" points="954.39 349.47 954.39 353 931.28 389.55 931.28 386.02 954.39 349.47"/><polygon class="cls-24" points="949.78 323.55 936.68 344.26 935.84 345.6 932.13 351.47 931.28 352.81 931.28 348.48 932.13 347.14 933.1 345.6 933.95 344.26 947.04 323.55 949.78 323.55"/><polygon class="cls-24" points="953.54 333.98 947.49 343.57 946.2 345.6 943.26 350.25 942.41 351.59 932.26 367.65 932.13 367.86 931.28 369.2 931.28 362.35 939.03 350.1 941.87 345.6 943.26 343.41 953.54 327.14 953.54 333.98"/><polygon class="cls-24" points="954.39 369.82 954.39 378.04 947.02 389.7 941.83 389.7 954.39 369.82"/></g><path class="cls-22" d="M927.72,320.21v72.61H956V320.21Zm25.67,70H930.28V322.77h23.11Z" transform="translate(1 -0.56)"/><path class="cls-25" d="M930.28,322.77v67.48h23.11V322.77Zm16.7,1.34h5.07v9.69H947Zm5.07,42.76H947v-9.69h5.07ZM947,368.21h5.07v9.68H947Zm0-12.36v-9.69h5.07v9.69Zm0-20.72h5.07v9.69H947Zm-4.48-11h3.14v9.69H942.5Zm3.14,42.76H942.5v-9.69h3.14Zm-3.14,1.34h3.14v9.68H942.5Zm0-12.36v-9.69h3.14v9.69Zm0-20.72h3.14v9.69H942.5Zm-4.47-11h3.14v9.69H938Zm3.14,42.76H938v-9.69h3.14ZM938,368.21h3.14v9.68H938Zm0-12.36v-9.69h3.14v9.69Zm0-20.72h3.14v9.69H938Zm-6.41-11h5.07v9.69h-5.07Zm5.07,42.76h-5.07v-9.69h5.07Zm-5.07,1.34h5.07v9.68h-5.07Zm0-12.36v-9.69h5.07v9.69Zm0-20.72h5.07v9.69h-5.07Zm0,53.79v-9.69h5.07v9.69Zm6.41,0v-9.69h3.14v9.69Zm4.47,0v-9.69h3.14v9.69Zm4.48,0v-9.69h5.07v9.69Z" transform="translate(1 -0.56)"/><rect class="cls-21" x="960.01" y="322.21" width="23.11" height="67.48"/><g class="cls-23"><polygon class="cls-24" points="983.12 363.36 983.12 364.53 967.21 389.7 966.47 389.7 983.12 363.36"/><polygon class="cls-24" points="983.12 349.47 983.12 353 960.01 389.55 960.01 386.02 983.12 349.47"/><polygon class="cls-24" points="978.5 323.55 965.41 344.26 964.56 345.6 960.85 351.47 960.01 352.81 960.01 348.48 960.85 347.14 961.83 345.6 962.67 344.26 975.77 323.55 978.5 323.55"/><polygon class="cls-24" points="982.27 333.98 976.21 343.57 974.93 345.6 971.98 350.25 971.14 351.59 960.99 367.65 960.85 367.86 960.01 369.2 960.01 362.35 967.76 350.1 970.6 345.6 971.98 343.41 982.27 327.14 982.27 333.98"/><polygon class="cls-24" points="983.12 369.82 983.12 378.04 975.75 389.7 970.55 389.7 983.12 369.82"/></g><path class="cls-22" d="M956.45,320.21v72.61h28.23V320.21Zm25.67,70H959V322.77h23.11Z" transform="translate(1 -0.56)"/><path class="cls-25" d="M959,322.77v67.48h23.11V322.77Zm16.69,1.34h5.08v9.69H975.7Zm5.08,42.76H975.7v-9.69h5.08Zm-5.08,1.34h5.08v9.68H975.7Zm0-12.36v-9.69h5.08v9.69Zm0-20.72h5.08v9.69H975.7Zm-4.47-11h3.14v9.69h-3.14Zm3.14,42.76h-3.14v-9.69h3.14Zm-3.14,1.34h3.14v9.68h-3.14Zm0-12.36v-9.69h3.14v9.69Zm0-20.72h3.14v9.69h-3.14Zm-4.47-11h3.13v9.69h-3.13Zm3.13,42.76h-3.13v-9.69h3.13Zm-3.13,1.34h3.13v9.68h-3.13Zm0-12.36v-9.69h3.13v9.69Zm0-20.72h3.13v9.69h-3.13Zm-6.42-11h5.08v9.69h-5.08Zm5.08,42.76h-5.08v-9.69h5.08Zm-5.08,1.34h5.08v9.68h-5.08Zm0-12.36v-9.69h5.08v9.69Zm0-20.72h5.08v9.69h-5.08Zm0,53.79v-9.69h5.08v9.69Zm6.42,0v-9.69h3.13v9.69Zm4.47,0v-9.69h3.14v9.69Zm4.47,0v-9.69h5.08v9.69Z" transform="translate(1 -0.56)"/><rect class="cls-27" x="1035.95" y="319.65" width="0.5" height="72.6"/><rect class="cls-21" x="1010.28" y="322.21" width="23.11" height="67.48"/><g class="cls-23"><polygon class="cls-24" points="1033.39 363.36 1033.39 364.53 1017.48 389.7 1016.74 389.7 1033.39 363.36"/><polygon class="cls-24" points="1033.39 349.47 1033.39 353 1010.28 389.55 1010.28 386.02 1033.39 349.47"/><polygon class="cls-24" points="1028.78 323.55 1015.68 344.26 1014.84 345.6 1011.13 351.47 1010.28 352.81 1010.28 348.48 1011.13 347.14 1012.1 345.6 1012.95 344.26 1026.04 323.55 1028.78 323.55"/><polygon class="cls-24" points="1032.54 333.98 1026.48 343.57 1025.2 345.6 1022.26 350.25 1021.41 351.59 1011.26 367.65 1011.13 367.86 1010.28 369.2 1010.28 362.35 1018.03 350.1 1020.87 345.6 1022.26 343.41 1032.54 327.14 1032.54 333.98"/><polygon class="cls-24" points="1033.39 369.82 1033.39 378.04 1026.02 389.7 1020.83 389.7 1033.39 369.82"/></g><path class="cls-22" d="M1006.72,320.21v72.61H1035V320.21Zm25.67,70h-23.11V322.77h23.11Z" transform="translate(1 -0.56)"/><path class="cls-25" d="M1009.28,322.77v67.48h23.11V322.77Zm16.7,1.34h5.07v9.69H1026Zm5.07,42.76H1026v-9.69h5.07Zm-5.07,1.34h5.07v9.68H1026Zm0-12.36v-9.69h5.07v9.69Zm0-20.72h5.07v9.69H1026Zm-4.48-11h3.14v9.69h-3.14Zm3.14,42.76h-3.14v-9.69h3.14Zm-3.14,1.34h3.14v9.68h-3.14Zm0-12.36v-9.69h3.14v9.69Zm0-20.72h3.14v9.69h-3.14Zm-4.47-11h3.14v9.69H1017Zm3.14,42.76H1017v-9.69h3.14Zm-3.14,1.34h3.14v9.68H1017Zm0-12.36v-9.69h3.14v9.69Zm0-20.72h3.14v9.69H1017Zm-6.41-11h5.07v9.69h-5.07Zm5.07,42.76h-5.07v-9.69h5.07Zm-5.07,1.34h5.07v9.68h-5.07Zm0-12.36v-9.69h5.07v9.69Zm0-20.72h5.07v9.69h-5.07Zm0,53.79v-9.69h5.07v9.69Zm6.41,0v-9.69h3.14v9.69Zm4.47,0v-9.69h3.14v9.69Zm4.48,0v-9.69h5.07v9.69Z" transform="translate(1 -0.56)"/><rect class="cls-21" x="1039.01" y="322.21" width="23.11" height="67.48"/><g class="cls-23"><polygon class="cls-24" points="1062.12 363.36 1062.12 364.53 1046.21 389.7 1045.46 389.7 1062.12 363.36"/><polygon class="cls-24" points="1062.12 349.47 1062.12 353 1039.01 389.55 1039.01 386.02 1062.12 349.47"/><polygon class="cls-24" points="1057.5 323.55 1044.41 344.26 1043.56 345.6 1039.85 351.47 1039.01 352.81 1039.01 348.48 1039.85 347.14 1040.83 345.6 1041.67 344.26 1054.77 323.55 1057.5 323.55"/><polygon class="cls-24" points="1061.27 333.98 1055.21 343.57 1053.93 345.6 1050.98 350.25 1050.14 351.59 1039.99 367.65 1039.85 367.86 1039.01 369.2 1039.01 362.35 1046.76 350.1 1049.6 345.6 1050.98 343.41 1061.27 327.14 1061.27 333.98"/><polygon class="cls-24" points="1062.12 369.82 1062.12 378.04 1054.75 389.7 1049.55 389.7 1062.12 369.82"/></g><path class="cls-22" d="M1035.45,320.21v72.61h28.23V320.21Zm25.67,70H1038V322.77h23.11Z" transform="translate(1 -0.56)"/><path class="cls-25" d="M1038,322.77v67.48h23.11V322.77Zm16.69,1.34h5.08v9.69h-5.08Zm5.08,42.76h-5.08v-9.69h5.08Zm-5.08,1.34h5.08v9.68h-5.08Zm0-12.36v-9.69h5.08v9.69Zm0-20.72h5.08v9.69h-5.08Zm-4.47-11h3.14v9.69h-3.14Zm3.14,42.76h-3.14v-9.69h3.14Zm-3.14,1.34h3.14v9.68h-3.14Zm0-12.36v-9.69h3.14v9.69Zm0-20.72h3.14v9.69h-3.14Zm-4.47-11h3.13v9.69h-3.13Zm3.13,42.76h-3.13v-9.69h3.13Zm-3.13,1.34h3.13v9.68h-3.13Zm0-12.36v-9.69h3.13v9.69Zm0-20.72h3.13v9.69h-3.13Zm-6.42-11h5.08v9.69h-5.08Zm5.08,42.76h-5.08v-9.69h5.08Zm-5.08,1.34h5.08v9.68h-5.08Zm0-12.36v-9.69h5.08v9.69Zm0-20.72h5.08v9.69h-5.08Zm0,53.79v-9.69h5.08v9.69Zm6.42,0v-9.69h3.13v9.69Zm4.47,0v-9.69h3.14v9.69Zm4.47,0v-9.69h5.08v9.69Z" transform="translate(1 -0.56)"/><rect class="cls-28" x="1102" y="402.44" width="110" height="169"/><rect class="cls-25" x="934" y="467.44" width="46" height="79.6"/><rect class="cls-29" x="938" y="470.14" width="38" height="76.9"/><rect class="cls-12" x="225.45" y="343.42" width="277.77" height="205.62"/><path class="cls-21" d="M380.43,391.84v39H350.29v-39a15.06,15.06,0,0,1,15.07-15.07h0a13.58,13.58,0,0,1,1.82.11,14.58,14.58,0,0,1,2.58.54,15.59,15.59,0,0,1,2.53,1,15,15,0,0,1,3.72,2.73c.24.24.47.48.69.74a14.92,14.92,0,0,1,3.73,9.92Z" transform="translate(1 -0.56)"/><path class="cls-22" d="M356.49,375.47C351,378.2,347,383.65,347,391.84v39h0v3.34h36.82V391.84C383.77,375.47,367.41,370,356.49,375.47Zm-6.2,55.41v-39h0c0-20.1,30.14-20.1,30.14,0v39Z" transform="translate(1 -0.56)"/><rect class="cls-22" x="343.95" y="430.32" width="44.82" height="3.34"/><rect class="cls-25" x="343.95" y="433.66" width="44.82" height="1.1"/><g class="cls-23"><path class="cls-24" d="M367.18,376.88l-16.89,16.89v-1.93l15.07-15.07A13.58,13.58,0,0,1,367.18,376.88Z" transform="translate(1 -0.56)"/><polygon class="cls-24" points="381.43 408.6 381.43 409.57 360.68 430.32 359.71 430.32 381.43 408.6"/><polygon class="cls-24" points="381.43 397.15 381.43 400.06 351.29 430.2 351.29 427.29 381.43 397.15"/><path class="cls-24" d="M372.29,378.45l-22,22v-3.57l19.47-19.47A15.59,15.59,0,0,1,372.29,378.45Z" transform="translate(1 -0.56)"/><path class="cls-24" d="M379,385.31,350.29,414v-5.65l26.41-26.41A15.14,15.14,0,0,1,379,385.31Z" transform="translate(1 -0.56)"/><polygon class="cls-24" points="381.43 413.94 381.43 420.71 371.82 430.32 365.04 430.32 381.43 413.94"/></g><path class="cls-25" d="M350.29,391.84h0v39h30.14v-39C380.43,371.74,350.29,371.74,350.29,391.84Zm9,37.94h-7.9v-8h7.9Zm0-9.09h-7.9v-8h7.9Zm0-9.09h-7.9v-8h7.9Zm0-9.09h-7.9v-8h7.9Zm5.52,27.27h-4.42v-8h4.42Zm0-9.09h-4.42v-8h4.42Zm0-9.09h-4.42v-8h4.42Zm0-9.09h-4.42v-8h4.42Zm0-9.1h-4.42v-1.57h0a4.73,4.73,0,0,1,4.42-4.94Zm0-7.62a5.79,5.79,0,0,0-5.52,6v1.57h-7.9v-1.57h0c0-9.07,6.62-13.73,13.42-14Zm5.51,44h-4.41v-8h4.41Zm0-9.09h-4.41v-8h4.41Zm0-9.09h-4.41v-8h4.41Zm0-9.09h-4.41v-8h4.41Zm0-10.67v1.57h-4.41V386.9a4.72,4.72,0,0,1,4.41,4.94Zm9,37.94h-7.91v-8h7.91Zm0-9.09h-7.91v-8h7.91Zm0-9.09h-7.91v-8h7.91Zm0-9.09h-7.91v-8h7.91Zm0-10.67v1.57h-7.91v-1.57a5.79,5.79,0,0,0-5.51-6v-7.92c6.8.24,13.42,4.9,13.42,14Z" transform="translate(1 -0.56)"/><rect class="cls-30" x="225.45" y="335.5" width="277.77" height="7.93"/><rect class="cls-14" x="225.45" y="549.04" width="277.77" height="22.78"/><rect class="cls-15" x="225.45" y="549.04" width="277.77" height="2.64"/><rect class="cls-12" x="307.74" y="556.63" width="113.17" height="7.59"/><rect class="cls-20" x="294.24" y="564.23" width="140.18" height="7.59"/><rect class="cls-20" x="321.25" y="549.04" width="86.16" height="7.59"/><polygon class="cls-19" points="460 259.44 269 259.44 225 329.44 504 329.34 460 259.44"/><rect class="cls-16" x="269.33" y="253.8" width="190" height="5.74"/><rect class="cls-17" x="224.83" y="329.76" width="279" height="5.74"/><rect class="cls-25" x="342" y="469.44" width="46" height="79.6"/><rect class="cls-31" x="346" y="472.14" width="38" height="76.9"/><rect class="cls-26" x="227.5" y="451.44" width="106" height="98"/><path class="cls-21" d="M461.46,391.84v39H431.32v-39a15.06,15.06,0,0,1,15.07-15.07h0a13.58,13.58,0,0,1,1.82.11,14.58,14.58,0,0,1,2.58.54,15.59,15.59,0,0,1,2.53,1,15,15,0,0,1,3.72,2.73c.24.24.47.48.69.74a14.92,14.92,0,0,1,3.73,9.92Z" transform="translate(1 -0.56)"/><path class="cls-22" d="M437.52,375.47c-5.45,2.73-9.55,8.18-9.55,16.37v39h0v3.34H464.8V391.84C464.8,375.47,448.44,370,437.52,375.47Zm-6.2,55.41v-39h0c0-20.1,30.14-20.1,30.14,0v39Z" transform="translate(1 -0.56)"/><rect class="cls-22" x="424.98" y="430.32" width="44.82" height="3.34"/><rect class="cls-25" x="424.98" y="433.66" width="44.82" height="1.1"/><g class="cls-23"><path class="cls-24" d="M448.21,376.88l-16.89,16.89v-1.93l15.07-15.07A13.58,13.58,0,0,1,448.21,376.88Z" transform="translate(1 -0.56)"/><polygon class="cls-24" points="462.46 408.6 462.46 409.57 441.71 430.32 440.74 430.32 462.46 408.6"/><polygon class="cls-24" points="462.46 397.15 462.46 400.06 432.32 430.2 432.32 427.29 462.46 397.15"/><path class="cls-24" d="M453.32,378.45l-22,22v-3.57l19.47-19.47A15.59,15.59,0,0,1,453.32,378.45Z" transform="translate(1 -0.56)"/><path class="cls-24" d="M460,385.31,431.32,414v-5.65l26.41-26.41A15.14,15.14,0,0,1,460,385.31Z" transform="translate(1 -0.56)"/><polygon class="cls-24" points="462.46 413.94 462.46 420.71 452.85 430.32 446.07 430.32 462.46 413.94"/></g><path class="cls-25" d="M431.32,391.84h0v39h30.14v-39C461.46,371.74,431.32,371.74,431.32,391.84Zm9,37.94h-7.9v-8h7.9Zm0-9.09h-7.9v-8h7.9Zm0-9.09h-7.9v-8h7.9Zm0-9.09h-7.9v-8h7.9Zm5.52,27.27h-4.42v-8h4.42Zm0-9.09h-4.42v-8h4.42Zm0-9.09h-4.42v-8h4.42Zm0-9.09h-4.42v-8h4.42Zm0-9.1h-4.42v-1.57h0a4.73,4.73,0,0,1,4.42-4.94Zm0-7.62a5.79,5.79,0,0,0-5.52,6v1.57h-7.9v-1.57h0c0-9.07,6.63-13.73,13.43-14Zm5.51,44h-4.41v-8h4.41Zm0-9.09h-4.41v-8h4.41Zm0-9.09h-4.41v-8h4.41Zm0-9.09h-4.41v-8h4.41Zm0-10.67v1.57h-4.41V386.9a4.73,4.73,0,0,1,4.41,4.94Zm9,37.94h-7.91v-8h7.91Zm0-9.09h-7.91v-8h7.91Zm0-9.09h-7.91v-8h7.91Zm0-9.09h-7.91v-8h7.91Zm0-10.67v1.57h-7.91v-1.57a5.79,5.79,0,0,0-5.51-6v-7.92c6.8.24,13.42,4.9,13.42,14Z" transform="translate(1 -0.56)"/><path class="cls-21" d="M299.4,391.84v39H269.26v-39a15.06,15.06,0,0,1,15.07-15.07h0a13.58,13.58,0,0,1,1.82.11,14.58,14.58,0,0,1,2.58.54,15.59,15.59,0,0,1,2.53,1,15,15,0,0,1,3.72,2.73c.24.24.47.48.69.74a14.81,14.81,0,0,1,2.25,3.39A15,15,0,0,1,299.4,391.84Z" transform="translate(1 -0.56)"/><path class="cls-22" d="M275.47,375.47c-5.46,2.73-9.55,8.18-9.55,16.37v39h0v3.34h36.82V391.84C302.74,375.47,286.38,370,275.47,375.47Zm-6.21,55.41v-39h0c0-20.1,30.14-20.1,30.14,0v39Z" transform="translate(1 -0.56)"/><rect class="cls-22" x="262.92" y="430.32" width="44.82" height="3.34"/><rect class="cls-25" x="262.92" y="433.66" width="44.82" height="1.1"/><g class="cls-23"><path class="cls-24" d="M286.15,376.88l-16.89,16.89v-1.93l15.07-15.07A13.58,13.58,0,0,1,286.15,376.88Z" transform="translate(1 -0.56)"/><polygon class="cls-24" points="300.4 408.6 300.4 409.57 279.65 430.32 278.68 430.32 300.4 408.6"/><polygon class="cls-24" points="300.4 397.15 300.4 400.06 270.26 430.2 270.26 427.29 300.4 397.15"/><path class="cls-24" d="M291.26,378.45l-22,22v-3.57l19.47-19.47A15.59,15.59,0,0,1,291.26,378.45Z" transform="translate(1 -0.56)"/><path class="cls-24" d="M297.92,385.31,269.26,414v-5.65l26.41-26.41A14.81,14.81,0,0,1,297.92,385.31Z" transform="translate(1 -0.56)"/><polygon class="cls-24" points="300.4 413.94 300.4 420.71 290.79 430.32 284.01 430.32 300.4 413.94"/></g><path class="cls-25" d="M269.26,391.84h0v39H299.4v-39C299.4,371.74,269.26,371.74,269.26,391.84Zm9,37.94h-7.9v-8h7.9Zm0-9.09h-7.9v-8h7.9Zm0-9.09h-7.9v-8h7.9Zm0-9.09h-7.9v-8h7.9Zm5.52,27.27h-4.42v-8h4.42Zm0-9.09h-4.42v-8h4.42Zm0-9.09h-4.42v-8h4.42Zm0-9.09h-4.42v-8h4.42Zm0-9.1h-4.42v-1.57h0a4.73,4.73,0,0,1,4.42-4.94Zm0-7.62a5.79,5.79,0,0,0-5.52,6v1.57h-7.9v-1.57h0c0-9.07,6.62-13.73,13.42-14Zm5.51,44h-4.41v-8h4.41Zm0-9.09h-4.41v-8h4.41Zm0-9.09h-4.41v-8h4.41Zm0-9.09h-4.41v-8h4.41Zm0-10.67v1.57h-4.41V386.9a4.72,4.72,0,0,1,4.41,4.94Zm9,37.94h-7.91v-8h7.91Zm0-9.09h-7.91v-8h7.91Zm0-9.09h-7.91v-8h7.91Zm0-9.09h-7.91v-8h7.91Zm0-10.67v1.57h-7.91v-1.57a5.79,5.79,0,0,0-5.51-6v-7.92c6.8.24,13.42,4.9,13.42,14Z" transform="translate(1 -0.56)"/><path class="cls-21" d="M461.46,476.72v39H431.32v-39a15.06,15.06,0,0,1,15.07-15.07h0a13.58,13.58,0,0,1,1.82.11,14.58,14.58,0,0,1,2.58.54,15.59,15.59,0,0,1,2.53,1,15,15,0,0,1,3.72,2.73c.24.24.47.48.69.74a14.92,14.92,0,0,1,3.73,9.92Z" transform="translate(1 -0.56)"/><path class="cls-22" d="M437.52,460.35c-5.45,2.73-9.55,8.18-9.55,16.37v39h0v3.34H464.8V476.72C464.8,460.35,448.44,454.9,437.52,460.35Zm-6.2,55.41v-39h0c0-20.1,30.14-20.1,30.14,0v39Z" transform="translate(1 -0.56)"/><rect class="cls-22" x="424.98" y="515.2" width="44.82" height="3.34"/><rect class="cls-25" x="424.98" y="518.54" width="44.82" height="1.1"/><g class="cls-23"><path class="cls-24" d="M448.21,461.76l-16.89,16.89v-1.93l15.07-15.07A13.58,13.58,0,0,1,448.21,461.76Z" transform="translate(1 -0.56)"/><polygon class="cls-24" points="462.46 493.49 462.46 494.45 441.71 515.2 440.74 515.2 462.46 493.49"/><polygon class="cls-24" points="462.46 482.03 462.46 484.94 432.32 515.08 432.32 512.17 462.46 482.03"/><path class="cls-24" d="M453.32,463.33l-22,22v-3.57l19.47-19.47A15.59,15.59,0,0,1,453.32,463.33Z" transform="translate(1 -0.56)"/><path class="cls-24" d="M460,470.19l-28.66,28.67v-5.65l26.41-26.41A15.14,15.14,0,0,1,460,470.19Z" transform="translate(1 -0.56)"/><polygon class="cls-24" points="462.46 498.82 462.46 505.59 452.85 515.2 446.07 515.2 462.46 498.82"/></g><path class="cls-25" d="M431.32,476.72h0v39h30.14v-39C461.46,456.62,431.32,456.62,431.32,476.72Zm9,37.94h-7.9v-8h7.9Zm0-9.09h-7.9v-8h7.9Zm0-9.09h-7.9v-8h7.9Zm0-9.09h-7.9v-8h7.9Zm5.52,27.27h-4.42v-8h4.42Zm0-9.09h-4.42v-8h4.42Zm0-9.09h-4.42v-8h4.42Zm0-9.09h-4.42v-8h4.42Zm0-9.09h-4.42v-1.58h0a4.73,4.73,0,0,1,4.42-4.94Zm0-7.63a5.79,5.79,0,0,0-5.52,6.05v1.58h-7.9v-1.58h0c0-9.07,6.63-13.73,13.43-14Zm5.51,44h-4.41v-8h4.41Zm0-9.09h-4.41v-8h4.41Zm0-9.09h-4.41v-8h4.41Zm0-9.09h-4.41v-8h4.41Zm0-10.67v1.58h-4.41v-6.52a4.73,4.73,0,0,1,4.41,4.94Zm9,37.94h-7.91v-8h7.91Zm0-9.09h-7.91v-8h7.91Zm0-9.09h-7.91v-8h7.91Zm0-9.09h-7.91v-8h7.91Zm0-10.67v1.58h-7.91v-1.58a5.79,5.79,0,0,0-5.51-6.05v-7.92c6.8.24,13.42,4.9,13.42,14Z" transform="translate(1 -0.56)"/><rect class="cls-32" x="342" y="467.44" width="46" height="5"/><rect class="cls-12" x="509.26" y="213.44" width="299.48" height="333.82"/><rect class="cls-30" x="509.26" y="210.51" width="299.48" height="8.54"/><polygon class="cls-19" points="753.67 128.44 563.67 128.44 509.67 204.44 808.67 204.44 753.67 128.44"/><rect class="cls-16" x="564" y="122.43" width="190" height="6.19"/><rect class="cls-17" x="509.5" y="204.32" width="299" height="6.19"/><rect class="cls-14" x="509.26" y="547.26" width="299.48" height="24.56"/><rect class="cls-15" x="509.26" y="547.26" width="299.48" height="2.85"/><rect class="cls-12" x="597.99" y="554.45" width="122.01" height="8.19"/><rect class="cls-20" x="583.43" y="562.63" width="151.13" height="8.19"/><rect class="cls-20" x="612.55" y="546.26" width="92.89" height="8.19"/><path class="cls-21" d="M586.07,373.17v39H555.93v-39A15.07,15.07,0,0,1,571,358.1h0a13.54,13.54,0,0,1,1.81.11,14.58,14.58,0,0,1,2.58.54,15.59,15.59,0,0,1,2.53,1,15.25,15.25,0,0,1,3.73,2.73c.23.24.46.48.68.74a14.81,14.81,0,0,1,2.25,3.39A15,15,0,0,1,586.07,373.17Z" transform="translate(1 -0.56)"/><path class="cls-22" d="M562.14,356.8c-5.46,2.73-9.55,8.18-9.55,16.37v39h0v3.34h36.82V373.17C589.41,356.8,573.05,351.35,562.14,356.8Zm-6.21,55.41v-39h0c0-20.1,30.14-20.1,30.14,0v39Z" transform="translate(1 -0.56)"/><rect class="cls-22" x="549.59" y="411.65" width="44.82" height="3.34"/><rect class="cls-25" x="549.59" y="414.99" width="44.82" height="1.1"/><g class="cls-23"><path class="cls-24" d="M572.82,358.21,555.93,375.1v-1.93L571,358.1A13.54,13.54,0,0,1,572.82,358.21Z" transform="translate(1 -0.56)"/><polygon class="cls-24" points="587.07 389.93 587.07 390.9 566.32 411.65 565.35 411.65 587.07 389.93"/><polygon class="cls-24" points="587.07 378.48 587.07 381.39 556.93 411.53 556.93 408.62 587.07 378.48"/><path class="cls-24" d="M577.93,359.78l-22,22v-3.57l19.47-19.47A15.59,15.59,0,0,1,577.93,359.78Z" transform="translate(1 -0.56)"/><path class="cls-24" d="M584.59,366.64l-28.66,28.67v-5.65l26.41-26.41A14.81,14.81,0,0,1,584.59,366.64Z" transform="translate(1 -0.56)"/><polygon class="cls-24" points="587.07 395.27 587.07 402.04 577.46 411.65 570.68 411.65 587.07 395.27"/></g><path class="cls-25" d="M555.93,373.17h0v39h30.14v-39C586.07,353.07,555.93,353.07,555.93,373.17Zm9,37.94H557v-8h7.9Zm0-9.09H557v-8h7.9Zm0-9.09H557v-8h7.9Zm0-9.09H557v-8h7.9Zm5.52,27.27H566v-8h4.41Zm0-9.09H566v-8h4.41Zm0-9.09H566v-8h4.41Zm0-9.09H566v-8h4.41Zm0-9.09H566v-1.58h0a4.72,4.72,0,0,1,4.41-4.94Zm0-7.63a5.79,5.79,0,0,0-5.52,6.05v1.58H557v-1.58h0c0-9.07,6.62-13.73,13.42-14Zm5.51,44h-4.41v-8H576Zm0-9.09h-4.41v-8H576Zm0-9.09h-4.41v-8H576Zm0-9.09h-4.41v-8H576Zm0-10.67v1.58h-4.41v-6.52a4.72,4.72,0,0,1,4.41,4.94Zm9,37.94h-7.9v-8H585Zm0-9.09h-7.9v-8H585Zm0-9.09h-7.9v-8H585Zm0-9.09h-7.9v-8H585Zm0-10.67v1.58h-7.9v-1.58a5.79,5.79,0,0,0-5.52-6.05V359.2c6.8.24,13.42,4.9,13.42,14Z" transform="translate(1 -0.56)"/><path class="cls-21" d="M669.57,373.17v39H639.43v-39A15.07,15.07,0,0,1,654.5,358.1h0a13.54,13.54,0,0,1,1.81.11,14.58,14.58,0,0,1,2.58.54,15.59,15.59,0,0,1,2.53,1,15.25,15.25,0,0,1,3.73,2.73c.23.24.46.48.68.74a14.81,14.81,0,0,1,2.25,3.39A15,15,0,0,1,669.57,373.17Z" transform="translate(1 -0.56)"/><path class="cls-22" d="M645.64,356.8c-5.46,2.73-9.55,8.18-9.55,16.37v39h0v3.34h36.82V373.17C672.91,356.8,656.55,351.35,645.64,356.8Zm-6.21,55.41v-39h0c0-20.1,30.14-20.1,30.14,0v39Z" transform="translate(1 -0.56)"/><rect class="cls-22" x="633.09" y="411.65" width="44.82" height="3.34"/><rect class="cls-25" x="633.09" y="414.99" width="44.82" height="1.1"/><g class="cls-23"><path class="cls-24" d="M656.32,358.21,639.43,375.1v-1.93l15.08-15.07A13.54,13.54,0,0,1,656.32,358.21Z" transform="translate(1 -0.56)"/><polygon class="cls-24" points="670.57 389.93 670.57 390.9 649.82 411.65 648.85 411.65 670.57 389.93"/><polygon class="cls-24" points="670.57 378.48 670.57 381.39 640.43 411.53 640.43 408.62 670.57 378.48"/><path class="cls-24" d="M661.43,359.78l-22,22v-3.57l19.47-19.47A15.59,15.59,0,0,1,661.43,359.78Z" transform="translate(1 -0.56)"/><path class="cls-24" d="M668.09,366.64l-28.66,28.67v-5.65l26.41-26.41A14.81,14.81,0,0,1,668.09,366.64Z" transform="translate(1 -0.56)"/><polygon class="cls-24" points="670.57 395.27 670.57 402.04 660.96 411.65 654.18 411.65 670.57 395.27"/></g><path class="cls-25" d="M639.43,373.17h0v39h30.14v-39C669.57,353.07,639.43,353.07,639.43,373.17Zm9,37.94h-7.9v-8h7.9Zm0-9.09h-7.9v-8h7.9Zm0-9.09h-7.9v-8h7.9Zm0-9.09h-7.9v-8h7.9ZM654,411.11h-4.41v-8H654Zm0-9.09h-4.41v-8H654Zm0-9.09h-4.41v-8H654Zm0-9.09h-4.41v-8H654Zm0-9.09h-4.41v-1.58h0a4.72,4.72,0,0,1,4.41-4.94Zm0-7.63a5.79,5.79,0,0,0-5.52,6.05v1.58h-7.9v-1.58h0c0-9.07,6.62-13.73,13.42-14Zm5.51,44h-4.41v-8h4.41Zm0-9.09h-4.41v-8h4.41Zm0-9.09h-4.41v-8h4.41Zm0-9.09h-4.41v-8h4.41Zm0-10.67v1.58h-4.41v-6.52a4.72,4.72,0,0,1,4.41,4.94Zm9,37.94h-7.9v-8h7.9Zm0-9.09h-7.9v-8h7.9Zm0-9.09h-7.9v-8h7.9Zm0-9.09h-7.9v-8h7.9Zm0-10.67v1.58h-7.9v-1.58a5.79,5.79,0,0,0-5.52-6.05V359.2c6.8.24,13.42,4.9,13.42,14Z" transform="translate(1 -0.56)"/><path class="cls-21" d="M753.07,373.17v39H722.93v-39A15.07,15.07,0,0,1,738,358.1h0a13.54,13.54,0,0,1,1.81.11,14.58,14.58,0,0,1,2.58.54,15.59,15.59,0,0,1,2.53,1,15.25,15.25,0,0,1,3.73,2.73c.23.24.46.48.68.74a14.81,14.81,0,0,1,2.25,3.39A15,15,0,0,1,753.07,373.17Z" transform="translate(1 -0.56)"/><path class="cls-22" d="M729.14,356.8c-5.46,2.73-9.55,8.18-9.55,16.37v39h0v3.34h36.82V373.17C756.41,356.8,740.05,351.35,729.14,356.8Zm-6.21,55.41v-39h0c0-20.1,30.14-20.1,30.14,0v39Z" transform="translate(1 -0.56)"/><rect class="cls-22" x="716.59" y="411.65" width="44.82" height="3.34"/><rect class="cls-25" x="716.59" y="414.99" width="44.82" height="1.1"/><g class="cls-23"><path class="cls-24" d="M739.82,358.21,722.93,375.1v-1.93L738,358.1A13.54,13.54,0,0,1,739.82,358.21Z" transform="translate(1 -0.56)"/><polygon class="cls-24" points="754.07 389.93 754.07 390.9 733.32 411.65 732.35 411.65 754.07 389.93"/><polygon class="cls-24" points="754.07 378.48 754.07 381.39 723.93 411.53 723.93 408.62 754.07 378.48"/><path class="cls-24" d="M744.93,359.78l-22,22v-3.57l19.47-19.47A15.59,15.59,0,0,1,744.93,359.78Z" transform="translate(1 -0.56)"/><path class="cls-24" d="M751.59,366.64l-28.66,28.67v-5.65l26.41-26.41A14.81,14.81,0,0,1,751.59,366.64Z" transform="translate(1 -0.56)"/><polygon class="cls-24" points="754.07 395.27 754.07 402.04 744.46 411.65 737.68 411.65 754.07 395.27"/></g><path class="cls-25" d="M722.93,373.17h0v39h30.14v-39C753.07,353.07,722.93,353.07,722.93,373.17Zm9,37.94H724v-8h7.9Zm0-9.09H724v-8h7.9Zm0-9.09H724v-8h7.9Zm0-9.09H724v-8h7.9Zm5.52,27.27H733v-8h4.41Zm0-9.09H733v-8h4.41Zm0-9.09H733v-8h4.41Zm0-9.09H733v-8h4.41Zm0-9.09H733v-1.58h0a4.72,4.72,0,0,1,4.41-4.94Zm0-7.63a5.79,5.79,0,0,0-5.52,6.05v1.58H724v-1.58h0c0-9.07,6.62-13.73,13.42-14Zm5.51,44h-4.41v-8H743Zm0-9.09h-4.41v-8H743Zm0-9.09h-4.41v-8H743Zm0-9.09h-4.41v-8H743Zm0-10.67v1.58h-4.41v-6.52a4.72,4.72,0,0,1,4.41,4.94Zm9,37.94h-7.9v-8H752Zm0-9.09h-7.9v-8H752Zm0-9.09h-7.9v-8H752Zm0-9.09h-7.9v-8H752Zm0-10.67v1.58h-7.9v-1.58a5.79,5.79,0,0,0-5.52-6.05V359.2c6.8.24,13.42,4.9,13.42,14Z" transform="translate(1 -0.56)"/><path class="cls-21" d="M586.07,474.17v39H555.93v-39A15.07,15.07,0,0,1,571,459.1h0a13.54,13.54,0,0,1,1.81.11,14.58,14.58,0,0,1,2.58.54,15.59,15.59,0,0,1,2.53,1,15.25,15.25,0,0,1,3.73,2.73c.23.24.46.48.68.74a14.81,14.81,0,0,1,2.25,3.39A15,15,0,0,1,586.07,474.17Z" transform="translate(1 -0.56)"/><path class="cls-22" d="M562.14,457.8c-5.46,2.73-9.55,8.18-9.55,16.37v39h0v3.34h36.82V474.17C589.41,457.8,573.05,452.35,562.14,457.8Zm-6.21,55.41v-39h0c0-20.1,30.14-20.1,30.14,0v39Z" transform="translate(1 -0.56)"/><rect class="cls-22" x="549.59" y="512.65" width="44.82" height="3.34"/><rect class="cls-25" x="549.59" y="515.99" width="44.82" height="1.1"/><g class="cls-23"><path class="cls-24" d="M572.82,459.21,555.93,476.1v-1.93L571,459.1A13.54,13.54,0,0,1,572.82,459.21Z" transform="translate(1 -0.56)"/><polygon class="cls-24" points="587.07 490.93 587.07 491.9 566.32 512.65 565.35 512.65 587.07 490.93"/><polygon class="cls-24" points="587.07 479.48 587.07 482.39 556.93 512.53 556.93 509.62 587.07 479.48"/><path class="cls-24" d="M577.93,460.78l-22,22v-3.57l19.47-19.47A15.59,15.59,0,0,1,577.93,460.78Z" transform="translate(1 -0.56)"/><path class="cls-24" d="M584.59,467.64l-28.66,28.67v-5.65l26.41-26.41A14.81,14.81,0,0,1,584.59,467.64Z" transform="translate(1 -0.56)"/><polygon class="cls-24" points="587.07 496.27 587.07 503.04 577.46 512.65 570.68 512.65 587.07 496.27"/></g><path class="cls-25" d="M555.93,474.17h0v39h30.14v-39C586.07,454.07,555.93,454.07,555.93,474.17Zm9,37.94H557v-8h7.9Zm0-9.09H557v-8h7.9Zm0-9.09H557v-8h7.9Zm0-9.09H557v-8h7.9Zm5.52,27.27H566v-8h4.41Zm0-9.09H566v-8h4.41Zm0-9.09H566v-8h4.41Zm0-9.09H566v-8h4.41Zm0-9.09H566v-1.58h0a4.72,4.72,0,0,1,4.41-4.94Zm0-7.63a5.79,5.79,0,0,0-5.52,6.05v1.58H557v-1.58h0c0-9.07,6.62-13.73,13.42-14Zm5.51,44h-4.41v-8H576Zm0-9.09h-4.41v-8H576Zm0-9.09h-4.41v-8H576Zm0-9.09h-4.41v-8H576Zm0-10.67v1.58h-4.41v-6.52a4.72,4.72,0,0,1,4.41,4.94Zm9,37.94h-7.9v-8H585Zm0-9.09h-7.9v-8H585Zm0-9.09h-7.9v-8H585Zm0-9.09h-7.9v-8H585Zm0-10.67v1.58h-7.9v-1.58a5.79,5.79,0,0,0-5.52-6.05V460.2c6.8.24,13.42,4.9,13.42,14Z" transform="translate(1 -0.56)"/><path class="cls-21" d="M758.07,476.17v39H727.93v-39A15.07,15.07,0,0,1,743,461.1h0a13.54,13.54,0,0,1,1.81.11,14.58,14.58,0,0,1,2.58.54,15.59,15.59,0,0,1,2.53,1,15.25,15.25,0,0,1,3.73,2.73c.23.24.46.48.68.74a14.81,14.81,0,0,1,2.25,3.39A15,15,0,0,1,758.07,476.17Z" transform="translate(1 -0.56)"/><path class="cls-22" d="M734.14,459.8c-5.46,2.73-9.55,8.18-9.55,16.37v39h0v3.34h36.82V476.17C761.41,459.8,745.05,454.35,734.14,459.8Zm-6.21,55.41v-39h0c0-20.1,30.14-20.1,30.14,0v39Z" transform="translate(1 -0.56)"/><rect class="cls-22" x="721.59" y="514.65" width="44.82" height="3.34"/><rect class="cls-25" x="721.59" y="517.99" width="44.82" height="1.1"/><g class="cls-23"><path class="cls-24" d="M744.82,461.21,727.93,478.1v-1.93L743,461.1A13.54,13.54,0,0,1,744.82,461.21Z" transform="translate(1 -0.56)"/><polygon class="cls-24" points="759.07 492.93 759.07 493.9 738.32 514.65 737.35 514.65 759.07 492.93"/><polygon class="cls-24" points="759.07 481.48 759.07 484.39 728.93 514.53 728.93 511.62 759.07 481.48"/><path class="cls-24" d="M749.93,462.78l-22,22v-3.57l19.47-19.47A15.59,15.59,0,0,1,749.93,462.78Z" transform="translate(1 -0.56)"/><path class="cls-24" d="M756.59,469.64l-28.66,28.67v-5.65l26.41-26.41A14.81,14.81,0,0,1,756.59,469.64Z" transform="translate(1 -0.56)"/><polygon class="cls-24" points="759.07 498.27 759.07 505.04 749.46 514.65 742.68 514.65 759.07 498.27"/></g><path class="cls-25" d="M727.93,476.17h0v39h30.14v-39C758.07,456.07,727.93,456.07,727.93,476.17Zm9,37.94H729v-8h7.9Zm0-9.09H729v-8h7.9Zm0-9.09H729v-8h7.9Zm0-9.09H729v-8h7.9Zm5.52,27.27H738v-8h4.41Zm0-9.09H738v-8h4.41Zm0-9.09H738v-8h4.41Zm0-9.09H738v-8h4.41Zm0-9.09H738v-1.58h0a4.72,4.72,0,0,1,4.41-4.94Zm0-7.63a5.79,5.79,0,0,0-5.52,6.05v1.58H729v-1.58h0c0-9.07,6.62-13.73,13.42-14Zm5.51,44h-4.41v-8H748Zm0-9.09h-4.41v-8H748Zm0-9.09h-4.41v-8H748Zm0-9.09h-4.41v-8H748Zm0-10.67v1.58h-4.41v-6.52a4.72,4.72,0,0,1,4.41,4.94Zm9,37.94h-7.9v-8H757Zm0-9.09h-7.9v-8H757Zm0-9.09h-7.9v-8H757Zm0-9.09h-7.9v-8H757Zm0-10.67v1.58h-7.9v-1.58a5.79,5.79,0,0,0-5.52-6.05V462.2c6.8.24,13.42,4.9,13.42,14Z" transform="translate(1 -0.56)"/><rect class="cls-26" x="512" y="220.44" width="295" height="119"/><rect class="cls-25" x="637" y="466.44" width="46" height="79.6"/><rect class="cls-29" x="641" y="469.14" width="38" height="76.9"/><ellipse class="cls-33" cx="527.85" cy="316.47" rx="2" ry="1.75"/><rect class="cls-34" x="538.35" y="314.52" width="4" height="5" transform="translate(224.33 856.82) rotate(-90)"/><rect class="cls-25" x="531.75" y="312.63" width="3.4" height="8.8" transform="translate(217.43 849.92) rotate(-90)"/><path class="cls-13" d="M527.95,314.53h0a1.7,1.7,0,0,1,1.7,1.7v3.3a0,0,0,0,1,0,0h-3.4a0,0,0,0,1,0,0v-3.3A1.7,1.7,0,0,1,527.95,314.53Z" transform="translate(211.92 844.42) rotate(-90)"/><rect class="cls-35" x="538.35" y="302.47" width="4" height="5" transform="translate(236.38 844.77) rotate(-90)"/><ellipse class="cls-33" cx="527.75" cy="304.42" rx="2" ry="1.75"/><rect class="cls-25" x="531.65" y="300.57" width="3.4" height="8.8" transform="translate(229.38 837.77) rotate(-90)"/><path class="cls-13" d="M527.85,302.48h0a1.7,1.7,0,0,1,1.7,1.7v3.3a0,0,0,0,1,0,0h-3.4a0,0,0,0,1,0,0v-3.3A1.7,1.7,0,0,1,527.85,302.48Z" transform="translate(223.88 832.27) rotate(-90)"/><rect class="cls-36" x="532.55" y="309" width="24.6" height="4" transform="translate(234.85 855.29) rotate(-90)"/><ellipse class="cls-33" cx="654.15" cy="316.47" rx="2" ry="1.75"/><rect class="cls-34" x="637.65" y="314.53" width="4" height="5" transform="translate(323.62 956.12) rotate(-90)"/><rect class="cls-25" x="644.85" y="312.63" width="3.4" height="8.8" transform="translate(330.52 963.02) rotate(-90)"/><path class="cls-13" d="M650.35,314.53h3.4a0,0,0,0,1,0,0v3.3a1.7,1.7,0,0,1-1.7,1.7h0a1.7,1.7,0,0,1-1.7-1.7v-3.3A0,0,0,0,1,650.35,314.53Z" transform="translate(336.03 968.52) rotate(-90)"/><rect class="cls-35" x="637.65" y="302.48" width="4" height="5" transform="translate(335.67 944.07) rotate(-90)"/><ellipse class="cls-33" cx="654.25" cy="304.42" rx="2" ry="1.75"/><rect class="cls-25" x="644.95" y="300.58" width="3.4" height="8.8" transform="translate(342.67 951.07) rotate(-90)"/><path class="cls-13" d="M650.45,302.48h3.4a0,0,0,0,1,0,0v3.3a1.7,1.7,0,0,1-1.7,1.7h0a1.7,1.7,0,0,1-1.7-1.7v-3.3A0,0,0,0,1,650.45,302.48Z" transform="translate(348.18 956.57) rotate(-90)"/><rect class="cls-36" x="622.85" y="309" width="24.6" height="4" transform="translate(325.15 945.59) rotate(-90)"/><path class="cls-13" d="M627.59,336H555.06a8.23,8.23,0,0,1-8.23-8.23V294.23a8.23,8.23,0,0,1,8.23-8.23h69.73a8.23,8.23,0,0,1,8.23,8.23v36.34A5.43,5.43,0,0,1,627.59,336Z" transform="translate(1 -0.56)"/><rect class="cls-24" x="576.38" y="285.44" width="28.81" height="50"/><path class="cls-37" d="M633.17,329.77" transform="translate(1 -0.56)"/><path class="cls-35" d="M561.11,293.45,558.25,298a16.7,16.7,0,0,0-2.64,8.92h0c0,2,2.07,3.64,4.61,3.64h1.58c2.64,0,4.79-1.69,4.79-3.79v-.92c0-2.27-.37-3.16-1.7-6.15a15.87,15.87,0,0,0-1.19-2.22Z" transform="translate(1 -0.56)"/><path class="cls-24" d="M557.86,300.56h.9v1.92h2.13v-1.92h.9v4.81h-.9v-2.14h-2.13v2.14h-.9Z" transform="translate(1 -0.56)"/><path class="cls-24" d="M562.6,306.56v-.05a1.47,1.47,0,0,1,.87-1.32c.42-.26.54-.33.54-.54a.33.33,0,0,0-.37-.36c-.25,0-.39.16-.43.42h-.64a1,1,0,0,1,1.1-.95c.8,0,1,.51,1,.86s-.21.64-.73.91a1.58,1.58,0,0,0-.59.51h1.43l-.1.52Z" transform="translate(1 -0.56)"/><rect class="cls-32" x="637" y="463.44" width="46" height="5"/><rect class="cls-32" x="934" y="464.44" width="46" height="5"/></g><g id="Technologies"><rect class="cls-13" x="310.96" y="453.44" width="2.1" height="36.5"/><rect class="cls-25" x="313.06" y="454.05" width="3.78" height="19.55"/><rect class="cls-38" x="278.77" y="483.77" width="43.84" height="66.48"/><polygon class="cls-39" points="321.66 476.18 280.97 476.18 278.66 483.77 322.5 483.77 321.66 476.18"/><line class="cls-40" x1="278.77" y1="517.42" x2="322.6" y2="517.42"/><rect x="278.77" y="516.82" width="43.84" height="1.21"/><rect class="cls-41" x="287.36" y="539.87" width="26.64" height="5.87" rx="2.36"/><line class="cls-42" x1="308.41" y1="540.71" x2="308.41" y2="544.9"/><line class="cls-42" x1="306.51" y1="540.71" x2="306.51" y2="544.9"/><line class="cls-42" x1="304.6" y1="540.71" x2="304.6" y2="544.9"/><line class="cls-42" x1="302.69" y1="540.71" x2="302.69" y2="544.9"/><line class="cls-42" x1="300.79" y1="540.71" x2="300.79" y2="544.9"/><line class="cls-42" x1="298.88" y1="540.71" x2="298.88" y2="544.9"/><line class="cls-42" x1="296.98" y1="540.71" x2="296.98" y2="544.9"/><line class="cls-42" x1="295.07" y1="540.71" x2="295.07" y2="544.9"/><line class="cls-42" x1="293.17" y1="540.71" x2="293.17" y2="544.9"/><line class="cls-42" x1="291.26" y1="540.71" x2="291.26" y2="544.9"/><line class="cls-42" x1="289.36" y1="540.71" x2="289.36" y2="544.9"/><line class="cls-42" x1="312.22" y1="540.71" x2="312.22" y2="544.9"/><line class="cls-42" x1="310.32" y1="540.71" x2="310.32" y2="544.9"/><path class="cls-41" d="M297.2,485.93h6.75a13.83,13.83,0,0,1,13.83,13.83V511a2.65,2.65,0,0,1-2.65,2.65H286a2.65,2.65,0,0,1-2.65-2.65V499.76a13.83,13.83,0,0,1,13.83-13.83Z"/><path class="cls-43" d="M297.68,488h5.8a11.88,11.88,0,0,1,11.88,11.88v9.34a2.27,2.27,0,0,1-2.27,2.27h-25a2.27,2.27,0,0,1-2.27-2.27v-9.34A11.88,11.88,0,0,1,297.68,488Z"/><path class="cls-44" d="M298,489.5h5.07a10.39,10.39,0,0,1,10.39,10.39v8.17a2,2,0,0,1-2,2H289.63a2,2,0,0,1-2-2v-8.17A10.39,10.39,0,0,1,298,489.5Z"/><path class="cls-45" d="M298.29,490.65h4.57a9.37,9.37,0,0,1,9.37,9.37v7.08a1.79,1.79,0,0,1-1.79,1.79H290.71a1.79,1.79,0,0,1-1.79-1.79V500A9.37,9.37,0,0,1,298.29,490.65Z"/><rect x="302.96" y="490.46" width="0.84" height="18.62"/><rect x="301.09" y="490.56" width="0.84" height="18.62"/><rect x="299.22" y="490.66" width="0.84" height="18.62"/><rect x="297.35" y="490.76" width="0.84" height="18.62"/><rect x="295.48" y="490.86" width="0.84" height="18.62"/><rect x="293.61" y="490.96" width="0.84" height="18.62"/><rect x="291.75" y="493.05" width="0.84" height="15.89"/><rect x="289.88" y="495.11" width="0.84" height="14.05"/><rect x="308.56" y="492.46" width="0.84" height="16.94"/><rect x="310.43" y="494.77" width="0.84" height="14.22"/><rect x="306.7" y="491.79" width="0.84" height="17.78"/><rect x="304.83" y="491.26" width="0.84" height="18.62"/><path class="cls-46" d="M299.41,497.29h2.32A4.76,4.76,0,0,1,306.5,502v1.63a0,0,0,0,1,0,0H294.65a0,0,0,0,1,0,0V502A4.76,4.76,0,0,1,299.41,497.29Z"/><circle class="cls-22" cx="292.38" cy="487.53" r="0.82"/><circle class="cls-22" cx="300.42" cy="486.99" r="0.82"/><circle class="cls-22" cx="308.47" cy="487.65" r="0.82"/><circle class="cls-22" cx="293.06" cy="512.79" r="0.82"/><circle class="cls-22" cx="300.47" cy="512.79" r="0.82"/><circle class="cls-22" cx="307.89" cy="512.79" r="0.82"/><polygon points="316.35 497.94 316.35 498.79 313.9 498.79 313.9 499.64 316.35 499.64 316.35 500.54 317.05 500.54 317.05 497.94 316.35 497.94"/><polygon points="316.35 502.76 316.35 503.61 313.9 503.61 313.9 504.46 316.35 504.46 316.35 505.36 317.05 505.36 317.05 502.76 316.35 502.76"/><rect class="cls-47" x="283.87" y="499.05" width="1.54" height="6.33" rx="0.62"/><path class="cls-41" d="M289.57,521h21.92a6.24,6.24,0,0,1,6.24,6.24v3a6,6,0,0,1-6,6H289.38a6,6,0,0,1-6-6v-3A6.24,6.24,0,0,1,289.57,521Z"/><path class="cls-43" d="M289.37,522.74H311.7a4.78,4.78,0,0,1,4.78,4.78v2.3a4.64,4.64,0,0,1-4.64,4.64H289.22a4.64,4.64,0,0,1-4.64-4.64v-2.3a4.78,4.78,0,0,1,4.78-4.78Z"/><path d="M291.38,523.52h18.31a4.17,4.17,0,0,1,4.17,4.17v2a4,4,0,0,1-4,4H291.2a4,4,0,0,1-4-4v-2a4.17,4.17,0,0,1,4.17-4.17Z"/><path class="cls-48" d="M293,524.5h15.08a3.4,3.4,0,0,1,3.4,3.4v1.61a3.18,3.18,0,0,1-3.18,3.18H292.77a3.18,3.18,0,0,1-3.18-3.18V527.9A3.4,3.4,0,0,1,293,524.5Z"/><rect x="306.63" y="524.45" width="0.63" height="8.39"/><rect x="305.04" y="524.45" width="0.63" height="8.39"/><rect x="303.45" y="524.45" width="0.63" height="8.39"/><rect x="301.86" y="524.45" width="0.63" height="8.39"/><rect x="300.26" y="524.45" width="0.63" height="8.39"/><rect x="298.67" y="524.45" width="0.63" height="8.39"/><rect x="297.08" y="524.45" width="0.63" height="8.39"/><rect x="295.49" y="524.45" width="0.63" height="8.39"/><rect x="293.9" y="524.45" width="0.63" height="8.39"/><rect x="292.31" y="524.45" width="0.63" height="8.39"/><rect x="290.72" y="524.45" width="0.63" height="8.39"/><rect x="309.81" y="524.45" width="0.63" height="8.39"/><rect x="308.22" y="524.45" width="0.63" height="8.39"/><circle class="cls-22" cx="293.06" cy="521.99" r="0.82"/><circle class="cls-22" cx="300.47" cy="521.99" r="0.82"/><circle class="cls-22" cx="307.89" cy="521.99" r="0.82"/><circle class="cls-22" cx="293.06" cy="535.41" r="0.82"/><circle class="cls-22" cx="300.47" cy="535.41" r="0.82"/><circle class="cls-22" cx="307.89" cy="535.41" r="0.82"/><polygon points="316.77 525.41 316.77 526.26 314.32 526.26 314.32 527.12 316.77 527.12 316.77 528.01 317.46 528.01 317.46 525.41 316.77 525.41"/><polygon points="316.77 529.19 316.77 530.04 314.32 530.04 314.32 530.89 316.77 530.89 316.77 531.79 317.46 531.79 317.46 529.19 316.77 529.19"/><rect class="cls-47" x="283.49" y="526.95" width="1.03" height="4.23" rx="0.41"/><ellipse class="cls-24" cx="317.15" cy="479.98" rx="2.31" ry="2.04"/><path class="cls-49" d="M248.56,545.21h-14.5v5.3h14.5a2.65,2.65,0,1,0,0-5.3Z" transform="translate(1 -0.56)"/><circle class="cls-50" cx="246.98" cy="547.3" r="2.65"/><path class="cls-50" d="M248.56,549.93h-14.5v.58h14.5a2.65,2.65,0,0,0,2.65-2.65,2.81,2.81,0,0,0,0-.29A2.65,2.65,0,0,1,248.56,549.93Z" transform="translate(1 -0.56)"/><path class="cls-51" d="M250.27,546.68a.06.06,0,0,1-.06,0,2.06,2.06,0,0,0-1.65-.81h-2.85a.09.09,0,0,1-.08-.08.08.08,0,0,1,.08-.07h2.85a2.2,2.2,0,0,1,1.77.87.07.07,0,0,1,0,.1Z" transform="translate(1 -0.56)"/><path class="cls-51" d="M248.56,550a.07.07,0,0,1-.07-.07.08.08,0,0,1,.07-.08,2.06,2.06,0,0,0,1.65-.81.07.07,0,0,1,.1,0,.07.07,0,0,1,0,.1A2.2,2.2,0,0,1,248.56,550Z" transform="translate(1 -0.56)"/><path class="cls-51" d="M240.67,546H237a.09.09,0,0,1-.08-.08.08.08,0,0,1,.08-.07h3.68a.07.07,0,0,1,.07.07A.08.08,0,0,1,240.67,546Z" transform="translate(1 -0.56)"/><path class="cls-51" d="M247.88,549.51h-2.67a.08.08,0,0,1-.08-.08.07.07,0,0,1,.08-.07h2.67a.07.07,0,0,1,.07.07A.08.08,0,0,1,247.88,549.51Z" transform="translate(1 -0.56)"/><path class="cls-51" d="M239.4,549.85H237a.08.08,0,0,1-.08-.08.08.08,0,0,1,.08-.07h2.41a.07.07,0,0,1,.07.07A.07.07,0,0,1,239.4,549.85Z" transform="translate(1 -0.56)"/><path class="cls-51" d="M243.32,548.3H240a.09.09,0,0,1-.08-.08.08.08,0,0,1,.08-.07h3.28a.08.08,0,0,1,.08.07A.09.09,0,0,1,243.32,548.3Z" transform="translate(1 -0.56)"/><path class="cls-51" d="M245.91,547H244a.08.08,0,0,1-.08-.07.09.09,0,0,1,.08-.08h1.93a.08.08,0,0,1,.07.08A.07.07,0,0,1,245.91,547Z" transform="translate(1 -0.56)"/><circle class="cls-52" cx="235.06" cy="547.3" r="2.65"/><path class="cls-53" d="M234.09,550.18a2.19,2.19,0,0,1-1.58-.6,2.24,2.24,0,0,1-.76-1.7,2.6,2.6,0,0,1,.71-1.58,2.06,2.06,0,0,1,1.59-.76,2.8,2.8,0,0,1,2.33,2.29,2,2,0,0,1-.6,1.48,2.61,2.61,0,0,1-1.69.87Zm-.13-4.49a1.94,1.94,0,0,0-1.39.72,2.35,2.35,0,0,0-.67,1.48,2.11,2.11,0,0,0,.71,1.58,2,2,0,0,0,1.48.56,2.41,2.41,0,0,0,1.58-.83,1.86,1.86,0,0,0,.56-1.37,2.16,2.16,0,0,0-.81-1.47,2.29,2.29,0,0,0-1.39-.67Z" transform="translate(1 -0.56)"/><path class="cls-53" d="M234,549.55a1.61,1.61,0,0,1-1-.37,1.65,1.65,0,0,1-.59-1.18,1.76,1.76,0,0,1,1.54-1.82h0a1.87,1.87,0,0,1,1.79,1.53,1.73,1.73,0,0,1-1.54,1.83H234Zm-.06-3.22h0a1.6,1.6,0,0,0-1.4,1.66,1.52,1.52,0,0,0,.53,1.07,1.46,1.46,0,0,0,1.12.33,1.58,1.58,0,0,0,1.41-1.65A1.7,1.7,0,0,0,234,546.33Z" transform="translate(1 -0.56)"/><path class="cls-53" d="M234,549a1.11,1.11,0,0,1-1.1-1,1.16,1.16,0,0,1,1-1.29,1.21,1.21,0,0,1,1.29,1,1.15,1.15,0,0,1-1,1.29h0Zm0-2.14h-.11a1,1,0,0,0-.84,1.12,1,1,0,0,0,.38.67.92.92,0,0,0,.74.17,1,1,0,0,0,.85-1.12A1.06,1.06,0,0,0,234,546.87Z" transform="translate(1 -0.56)"/><path class="cls-53" d="M234.06,548.52a.66.66,0,0,1-.36-.11.64.64,0,0,1-.27-.43.66.66,0,1,1,1.29-.24.6.6,0,0,1-.09.48.69.69,0,0,1-.43.29h-.14Zm0-1.17H234a.5.5,0,0,0-.4.59.46.46,0,0,0,.2.33.49.49,0,0,0,.39.08.52.52,0,0,0,.33-.22.49.49,0,0,0,.08-.37A.53.53,0,0,0,234.07,547.35Z" transform="translate(1 -0.56)"/><path class="cls-53" d="M234.07,548.24a.36.36,0,0,1-.37-.31.39.39,0,0,1,.3-.45.39.39,0,0,1,.45.3.42.42,0,0,1,0,.29.49.49,0,0,1-.25.17h-.08Zm0-.61H234a.25.25,0,0,0-.18.28.21.21,0,0,0,.1.14.21.21,0,0,0,.17,0,.27.27,0,0,0,.15-.1.23.23,0,0,0,0-.17A.25.25,0,0,0,234.08,547.63Z" transform="translate(1 -0.56)"/><path class="cls-49" d="M254.33,545.21h-14.5v5.3h14.5a2.65,2.65,0,1,0,0-5.3Z" transform="translate(1 -0.56)"/><path class="cls-50" d="M254.33,549.93h-14.5v.58h14.5a2.65,2.65,0,0,0,2.65-2.65,1.42,1.42,0,0,0,0-.29A2.64,2.64,0,0,1,254.33,549.93Z" transform="translate(1 -0.56)"/><path class="cls-51" d="M256,546.68l-.06,0a2,2,0,0,0-1.64-.81h-2.86a.08.08,0,0,1-.07-.08.07.07,0,0,1,.07-.07h2.86a2.17,2.17,0,0,1,1.76.87.07.07,0,0,1,0,.1Z" transform="translate(1 -0.56)"/><path class="cls-51" d="M254.33,550a.08.08,0,0,1-.08-.07.09.09,0,0,1,.08-.08,2,2,0,0,0,1.64-.81.08.08,0,0,1,.11,0,.07.07,0,0,1,0,.1A2.17,2.17,0,0,1,254.33,550Z" transform="translate(1 -0.56)"/><path class="cls-51" d="M246.43,546h-3.67a.09.09,0,0,1-.08-.08.08.08,0,0,1,.08-.07h3.67a.07.07,0,0,1,.08.07A.08.08,0,0,1,246.43,546Z" transform="translate(1 -0.56)"/><path class="cls-51" d="M253.65,549.51H251a.08.08,0,0,1-.07-.08.07.07,0,0,1,.07-.07h2.68a.07.07,0,0,1,.07.07A.08.08,0,0,1,253.65,549.51Z" transform="translate(1 -0.56)"/><path class="cls-51" d="M245.17,549.85h-2.41a.08.08,0,0,1-.08-.08.08.08,0,0,1,.08-.07h2.41a.07.07,0,0,1,.07.07A.07.07,0,0,1,245.17,549.85Z" transform="translate(1 -0.56)"/><path class="cls-51" d="M249.09,548.3h-3.28a.09.09,0,0,1-.08-.08.08.08,0,0,1,.08-.07h3.28a.08.08,0,0,1,.08.07A.09.09,0,0,1,249.09,548.3Z" transform="translate(1 -0.56)"/><path class="cls-51" d="M251.67,547h-1.93a.07.07,0,0,1-.07-.07.08.08,0,0,1,.07-.08h1.93a.09.09,0,0,1,.08.08A.08.08,0,0,1,251.67,547Z" transform="translate(1 -0.56)"/><circle class="cls-52" cx="240.83" cy="547.3" r="2.65"/><path class="cls-53" d="M239.86,550.18a2.19,2.19,0,0,1-1.58-.6,2.24,2.24,0,0,1-.77-1.7,2.61,2.61,0,0,1,.72-1.58,2,2,0,0,1,1.58-.76,2.47,2.47,0,0,1,1.48.71,2.42,2.42,0,0,1,.86,1.58,2,2,0,0,1-.6,1.48,2.61,2.61,0,0,1-1.69.87Zm-.14-4.49a1.92,1.92,0,0,0-1.38.72,2.41,2.41,0,0,0-.68,1.48,2.11,2.11,0,0,0,.72,1.58,2,2,0,0,0,1.48.56,2.44,2.44,0,0,0,1.58-.83,1.86,1.86,0,0,0,.56-1.37,2.68,2.68,0,0,0-2.2-2.14Z" transform="translate(1 -0.56)"/><path class="cls-53" d="M239.79,549.55a1.61,1.61,0,0,1-1-.37,1.65,1.65,0,0,1-.59-1.18,1.74,1.74,0,0,1,1.54-1.82h0a1.87,1.87,0,0,1,1.79,1.53,1.73,1.73,0,0,1-1.54,1.83h-.19Zm-.06-3.22h0a1.59,1.59,0,0,0-1.4,1.66,1.52,1.52,0,0,0,.53,1.07,1.46,1.46,0,0,0,1.12.33,1.58,1.58,0,0,0,1.41-1.65A1.7,1.7,0,0,0,239.73,546.33Z" transform="translate(1 -0.56)"/><path class="cls-53" d="M239.81,549a1.17,1.17,0,0,1-.67-.22,1.1,1.1,0,0,1-.43-.77,1.15,1.15,0,0,1,1-1.29,1.22,1.22,0,0,1,1.3,1,1.15,1.15,0,0,1-1,1.29h0Zm0-2.14h-.1a1,1,0,0,0-.84,1.12,1,1,0,0,0,.37.67.94.94,0,0,0,.75.17,1,1,0,0,0,.85-1.12A1.07,1.07,0,0,0,239.8,546.87Z" transform="translate(1 -0.56)"/><path class="cls-53" d="M239.83,548.52a.64.64,0,0,1-.36-.11.61.61,0,0,1-.27-.43.66.66,0,1,1,1.29-.24.64.64,0,0,1-.09.48.71.71,0,0,1-.44.29h-.13Zm0-1.17h-.08a.5.5,0,0,0-.4.59.46.46,0,0,0,.2.33.47.47,0,0,0,.38.08.54.54,0,0,0,.34-.22.48.48,0,0,0,.07-.37A.53.53,0,0,0,239.83,547.35Z" transform="translate(1 -0.56)"/><path class="cls-53" d="M239.84,548.24a.39.39,0,0,1-.21-.06.42.42,0,0,1-.16-.25.39.39,0,0,1,.3-.45.39.39,0,0,1,.45.3.42.42,0,0,1-.05.29.49.49,0,0,1-.25.17h-.08Zm0-.61h0a.24.24,0,0,0-.18.28.19.19,0,0,0,.09.14.24.24,0,0,0,.18,0,.27.27,0,0,0,.15-.1.22.22,0,0,0,0-.17A.24.24,0,0,0,239.84,547.63Z" transform="translate(1 -0.56)"/><path class="cls-49" d="M248.56,539.91h-14.5v5.3h14.5a2.65,2.65,0,1,0,0-5.3Z" transform="translate(1 -0.56)"/><path class="cls-50" d="M248.63,542.56a2.65,2.65,0,1,1-2.65-2.65A2.65,2.65,0,0,1,248.63,542.56Z" transform="translate(1 -0.56)"/><path class="cls-50" d="M248.56,544.63h-14.5v.58h14.5a2.65,2.65,0,0,0,2.65-2.65,2.71,2.71,0,0,0,0-.29A2.65,2.65,0,0,1,248.56,544.63Z" transform="translate(1 -0.56)"/><path class="cls-51" d="M250.27,541.38a.06.06,0,0,1-.06,0,2.07,2.07,0,0,0-1.65-.82h-2.85a.08.08,0,0,1-.08-.07.09.09,0,0,1,.08-.08h2.85a2.23,2.23,0,0,1,1.77.87.08.08,0,0,1,0,.11Z" transform="translate(1 -0.56)"/><path class="cls-51" d="M248.56,544.73a.07.07,0,0,1-.07-.07.08.08,0,0,1,.07-.08,2.06,2.06,0,0,0,1.65-.81.07.07,0,0,1,.1,0,.07.07,0,0,1,0,.1A2.23,2.23,0,0,1,248.56,544.73Z" transform="translate(1 -0.56)"/><path class="cls-51" d="M240.67,540.67H237a.08.08,0,0,1,0-.16h3.68a.08.08,0,0,1,0,.16Z" transform="translate(1 -0.56)"/><path class="cls-51" d="M247.88,544.2h-2.67a.07.07,0,0,1-.08-.07.08.08,0,0,1,.08-.08h2.67a.08.08,0,0,1,.07.08A.07.07,0,0,1,247.88,544.2Z" transform="translate(1 -0.56)"/><path class="cls-51" d="M239.4,544.55H237a.09.09,0,0,1-.08-.08.08.08,0,0,1,.08-.07h2.41a.07.07,0,0,1,.07.07A.08.08,0,0,1,239.4,544.55Z" transform="translate(1 -0.56)"/><path class="cls-51" d="M243.32,543H240a.08.08,0,0,1-.08-.07.09.09,0,0,1,.08-.08h3.28a.09.09,0,0,1,.08.08A.08.08,0,0,1,243.32,543Z" transform="translate(1 -0.56)"/><path class="cls-51" d="M245.91,541.7H244a.08.08,0,0,1-.08-.07.09.09,0,0,1,.08-.08h1.93a.08.08,0,0,1,.07.08A.07.07,0,0,1,245.91,541.7Z" transform="translate(1 -0.56)"/><circle class="cls-52" cx="235.06" cy="542" r="2.65"/><path class="cls-53" d="M234.09,544.88a2.15,2.15,0,0,1-1.58-.61,2.2,2.2,0,0,1-.76-1.69,2.58,2.58,0,0,1,.71-1.58,2.06,2.06,0,0,1,1.59-.76,2.38,2.38,0,0,1,1.47.71,2.42,2.42,0,0,1,.86,1.58,2,2,0,0,1-.6,1.48,2.61,2.61,0,0,1-1.69.87Zm-.13-4.49a2,2,0,0,0-1.39.71,2.4,2.4,0,0,0-.67,1.49,2.07,2.07,0,0,0,.71,1.57,2,2,0,0,0,1.48.57,2.46,2.46,0,0,0,1.58-.83,1.88,1.88,0,0,0,.56-1.37,2.16,2.16,0,0,0-.81-1.47,2.29,2.29,0,0,0-1.39-.67Z" transform="translate(1 -0.56)"/><path class="cls-53" d="M234,544.25a1.61,1.61,0,0,1-1-.37,1.65,1.65,0,0,1-.59-1.18,1.75,1.75,0,0,1,1.54-1.82h0a1.87,1.87,0,0,1,1.79,1.53,1.73,1.73,0,0,1-1.54,1.83H234ZM234,541h0a1.6,1.6,0,0,0-1.4,1.66,1.52,1.52,0,0,0,.53,1.07,1.5,1.5,0,0,0,1.12.33,1.58,1.58,0,0,0,1.41-1.66A1.7,1.7,0,0,0,234,541Z" transform="translate(1 -0.56)"/><path class="cls-53" d="M234,543.71a1.11,1.11,0,0,1-.66-.22,1.13,1.13,0,0,1-.44-.77,1.18,1.18,0,0,1,1-1.3,1.23,1.23,0,0,1,1.29,1,1.16,1.16,0,0,1-1,1.3h0Zm0-2.14h-.11a1,1,0,0,0-.84,1.13,1,1,0,0,0,.38.67.92.92,0,0,0,.74.17,1,1,0,0,0,.85-1.12A1.06,1.06,0,0,0,234,541.57Z" transform="translate(1 -0.56)"/><path class="cls-53" d="M234.06,543.22a.6.6,0,0,1-.36-.12.62.62,0,0,1-.27-.42.66.66,0,1,1,1.29-.24.6.6,0,0,1-.09.48.69.69,0,0,1-.43.29h-.14Zm0-1.17H234a.5.5,0,0,0-.4.59.48.48,0,0,0,.2.33.49.49,0,0,0,.39.08.49.49,0,0,0,.33-.23.47.47,0,0,0,.08-.36A.52.52,0,0,0,234.07,542.05Z" transform="translate(1 -0.56)"/><path class="cls-53" d="M234.07,542.94a.36.36,0,0,1-.37-.31.38.38,0,1,1,.75-.15.37.37,0,0,1-.3.45h-.08Zm0-.61H234a.24.24,0,0,0-.18.27.21.21,0,0,0,.1.15.21.21,0,0,0,.17,0,.24.24,0,0,0,.15-.11.21.21,0,0,0,0-.17A.24.24,0,0,0,234.08,542.33Z" transform="translate(1 -0.56)"/><path class="cls-49" d="M254.33,539.91h-14.5v5.3h14.5a2.65,2.65,0,1,0,0-5.3Z" transform="translate(1 -0.56)"/><path class="cls-50" d="M254.33,544.63h-14.5v.58h14.5a2.65,2.65,0,0,0,2.65-2.65,1.37,1.37,0,0,0,0-.29A2.64,2.64,0,0,1,254.33,544.63Z" transform="translate(1 -0.56)"/><path class="cls-51" d="M256,541.38l-.06,0a2,2,0,0,0-1.64-.82h-2.86a.07.07,0,0,1-.07-.07.08.08,0,0,1,.07-.08h2.86a2.2,2.2,0,0,1,1.76.87.08.08,0,0,1,0,.11Z" transform="translate(1 -0.56)"/><path class="cls-51" d="M254.33,544.73a.08.08,0,0,1-.08-.07.09.09,0,0,1,.08-.08,2,2,0,0,0,1.64-.81.08.08,0,0,1,.11,0,.07.07,0,0,1,0,.1A2.2,2.2,0,0,1,254.33,544.73Z" transform="translate(1 -0.56)"/><path class="cls-51" d="M246.43,540.67h-3.67a.08.08,0,0,1,0-.16h3.67a.08.08,0,0,1,0,.16Z" transform="translate(1 -0.56)"/><path class="cls-51" d="M253.65,544.2H251a.07.07,0,0,1-.07-.07.08.08,0,0,1,.07-.08h2.68a.08.08,0,0,1,.07.08A.07.07,0,0,1,253.65,544.2Z" transform="translate(1 -0.56)"/><path class="cls-51" d="M245.17,544.55h-2.41a.09.09,0,0,1-.08-.08.08.08,0,0,1,.08-.07h2.41a.07.07,0,0,1,.07.07A.08.08,0,0,1,245.17,544.55Z" transform="translate(1 -0.56)"/><path class="cls-51" d="M249.09,543h-3.28a.08.08,0,0,1-.08-.07.09.09,0,0,1,.08-.08h3.28a.09.09,0,0,1,.08.08A.08.08,0,0,1,249.09,543Z" transform="translate(1 -0.56)"/><path class="cls-51" d="M251.67,541.7h-1.93a.07.07,0,0,1-.07-.07.08.08,0,0,1,.07-.08h1.93a.09.09,0,0,1,.08.08A.08.08,0,0,1,251.67,541.7Z" transform="translate(1 -0.56)"/><path class="cls-52" d="M242.48,542.56a2.65,2.65,0,1,1-2.65-2.65A2.65,2.65,0,0,1,242.48,542.56Z" transform="translate(1 -0.56)"/><path class="cls-53" d="M239.86,544.88a2.15,2.15,0,0,1-1.58-.61,2.21,2.21,0,0,1-.77-1.69,2.59,2.59,0,0,1,.72-1.58,2,2,0,0,1,1.58-.76,2.8,2.8,0,0,1,2.34,2.29,2,2,0,0,1-.6,1.48,2.61,2.61,0,0,1-1.69.87Zm-.14-4.49a1.94,1.94,0,0,0-1.38.71,2.46,2.46,0,0,0-.68,1.49,2.07,2.07,0,0,0,.72,1.57,2,2,0,0,0,1.48.57,2.48,2.48,0,0,0,1.58-.83,1.88,1.88,0,0,0,.56-1.37,2.68,2.68,0,0,0-2.2-2.14Z" transform="translate(1 -0.56)"/><path class="cls-53" d="M239.79,544.25a1.61,1.61,0,0,1-1-.37,1.65,1.65,0,0,1-.59-1.18,1.74,1.74,0,0,1,1.54-1.82h0a1.87,1.87,0,0,1,1.79,1.53,1.74,1.74,0,0,1-1.54,1.83h-.19Zm-.06-3.22h0a1.59,1.59,0,0,0-1.4,1.66,1.52,1.52,0,0,0,.53,1.07,1.5,1.5,0,0,0,1.12.33,1.58,1.58,0,0,0,1.41-1.66A1.7,1.7,0,0,0,239.73,541Z" transform="translate(1 -0.56)"/><path class="cls-53" d="M239.81,543.71a1.17,1.17,0,0,1-.67-.22,1.12,1.12,0,0,1-.43-.77,1.17,1.17,0,0,1,1-1.3,1.24,1.24,0,0,1,1.3,1,1.16,1.16,0,0,1-1,1.3h0Zm0-2.14h-.1a1,1,0,0,0-.84,1.13,1,1,0,0,0,.37.67.94.94,0,0,0,.75.17,1,1,0,0,0,.85-1.12A1.07,1.07,0,0,0,239.8,541.57Z" transform="translate(1 -0.56)"/><path class="cls-53" d="M239.83,543.22a.58.58,0,0,1-.36-.12.59.59,0,0,1-.27-.42.66.66,0,1,1,1.29-.24.64.64,0,0,1-.09.48.71.71,0,0,1-.44.29h-.13Zm0-1.17h-.08a.5.5,0,0,0-.4.59.48.48,0,0,0,.2.33.47.47,0,0,0,.38.08.51.51,0,0,0,.34-.23.47.47,0,0,0,.07-.36A.52.52,0,0,0,239.83,542.05Z" transform="translate(1 -0.56)"/><path class="cls-53" d="M239.84,542.94a.39.39,0,0,1-.21-.06.42.42,0,0,1-.16-.25.38.38,0,1,1,.75-.15.37.37,0,0,1-.3.45h-.08Zm0-.61h0a.23.23,0,0,0-.18.27.2.2,0,0,0,.09.15.22.22,0,0,0,.33-.07.2.2,0,0,0,0-.17A.23.23,0,0,0,239.84,542.33Z" transform="translate(1 -0.56)"/><path class="cls-49" d="M251.66,534.61h-14.5v5.3h14.5a2.65,2.65,0,1,0,0-5.3Z" transform="translate(1 -0.56)"/><path class="cls-50" d="M251.73,537.26a2.65,2.65,0,1,1-2.65-2.65A2.65,2.65,0,0,1,251.73,537.26Z" transform="translate(1 -0.56)"/><path class="cls-50" d="M251.66,539.33h-14.5v.58h14.5a2.65,2.65,0,0,0,2.65-2.65,2.71,2.71,0,0,0,0-.29A2.66,2.66,0,0,1,251.66,539.33Z" transform="translate(1 -0.56)"/><path class="cls-51" d="M253.37,536.07a.06.06,0,0,1-.06,0,2.09,2.09,0,0,0-1.65-.81h-2.85a.07.07,0,0,1-.08-.07.08.08,0,0,1,.08-.08h2.85a2.2,2.2,0,0,1,1.76.87.08.08,0,0,1,0,.11Z" transform="translate(1 -0.56)"/><path class="cls-51" d="M251.66,539.43a.07.07,0,0,1-.07-.08.07.07,0,0,1,.07-.07,2.09,2.09,0,0,0,1.65-.81.08.08,0,0,1,.1,0,.08.08,0,0,1,0,.11A2.2,2.2,0,0,1,251.66,539.43Z" transform="translate(1 -0.56)"/><path class="cls-51" d="M243.77,535.36h-3.68a.08.08,0,0,1-.08-.07.09.09,0,0,1,.08-.08h3.68a.08.08,0,0,1,.07.08A.07.07,0,0,1,243.77,535.36Z" transform="translate(1 -0.56)"/><path class="cls-51" d="M251,538.9h-2.67a.07.07,0,0,1-.08-.07.08.08,0,0,1,.08-.08H251a.08.08,0,0,1,.07.08A.07.07,0,0,1,251,538.9Z" transform="translate(1 -0.56)"/><path class="cls-51" d="M242.5,539.24h-2.41a.08.08,0,0,1-.08-.07.09.09,0,0,1,.08-.08h2.41a.08.08,0,0,1,.07.08A.07.07,0,0,1,242.5,539.24Z" transform="translate(1 -0.56)"/><path class="cls-51" d="M246.42,537.69h-3.28a.08.08,0,0,1-.08-.07.09.09,0,0,1,.08-.08h3.28a.09.09,0,0,1,.08.08A.08.08,0,0,1,246.42,537.69Z" transform="translate(1 -0.56)"/><path class="cls-51" d="M249,536.4h-1.92a.07.07,0,0,1-.08-.07.07.07,0,0,1,.08-.08H249a.07.07,0,0,1,.08.08A.07.07,0,0,1,249,536.4Z" transform="translate(1 -0.56)"/><path class="cls-52" d="M239.81,537.26a2.65,2.65,0,1,1-2.65-2.65A2.65,2.65,0,0,1,239.81,537.26Z" transform="translate(1 -0.56)"/><path class="cls-53" d="M237.19,539.58a2.15,2.15,0,0,1-1.58-.61,2.18,2.18,0,0,1-.76-1.69,2.52,2.52,0,0,1,.71-1.58,2,2,0,0,1,1.58-.76,2.8,2.8,0,0,1,2.34,2.29,2,2,0,0,1-.6,1.47,2.57,2.57,0,0,1-1.69.88Zm-.14-4.5a2,2,0,0,0-1.38.72,2.4,2.4,0,0,0-.67,1.49,2,2,0,0,0,.71,1.57,2,2,0,0,0,1.48.56,2.41,2.41,0,0,0,1.58-.82,1.88,1.88,0,0,0,.56-1.37,2.25,2.25,0,0,0-.81-1.47,2.29,2.29,0,0,0-1.39-.67Z" transform="translate(1 -0.56)"/><path class="cls-53" d="M237.12,539a1.61,1.61,0,0,1-1-.37,1.65,1.65,0,0,1-.59-1.18,1.75,1.75,0,0,1,1.54-1.83h0a1.87,1.87,0,0,1,1.79,1.54,1.73,1.73,0,0,1-1.54,1.83h-.19Zm-.06-3.23h0a1.61,1.61,0,0,0-1.4,1.67,1.52,1.52,0,0,0,.53,1.07,1.5,1.5,0,0,0,1.12.33,1.58,1.58,0,0,0,1.41-1.66A1.71,1.71,0,0,0,237.06,535.72Z" transform="translate(1 -0.56)"/><path class="cls-53" d="M237.14,538.41a1.15,1.15,0,0,1-.13-2.29,1.23,1.23,0,0,1,1.3,1,1.16,1.16,0,0,1-1,1.3h0Zm0-2.14H237a1,1,0,0,0-.84,1.13.92.92,0,0,0,.37.66,1,1,0,0,0,.75.18,1,1,0,0,0,.85-1.12A1.06,1.06,0,0,0,237.13,536.27Z" transform="translate(1 -0.56)"/><path class="cls-53" d="M237.16,537.92a.6.6,0,0,1-.36-.12.62.62,0,0,1-.27-.43.66.66,0,0,1,.53-.76.67.67,0,0,1,.76.53.61.61,0,0,1-.09.47.65.65,0,0,1-.43.29h0Zm0-1.17h-.09a.52.52,0,0,0-.2.92.53.53,0,0,0,.39.08.49.49,0,0,0,.33-.23.47.47,0,0,0,.08-.36A.52.52,0,0,0,237.17,536.75Z" transform="translate(1 -0.56)"/><path class="cls-53" d="M237.17,537.64a.36.36,0,0,1-.37-.31.38.38,0,1,1,.7.13.39.39,0,0,1-.25.17h-.08Zm0-.62h0a.23.23,0,0,0-.18.27.23.23,0,0,0,.1.15.2.2,0,0,0,.17,0,.23.23,0,0,0,.15-.1.17.17,0,0,0,0-.17A.24.24,0,0,0,237.17,537Z" transform="translate(1 -0.56)"/><path class="cls-49" d="M257.43,534.61h-14.5v5.3h14.5a2.65,2.65,0,0,0,0-5.3Z" transform="translate(1 -0.56)"/><path class="cls-50" d="M257.43,539.33h-14.5v.58h14.5a2.62,2.62,0,0,0,2.63-2.94A2.65,2.65,0,0,1,257.43,539.33Z" transform="translate(1 -0.56)"/><path class="cls-51" d="M259.13,536.07l-.06,0a2.06,2.06,0,0,0-1.64-.81h-2.86a.07.07,0,0,1-.07-.07.08.08,0,0,1,.07-.08h2.86a2.21,2.21,0,0,1,1.76.87.08.08,0,0,1,0,.11Z" transform="translate(1 -0.56)"/><path class="cls-51" d="M257.43,539.43a.08.08,0,0,1-.08-.08.08.08,0,0,1,.08-.07,2.06,2.06,0,0,0,1.64-.81.09.09,0,0,1,.11,0,.08.08,0,0,1,0,.11A2.21,2.21,0,0,1,257.43,539.43Z" transform="translate(1 -0.56)"/><path class="cls-51" d="M249.53,535.36h-3.67a.07.07,0,0,1-.08-.07.08.08,0,0,1,.08-.08h3.67a.09.09,0,0,1,.08.08A.08.08,0,0,1,249.53,535.36Z" transform="translate(1 -0.56)"/><path class="cls-51" d="M256.74,538.9h-2.67a.07.07,0,0,1-.07-.07.08.08,0,0,1,.07-.08h2.67a.08.08,0,0,1,.08.08A.07.07,0,0,1,256.74,538.9Z" transform="translate(1 -0.56)"/><path class="cls-51" d="M248.27,539.24h-2.41a.07.07,0,0,1-.08-.07.08.08,0,0,1,.08-.08h2.41a.08.08,0,0,1,.07.08A.07.07,0,0,1,248.27,539.24Z" transform="translate(1 -0.56)"/><path class="cls-51" d="M252.19,537.69h-3.28a.07.07,0,0,1-.08-.07.08.08,0,0,1,.08-.08h3.28a.08.08,0,0,1,.07.08A.07.07,0,0,1,252.19,537.69Z" transform="translate(1 -0.56)"/><path class="cls-51" d="M254.77,536.4h-1.93a.07.07,0,0,1-.07-.07.07.07,0,0,1,.07-.08h1.93a.08.08,0,0,1,.08.08A.08.08,0,0,1,254.77,536.4Z" transform="translate(1 -0.56)"/><path class="cls-52" d="M245.58,537.26a2.65,2.65,0,1,1-2.65-2.65A2.65,2.65,0,0,1,245.58,537.26Z" transform="translate(1 -0.56)"/><path class="cls-53" d="M243,539.58a2.14,2.14,0,0,1-1.58-.61,2.22,2.22,0,0,1-.77-1.69,2.59,2.59,0,0,1,.72-1.58,2,2,0,0,1,1.58-.76,2.8,2.8,0,0,1,2.34,2.29,2,2,0,0,1-.6,1.47,2.57,2.57,0,0,1-1.69.88Zm-.14-4.5a2,2,0,0,0-1.38.72,2.46,2.46,0,0,0-.68,1.49,2.09,2.09,0,0,0,.72,1.57,2,2,0,0,0,1.48.56,2.43,2.43,0,0,0,1.58-.82,1.88,1.88,0,0,0,.56-1.37,2.68,2.68,0,0,0-2.2-2.14Z" transform="translate(1 -0.56)"/><path class="cls-53" d="M242.89,539a1.66,1.66,0,0,1-1-.37,1.68,1.68,0,0,1-.58-1.18,1.75,1.75,0,0,1,1.54-1.83h0a1.87,1.87,0,0,1,1.8,1.54,1.74,1.74,0,0,1-1.54,1.83h-.19Zm-.06-3.23h0a1.61,1.61,0,0,0-1.4,1.67,1.52,1.52,0,0,0,.53,1.07,1.5,1.5,0,0,0,1.12.33,1.58,1.58,0,0,0,1.41-1.66A1.72,1.72,0,0,0,242.83,535.72Z" transform="translate(1 -0.56)"/><path class="cls-53" d="M242.91,538.41a1.14,1.14,0,0,1-.67-.22,1.12,1.12,0,0,1-.43-.77,1.17,1.17,0,0,1,1-1.3,1.21,1.21,0,0,1,1.29,1,1.15,1.15,0,0,1-1,1.3h0Zm0-2.14h-.1a1,1,0,0,0-.84,1.13.92.92,0,0,0,.37.66,1,1,0,0,0,.75.18,1,1,0,0,0,.85-1.12A1.07,1.07,0,0,0,242.9,536.27Z" transform="translate(1 -0.56)"/><path class="cls-53" d="M242.93,537.92a.63.63,0,0,1-.37-.12.61.61,0,0,1-.26-.43.66.66,0,0,1,.53-.76.67.67,0,0,1,.76.53.61.61,0,0,1-.09.47.67.67,0,0,1-.44.29h0Zm0-1.17h-.08a.51.51,0,0,0-.41.59.56.56,0,0,0,.21.33.51.51,0,0,0,.38.08.54.54,0,0,0,.34-.23.47.47,0,0,0,.07-.36A.52.52,0,0,0,242.93,536.75Z" transform="translate(1 -0.56)"/><path class="cls-53" d="M242.94,537.64a.39.39,0,0,1-.21-.06.38.38,0,0,1-.16-.25.38.38,0,1,1,.7.13.39.39,0,0,1-.25.17h-.08Zm0-.62h0a.22.22,0,0,0-.18.27.21.21,0,0,0,.09.15.23.23,0,0,0,.18,0,.25.25,0,0,0,.15-.1.25.25,0,0,0,0-.17A.24.24,0,0,0,242.94,537Z" transform="translate(1 -0.56)"/><path class="cls-49" d="M254.7,529.3H240.2v5.31h14.5a2.66,2.66,0,0,0,0-5.31Z" transform="translate(1 -0.56)"/><path class="cls-50" d="M254.7,534H240.2v.59h14.5a2.66,2.66,0,0,0,2.65-2.66c0-.09,0-.19,0-.29A2.64,2.64,0,0,1,254.7,534Z" transform="translate(1 -0.56)"/><path class="cls-51" d="M256.4,530.77l-.06,0a2.07,2.07,0,0,0-1.64-.81h-2.86a.07.07,0,0,1-.07-.07.07.07,0,0,1,.07-.08h2.86a2.21,2.21,0,0,1,1.76.87.08.08,0,0,1,0,.11Z" transform="translate(1 -0.56)"/><path class="cls-51" d="M254.7,534.13a.09.09,0,0,1-.08-.08.08.08,0,0,1,.08-.07,2.07,2.07,0,0,0,1.64-.81.08.08,0,1,1,.12.09A2.21,2.21,0,0,1,254.7,534.13Z" transform="translate(1 -0.56)"/><path class="cls-51" d="M246.8,530.06h-3.68a.07.07,0,0,1-.07-.07.07.07,0,0,1,.07-.08h3.68a.08.08,0,0,1,.08.08A.08.08,0,0,1,246.8,530.06Z" transform="translate(1 -0.56)"/><path class="cls-51" d="M254,533.6h-2.67a.07.07,0,0,1-.07-.08.07.07,0,0,1,.07-.07H254a.08.08,0,0,1,.08.07A.08.08,0,0,1,254,533.6Z" transform="translate(1 -0.56)"/><path class="cls-51" d="M245.53,533.94h-2.41a.07.07,0,0,1-.07-.07.08.08,0,0,1,.07-.08h2.41a.08.08,0,0,1,.08.08A.07.07,0,0,1,245.53,533.94Z" transform="translate(1 -0.56)"/><path class="cls-51" d="M249.46,532.39h-3.29a.07.07,0,0,1-.07-.07.07.07,0,0,1,.07-.08h3.29a.07.07,0,0,1,.07.08A.07.07,0,0,1,249.46,532.39Z" transform="translate(1 -0.56)"/><path class="cls-51" d="M252,531.1h-1.93A.07.07,0,0,1,250,531a.07.07,0,0,1,.07-.07H252a.08.08,0,0,1,.08.07A.08.08,0,0,1,252,531.1Z" transform="translate(1 -0.56)"/><circle class="cls-52" cx="241.2" cy="531.4" r="2.65"/><path class="cls-53" d="M240.22,534.27a2.15,2.15,0,0,1-1.57-.6,2.21,2.21,0,0,1-.77-1.69,2.53,2.53,0,0,1,.72-1.58,2,2,0,0,1,1.58-.76,2.38,2.38,0,0,1,1.47.71,2.42,2.42,0,0,1,.87,1.58,2,2,0,0,1-.6,1.47,2.57,2.57,0,0,1-1.69.87Zm-.13-4.49a2,2,0,0,0-1.38.72A2.44,2.44,0,0,0,238,532a2.06,2.06,0,0,0,.72,1.57,2,2,0,0,0,1.47.56,2.43,2.43,0,0,0,1.59-.82,1.88,1.88,0,0,0,.56-1.37,2.2,2.2,0,0,0-.82-1.47,2.29,2.29,0,0,0-1.38-.67Z" transform="translate(1 -0.56)"/><path class="cls-53" d="M240.16,533.65a1.59,1.59,0,0,1-1-.38,1.69,1.69,0,0,1-.59-1.18,1.76,1.76,0,0,1,1.55-1.82h0a1.87,1.87,0,0,1,1.8,1.54,1.74,1.74,0,0,1-1.54,1.83h-.19Zm-.06-3.23h0a1.61,1.61,0,0,0-1.4,1.67,1.57,1.57,0,0,0,.54,1.07,1.53,1.53,0,0,0,1.12.33,1.58,1.58,0,0,0,1.41-1.66A1.72,1.72,0,0,0,240.1,530.42Z" transform="translate(1 -0.56)"/><path class="cls-53" d="M240.17,533.1a1.05,1.05,0,0,1-.66-.22,1.08,1.08,0,0,1-.43-.77,1.15,1.15,0,0,1,1-1.29,1.21,1.21,0,0,1,1.29,1,1.15,1.15,0,0,1-1,1.3h-.2Zm0-2.14h-.1a1,1,0,0,0-.84,1.13.94.94,0,0,0,.37.66,1,1,0,0,0,1.59-.94A1.07,1.07,0,0,0,240.17,531Z" transform="translate(1 -0.56)"/><path class="cls-53" d="M240.2,532.62a.63.63,0,0,1-.37-.12.66.66,0,0,1,.26-1.19.67.67,0,0,1,.77.52.67.67,0,0,1-.53.77h0Zm0-1.17h-.08a.53.53,0,0,0-.41.6.52.52,0,0,0,.21.33.51.51,0,0,0,.38.07.49.49,0,0,0,.34-.22.48.48,0,0,0,.07-.37A.52.52,0,0,0,240.2,531.45Z" transform="translate(1 -0.56)"/><path class="cls-53" d="M240.21,532.34a.31.31,0,0,1-.21-.07.34.34,0,0,1-.16-.24.38.38,0,0,1,.3-.45.39.39,0,0,1,.45.3.35.35,0,0,1-.06.28.35.35,0,0,1-.24.17h-.08Zm0-.62h0a.22.22,0,0,0-.18.27.24.24,0,0,0,.09.15.28.28,0,0,0,.18,0,.25.25,0,0,0,.15-.1.25.25,0,0,0,0-.17A.24.24,0,0,0,240.21,531.72Z" transform="translate(1 -0.56)"/><path class="cls-49" d="M260.1,545.21H245.6v5.3h14.5a2.65,2.65,0,0,0,0-5.3Z" transform="translate(1 -0.56)"/><path class="cls-50" d="M260.1,549.93H245.6v.58h14.5a2.65,2.65,0,0,0,2.65-2.65,2.83,2.83,0,0,0,0-.29A2.64,2.64,0,0,1,260.1,549.93Z" transform="translate(1 -0.56)"/><path class="cls-51" d="M261.8,546.68l-.06,0a2,2,0,0,0-1.64-.81h-2.86a.08.08,0,0,1-.07-.08.07.07,0,0,1,.07-.07h2.86a2.18,2.18,0,0,1,1.76.87.07.07,0,0,1,0,.1Z" transform="translate(1 -0.56)"/><path class="cls-51" d="M260.1,550A.08.08,0,0,1,260,550a.09.09,0,0,1,.08-.08,2,2,0,0,0,1.64-.81.08.08,0,0,1,.11,0,.07.07,0,0,1,0,.1A2.18,2.18,0,0,1,260.1,550Z" transform="translate(1 -0.56)"/><path class="cls-51" d="M252.2,546h-3.68a.08.08,0,0,1-.07-.08.07.07,0,0,1,.07-.07h3.68a.08.08,0,0,1,.08.07A.09.09,0,0,1,252.2,546Z" transform="translate(1 -0.56)"/><path class="cls-51" d="M259.41,549.51h-2.67a.08.08,0,0,1-.07-.08.07.07,0,0,1,.07-.07h2.67a.08.08,0,0,1,.08.07A.09.09,0,0,1,259.41,549.51Z" transform="translate(1 -0.56)"/><path class="cls-51" d="M250.93,549.85h-2.41a.07.07,0,0,1-.07-.08.07.07,0,0,1,.07-.07h2.41a.07.07,0,0,1,.08.07A.07.07,0,0,1,250.93,549.85Z" transform="translate(1 -0.56)"/><path class="cls-51" d="M254.86,548.3h-3.29a.08.08,0,0,1-.07-.08.07.07,0,0,1,.07-.07h3.29a.07.07,0,0,1,.07.07A.08.08,0,0,1,254.86,548.3Z" transform="translate(1 -0.56)"/><path class="cls-51" d="M257.44,547h-1.93a.07.07,0,0,1-.07-.07.08.08,0,0,1,.07-.08h1.93a.09.09,0,0,1,.08.08A.08.08,0,0,1,257.44,547Z" transform="translate(1 -0.56)"/><circle class="cls-52" cx="246.6" cy="547.3" r="2.65"/><path class="cls-53" d="M245.62,550.18a2.16,2.16,0,0,1-1.57-.6,2.21,2.21,0,0,1-.77-1.7,2.56,2.56,0,0,1,.72-1.58,2,2,0,0,1,1.58-.76,2.44,2.44,0,0,1,1.47.71,2.47,2.47,0,0,1,.87,1.58,2.07,2.07,0,0,1-.6,1.48,2.61,2.61,0,0,1-1.69.87h0Zm-.13-4.49a1.92,1.92,0,0,0-1.38.72,2.41,2.41,0,0,0-.68,1.48,2.08,2.08,0,0,0,.72,1.58,2,2,0,0,0,1.47.56,2.44,2.44,0,0,0,1.59-.83,1.86,1.86,0,0,0,.56-1.37,2.22,2.22,0,0,0-.82-1.47,2.26,2.26,0,0,0-1.38-.67Z" transform="translate(1 -0.56)"/><path class="cls-53" d="M245.56,549.55a1.64,1.64,0,0,1-1.05-.37,1.73,1.73,0,0,1-.59-1.18,1.76,1.76,0,0,1,1.55-1.82h0a1.87,1.87,0,0,1,1.8,1.53,1.73,1.73,0,0,1-1.54,1.83h-.19Zm-.06-3.22h0a1.6,1.6,0,0,0-1.41,1.66,1.57,1.57,0,0,0,.54,1.07,1.44,1.44,0,0,0,1.12.33,1.58,1.58,0,0,0,1.41-1.65A1.71,1.71,0,0,0,245.5,546.33Z" transform="translate(1 -0.56)"/><path class="cls-53" d="M245.58,549a1.12,1.12,0,0,1-.67-.22,1.1,1.1,0,0,1-.43-.77,1.15,1.15,0,0,1,1-1.29,1.2,1.2,0,0,1,1.29,1,1.14,1.14,0,0,1-1,1.29h0Zm0-2.14h-.1a1,1,0,0,0-.84,1.12,1,1,0,0,0,.37.67.94.94,0,0,0,.75.17,1,1,0,0,0,.84-1.12A1.06,1.06,0,0,0,245.57,546.87Z" transform="translate(1 -0.56)"/><path class="cls-53" d="M245.6,548.52a.7.7,0,0,1-.37-.11A.68.68,0,0,1,245,548a.67.67,0,0,1,.53-.77.67.67,0,0,1,.68,1,.71.71,0,0,1-.44.29h-.13Zm0-1.17h-.08a.52.52,0,0,0-.41.59.5.5,0,0,0,.59.41.57.57,0,0,0,.34-.22.48.48,0,0,0,.07-.37A.53.53,0,0,0,245.6,547.35Z" transform="translate(1 -0.56)"/><path class="cls-53" d="M245.61,548.24a.37.37,0,0,1-.21-.06.39.39,0,0,1,.14-.7.4.4,0,0,1,.45.3.38.38,0,0,1-.06.29.43.43,0,0,1-.24.17h-.08Zm0-.61h0a.23.23,0,0,0-.18.28.19.19,0,0,0,.09.14.23.23,0,0,0,.18,0,.31.31,0,0,0,.15-.1.27.27,0,0,0,0-.17A.24.24,0,0,0,245.61,547.63Z" transform="translate(1 -0.56)"/><path class="cls-49" d="M260.1,539.91H245.6v5.3h14.5a2.65,2.65,0,1,0,0-5.3Z" transform="translate(1 -0.56)"/><path class="cls-50" d="M260.1,544.63H245.6v.58h14.5a2.62,2.62,0,0,0,2.63-2.94A2.64,2.64,0,0,1,260.1,544.63Z" transform="translate(1 -0.56)"/><path class="cls-51" d="M261.8,541.38l-.06,0a2.05,2.05,0,0,0-1.64-.82h-2.86a.07.07,0,0,1-.07-.07.08.08,0,0,1,.07-.08h2.86a2.21,2.21,0,0,1,1.76.87.08.08,0,0,1,0,.11Z" transform="translate(1 -0.56)"/><path class="cls-51" d="M260.1,544.73a.08.08,0,0,1-.08-.07.09.09,0,0,1,.08-.08,2,2,0,0,0,1.64-.81.08.08,0,0,1,.11,0,.07.07,0,0,1,0,.1A2.21,2.21,0,0,1,260.1,544.73Z" transform="translate(1 -0.56)"/><path class="cls-51" d="M252.2,540.67h-3.68a.08.08,0,0,1,0-.16h3.68a.08.08,0,0,1,0,.16Z" transform="translate(1 -0.56)"/><path class="cls-51" d="M259.41,544.2h-2.67a.07.07,0,0,1-.07-.07.08.08,0,0,1,.07-.08h2.67a.09.09,0,0,1,.08.08A.08.08,0,0,1,259.41,544.2Z" transform="translate(1 -0.56)"/><path class="cls-51" d="M250.93,544.55h-2.41a.08.08,0,0,1-.07-.08.07.07,0,0,1,.07-.07h2.41a.07.07,0,0,1,.08.07A.08.08,0,0,1,250.93,544.55Z" transform="translate(1 -0.56)"/><path class="cls-51" d="M254.86,543h-3.29a.07.07,0,0,1-.07-.07.08.08,0,0,1,.07-.08h3.29a.08.08,0,0,1,.07.08A.07.07,0,0,1,254.86,543Z" transform="translate(1 -0.56)"/><path class="cls-51" d="M257.44,541.7h-1.93a.07.07,0,0,1-.07-.07.08.08,0,0,1,.07-.08h1.93a.09.09,0,0,1,.08.08A.08.08,0,0,1,257.44,541.7Z" transform="translate(1 -0.56)"/><path class="cls-52" d="M248.25,542.56a2.65,2.65,0,1,1-2.65-2.65A2.65,2.65,0,0,1,248.25,542.56Z" transform="translate(1 -0.56)"/><path class="cls-53" d="M245.62,544.88a2.13,2.13,0,0,1-1.57-.61,2.17,2.17,0,0,1-.77-1.69A2.53,2.53,0,0,1,244,541a2,2,0,0,1,1.58-.76,2.38,2.38,0,0,1,1.47.71,2.47,2.47,0,0,1,.87,1.58,2.09,2.09,0,0,1-.6,1.48,2.61,2.61,0,0,1-1.69.87h0Zm-.13-4.49a1.94,1.94,0,0,0-1.38.71,2.46,2.46,0,0,0-.68,1.49,2,2,0,0,0,.72,1.57,2,2,0,0,0,1.47.57,2.48,2.48,0,0,0,1.59-.83,1.88,1.88,0,0,0,.56-1.37,2.22,2.22,0,0,0-.82-1.47,2.26,2.26,0,0,0-1.38-.67Z" transform="translate(1 -0.56)"/><path class="cls-53" d="M245.56,544.25a1.64,1.64,0,0,1-1.05-.37,1.73,1.73,0,0,1-.59-1.18,1.75,1.75,0,0,1,1.55-1.82h0a1.87,1.87,0,0,1,1.8,1.53,1.74,1.74,0,0,1-1.54,1.83h-.19ZM245.5,541h0a1.6,1.6,0,0,0-1.41,1.66,1.57,1.57,0,0,0,.54,1.07,1.48,1.48,0,0,0,1.12.33,1.58,1.58,0,0,0,1.41-1.66A1.72,1.72,0,0,0,245.5,541Z" transform="translate(1 -0.56)"/><path class="cls-53" d="M245.58,543.71a1.09,1.09,0,0,1-1.1-1,1.17,1.17,0,0,1,1-1.3,1.22,1.22,0,0,1,1.29,1,1.15,1.15,0,0,1-1,1.3h0Zm0-2.14h-.1a1,1,0,0,0-.84,1.13,1,1,0,0,0,.37.67.94.94,0,0,0,.75.17,1,1,0,0,0,.84-1.12A1.06,1.06,0,0,0,245.57,541.57Z" transform="translate(1 -0.56)"/><path class="cls-53" d="M245.6,543.22a.63.63,0,0,1-.37-.12.66.66,0,0,1-.27-.42.67.67,0,0,1,.53-.77.67.67,0,0,1,.68,1,.71.71,0,0,1-.44.29h-.13Zm0-1.17h-.08a.51.51,0,0,0-.41.59.49.49,0,0,0,.21.33.47.47,0,0,0,.38.08.54.54,0,0,0,.34-.23.47.47,0,0,0,.07-.36A.52.52,0,0,0,245.6,542.05Z" transform="translate(1 -0.56)"/><path class="cls-53" d="M245.61,542.94a.37.37,0,0,1-.21-.06.39.39,0,0,1,.14-.7.39.39,0,0,1,.45.3.38.38,0,0,1-.06.29.37.37,0,0,1-.24.16h-.08Zm0-.61h0a.22.22,0,0,0-.18.27.2.2,0,0,0,.09.15.23.23,0,0,0,.18,0,.27.27,0,0,0,.15-.11.25.25,0,0,0,0-.17A.23.23,0,0,0,245.61,542.33Z" transform="translate(1 -0.56)"/><rect class="cls-22" x="1114.84" y="488.04" width="86.07" height="56.11"/><rect class="cls-13" x="1110.13" y="487.05" width="90.78" height="2.42"/><rect class="cls-22" x="1108.25" y="485.85" width="94.55" height="4.28" rx="1.2"/><rect class="cls-13" x="1175.23" y="496.41" width="20.92" height="41.56" rx="5.87"/><rect class="cls-37" x="1177.13" y="500.88" width="17.12" height="1.9" rx="0.53"/><rect class="cls-37" x="1177.13" y="531.79" width="17.12" height="1.9" rx="0.53"/><rect class="cls-37" x="1177.13" y="526.64" width="17.12" height="1.9" rx="0.53"/><rect class="cls-37" x="1177.13" y="521.49" width="17.12" height="1.9" rx="0.53"/><rect class="cls-37" x="1177.13" y="516.34" width="17.12" height="1.9" rx="0.53"/><rect class="cls-37" x="1177.13" y="511.19" width="17.12" height="1.9" rx="0.53"/><rect class="cls-37" x="1177.13" y="506.03" width="17.12" height="1.9" rx="0.53"/><circle class="cls-54" cx="1143.5" cy="517.21" r="20.08"/><path class="cls-22" d="M1157.51,517.7c-3.39-4.23-11-2.35-14-.62,0-.3,0-.68.1-1.14a11.84,11.84,0,0,1,1.81-5.41c1.47-2,3.28-1.38,4.21-3.31a4.4,4.4,0,0,0,.3-2.71c-.61-2.63-4.05-4.1-6.62-4.21a8.62,8.62,0,0,0-8.12,5.11c-2.11,5.41,4.27,11.53,7.06,12.77-.29.09-.77.46-2,1a11.91,11.91,0,0,1-5.59,1.14c-2.46-.28-2.84-2.16-5-2a4.44,4.44,0,0,0-2.5,1.09c-2,1.84-1.53,5.55-.33,7.84a8.61,8.61,0,0,0,8.49,4.47c6-.92,8-10.3,7.45-12.88A14.59,14.59,0,0,1,1148,524c1,2.27-.45,3.54.76,5.31a4.36,4.36,0,0,0,2.19,1.61c2.58.79,5.58-1.45,7-3.63A8.64,8.64,0,0,0,1157.51,517.7Z" transform="translate(1 -0.56)"/><circle class="cls-55" cx="1143.51" cy="517.43" r="3.93"/><circle class="cls-56" cx="1143.51" cy="517.43" r="2.75"/><line class="cls-57" x1="1123.4" y1="511.82" x2="1163.81" y2="511.82"/><line class="cls-57" x1="1126.72" y1="502.79" x2="1160.49" y2="502.79"/><line class="cls-57" x1="1123.4" y1="520.85" x2="1163.81" y2="520.85"/><line class="cls-57" x1="1126.72" y1="529.89" x2="1160.49" y2="529.89"/><line class="cls-57" x1="1130.53" y1="498.98" x2="1130.53" y2="534.09"/><line class="cls-57" x1="1143.37" y1="496.13" x2="1143.37" y2="538.45"/><line class="cls-57" x1="1156.21" y1="499.93" x2="1156.21" y2="534.09"/><circle class="cls-58" cx="1143.55" cy="517.26" r="21.37"/><rect class="cls-13" x="1110.13" y="488.92" width="4.68" height="55.23"/><polygon class="cls-59" points="1078.31 277.94 837.31 277.94 875.31 219.94 1043.31 219.94 1078.31 277.94"/><line class="cls-60" x1="958.5" y1="219.44" x2="958.5" y2="277.44"/><line class="cls-60" x1="941.39" y1="219.63" x2="934.81" y2="278.26"/><line class="cls-60" x1="924.24" y1="219.67" x2="911.16" y2="278.21"/><line class="cls-60" x1="907" y1="220.08" x2="887.6" y2="277.8"/><line class="cls-60" x1="889.5" y1="219.94" x2="864.5" y2="277.94"/><line class="cls-60" x1="941.39" y1="219.63" x2="934.81" y2="278.26"/><line class="cls-60" x1="924.24" y1="219.67" x2="911.16" y2="278.21"/><line class="cls-60" x1="907" y1="220.08" x2="887.6" y2="277.8"/><line class="cls-60" x1="889.5" y1="219.94" x2="864.5" y2="277.94"/><line class="cls-60" x1="975.61" y1="219.63" x2="982.19" y2="278.26"/><line class="cls-60" x1="992.76" y1="219.67" x2="1005.84" y2="278.21"/><line class="cls-60" x1="1010" y1="220.08" x2="1029.4" y2="277.8"/><line class="cls-60" x1="1027.5" y1="219.94" x2="1052.5" y2="277.94"/><line class="cls-60" x1="858.5" y1="245.94" x2="1059.5" y2="245.94"/><line class="cls-60" x1="848" y1="260.94" x2="1068" y2="260.94"/><line class="cls-60" x1="867.5" y1="231.94" x2="1050.5" y2="231.94"/><polygon class="cls-61" points="778.31 195.94 537.31 195.94 575.31 137.94 743.31 137.94 778.31 195.94"/><line class="cls-60" x1="658.5" y1="137.44" x2="658.5" y2="195.44"/><path class="cls-60" d="M633.81,196.82" transform="translate(1 -0.56)"/><path class="cls-60" d="M640.39,138.18" transform="translate(1 -0.56)"/><line class="cls-60" x1="618.24" y1="137.67" x2="605.16" y2="196.21"/><path class="cls-60" d="M586.6,196.36" transform="translate(1 -0.56)"/><path class="cls-60" d="M606,138.64" transform="translate(1 -0.56)"/><path class="cls-60" d="M563.5,196.5" transform="translate(1 -0.56)"/><path class="cls-60" d="M633.81,196.82" transform="translate(1 -0.56)"/><path class="cls-60" d="M613.16,196.77" transform="translate(1 -0.56)"/><path class="cls-60" d="M626.24,138.23" transform="translate(1 -0.56)"/><path class="cls-60" d="M586.6,196.36" transform="translate(1 -0.56)"/><path class="cls-60" d="M606,138.64" transform="translate(1 -0.56)"/><path class="cls-60" d="M571.5,196.5" transform="translate(1 -0.56)"/><path class="cls-60" d="M596.5,138.5" transform="translate(1 -0.56)"/><path class="cls-60" d="M681.19,196.82" transform="translate(1 -0.56)"/><path class="cls-60" d="M674.61,138.18" transform="translate(1 -0.56)"/><line class="cls-60" x1="700.76" y1="137.67" x2="713.84" y2="196.21"/><path class="cls-60" d="M728.4,196.36" transform="translate(1 -0.56)"/><path class="cls-60" d="M709,138.64" transform="translate(1 -0.56)"/><path class="cls-60" d="M746.5,196.5" transform="translate(1 -0.56)"/><path class="cls-60" d="M721.5,138.5" transform="translate(1 -0.56)"/><line class="cls-60" x1="558.5" y1="163.94" x2="759.5" y2="163.94"/><path class="cls-60" d="M767,179.5" transform="translate(1 -0.56)"/><path class="cls-60" d="M547,179.5" transform="translate(1 -0.56)"/><path class="cls-60" d="M749.5,150.5" transform="translate(1 -0.56)"/><path class="cls-60" d="M566.5,150.5" transform="translate(1 -0.56)"/><polygon class="cls-62" points="477.31 319.95 246 319.95 282.47 262.93 443.72 262.93 477.31 319.95"/><line class="cls-60" x1="362.32" y1="262.44" x2="362.32" y2="319.46"/><path class="cls-60" d="M338.58,320.82" transform="translate(1 -0.56)"/><path class="cls-60" d="M344.89,263.18" transform="translate(1 -0.56)"/><line class="cls-60" x1="323.67" y1="262.67" x2="311.13" y2="320.21"/><path class="cls-60" d="M293.27,320.37" transform="translate(1 -0.56)"/><path class="cls-60" d="M311.89,263.63" transform="translate(1 -0.56)"/><path class="cls-60" d="M271.1,320.51" transform="translate(1 -0.56)"/><path class="cls-60" d="M338.58,320.82" transform="translate(1 -0.56)"/><path class="cls-60" d="M318.76,320.77" transform="translate(1 -0.56)"/><path class="cls-60" d="M331.31,263.23" transform="translate(1 -0.56)"/><path class="cls-60" d="M293.27,320.37" transform="translate(1 -0.56)"/><path class="cls-60" d="M311.89,263.63" transform="translate(1 -0.56)"/><path class="cls-60" d="M278.78,320.51" transform="translate(1 -0.56)"/><path class="cls-60" d="M302.77,263.49" transform="translate(1 -0.56)"/><path class="cls-60" d="M384.05,320.82" transform="translate(1 -0.56)"/><path class="cls-60" d="M377.74,263.18" transform="translate(1 -0.56)"/><line class="cls-60" x1="402.88" y1="262.67" x2="415.43" y2="320.21"/><path class="cls-60" d="M429.37,320.37" transform="translate(1 -0.56)"/><path class="cls-60" d="M410.75,263.63" transform="translate(1 -0.56)"/><path class="cls-60" d="M446.74,320.51" transform="translate(1 -0.56)"/><path class="cls-60" d="M422.74,263.49" transform="translate(1 -0.56)"/><line class="cls-60" x1="266.34" y1="288.49" x2="459.26" y2="288.49"/><path class="cls-60" d="M466.41,303.79" transform="translate(1 -0.56)"/><path class="cls-60" d="M255.26,303.79" transform="translate(1 -0.56)"/><path class="cls-60" d="M449.62,275.29" transform="translate(1 -0.56)"/><path class="cls-60" d="M274,275.29" transform="translate(1 -0.56)"/><line class="cls-63" x1="1108.82" y1="323.56" x2="1108.82" y2="377.57"/><ellipse class="cls-33" cx="1110.05" cy="350.19" rx="0.74" ry="27.75"/><ellipse class="cls-54" cx="1108.8" cy="378.44" rx="3" ry="2.1"/><line class="cls-63" x1="1117.32" y1="323.56" x2="1117.32" y2="377.57"/><ellipse class="cls-33" cx="1118.55" cy="350.19" rx="0.74" ry="27.75"/><ellipse class="cls-54" cx="1117.3" cy="378.44" rx="3" ry="2.1"/><line class="cls-63" x1="1125.82" y1="323.56" x2="1125.82" y2="377.57"/><ellipse class="cls-33" cx="1127.05" cy="350.19" rx="0.74" ry="27.75"/><ellipse class="cls-54" cx="1125.8" cy="378.44" rx="3" ry="2.1"/><line class="cls-63" x1="1134.32" y1="323.56" x2="1134.32" y2="377.57"/><ellipse class="cls-33" cx="1135.55" cy="350.19" rx="0.74" ry="27.75"/><ellipse class="cls-54" cx="1134.3" cy="378.44" rx="3" ry="2.1"/><line class="cls-63" x1="1142.82" y1="323.56" x2="1142.82" y2="377.57"/><ellipse class="cls-33" cx="1144.05" cy="350.19" rx="0.74" ry="27.75"/><ellipse class="cls-54" cx="1142.8" cy="378.44" rx="3" ry="2.1"/><line class="cls-64" x1="1104" y1="372.44" x2="1147" y2="372.44"/><line class="cls-65" x1="1107" y1="322.44" x2="1145" y2="322.44"/><line class="cls-66" x1="245" y1="323.44" x2="478" y2="323.44"/><polygon class="cls-67" points="296.95 656.44 103.64 656.44 139.19 593.44 332.5 593.44 296.95 656.44"/><polygon class="cls-68" points="330.22 598 327.11 603.48 165.11 603.48 162.38 608.3 302.32 608.3 299.2 613.77 296.46 618.59 293.34 624.07 153.44 624.07 150.71 628.88 290.59 628.88 287.47 634.36 284.72 639.17 281.6 644.65 141.77 644.65 139.03 649.47 300.94 649.47 297.82 654.95 126.93 654.95 130.03 649.47 132.76 644.65 135.87 639.17 275.72 639.17 278.46 634.36 138.6 634.36 141.71 628.88 144.43 624.07 147.54 618.59 287.45 618.59 290.19 613.77 150.27 613.77 153.38 608.3 156.11 603.48 159.21 598 330.22 598"/><polygon class="cls-69" points="330.81 596.51 137.54 596.51 139.59 593.52 332.86 593.52 330.81 596.51"/><polygon class="cls-69" points="141.53 596.51 137.44 596.51 103.64 656.44 107.74 656.44 141.53 596.51"/><rect class="cls-70" x="1021.49" y="443.74" width="50.95" height="66.95"/><path class="cls-37" d="M1028.38,435.44h37.17a6.89,6.89,0,0,1,6.89,6.89v1.41a0,0,0,0,1,0,0h-51a0,0,0,0,1,0,0v-1.41A6.89,6.89,0,0,1,1028.38,435.44Z"/><path class="cls-37" d="M1021.49,510.76h51a0,0,0,0,1,0,0v1.41a6.89,6.89,0,0,1-6.89,6.89h-37.17a6.89,6.89,0,0,1-6.89-6.89v-1.41A0,0,0,0,1,1021.49,510.76Z"/><rect class="cls-36" x="1035.19" y="518.59" width="23.21" height="3.77"/><path class="cls-37" d="M1028.21,435.44h37.17a6.89,6.89,0,0,1,6.89,6.89v1.41a0,0,0,0,1,0,0h-51a0,0,0,0,1,0,0v-1.41A6.89,6.89,0,0,1,1028.21,435.44Z"/><ellipse class="cls-33" cx="1041.11" cy="537.46" rx="1.65" ry="1.89"/><rect class="cls-34" x="1039.22" y="522.36" width="3.77" height="4.72"/><rect class="cls-25" x="1039.51" y="527.08" width="3.21" height="8.3"/><path class="cls-13" d="M1039.51,534.06h3.21a0,0,0,0,1,0,0v3.39a1.33,1.33,0,0,1-1.33,1.33h-.54a1.33,1.33,0,0,1-1.33-1.33v-3.39A0,0,0,0,1,1039.51,534.06Z"/><rect class="cls-35" x="1050.59" y="522.36" width="3.77" height="4.72"/><ellipse class="cls-33" cx="1052.48" cy="537.55" rx="1.65" ry="1.89"/><rect class="cls-25" x="1050.88" y="527.17" width="3.21" height="8.3"/><path class="cls-13" d="M1050.88,534.16h3.21a0,0,0,0,1,0,0v3.39a1.33,1.33,0,0,1-1.33,1.33h-.54a1.33,1.33,0,0,1-1.33-1.33v-3.39A0,0,0,0,1,1050.88,534.16Z"/><rect class="cls-54" x="1034.92" y="451.48" width="23.93" height="9.53"/><rect x="1036.22" y="452.46" width="21.33" height="7.58"/><circle class="cls-54" cx="1046.8" cy="473.49" r="6.07"/><ellipse class="cls-22" cx="1046.8" cy="473.49" rx="4.41" ry="4.42"/><circle class="cls-22" cx="1042" cy="471.41" r="0.48"/><circle class="cls-22" cx="1042.69" cy="470.11" r="0.48"/><circle class="cls-22" cx="1043.81" cy="469.08" r="0.48"/><circle class="cls-22" cx="1045.2" cy="468.37" r="0.48"/><circle class="cls-22" cx="1046.8" cy="468.11" r="0.48"/><circle class="cls-22" cx="1051.61" cy="471.41" r="0.48"/><circle class="cls-22" cx="1050.93" cy="470.11" r="0.48"/><circle class="cls-22" cx="1049.81" cy="469.08" r="0.48"/><circle class="cls-22" cx="1048.41" cy="468.37" r="0.48"/><rect class="cls-34" x="1046.56" y="469.58" width="0.48" height="1.07"/><polygon class="cls-71" points="1049.52 484.28 1041.69 494.69 1046.58 494.69 1044.22 502.04 1051.89 492 1047.07 492 1049.52 484.28"/><rect class="cls-70" x="717.31" y="237.86" width="51.69" height="63.75"/><path class="cls-37" d="M717.31,301.61H769a0,0,0,0,1,0,0v0a8.42,8.42,0,0,1-8.42,8.42H725.73a8.42,8.42,0,0,1-8.42-8.42v0A0,0,0,0,1,717.31,301.61Z"/><rect class="cls-36" x="731.21" y="310.04" width="23.55" height="3.83"/><path class="cls-37" d="M725.73,229.44h34.84a8.42,8.42,0,0,1,8.42,8.42v0a0,0,0,0,1,0,0H717.31a0,0,0,0,1,0,0v0A8.42,8.42,0,0,1,725.73,229.44Z"/><ellipse class="cls-33" cx="737.22" cy="329.18" rx="1.68" ry="1.91"/><rect class="cls-34" x="735.31" y="313.87" width="3.83" height="4.79"/><rect class="cls-25" x="735.59" y="318.65" width="3.25" height="8.42"/><path class="cls-13" d="M735.59,325.74h3.25a0,0,0,0,1,0,0v3.16a1.63,1.63,0,0,1-1.63,1.63h0a1.63,1.63,0,0,1-1.63-1.63v-3.16A0,0,0,0,1,735.59,325.74Z"/><rect class="cls-35" x="746.84" y="313.87" width="3.83" height="4.79"/><ellipse class="cls-33" cx="748.76" cy="329.28" rx="1.68" ry="1.91"/><rect class="cls-25" x="747.13" y="318.75" width="3.25" height="8.42"/><path class="cls-13" d="M747.13,325.83h3.25a0,0,0,0,1,0,0V329a1.63,1.63,0,0,1-1.63,1.63h0a1.63,1.63,0,0,1-1.63-1.63v-3.16A0,0,0,0,1,747.13,325.83Z"/><path class="cls-24" d="M751.73,295.66h-18a3.4,3.4,0,0,1-3.24-2.37l-3.57-11.18a3.41,3.41,0,0,1,3.25-4.44h25.12a3.41,3.41,0,0,1,3.25,4.44L755,293.29A3.4,3.4,0,0,1,751.73,295.66Z" transform="translate(1 -0.56)"/><rect class="cls-54" x="736.24" y="279.41" width="15.14" height="6.03"/><rect x="737.07" y="280.02" width="13.5" height="4.8"/><rect class="cls-13" x="729.75" y="280.79" width="4.79" height="2.79" rx="1.4"/><rect class="cls-13" x="732.72" y="289.29" width="3.19" height="1.86" rx="0.49"/><rect class="cls-13" x="737.52" y="289.29" width="3.19" height="1.86" rx="0.49"/><rect class="cls-13" x="742.33" y="289.29" width="3.19" height="1.86" rx="0.49"/><rect class="cls-13" x="747.13" y="289.29" width="3.19" height="1.86" rx="0.49"/><rect class="cls-13" x="751.93" y="289.29" width="3.19" height="1.86" rx="0.49"/><rect class="cls-13" x="752.92" y="280.79" width="4.79" height="2.79" rx="1.4"/><path class="cls-35" d="M743,247.42l-3.73,6a21.86,21.86,0,0,0-3.45,11.65h0c0,2.64,2.7,4.77,6,4.77h2c3.46,0,6.27-2.22,6.27-4.95v-1.21c0-3-.48-4.14-2.22-8.05a22,22,0,0,0-1.56-2.9Z" transform="translate(1 -0.56)"/><path class="cls-24" d="M738.79,256.72H740v2.51h2.79v-2.51h1.18V263h-1.18v-2.8H740V263h-1.17Z" transform="translate(1 -0.56)"/><path class="cls-24" d="M745,264.56v-.06a1.93,1.93,0,0,1,1.14-1.73c.55-.33.71-.43.71-.71a.43.43,0,0,0-.49-.46c-.32,0-.5.21-.55.54H745a1.32,1.32,0,0,1,1.43-1.23c1,0,1.36.65,1.36,1.12s-.28.83-1,1.19a2.07,2.07,0,0,0-.78.66h1.87l-.12.68Z" transform="translate(1 -0.56)"/></g></svg>