<svg id="Layer_1" data-name="Layer 1" xmlns="http://www.w3.org/2000/svg" viewBox="0 0 500 500"><defs><style>.cls-1{fill:#7cb8dd;}.cls-2{fill:#efefef;}.cls-3{fill:#b3b3b3;}.cls-4{fill:gray;}.cls-5{fill:#999;}.cls-6{fill:#ff1d25;}.cls-7{fill:#e6e6e6;}.cls-8{fill:#ccc;}.cls-9{fill:#3fa9f5;}.cls-10{fill:#666;}.cls-11{fill:#f2f2f2;}.cls-12{fill:#fff5ab;stroke:#666;stroke-miterlimit:10;stroke-width:3px;}</style></defs><rect class="cls-1" width="500" height="500"/><g id="ElectricBoiler"><rect class="cls-2" x="135.16" y="52.39" width="230.42" height="302.76"/><path class="cls-3" d="M135.16,355.44H365.58a0,0,0,0,1,0,0v0A37.55,37.55,0,0,1,328,393H172.71a37.55,37.55,0,0,1-37.55-37.55v0A0,0,0,0,1,135.16,355.44Z"/><rect class="cls-4" x="197.14" y="390.86" width="104.97" height="17.07"/><path class="cls-3" d="M172,14.84H327.29a37.55,37.55,0,0,1,37.55,37.55v0a0,0,0,0,1,0,0H134.42a0,0,0,0,1,0,0v0A37.55,37.55,0,0,1,172,14.84Z"/><ellipse class="cls-5" cx="223.92" cy="476.2" rx="7.47" ry="8.53"/><rect class="cls-6" x="215.38" y="407.93" width="17.07" height="21.34"/><rect class="cls-7" x="216.66" y="429.26" width="14.51" height="37.55"/><path class="cls-8" d="M216.66,460.84h14.51a0,0,0,0,1,0,0v20a1.33,1.33,0,0,1-1.33,1.33H218a1.33,1.33,0,0,1-1.33-1.33v-20A0,0,0,0,1,216.66,460.84Z"/><rect class="cls-9" x="266.8" y="407.93" width="17.07" height="21.34"/><ellipse class="cls-5" cx="275.34" cy="476.63" rx="7.47" ry="8.53"/><rect class="cls-7" x="268.08" y="429.69" width="14.51" height="37.55"/><path class="cls-8" d="M268.08,461.26h14.51a0,0,0,0,1,0,0v20a1.33,1.33,0,0,1-1.33,1.33H269.41a1.33,1.33,0,0,1-1.33-1.33v-20a0,0,0,0,1,0,0Z"/><rect class="cls-10" x="195.91" y="87.38" width="108.23" height="43.1"/><rect x="201.78" y="91.79" width="96.48" height="34.28"/><circle class="cls-10" cx="249.64" cy="186.89" r="27.43"/><ellipse class="cls-11" cx="249.64" cy="186.89" rx="19.92" ry="19.97"/><circle class="cls-11" cx="227.95" cy="177.49" r="2.16"/><circle class="cls-11" cx="231.04" cy="171.6" r="2.16"/><circle class="cls-11" cx="236.1" cy="166.97" r="2.16"/><circle class="cls-11" cx="242.42" cy="163.78" r="2.16"/><circle class="cls-11" cx="249.64" cy="162.56" r="2.16"/><circle class="cls-11" cx="271.41" cy="177.49" r="2.16"/><circle class="cls-11" cx="268.33" cy="171.6" r="2.16"/><circle class="cls-11" cx="263.26" cy="166.97" r="2.16"/><circle class="cls-11" cx="256.94" cy="163.78" r="2.16"/><rect class="cls-6" x="248.57" y="169.22" width="2.16" height="4.86"/><polygon class="cls-12" points="261.95 235.72 226.54 282.76 248.65 282.76 237.98 316.03 272.65 270.61 250.86 270.61 261.95 235.72"/></g></svg>