<svg id="Layer_1" data-name="Layer 1" xmlns="http://www.w3.org/2000/svg" viewBox="0 0 500 500"><defs><style>.cls-1{fill:#7cb8dd;}.cls-2{fill:#4d4d4d;}.cls-3{fill:#999;}.cls-4{fill:#666;}.cls-5{fill:#f2f2f2;}.cls-6{fill:#ccc;}</style></defs><rect class="cls-1" width="500" height="500"/><g id="EvacuatedTubes"><path class="cls-2" d="M122.83,479.27A22.88,22.88,0,0,1,100,456.39V44.51a22.88,22.88,0,0,1,45.76,0V456.39A22.88,22.88,0,0,1,122.83,479.27Z"/><ellipse class="cls-3" cx="132.19" cy="247.61" rx="5.62" ry="211.62"/><ellipse class="cls-4" cx="122.65" cy="463.04" rx="22.88" ry="16.01"/><path class="cls-2" d="M187.65,479.27a22.88,22.88,0,0,1-22.88-22.88V44.51a22.88,22.88,0,1,1,45.76,0V456.39A22.88,22.88,0,0,1,187.65,479.27Z"/><ellipse class="cls-3" cx="197.01" cy="247.61" rx="5.62" ry="211.62"/><ellipse class="cls-4" cx="187.47" cy="463.04" rx="22.88" ry="16.01"/><path class="cls-2" d="M252.47,479.27a22.88,22.88,0,0,1-22.88-22.88V44.51a22.88,22.88,0,0,1,45.76,0V456.39A22.88,22.88,0,0,1,252.47,479.27Z"/><ellipse class="cls-3" cx="261.84" cy="247.61" rx="5.62" ry="211.62"/><ellipse class="cls-4" cx="252.29" cy="463.04" rx="22.88" ry="16.01"/><path class="cls-2" d="M317.29,479.27a22.87,22.87,0,0,1-22.87-22.88V44.51a22.88,22.88,0,1,1,45.75,0V456.39A22.88,22.88,0,0,1,317.29,479.27Z"/><ellipse class="cls-3" cx="326.66" cy="247.61" rx="5.62" ry="211.62"/><ellipse class="cls-4" cx="317.11" cy="463.04" rx="22.88" ry="16.01"/><path class="cls-2" d="M382.11,479.27a22.87,22.87,0,0,1-22.87-22.88V44.51a22.88,22.88,0,1,1,45.75,0V456.39A22.88,22.88,0,0,1,382.11,479.27Z"/><ellipse class="cls-3" cx="391.48" cy="247.61" rx="5.62" ry="211.62"/><ellipse class="cls-4" cx="381.93" cy="463.04" rx="22.88" ry="16.01"/><rect class="cls-5" x="78.42" y="409.66" width="343.17" height="15.25"/><rect class="cls-5" x="83.81" y="20.73" width="340" height="30.5"/><rect class="cls-6" x="83.71" y="49.99" width="340" height="8"/><rect class="cls-6" x="78.71" y="423.99" width="343" height="4"/></g></svg>