<svg id="Layer_1" data-name="Layer 1" xmlns="http://www.w3.org/2000/svg" viewBox="0 0 177.84 271.71"><defs><style>.cls-1{fill:#00a99d;}.cls-2{fill:#fff;}.cls-3{fill:#006977;}</style></defs><path class="cls-1" d="M672.6,517.87c63.29,3.83,108.87-60.76,83-118.65-.28-.63-.56-1.25-.86-1.88-11-23.47-27.16-43.8-41.63-65.16-16.59-24.5-33-49.36-28.75-82.63a2.85,2.85,0,0,0-4.47-2.7c-32.84,23.42-35.83,75.11-25.28,115.53a1.67,1.67,0,0,1-2.86,1.54c-8-8.71-19-27.11-26.72-33.17-5.19-4.07-11-6.9-9.95,2.29,3.45,28.79-13.31,50.53-23.84,74.73a76.08,76.08,0,0,0-4,47.82c8.08,34.59,38.44,59.43,73.88,61.58Z" transform="translate(-585.16 -246.32)"/><path class="cls-2" d="M610.49,408.85c-14.12,7.7-17.57,55.44-3.31,59.56,25.15,7.28,42.36-9.92,68.83-9.92,30.44,0,35.74,11.91,59.56,7.28,17.68-3.44,19.27-66.85,2.65-66.85-28.46,0-38.38,21.84-68.83,22.5C647.24,421.91,625.05,400.91,610.49,408.85Z" transform="translate(-585.16 -246.32)"/><path class="cls-3" d="M621.21,429.35a8,8,0,0,0-9.41,3.84c-2.18,4.06-4.15,9.2-1.66,11.27,4.41,3.68,45.54,1.47,41.87-2.93C649.32,438.3,630.9,432.33,621.21,429.35Z" transform="translate(-585.16 -246.32)"/><path class="cls-3" d="M737.88,430.58a4.58,4.58,0,0,1-1.75,5.59c-9.64,6.13-37.44,5-38.56,2.5-1-2.18,20.49-12.06,30.47-16.52a5.57,5.57,0,0,1,7.3,2.74C736.27,426.9,737.27,429.09,737.88,430.58Z" transform="translate(-585.16 -246.32)"/></svg>