<svg id="Layer_1" data-name="Layer 1" xmlns="http://www.w3.org/2000/svg" xmlns:xlink="http://www.w3.org/1999/xlink" viewBox="0 0 500 500"><defs><style>.cls-1{fill:#7cb8dd;}.cls-2{fill:#603813;}.cls-3{fill:url(#linear-gradient);}.cls-4{fill:#42210b;}.cls-5{fill:#4c230c;}</style><linearGradient id="linear-gradient" x1="270.66" y1="422.12" x2="270.66" y2="94.35" gradientUnits="userSpaceOnUse"><stop offset="0" stop-color="#3fa9f5"/><stop offset="1" stop-color="#ed1c24"/></linearGradient></defs><rect class="cls-1" width="500" height="500"/><g id="GSHP"><rect class="cls-2" x="54" y="54" width="392" height="392"/><polygon class="cls-3" points="123.18 122.35 123.18 153.81 397.41 153.81 397.41 242.51 123.18 242.51 123.18 275.53 397.41 275.53 397.41 362.25 123.18 362.25 123.18 393.29 444.49 393.29 444.49 422.12 96.82 422.12 96.82 333.42 371.06 333.42 371.06 302.38 96.82 302.38 96.82 213.68 371.06 213.68 371.06 182.63 96.82 182.63 96.82 94.35 444.49 94.35 444.49 122.35 123.18 122.35"/><rect class="cls-4" x="54" y="54" width="390.35" height="17.29"/><rect class="cls-5" x="54" y="71.29" width="9.88" height="374.71"/></g></svg>