<svg xmlns="http://www.w3.org/2000/svg" viewBox="0 0 500 500"><defs><style>.cls-1{fill:#024557;}.cls-2{fill:#fff;}</style></defs><g id="Layer_5" data-name="Layer 5"><rect class="cls-1" width="500" height="500"/><path class="cls-2" d="M390.6,323.52a79,79,0,0,0-54-41.33c10,2.91,16.32,15.9,11.43,25.36-5.36,10.38-22,12.21-29.47,3.25-5.44-6.51-5.54-16.11-3-24.19s7.43-15.2,11.25-22.77c14.71-29.19,13-66-4.27-93.74-11.51-18.44-28.84-32.33-45.32-46.51S244.39,94,235.86,74s-7.27-45.7,8.51-60.65c-18.32,6-27.18,28-25.35,47.17s11.61,36.56,19.91,54,15.44,36.74,11.56,55.63-23,35.74-41.56,30.46c-11.63-3.31-19.83-14.23-23.23-25.84s-2.82-24-2.2-36a123.86,123.86,0,0,0-4.57,99.13c5,12.73,12.06,24.63,16,37.73s4.2,28.29-3.77,39.4-26,15.11-35.58,5.33c-6.09-6.24-7.07-16.33-3.8-24.41C156,285.52,170,278,170,278c-27.32,8.18-45.75,29.72-58.08,53.51s-14.93,53.47-3,77.48c24,48.4,92.07,69.18,115.51,75.52-22.93-20.09-31.79-36.3-39.17-52.33-6.73-14.61-9.34-34.45,4-43.4-5.51,11.13-1.53,23.36,8.36,31.79,8.57,7.32,22.86,10,29.58.94,4.53-6.09,3.87-14.64,1.46-21.84s-6.31-13.92-7.8-21.36c-3.08-15.45,4.77-31,14.31-43.54s21.16-23.81,27.61-38.18S268.91,263,256.74,253c16.17,4.3,24.53,23.11,23.85,39.83s-7.91,32.36-12.53,48.45-6.28,34.62,3.11,48.47C280.8,404,301.71,409.12,316.84,401s22.34-28.44,15.76-44.31c14.33,21.19,15.82,97.07-44.58,130,41.38-12.63,58.26-23.44,83.36-52.17S407.65,357.65,390.6,323.52Z"/></g></svg>