<svg id="Layer_1" data-name="Layer 1" xmlns="http://www.w3.org/2000/svg" viewBox="0 0 500 500"><defs><style>.cls-1{fill:#024557;}</style></defs><path class="cls-1" d="M390.26,323.57a79,79,0,0,0-54-41.34c10,2.91,16.31,15.9,11.42,25.36-5.36,10.38-22,12.21-29.47,3.25-5.44-6.51-5.54-16.11-3-24.19s7.43-15.2,11.25-22.77c14.71-29.19,13-66-4.28-93.73-11.5-18.44-28.84-32.34-45.31-46.52S244.06,94,235.53,74s-7.27-45.69,8.5-60.65c-18.32,6-27.17,28-25.34,47.17s11.61,36.56,19.91,54,15.44,36.73,11.55,55.63-23,35.73-41.55,30.45c-11.63-3.31-19.83-14.23-23.23-25.84s-2.82-23.94-2.21-36a123.9,123.9,0,0,0-4.56,99.13c5,12.73,12.06,24.63,16,37.73s4.21,28.29-3.76,39.4-26,15.11-35.58,5.33c-6.1-6.24-7.08-16.33-3.81-24.41,4.19-10.34,18.26-17.92,18.26-17.92-27.32,8.19-45.74,29.72-58.07,53.51S96.69,385,108.59,409c24,48.4,92.07,69.19,115.51,75.52-22.93-20.09-31.79-36.29-39.18-52.33-6.73-14.61-9.34-34.45,4-43.4-5.51,11.13-1.54,23.36,8.35,31.8,8.58,7.31,22.86,10,29.59.94,4.53-6.1,3.86-14.65,1.46-21.85s-6.31-13.92-7.8-21.36c-3.09-15.45,4.76-31,14.31-43.54S256,311,262.47,296.58s6.11-33.53-6.07-43.52c16.18,4.29,24.53,23.11,23.85,39.82s-7.9,32.37-12.52,48.45-6.28,34.62,3.1,48.47c9.64,14.23,30.55,19.36,45.68,11.21s22.34-28.44,15.75-44.31c14.34,21.19,15.82,97.07-44.57,130,41.37-12.64,58.25-23.45,83.36-52.18S407.32,357.7,390.26,323.57Z"/></svg>