<svg id="Layer_1" data-name="Layer 1" xmlns="http://www.w3.org/2000/svg" viewBox="0 0 500 500"><defs><style>.cls-1{fill:#024557;}</style></defs><path class="cls-1" d="M193.79,127.86a10.4,10.4,0,0,0-7-11.15l-2.68-.91a14.61,14.61,0,0,1-9.67-11.24l0-.18a14.68,14.68,0,0,1,5-14l2.18-1.81A10.41,10.41,0,0,0,184,75.64l-.09-.17a10.4,10.4,0,0,0-12.22-4.89l-2.72.85A14.67,14.67,0,0,1,154.56,68l-.12-.12a14.64,14.64,0,0,1-4.19-14.22l.7-2.78A10.38,10.38,0,0,0,145.39,39l-.16-.08a10.41,10.41,0,0,0-12.78,3.21l-1.72,2.3a14.6,14.6,0,0,1-13.68,5.73h-.17a14.65,14.65,0,0,1-11.76-9l-1.07-2.67A10.41,10.41,0,0,0,92.52,32l-.17,0a10.41,10.41,0,0,0-8.44,10.11l0,2.87a14.64,14.64,0,0,1-7.7,12.67l-.15.08a14.63,14.63,0,0,1-14.84-.39l-2.41-1.52a10.41,10.41,0,0,0-13.07,1.6l-.13.14a10.4,10.4,0,0,0-.89,13.15l1.64,2.31a14.67,14.67,0,0,1,1.21,14.8l-.08.16A14.62,14.62,0,0,1,35.23,96.4l-2.82.2a10.39,10.39,0,0,0-9.63,9l0,.09v.1a10.4,10.4,0,0,0,7,11.15l2.68.91a14.61,14.61,0,0,1,9.67,11.23l0,.19a14.63,14.63,0,0,1-5,14L35,145.05A10.41,10.41,0,0,0,32.5,158l.09.16a10.39,10.39,0,0,0,12.22,4.9l2.72-.85A14.67,14.67,0,0,1,62,165.62l.13.12A14.66,14.66,0,0,1,66.29,180l-.7,2.78a10.4,10.4,0,0,0,5.57,11.93l.15.08a10.41,10.41,0,0,0,12.78-3.21l1.72-2.31a14.64,14.64,0,0,1,13.69-5.72h.17a14.65,14.65,0,0,1,11.76,9l1.06,2.67A10.42,10.42,0,0,0,124,201.62l.17,0a10.39,10.39,0,0,0,8.43-10.1l0-2.87a14.61,14.61,0,0,1,7.69-12.67l.15-.09a14.66,14.66,0,0,1,14.84.4l2.42,1.52a10.39,10.39,0,0,0,13.06-1.6L171,176a10.4,10.4,0,0,0,.89-13.15l-1.64-2.31a14.67,14.67,0,0,1-1.21-14.8l.08-.16a14.65,14.65,0,0,1,12.23-8.39l2.83-.19a10.4,10.4,0,0,0,9.63-9v-.19ZM136,83.87a9.18,9.18,0,1,1-1.68,12.88A9.18,9.18,0,0,1,136,83.87ZM114.9,66a9.18,9.18,0,1,1-10.3,7.92A9.18,9.18,0,0,1,114.9,66ZM77,76.17a9.18,9.18,0,1,1-1.68,12.89A9.19,9.19,0,0,1,77,76.17ZM65.34,120.49a9.19,9.19,0,1,1,10.3-7.93A9.2,9.2,0,0,1,65.34,120.49Zm15.17,29.27a9.18,9.18,0,1,1,1.68-12.88A9.18,9.18,0,0,1,80.51,149.76Zm21.14,17.9a9.18,9.18,0,1,1,10.29-7.92A9.19,9.19,0,0,1,101.65,167.66ZM105,142a25.39,25.39,0,1,1,28.46-21.89A25.4,25.4,0,0,1,105,142Zm34.55,15.47a9.19,9.19,0,1,1,1.68-12.89A9.19,9.19,0,0,1,139.54,157.46Zm9.28-26.1a9.19,9.19,0,1,1,10.3-7.92A9.18,9.18,0,0,1,148.82,131.36Z"/><path class="cls-1" d="M105.09,141.23A24.62,24.62,0,1,1,132.69,120,24.66,24.66,0,0,1,105.09,141.23ZM110.85,97a20,20,0,1,0,17.24,22.41A20,20,0,0,0,110.85,97Z"/><path class="cls-1" d="M171.77,395.37a40.86,40.86,0,1,1,40.86-40.86A40.91,40.91,0,0,1,171.77,395.37Zm0-72.34a31.48,31.48,0,1,0,31.48,31.48A31.51,31.51,0,0,0,171.77,323Z"/><path class="cls-1" d="M287.55,366.19q.57-5.76.58-11.68t-.58-11.69l-14.49-2.89a19.74,19.74,0,0,1-14.9-13.35,2.09,2.09,0,0,1-.08-.23,19.77,19.77,0,0,1,4.2-19.59l10-10.86A116.38,116.38,0,0,0,258.56,277l-13.43,6.18a19.78,19.78,0,0,1-19.93-2.06L225,281a19.74,19.74,0,0,1-8.08-18.29L218.66,248a115.24,115.24,0,0,0-22.22-7.22l-7.24,12.92a19.76,19.76,0,0,1-17.32,10.05h-.23a19.76,19.76,0,0,1-17.31-10.05l-7.24-12.92A115.24,115.24,0,0,0,124.88,248l1.73,14.71A19.76,19.76,0,0,1,118.53,281l-.19.14a19.78,19.78,0,0,1-19.93,2.06L85,277A116.38,116.38,0,0,0,71.23,295.9l10,10.86a19.82,19.82,0,0,1,4.2,19.59l-.08.23a19.74,19.74,0,0,1-14.9,13.35L56,342.82q-.57,5.78-.58,11.69T56,366.19l14.49,2.89a19.76,19.76,0,0,1,14.9,13.35c0,.08.05.16.08.24a19.8,19.8,0,0,1-4.2,19.58l-10,10.86A116,116,0,0,0,85,432l13.43-6.18a19.78,19.78,0,0,1,19.93,2.06l.19.13a19.78,19.78,0,0,1,8.08,18.3L124.88,461a115.21,115.21,0,0,0,22.22,7.21l7.24-12.91a19.76,19.76,0,0,1,17.31-10.05h.23a19.76,19.76,0,0,1,17.32,10.05l7.24,12.91A115.21,115.21,0,0,0,218.66,461l-1.73-14.71A19.76,19.76,0,0,1,225,428l.19-.13a19.78,19.78,0,0,1,19.93-2.06L258.56,432a116,116,0,0,0,13.75-18.9l-10-10.86a19.76,19.76,0,0,1-4.2-19.58l.08-.24a19.76,19.76,0,0,1,14.9-13.35ZM171.77,414.53a60,60,0,1,1,60-60A60,60,0,0,1,171.77,414.53Z"/><path class="cls-1" d="M324.22,138a84.19,84.19,0,1,1-49.57,152.19c.67,1.08,1.34,2.15,2,3.24l1.87,3.2-9.31,10.08a100.78,100.78,0,1,0-28-27.3,14.22,14.22,0,0,0,1.88-.71l13.66-6.28A84.15,84.15,0,0,1,324.22,138ZM475.73,239a151.76,151.76,0,0,0,0-33.73L455.26,203a131.85,131.85,0,0,0-4.66-20.53l17.47-10.91a151.75,151.75,0,0,0-14.65-30.38L434,148.06a133.74,133.74,0,0,0-13.14-16.44l11-17.42a153,153,0,0,0-26.36-21L391,107.76a132.07,132.07,0,0,0-19-9.15l2.37-20.47a151.5,151.5,0,0,0-32.89-7.47l-6.75,19.46q-5.21-.41-10.52-.41t-10.53.41l-6.75-19.46a151.41,151.41,0,0,0-32.88,7.47l2.36,20.47a133.1,133.1,0,0,0-19,9.15l-14.52-14.6a152.22,152.22,0,0,0-26.36,21l11,17.42a131.88,131.88,0,0,0-13.14,16.44L195,141.2a151.75,151.75,0,0,0-14.65,30.38l17.47,10.91A131.87,131.87,0,0,0,193.17,203l-20.47,2.25a153.38,153.38,0,0,0,0,33.73l17.9,2,3.29-5.86,3.61.78a121.18,121.18,0,0,1,23.18,7.53l1.85.81A104,104,0,1,1,267,309l-1,1.11a14.81,14.81,0,0,0-3.12,14.65l.08.25A14.76,14.76,0,0,0,274,335l18.11,3.62.37,3.68c.4,4,.6,8.12.6,12.18s-.2,8.15-.6,12.18l-.37,3.68-2,.39a151.86,151.86,0,0,0,16.76,2.85l6.75-19.47q5.22.42,10.53.42t10.52-.42l6.75,19.47a152.1,152.1,0,0,0,32.89-7.48L372,345.66a131,131,0,0,0,19-9.15l14.53,14.61a153.94,153.94,0,0,0,26.36-21l-11-17.42A134.5,134.5,0,0,0,434,296.22l19.42,6.85a151.66,151.66,0,0,0,14.65-30.37L450.6,261.79a132,132,0,0,0,4.66-20.54ZM221.89,263.28A14.8,14.8,0,0,0,228,277l.19.14A14.89,14.89,0,0,0,237,280c.26,0,.51,0,.76,0a103.69,103.69,0,0,1-14.11-31.23Z"/></svg>