<svg xmlns="http://www.w3.org/2000/svg" viewBox="0 0 500 500"><defs><style>.cls-1{fill:#024557;}.cls-2{fill:#fff;}</style></defs><g id="Layer_5" data-name="Layer 5"><rect class="cls-1" width="500" height="500"/><path class="cls-2" d="M194.12,127.82a10.4,10.4,0,0,0-7-11.15l-2.68-.91a14.62,14.62,0,0,1-9.68-11.24l0-.18a14.67,14.67,0,0,1,5-14l2.18-1.82a10.38,10.38,0,0,0,2.5-12.93l-.09-.17a10.39,10.39,0,0,0-12.21-4.89l-2.73.85A14.65,14.65,0,0,1,154.9,68l-.13-.12a14.66,14.66,0,0,1-4.19-14.22l.7-2.78a10.4,10.4,0,0,0-5.56-11.94l-.16-.07a10.4,10.4,0,0,0-12.78,3.21l-1.71,2.3a14.67,14.67,0,0,1-13.69,5.73h-.17a14.65,14.65,0,0,1-11.76-9l-1.07-2.67A10.41,10.41,0,0,0,92.85,32l-.17,0a10.41,10.41,0,0,0-8.44,10.11l0,2.87a14.66,14.66,0,0,1-7.69,12.67l-.15.08a14.65,14.65,0,0,1-14.85-.39l-2.41-1.52a10.39,10.39,0,0,0-13.06,1.6l-.13.14A10.38,10.38,0,0,0,45,70.7L46.66,73a14.65,14.65,0,0,1,1.21,14.79L47.8,88a14.63,14.63,0,0,1-12.23,8.38l-2.83.19a10.4,10.4,0,0,0-9.63,9v.19a10.4,10.4,0,0,0,7,11.15l2.68.91A14.63,14.63,0,0,1,42.45,129l0,.18a14.67,14.67,0,0,1-5,14L35.34,145A10.41,10.41,0,0,0,32.83,158l.09.16A10.4,10.4,0,0,0,45.14,163l2.72-.85a14.66,14.66,0,0,1,14.45,3.42l.13.12a14.66,14.66,0,0,1,4.19,14.22l-.7,2.78a10.39,10.39,0,0,0,5.56,11.93l.16.08a10.4,10.4,0,0,0,12.78-3.22l1.71-2.3a14.64,14.64,0,0,1,13.69-5.72H100a14.65,14.65,0,0,1,11.76,9l1.07,2.66a10.38,10.38,0,0,0,11.53,6.38l.17,0A10.4,10.4,0,0,0,133,191.43l0-2.86a14.65,14.65,0,0,1,7.69-12.67l.15-.09a14.68,14.68,0,0,1,14.85.4l2.41,1.52a10.41,10.41,0,0,0,13.06-1.6l.13-.14a10.39,10.39,0,0,0,.9-13.15l-1.64-2.31a14.7,14.7,0,0,1-1.22-14.8l.08-.16a14.64,14.64,0,0,1,12.23-8.39l2.83-.19a10.4,10.4,0,0,0,9.63-9v-.19Zm-57.76-44a9.19,9.19,0,1,1-1.68,12.89A9.2,9.2,0,0,1,136.36,83.82Zm-21.13-17.9a9.19,9.19,0,1,1-10.3,7.93A9.19,9.19,0,0,1,115.23,65.92ZM77.33,76.13A9.19,9.19,0,1,1,75.66,89,9.2,9.2,0,0,1,77.33,76.13ZM65.68,120.44A9.18,9.18,0,1,1,76,112.52,9.17,9.17,0,0,1,65.68,120.44Zm15.17,29.28a9.19,9.19,0,1,1,1.68-12.88A9.19,9.19,0,0,1,80.85,149.72ZM102,167.62a9.19,9.19,0,1,1,10.3-7.92A9.17,9.17,0,0,1,102,167.62ZM105.32,142a25.39,25.39,0,1,1,28.46-21.9A25.38,25.38,0,0,1,105.32,142Zm34.56,15.46a9.19,9.19,0,1,1,1.67-12.88A9.18,9.18,0,0,1,139.88,157.41Zm9.28-26.09a9.19,9.19,0,1,1,10.29-7.92A9.18,9.18,0,0,1,149.16,131.32Z"/><path class="cls-2" d="M105.42,141.19A24.62,24.62,0,1,1,133,120,24.65,24.65,0,0,1,105.42,141.19ZM111.19,97a20,20,0,1,0,17.24,22.41A20,20,0,0,0,111.19,97Z"/><path class="cls-2" d="M172.1,395.33A40.86,40.86,0,1,1,213,354.47,40.91,40.91,0,0,1,172.1,395.33Zm0-72.34a31.48,31.48,0,1,0,31.48,31.48A31.51,31.51,0,0,0,172.1,323Z"/><path class="cls-2" d="M287.88,366.15q.57-5.76.58-11.68t-.58-11.69l-14.49-2.89a19.74,19.74,0,0,1-14.9-13.35c0-.08-.05-.16-.08-.23a19.8,19.8,0,0,1,4.21-19.59l10-10.86A116.38,116.38,0,0,0,258.89,277l-13.43,6.18a19.78,19.78,0,0,1-19.93-2.06l-.18-.14a19.76,19.76,0,0,1-8.09-18.29L219,248a115.24,115.24,0,0,0-22.22-7.22l-7.24,12.92a19.78,19.78,0,0,1-17.31,10H172a19.78,19.78,0,0,1-17.32-10l-7.24-12.92A115.46,115.46,0,0,0,125.21,248l1.73,14.71A19.75,19.75,0,0,1,118.86,281l-.19.14a19.78,19.78,0,0,1-19.93,2.06L85.31,277a117,117,0,0,0-13.75,18.89l10,10.86a19.77,19.77,0,0,1,4.2,19.59c0,.07-.05.15-.07.23a19.77,19.77,0,0,1-14.91,13.35l-14.48,2.89a118,118,0,0,0,0,23.37L70.81,369a19.77,19.77,0,0,1,14.91,13.35c0,.08,0,.16.07.24a19.76,19.76,0,0,1-4.2,19.58l-10,10.86A117.06,117.06,0,0,0,85.31,432l13.43-6.18a19.78,19.78,0,0,1,19.93,2.06l.19.13a19.76,19.76,0,0,1,8.08,18.3L125.21,461a115.43,115.43,0,0,0,22.22,7.21l7.24-12.91A19.76,19.76,0,0,1,172,445.24h.23a19.76,19.76,0,0,1,17.31,10.05l7.24,12.91A115.21,115.21,0,0,0,219,461l-1.73-14.71a19.77,19.77,0,0,1,8.09-18.3l.18-.13a19.78,19.78,0,0,1,19.93-2.06L258.89,432a116.46,116.46,0,0,0,13.75-18.9l-10-10.86a19.78,19.78,0,0,1-4.21-19.58l.08-.24A19.74,19.74,0,0,1,273.39,369ZM172.1,414.49a60,60,0,1,1,60-60A60,60,0,0,1,172.1,414.49Z"/><path class="cls-2" d="M324.55,137.91A84.19,84.19,0,1,1,275,290.1c.67,1.07,1.33,2.15,2,3.24l1.86,3.19-9.31,10.09a100.78,100.78,0,1,0-28-27.3,15.77,15.77,0,0,0,1.88-.71L257,272.32a84.14,84.14,0,0,1,67.52-134.41ZM476.07,239a153.38,153.38,0,0,0,0-33.73L455.59,203a130.46,130.46,0,0,0-4.66-20.53l17.47-10.92a151.93,151.93,0,0,0-14.65-30.37L434.33,148a132.72,132.72,0,0,0-13.14-16.45l11-17.42a152.64,152.64,0,0,0-26.36-21l-14.52,14.6a132,132,0,0,0-19-9.15l2.36-20.47a151.55,151.55,0,0,0-32.88-7.47l-6.75,19.46c-3.48-.27-7-.42-10.53-.42s-7.05.15-10.52.42l-6.75-19.46a151.5,151.5,0,0,0-32.89,7.47l2.36,20.47a131.41,131.41,0,0,0-19,9.15l-14.53-14.6a153,153,0,0,0-26.36,21l11,17.42A134.6,134.6,0,0,0,214.77,148l-19.42-6.86a151.93,151.93,0,0,0-14.65,30.37l17.47,10.92A131.59,131.59,0,0,0,193.51,203L173,205.23A151.76,151.76,0,0,0,173,239l17.9,2,3.28-5.86,3.61.78A120.48,120.48,0,0,1,221,243.38l1.85.81A104.1,104.1,0,1,1,267.32,309l-1,1.12a14.81,14.81,0,0,0-3.13,14.65l.08.25a14.79,14.79,0,0,0,11.13,10l18.11,3.62.37,3.68c.4,4,.6,8.12.6,12.18s-.2,8.15-.6,12.18l-.37,3.68-2,.39a153.84,153.84,0,0,0,16.76,2.85L314,354.1q5.21.42,10.52.42t10.53-.42l6.75,19.47a152.15,152.15,0,0,0,32.88-7.48l-2.36-20.47a132,132,0,0,0,19-9.15l14.52,14.61a153.17,153.17,0,0,0,26.36-21l-11-17.42a132.62,132.62,0,0,0,13.14-16.44L453.75,303a151.66,151.66,0,0,0,14.65-30.37l-17.47-10.91a130.84,130.84,0,0,0,4.66-20.54ZM222.22,263.24a14.8,14.8,0,0,0,6.06,13.67l.19.14a14.9,14.9,0,0,0,8.82,2.89l.75,0a103.42,103.42,0,0,1-14.1-31.23Z"/></g></svg>