<svg id="Layer_1" data-name="Layer 1" xmlns="http://www.w3.org/2000/svg" viewBox="0 0 500 500"><defs><style>.cls-1{fill:#7cb8dd;}.cls-2{fill:#efefef;}.cls-3{fill:#b3b3b3;}.cls-4{fill:gray;}.cls-5{fill:#999;}.cls-6{fill:#ff1d25;}.cls-7{fill:#e6e6e6;}.cls-8{fill:#ccc;}.cls-9{fill:#3fa9f5;}.cls-10{fill:#fff;}.cls-11{fill:#666;}</style></defs><rect class="cls-1" width="500" height="500"/><rect class="cls-1" width="500" height="500"/><g id="Hydrogen_Boiler" data-name="Hydrogen Boiler"><rect class="cls-2" x="133.76" y="59.06" width="232.48" height="286.73"/><path class="cls-3" d="M133.76,345.79H366.24a0,0,0,0,1,0,0v0a37.89,37.89,0,0,1-37.89,37.89H171.64a37.89,37.89,0,0,1-37.89-37.89v0A0,0,0,0,1,133.76,345.79Z"/><rect class="cls-4" x="196.29" y="383.68" width="105.91" height="17.22"/><path class="cls-3" d="M171.64,21.18H328.36a37.89,37.89,0,0,1,37.89,37.89v0a0,0,0,0,1,0,0H133.76a0,0,0,0,1,0,0v0A37.89,37.89,0,0,1,171.64,21.18Z"/><ellipse class="cls-5" cx="223.31" cy="469.78" rx="7.53" ry="8.61"/><rect class="cls-6" x="214.7" y="400.9" width="17.22" height="21.53"/><rect class="cls-7" x="215.99" y="422.43" width="14.64" height="37.89"/><path class="cls-8" d="M216,454.28h14.64a0,0,0,0,1,0,0v19.9a1.63,1.63,0,0,1-1.63,1.63H217.62a1.63,1.63,0,0,1-1.63-1.63v-19.9A0,0,0,0,1,216,454.28Z"/><rect class="cls-9" x="266.58" y="400.9" width="17.22" height="21.53"/><ellipse class="cls-5" cx="275.19" cy="470.21" rx="7.53" ry="8.61"/><rect class="cls-7" x="267.87" y="422.86" width="14.64" height="37.89"/><path class="cls-8" d="M267.87,454.71H282.5a0,0,0,0,1,0,0v19.9a1.63,1.63,0,0,1-1.63,1.63H269.49a1.63,1.63,0,0,1-1.63-1.63v-19.9A0,0,0,0,1,267.87,454.71Z"/><path class="cls-10" d="M293.05,316.52H212.12a15.35,15.35,0,0,1-14.61-10.67l-16-50.28a15.33,15.33,0,0,1,14.61-20h113a15.34,15.34,0,0,1,14.61,20l-16.05,50.28A15.33,15.33,0,0,1,293.05,316.52Z"/><rect class="cls-11" x="218.91" y="245.91" width="68.12" height="27.12"/><rect x="222.61" y="248.68" width="60.72" height="21.58"/><rect class="cls-8" x="189.73" y="252.11" width="21.53" height="12.57" rx="1.4"/><rect class="cls-8" x="203.07" y="290.37" width="14.35" height="8.38" rx="0.49"/><rect class="cls-8" x="224.67" y="290.37" width="14.35" height="8.38" rx="0.49"/><rect class="cls-8" x="246.27" y="290.37" width="14.35" height="8.38" rx="0.49"/><rect class="cls-8" x="267.87" y="290.37" width="14.35" height="8.38" rx="0.49"/><rect class="cls-8" x="289.46" y="290.37" width="14.35" height="8.38" rx="0.49"/><rect class="cls-8" x="293.91" y="252.11" width="21.53" height="12.57" rx="1.4"/><path class="cls-9" d="M254,99.53l-16.81,26.88a98.54,98.54,0,0,0-15.5,52.43h0c0,11.84,12.14,21.43,27.11,21.43H258c15.56,0,28.18-10,28.18-22.27v-5.44c0-13.34-2.16-18.59-10-36.19a97.87,97.87,0,0,0-7-13Z"/><path class="cls-10" d="M234.84,141.39h5.3v11.29h12.53V141.39H258v28.27h-5.3V157.07H240.14v12.59h-5.3Z"/><path class="cls-10" d="M262.72,176.64v-.28c0-3.17,1.4-5.55,5.1-7.79,2.49-1.49,3.22-1.92,3.22-3.19a1.93,1.93,0,0,0-2.2-2.07c-1.45,0-2.27.94-2.51,2.44l-3.75,0c.22-3.14,2.59-5.53,6.42-5.53,4.7,0,6.13,3,6.13,5,0,2.61-1.27,3.75-4.3,5.36-1.28.73-3,1.92-3.48,3h8.4l-.54,3Z"/></g></svg>