<svg id="Layer_1" data-name="Layer 1" xmlns="http://www.w3.org/2000/svg" viewBox="0 0 500 500"><defs><style>.cls-1{fill:#7cb8dd;}.cls-2{fill:#999;}.cls-3{fill:#ff1d25;}.cls-4{fill:#e6e6e6;}.cls-5{fill:#ccc;}.cls-6{fill:#3fa9f5;}.cls-7{fill:gray;}.cls-8{fill:#fff;}</style></defs><rect class="cls-1" width="500" height="500"/><g id="HydrogenFuelCell"><ellipse class="cls-2" cx="10.95" cy="272.81" rx="7.57" ry="6.62"/><rect class="cls-3" x="54.48" y="263.34" width="15.14" height="18.93" transform="translate(-210.75 334.86) rotate(-90)"/><rect class="cls-4" x="29.5" y="256.15" width="12.87" height="33.31" transform="translate(-236.87 308.74) rotate(-90)"/><path class="cls-5" d="M10.38,263.34h9.47a1.7,1.7,0,0,1,1.7,1.7v17.23a0,0,0,0,1,0,0H8.68a0,0,0,0,1,0,0V265A1.7,1.7,0,0,1,10.38,263.34Z" transform="translate(-257.69 287.92) rotate(-90)"/><rect class="cls-6" x="54.48" y="217.73" width="15.14" height="18.93" transform="translate(-165.14 289.25) rotate(-90)"/><ellipse class="cls-2" cx="10.57" cy="227.19" rx="7.57" ry="6.62"/><rect class="cls-4" x="29.12" y="210.54" width="12.87" height="33.31" transform="translate(-191.64 262.75) rotate(-90)"/><path class="cls-5" d="M10,217.73h9.47a1.7,1.7,0,0,1,1.7,1.7v17.23a0,0,0,0,1,0,0H8.3a0,0,0,0,1,0,0V219.43A1.7,1.7,0,0,1,10,217.73Z" transform="translate(-212.46 241.93) rotate(-90)"/><rect class="cls-7" x="32.53" y="242.43" width="93.12" height="15.14" transform="translate(-170.91 329.09) rotate(-90)"/><ellipse class="cls-2" cx="489.05" cy="272.81" rx="7.57" ry="6.62"/><rect class="cls-3" x="430.38" y="263.34" width="15.14" height="18.93" transform="translate(165.14 710.75) rotate(-90)"/><rect class="cls-4" x="457.63" y="256.15" width="12.87" height="33.31" transform="translate(191.26 736.87) rotate(-90)"/><path class="cls-5" d="M478.45,263.34h12.87a0,0,0,0,1,0,0v17.23a1.7,1.7,0,0,1-1.7,1.7h-9.47a1.7,1.7,0,0,1-1.7-1.7V263.34a0,0,0,0,1,0,0Z" transform="translate(212.08 757.69) rotate(-90)"/><rect class="cls-6" x="430.38" y="217.73" width="15.14" height="18.93" transform="translate(210.75 665.14) rotate(-90)"/><ellipse class="cls-2" cx="489.43" cy="227.19" rx="7.57" ry="6.62"/><rect class="cls-4" x="458.01" y="210.54" width="12.87" height="33.31" transform="translate(237.25 691.64) rotate(-90)"/><path class="cls-5" d="M478.83,217.73H491.7a0,0,0,0,1,0,0V235a1.7,1.7,0,0,1-1.7,1.7h-9.47a1.7,1.7,0,0,1-1.7-1.7V217.73a0,0,0,0,1,0,0Z" transform="translate(258.07 712.46) rotate(-90)"/><rect class="cls-7" x="374.35" y="242.43" width="93.12" height="15.14" transform="translate(170.91 670.91) rotate(-90)"/><rect class="cls-5" x="86.59" y="155.36" width="326.25" height="189.27" rx="51.12"/><rect class="cls-8" x="194.65" y="155.36" width="109.05" height="189.27"/><path class="cls-6" d="M140.63,183.57l-10.82,17.3a63.38,63.38,0,0,0-10,33.75h0c0,7.62,7.81,13.8,17.45,13.8h5.95c10,0,18.14-6.42,18.14-14.34v-3.5c0-8.59-1.38-12-6.41-23.3a63.75,63.75,0,0,0-4.53-8.39Z"/><path class="cls-8" d="M128.32,210.5h3.41v7.27h8.07V210.5h3.41v18.2H139.8v-8.1h-8.07v8.1h-3.41Z"/><path class="cls-8" d="M146.27,233.2V233c0-2,.91-3.57,3.29-5,1.6-1,2.07-1.24,2.07-2.06a1.25,1.25,0,0,0-1.42-1.33c-.93,0-1.46.61-1.62,1.57l-2.41,0a3.82,3.82,0,0,1,4.14-3.55c3,0,3.94,1.9,3.94,3.24,0,1.68-.81,2.41-2.76,3.44a5.7,5.7,0,0,0-2.24,1.94h5.4l-.35,2Z"/></g></svg>