<svg xmlns="http://www.w3.org/2000/svg" viewBox="0 0 500 500"><defs><style>.cls-1{fill:#7cb8dd;}.cls-2{fill:#ffc34a;}.cls-2,.cls-8,.cls-9{stroke:#fff;stroke-miterlimit:10;stroke-width:8px;}.cls-3,.cls-4{fill:#af5bbc;}.cls-4{opacity:0.13;}.cls-5{opacity:0.2;}.cls-6{opacity:0.75;}.cls-7{opacity:0.36;}.cls-8{fill:#ab82ad;}.cls-9{fill:#d84a61;}.cls-10{font-size:140px;fill:#fff;font-family:Lato-Regular, Lato;}</style></defs><g id="Layer_5" data-name="Layer 5"><rect class="cls-1" width="500" height="500"/></g><g id="Layer_6" data-name="Layer 6"><polygon class="cls-2" points="312.68 122.01 42.12 122.01 42.12 185.72 53.62 185.72 53.62 399.04 301.18 399.04 301.18 185.72 312.68 185.72 312.68 122.01"/><ellipse class="cls-3" cx="177.4" cy="120.24" rx="13.51" ry="9.09"/><path class="cls-4" d="M180.28,111.35c2.8,1.67,4.56,4.1,4.56,6.81,0,5-6.05,9.09-13.51,9.09a19.33,19.33,0,0,1-2.88-.21,17.55,17.55,0,0,0,9,2.29c7.46,0,13.51-4.07,13.51-9.09C190.91,115.88,186.36,112.24,180.28,111.35Z"/><rect class="cls-5" x="53.62" y="185.72" width="247.56" height="15.35"/><g class="cls-6"><path class="cls-7" d="M186.68,123.15l-3.85,1.91s18.53,10.13,27.5,33.45h0c.4,1,.78,2.07,1.13,3.14h0c.25.75.48,1.5.71,2.27h0c.59,2,1.12,4.18,1.55,6.4h0c.12.62.23,1.25.34,1.89a1.7,1.7,0,0,0,0,.22c0,.18,0,.35.08.53s0,.17,0,.25c.06.39.12.79.17,1.19a81.15,81.15,0,0,1,.51,16.32l10.48-11.66,10.34,8.8S245,149.11,186.68,123.15Z"/><path class="cls-7" d="M119.09,187.87l10.34-8.8,10.49,11.66a80.45,80.45,0,0,1,.5-16.32c.06-.4.11-.8.17-1.19a2.17,2.17,0,0,0,0-.25l.09-.53,0-.22c.11-.64.22-1.27.34-1.89h0c.44-2.22,1-4.36,1.56-6.4h0c.22-.77.45-1.52.7-2.27h0c.36-1.07.73-2.12,1.13-3.14h0c9-23.32,27.5-33.45,27.5-33.45l-3.85-1.91C109.79,149.11,119.09,187.87,119.09,187.87Z"/></g><path class="cls-8" d="M289.64,119.47l-1.29-.59c.84.37,1.29.59,1.29.59l-13.7-27.6c-1.92-.14-3.82-.2-5.72-.24v0c-1.18,0-2.36,0-3.53,0h-1c-1.13,0-2.26.06-3.38.1l-1,.05c-1.18.06-2.35.13-3.51.22h0l-1.93.16h0l-1.84.2-2,.22-.3,0h0a150.35,150.35,0,0,0-20.38,4,60.09,60.09,0,0,0,15.12-26.07,38.89,38.89,0,0,0,1.22-6.26l-27.81-19.1q-2,1.32-3.87,2.81h0l-.08.06c-.68.54-1.36,1.1-2,1.67l-.28.25c-1.37,1.19-2.71,2.44-4,3.75l-.18.17c-.64.66-1.28,1.33-1.91,2l-.06.07h0c-.82.88-1.62,1.79-2.4,2.72h0l-.06.08c-14.29,16.87-23.39,39.63-27.61,51.94-4.22-12.31-13.32-35.07-27.61-51.94l-.06-.08h0c-.78-.93-1.58-1.84-2.4-2.72h0l-.06-.07c-.63-.68-1.27-1.35-1.91-2l-.18-.17c-1.29-1.31-2.63-2.56-4-3.75l-.28-.24c-.67-.58-1.35-1.14-2-1.68l-.08-.06h0q-1.9-1.48-3.88-2.81L107.1,64.26a38.89,38.89,0,0,0,1.22,6.26,60.19,60.19,0,0,0,15.12,26.07,150.35,150.35,0,0,0-20.38-4h0l-.31,0-2-.22-1.84-.2h0L97,92h0c-1.17-.09-2.34-.16-3.51-.22l-1-.05c-1.12,0-2.25-.08-3.38-.1h-1c-1.17,0-2.35,0-3.53,0v0c-1.89,0-3.8.1-5.71.24l-13.7,27.6s.44-.22,1.28-.59l-1.28.59s32.57,23.22,85.06,7.54c-15.92,9.56-25.59,20-31.42,29.56l-.1.17q-.46.76-.9,1.53a1,1,0,0,1-.08.14h0c-.47.84-.91,1.67-1.33,2.5h0c-.5,1-1,2-1.38,2.92l0,0c-.41.94-.79,1.87-1.13,2.78a.49.49,0,0,0,0,.11c-.34.89-.65,1.77-.92,2.63l-.06.17c-.26.84-.51,1.67-.72,2.48l0,.07h0C109,183.91,111,192.19,111,192.19l11.78-10,12,13.29a91,91,0,0,1,1.15-22.19c.07-.4.15-.78.23-1.17.16-.84.34-1.67.52-2.48.1-.42.19-.84.29-1.25.22-.9.45-1.77.69-2.63.08-.27.15-.54.22-.8.29-1,.61-2,.93-2.93s.6-1.73.92-2.58a79.54,79.54,0,0,1,23.62-33.15V399h28.3V126.27a79.45,79.45,0,0,1,23.62,33.15c.32.85.63,1.7.93,2.58s.63,1.93.92,2.93c.08.26.14.54.22.8.24.86.47,1.74.69,2.63.1.41.2.83.29,1.25.19.81.36,1.64.52,2.48.08.39.16.77.23,1.17a90,90,0,0,1,1.15,22.19l11.95-13.29,11.78,10s2-8.28-1.16-20.07h0a.19.19,0,0,1,0-.07c-.22-.81-.46-1.64-.73-2.48l-.06-.17c-.27-.86-.58-1.74-.91-2.63a.49.49,0,0,1,0-.11c-.35-.91-.73-1.84-1.14-2.78l0,0c-.42-1-.88-1.94-1.38-2.92h0c-.41-.83-.86-1.66-1.33-2.5h0a1,1,0,0,1-.08-.14c-.29-.5-.58-1-.89-1.52l-.11-.18c-5.83-9.62-15.5-20-31.42-29.56C257.06,142.69,289.64,119.47,289.64,119.47ZM221.49,76.81l2.17-1.35h0c-3.06,12.86-11.28,23.28-19.2,30.75a174.22,174.22,0,0,0-21.93,11.7C193,98.28,208.31,85.16,221.49,76.81Zm-90.35-1.35h0l2.17,1.35c13.18,8.35,28.5,21.47,39,41.1a175.73,175.73,0,0,0-21.93-11.7C142.41,98.74,134.19,88.32,131.14,75.46Zm-29,37.48q-2.5-1.16-4.9-2.55a128.61,128.61,0,0,1,47.94,1.86,106.72,106.72,0,0,0,14.25,5.9C148.79,119.91,123.16,122.65,102.1,112.94Zm62.26,6.53h.19l-.19.09ZM169,122c1.41-.94,2.26-1.41,2.26-1.41l-2.28-1.13h16.95l-2.29,1.13s.85.47,2.26,1.41Zm21.3-2.54h.19v.09Zm5.16-1.32a106.72,106.72,0,0,0,14.25-5.9,128.61,128.61,0,0,1,47.94-1.86q-2.4,1.39-4.89,2.55C231.64,122.65,206,119.91,195.41,118.15Z"/><path class="cls-9" d="M447.47,330l-3.94-1.33a21.48,21.48,0,0,1-14.2-16.5c0-.09,0-.18-.05-.27a21.5,21.5,0,0,1,7.29-20.53l3.19-2.67a15.25,15.25,0,0,0,3.68-19l-.13-.24a15.28,15.28,0,0,0-17.94-7.19l-4,1.25a21.51,21.51,0,0,1-21.21-5l-.19-.18a21.48,21.48,0,0,1-6.14-20.87l1-4.08a15.27,15.27,0,0,0-8.17-17.52l-.23-.11a15.27,15.27,0,0,0-18.76,4.72l-2.52,3.38a21.51,21.51,0,0,1-20.09,8.4H345l-.12,0a21.49,21.49,0,0,1-17.26-13.27L326,215a15.27,15.27,0,0,0-16.93-9.37l-.25,0a15.25,15.25,0,0,0-12.38,14.83l0,4.22a21.49,21.49,0,0,1-11.3,18.59l-.22.13a21.52,21.52,0,0,1-21.79-.59l-3.54-2.22A15.27,15.27,0,0,0,240.38,243l-.19.2a15.28,15.28,0,0,0-1.31,19.3l2.41,3.39a21.52,21.52,0,0,1,1.78,21.72l-.12.25A21.47,21.47,0,0,1,225,300.14l-4.15.28a15.26,15.26,0,0,0-14.13,13.19l0,.14,0,.14A15.26,15.26,0,0,0,217,330.25l3.94,1.34a21.47,21.47,0,0,1,14.2,16.49,2.56,2.56,0,0,1,.05.27,21.54,21.54,0,0,1-7.28,20.54l-3.2,2.66a15.27,15.27,0,0,0-3.68,19c0,.08.09.17.13.25A15.27,15.27,0,0,0,239.06,398l4-1.24a21.51,21.51,0,0,1,21.21,5l.19.17a21.52,21.52,0,0,1,6.15,20.87l-1,4.09a15.24,15.24,0,0,0,8.16,17.51l.23.11a15.29,15.29,0,0,0,18.77-4.71l2.51-3.38A21.52,21.52,0,0,1,319.33,428l.13,0,.12,0a21.5,21.5,0,0,1,17.27,13.27l1.57,3.91a15.28,15.28,0,0,0,16.92,9.37l.25,0A15.27,15.27,0,0,0,368,439.7l0-4.21a21.48,21.48,0,0,1,11.29-18.6l.22-.12a21.5,21.5,0,0,1,21.79.58l3.54,2.23a15.27,15.27,0,0,0,19.18-2.35l.19-.2a15.27,15.27,0,0,0,1.31-19.3l-2.4-3.4a21.52,21.52,0,0,1-1.79-21.72l.12-.24a21.48,21.48,0,0,1,17.95-12.31l4.15-.28a15.28,15.28,0,0,0,14.14-13.18l0-.14v-.14A15.27,15.27,0,0,0,447.47,330Z"/><text class="cls-10" transform="translate(291.62 371.39)">£</text></g></svg>