<svg xmlns="http://www.w3.org/2000/svg" viewBox="0 0 1366 1536"><defs><style>.cls-1,.cls-2,.cls-3,.cls-4,.cls-5,.cls-6,.cls-7,.cls-8,.cls-9{fill:none;}.cls-1{stroke:#f4d0a1;}.cls-1,.cls-2,.cls-3,.cls-4,.cls-5,.cls-6,.cls-7,.cls-8{stroke-miterlimit:10;stroke-width:20px;}.cls-2{stroke:#e28617;}.cls-3{stroke:#d9beef;}.cls-4{stroke:#ab82ad;}.cls-5{stroke:#a0e0e0;}.cls-6{stroke:#319b9b;}.cls-7{stroke:#e28d9d;}.cls-8{stroke:#bc7181;}</style></defs><g id="Layer_2" data-name="Layer 2"><path class="cls-1" d="M1350.88,1104.28c30,79.41-28.42,176.76-124,233.11-94.75,56.36-227.38,71.09-301.6,26.26-75-44.83-92.37-149.86-56.05-237.6S995.6,968.51,1099.81,964.67,1321.67,1024.23,1350.88,1104.28Z"/><path class="cls-2" d="M1345.88,1108.2c17.56,53.31-11.8,117-61.61,149-49.81,31.82-120.35,32.09-170.45,0-50.38-32.09-80.33-96.27-62.76-149.58,17.56-53,82.92-95.48,147.7-95.21C1263.83,1012.46,1328.32,1055.16,1345.88,1108.2Z"/><path class="cls-3" d="M1351.52,546c-58.59,37.93-141.55,38.24-200.47,0-59.26-38.24-94.47-114.72-73.82-178.25C1097.89,304.53,1174.76,254,1251,254.28c39.38,0,78.58,13.48,110.17,35.17-71.14-68.75-188.1-109.64-297-106.63-148.62,4.89-281.51,90.57-328.71,214.59-48.09,124.84-9.62,287.22,98.78,362.29,109.28,74.25,288.5,60.38,417.89-26.11a430.42,430.42,0,0,0,111.21-108.18V537.55Q1357.58,542,1351.52,546Z"/><path class="cls-4" d="M1363.29,291c-.72-.51-1.44-1-2.17-1.52l2.17,2.13Z"/><path class="cls-4" d="M1077.23,367.74c-20.65,63.53,14.56,140,73.82,178.25,58.92,38.24,141.88,37.93,200.47,0q6.06-4,11.77-8.44v-246l-2.17-2.13c-31.59-21.69-70.79-35.17-110.17-35.17C1174.76,254,1097.89,304.53,1077.23,367.74Z"/><path class="cls-5" d="M424.35,374.27c-29-88.86-120.5-156.91-215.86-157.77C125.93,215.37,40.78,264,0,335.53v18.91c20.37-48.09,76.55-85.07,132.27-84.82,59.93,0,119.34,42.7,135.52,95.74,16.18,53.31-10.87,117-56.76,149-45.88,31.83-110.86,32.09-157,0C29.57,497.5,10.35,471.69,0,443.25V543.74c16.91,34.77,41.62,65.59,72.39,87.57,78.45,56.34,196.78,54.18,272.64-1.74C420.45,573.22,453.82,463.13,424.35,374.27Z"/><path class="cls-6" d="M54,514.41c46.14,32.09,111.12,31.83,157,0,45.89-32.09,72.94-95.74,56.76-149-16.18-53-75.59-95.74-135.52-95.74C76.55,269.37,20.37,306.35,0,354.44v88.81C10.35,471.69,29.57,497.5,54,514.41Z"/><path class="cls-7" d="M493.39,1128.61C463.72,1021.51,352,934.19,237.66,933.5c-94.91-.56-191.12,58.15-237.66,139v231c22.3,46.89,55.91,88.71,95.58,117.7,88.41,64.81,205.22,67.54,290.47,5.46C470.66,1364,523.7,1235.72,493.39,1128.61ZM219.53,1370.25c-45.88,31.82-110.86,32.09-157,0-46.41-32.09-74-96.27-57.81-149.58,16.18-53,76.38-95.48,136-95.21,59.94,0,119.35,42.7,135.53,95.74C292.46,1274.51,265.41,1338.16,219.53,1370.25Z"/><path class="cls-8" d="M140.76,1125.46c-59.67-.27-119.87,42.17-136,95.21-16.18,53.31,11.4,117.49,57.81,149.58,46.15,32.09,111.13,31.82,157,0,45.88-32.09,72.93-95.74,56.76-149C260.11,1168.16,200.7,1125.46,140.76,1125.46Z"/><rect class="cls-9" y="0.5" width="1366" height="1536"/></g></svg>