<svg xmlns="http://www.w3.org/2000/svg" viewBox="0 0 500 500"><defs><style>.cls-1{fill:#7cb8dd;}.cls-2{fill:#ab82ad;}.cls-2,.cls-3,.cls-5,.cls-6{stroke:#fff;stroke-miterlimit:10;stroke-width:8px;}.cls-2,.cls-3,.cls-4{fill-rule:evenodd;}.cls-3{fill:#8b658e;}.cls-4{fill:#fff;}.cls-5{fill:#d39b37;}.cls-6{fill:#ffc34a;}</style></defs><g id="Layer_5" data-name="Layer 5"><rect class="cls-1" width="500" height="500"/><path class="cls-2" d="M200.54,64.39H382.45l72.5,72.5v278A18.23,18.23,0,0,1,436.78,433H200.54a18.23,18.23,0,0,1-18.18-18.18V82.56A18.23,18.23,0,0,1,200.54,64.39Z"/><polygon class="cls-3" points="387.2 69.14 450.2 132.14 387.2 132.14 387.2 69.14"/><path class="cls-4" d="M220,376.65c-3.29,0-5.95,2.33-5.95,5.2s2.66,5.2,5.95,5.2h197.3c3.28,0,5.94-2.33,5.94-5.2s-2.66-5.2-5.94-5.2Z"/><path class="cls-4" d="M220,318.72c-3.29,0-5.95,2.33-5.95,5.2s2.66,5.21,5.95,5.21h197.3c3.28,0,5.94-2.33,5.94-5.21s-2.66-5.2-5.94-5.2Z"/><path class="cls-4" d="M220,260.79c-3.29,0-5.95,2.33-5.95,5.21s2.66,5.2,5.95,5.2h197.3c3.28,0,5.94-2.33,5.94-5.2s-2.66-5.21-5.94-5.21Z"/><path class="cls-4" d="M220,202.87c-3.29,0-5.95,2.33-5.95,5.2s2.66,5.2,5.95,5.2h197.3c3.28,0,5.94-2.33,5.94-5.2s-2.66-5.2-5.94-5.2Z"/><path class="cls-4" d="M220,144.94c-3.29,0-5.95,2.33-5.95,5.21s2.66,5.2,5.95,5.2H360.19c3.29,0,5.95-2.33,5.95-5.2s-2.66-5.21-5.95-5.21Z"/><path class="cls-5" d="M141.44,250.91l36.31,39.82a7.52,7.52,0,0,0,10.54.55,7.42,7.42,0,0,0,.49-10.49L152.47,241a7.52,7.52,0,0,0-10.55-.55A7.41,7.41,0,0,0,141.44,250.91Z"/><path class="cls-5" d="M73.35,312.25l36.31,39.81a7.51,7.51,0,0,0,10.54.55,7.41,7.41,0,0,0,.49-10.48L84.38,302.31a7.53,7.53,0,0,0-10.55-.55A7.42,7.42,0,0,0,73.35,312.25Z"/><path class="cls-6" d="M257.87,423.41c5.41-10.37-1.42-20.52-1.42-20.52l-99.26-95c-.15-.16-.3-.31-.46-.45l18-16.22-34.13-37.42L87.87,301.35,122,338.77l18-16.22a6.4,6.4,0,0,0,.41.5l89.9,108.63s6.61,7.24,16.8,2.07a7.68,7.68,0,0,0,3.17-1.71l5.28-4.75A7.66,7.66,0,0,0,257.87,423.41Z"/><path class="cls-5" d="M154.26,402H52.85a7.79,7.79,0,0,0-7.8,7.74v8.9a7.79,7.79,0,0,0,7.8,7.73H154.26a7.79,7.79,0,0,0,7.8-7.73v-8.9A7.79,7.79,0,0,0,154.26,402Z"/></g></svg>