<svg xmlns="http://www.w3.org/2000/svg" viewBox="0 0 514.82 626.82"><defs><style>.cls-1{fill:#fff;}</style></defs><g id="Layer_6" data-name="Layer 6"><path class="cls-1" d="M171.94,409a13,13,0,0,0-15.22,6.21c-3.53,6.57-6.72,14.87-2.69,18.23,7.13,5.94,73.63,2.37,67.7-4.75C217.38,423.47,187.61,413.81,171.94,409Z"/><path class="cls-1" d="M360.56,411a7.39,7.39,0,0,1-2.82,9c-15.59,9.91-60.54,8.09-62.35,4.05-1.58-3.54,33.12-19.52,49.27-26.72a9,9,0,0,1,11.79,4.43C358,405,359.57,408.58,360.56,411Z"/><path class="cls-1" d="M389.26,360.29c-.46-1-.92-2-1.4-3.05-17.84-37.95-43.92-70.81-67.31-105.35-26.82-39.6-53.44-79.8-46.48-133.58a4.62,4.62,0,0,0-7.24-4.37C213.75,151.8,208.92,235.38,226,300.72a2.7,2.7,0,0,1-4.63,2.49c-12.88-14.07-30.73-43.82-43.2-53.62-8.38-6.59-17.86-11.16-16.08,3.7,5.57,46.54-21.53,81.69-38.54,120.82-10.77,24.76-12.42,51.8-6.46,77.32,13.06,55.92,62.14,96.09,119.46,99.56L255,552.11C357.35,558.32,431.05,453.89,389.26,360.29ZM356.84,467.88c-38.52,7.49-47.08-11.77-96.31-11.77-42.8,0-70.62,27.82-111.28,16.05-23-6.67-17.48-83.86,5.35-96.31C178.14,363,214,397,249.83,396.19c49.23-1.07,65.28-36.39,111.29-36.39C388,359.8,385.41,462.32,356.84,467.88Z"/><rect class="cls-1" x="100.25" y="593.35" width="341.39" height="25.7"/><path class="cls-1" d="M295,594.89,295,595a13.51,13.51,0,0,0,7.57,24.67l138.32.38h.2a66,66,0,0,0,35.15-9.76c20.65-13,32.36-34.45,32.36-57.74V277.19a108.15,108.15,0,0,0-31.66-76.45l-11.48-11.48a13.4,13.4,0,0,1-4-9.38L460.13,70.23a27.12,27.12,0,0,0-27-26.69H389.8a27,27,0,0,0-27.05,27.05V86.42a.06.06,0,0,1-.1,0L303,26.87a64.6,64.6,0,0,0-91.26,0L37.9,200.75A108.11,108.11,0,0,0,6.24,277.19V551.45A67.63,67.63,0,0,0,73.57,619l135.13.38h0A13.35,13.35,0,0,0,221.27,611a13.53,13.53,0,0,0-5.3-16.54h0m-49.67-23.11c0,.06,0,.11-.08.07M147.7,592.07a.05.05,0,0,1,0,.1l-74-.21a40.59,40.59,0,0,1-40.4-40.51V277.16A80.52,80.52,0,0,1,57,219.86L230.88,46a37.56,37.56,0,0,1,53.06,0l82.76,82.74a13.49,13.49,0,0,0,23-9.55V79.43a8.89,8.89,0,0,1,8.88-8.88h34.46a.06.06,0,0,1,.06.06l1.33,109.6a40.41,40.41,0,0,0,11.86,28.15l11.52,11.5a80.52,80.52,0,0,1,23.73,57.3V552.5A40.46,40.46,0,0,1,441.06,593H441l-87.08-.25a.05.05,0,0,1,0-.1Z"/></g></svg>