<svg id="Layer_1" data-name="Layer 1" xmlns="http://www.w3.org/2000/svg" viewBox="0 0 174.04 119.08"><defs><style>.cls-1,.cls-2,.cls-3,.cls-4,.cls-5,.cls-6{fill:#fff;stroke:#fff;stroke-miterlimit:10;}.cls-2,.cls-3,.cls-6{stroke-linecap:round;}.cls-2{stroke-width:4px;}.cls-3,.cls-5{stroke-width:9px;}.cls-4,.cls-6{stroke-width:12px;}</style></defs><path class="cls-1" d="M770.39,482.21c0,9.49-8.17,17.18-18.24,17.18a17.84,17.84,0,0,1-8.82-2.14c-5-2.77-9.47-8.49-9.42-15C734,473.08,742.7,465,752.15,465c8.81,0,16.17,5.89,17.87,13.72A16.38,16.38,0,0,1,770.39,482.21Z" transform="translate(-666.1 -422.02)"/><path class="cls-1" d="M770,478a9.51,9.51,0,0,1,6.43-1.07,3.84,3.84,0,0,1,2.58.85c1,1,.82,2.77-.73,4h-7.08l5.49,3.61a3.34,3.34,0,0,1,.26,2.76,4.79,4.79,0,0,1-3.86,2.75l-4.64-4.2C767.75,485.63,769.5,478.27,770,478Z" transform="translate(-666.1 -422.02)"/><line class="cls-1" x1="103.32" y1="58.16" x2="104.72" y2="56.37"/><path class="cls-1" d="M742.82,497.48a31.55,31.55,0,0,0-12.94,13.57,4.23,4.23,0,0,0,.85,4.25c1.51,1.39,4.65,1.17,6.57-1.28l-.21-3.39a4.66,4.66,0,0,1,2.54-2.12c1.32-.39,3.13-.1,3.19-.42v0a53.52,53.52,0,0,0-2.76,20.18,3.36,3.36,0,0,0-3.18,3,3,3,0,0,0,1.06,2.12,8.22,8.22,0,0,0,5.09,1.06,8,8,0,0,0,3-1.06q3-7,6.08-14v-20Z" transform="translate(-666.1 -422.02)"/><path class="cls-1" d="M761.48,497.53a31.8,31.8,0,0,1,12.94,13.58,4.22,4.22,0,0,1-.85,4.24c-1.51,1.4-4.66,1.17-6.57-1.27l.21-3.4a4.69,4.69,0,0,0-2.55-2.12c-1.31-.39-3.12-.09-3.18-.42v0a53.52,53.52,0,0,1,2.76,20.18,3.36,3.36,0,0,1,3.18,3,3,3,0,0,1-1.06,2.12,8.15,8.15,0,0,1-5.09,1.06,8,8,0,0,1-3-1.06l-6.08-14v-20Z" transform="translate(-666.1 -422.02)"/><rect class="cls-1" x="727.14" y="486.13" width="5.2" height="16.44" rx="2.6" transform="translate(-768.23 363.72) rotate(-53.42)"/><line class="cls-2" x1="67.45" y1="80.51" x2="72.43" y2="73.52"/><path class="cls-1" d="M755.16,516.05c-2.83-2-6-4.71-13.23-9.71-3.15-2.2-5.78-3.94-7.52-5.07l3.2-4.49,38.74,27.6C766.06,522.54,759.39,519,755.16,516.05Z" transform="translate(-666.1 -422.02)"/><line class="cls-3" x1="24.4" y1="37.36" x2="24.4" y2="114.58"/><line class="cls-3" x1="148.42" y1="114.58" x2="148.42" y2="37.36"/><path class="cls-1" d="M704,432.53c1.23-.33,10,11,13.55,25,2.23,8.79,2.55,13.71,1.66,20.35-1.81,13.53-8.86,18.5-6.39,28.62,1.32,5.41,4.48,8.69,3.79,9.23-1,.75-8.76-4.48-11.83-12.07-4.52-11.16,7.43-18.21,7.33-36.9C712,446.53,702.68,432.88,704,432.53Z" transform="translate(-666.1 -422.02)"/><path class="cls-1" d="M801.56,437.5c-1-.4-8.36,10.54-10.52,25a64.2,64.2,0,0,0,.4,20.63c2.62,13.95,8.51,18.94,6.21,28.62-1.29,5.41-4.36,8.69-3.68,9.23.9.71,8.58-4.57,11.5-12.07,5.45-14-10.47-23.15-10.43-45.41C795.07,448.32,802.53,437.9,801.56,437.5Z" transform="translate(-666.1 -422.02)"/><path class="cls-4" d="M690.5,450" transform="translate(-666.1 -422.02)"/><path class="cls-1" d="M769,422.53c-1-.37-16,11.31-12,23,2.44,7,8.13,7.37,12,17,3.19,7.93,1.81,13.84,3.32,14,1.89.24,5-8.35,2.68-16-2.48-8.08-9-7.84-13-16C756.82,433.83,770,422.88,769,422.53Z" transform="translate(-666.1 -422.02)"/><line class="cls-5" x1="9.44" y1="43.01" x2="40.44" y2="30.01"/><polyline class="cls-5" points="51.44 25.01 87.12 10 89.53 11.04"/><line class="cls-5" x1="98.94" y1="14.51" x2="126.45" y2="26.92"/><path class="cls-6" d="M804,453.85" transform="translate(-666.1 -422.02)"/><line class="cls-5" x1="132.94" y1="29.51" x2="167.53" y2="44.59"/><line class="cls-3" x1="4.5" y1="45.08" x2="24.97" y2="36.47"/><line class="cls-3" x1="169.54" y1="45.35" x2="149.07" y2="36.74"/></svg>