<svg xmlns="http://www.w3.org/2000/svg" viewBox="0 0 700.82 700.82"><defs><style>.cls-1{fill:#fff;}</style></defs><g id="Layer_6" data-name="Layer 6"><g id="Layer_5" data-name="Layer 5"><path class="cls-1" d="M262,536a13,13,0,0,0-15.22,6.21c-3.53,6.57-6.72,14.87-2.69,18.23,7.13,5.94,73.63,2.37,67.7-4.75C307.4,550.47,277.63,540.81,262,536Z"/><path class="cls-1" d="M450.58,538a7.39,7.39,0,0,1-2.82,9c-15.59,9.91-60.54,8.09-62.35,4.05-1.58-3.54,33.13-19.52,49.27-26.72a9,9,0,0,1,11.79,4.43C448,532,449.59,535.58,450.58,538Z"/></g><path class="cls-1" d="M385.06,654.89,385,655a13.51,13.51,0,0,0,7.57,24.67l138.32.38h.2a66,66,0,0,0,35.15-9.76c20.65-13,32.36-34.45,32.36-57.74V337.19a108.15,108.15,0,0,0-31.66-76.45l-11.48-11.48a13.4,13.4,0,0,1-4-9.38l-1.35-109.65a27.12,27.12,0,0,0-27-26.69H479.82a27,27,0,0,0-27.05,27.05v15.83a.06.06,0,0,1-.1,0L393.06,86.87a64.6,64.6,0,0,0-91.26,0L127.92,260.75a108.11,108.11,0,0,0-31.66,76.44V611.45A67.63,67.63,0,0,0,163.59,679l135.13.38h0A13.35,13.35,0,0,0,311.29,671a13.53,13.53,0,0,0-5.3-16.54h0m-49.67-23.11c0,.06,0,.11-.08.07m-18.51,20.65a.05.05,0,0,1,0,.1l-74-.21a40.58,40.58,0,0,1-40.39-40.51V337.16A80.51,80.51,0,0,1,147,279.86L320.9,106A37.56,37.56,0,0,1,374,106l82.76,82.74a13.49,13.49,0,0,0,23-9.55V139.43a8.89,8.89,0,0,1,8.88-8.88H523.1a.06.06,0,0,1,.06.06l1.33,109.6a40.37,40.37,0,0,0,11.87,28.15l11.51,11.5a80.52,80.52,0,0,1,23.73,57.3V612.5A40.46,40.46,0,0,1,531.08,653H531l-87.08-.25c-.05,0-.07-.06,0-.1Z"/><g id="Layer_2" data-name="Layer 2"><path class="cls-1" d="M479.28,487.29c-.46-1-.92-2-1.4-3.05-17.83-37.95-43.92-70.81-67.31-105.35-26.82-39.6-53.44-79.8-46.48-133.58a4.62,4.62,0,0,0-7.24-4.37C303.77,278.8,298.94,362.38,316,427.72a2.7,2.7,0,0,1-4.63,2.49c-12.88-14.07-30.73-43.82-43.2-53.62-8.38-6.59-17.86-11.16-16.08,3.7,5.57,46.54-21.53,81.69-38.54,120.82-10.77,24.76-12.42,51.8-6.46,77.32,13.06,55.92,62.14,96.09,119.46,99.56l18.51,1.12C447.37,685.32,521.07,580.89,479.28,487.29ZM446.86,594.88c-38.52,7.49-47.08-11.77-96.31-11.77-42.8,0-70.62,27.82-111.28,16-23.05-6.67-17.47-83.86,5.35-96.31C268.16,490,304,524,339.85,523.19c49.23-1.07,65.28-36.39,111.29-36.39C478,486.8,475.43,589.32,446.86,594.88Z"/><rect class="cls-1" x="190.27" y="665.43" width="341.39" height="13.88"/></g></g></svg>