<svg id="visual" viewBox="0 0 900 600" width="900" height="600" xmlns="http://www.w3.org/2000/svg" xmlns:xlink="http://www.w3.org/1999/xlink" version="1.1"><g stroke-width="1" stroke-linejoin="bevel"><path d="M453 316.7L398 258L430 329.9Z" fill="#f8fcfb" stroke="#f8fcfb"></path><path d="M398 258L363 304.3L430 329.9Z" fill="#fafdfd" stroke="#fafdfd"></path><path d="M398 258L374 246.4L363 304.3Z" fill="#f0f9f8" stroke="#f0f9f8"></path><path d="M453 316.7L445 224.3L398 258Z" fill="#e6f4f4" stroke="#e6f4f4"></path><path d="M398 258L366 225.1L374 246.4Z" fill="#fafdfd" stroke="#fafdfd"></path><path d="M543 398.7L497 293.7L453 316.7Z" fill="#f0f9f8" stroke="#f0f9f8"></path><path d="M453 316.7L497 293.7L445 224.3Z" fill="#e6f4f4" stroke="#e6f4f4"></path><path d="M374 246.4L345 269.4L363 304.3Z" fill="#fafdfd" stroke="#fafdfd"></path><path d="M345 269.4L341 302L363 304.3Z" fill="#f5fbfa" stroke="#f5fbfa"></path><path d="M363 304.3L366 362.6L430 329.9Z" fill="#fafdfd" stroke="#fafdfd"></path><path d="M425 201.4L366 225.1L398 258Z" fill="#f5fbfa" stroke="#f5fbfa"></path><path d="M374 246.4L332 238.1L345 269.4Z" fill="#fdfefe" stroke="#fdfefe"></path><path d="M518 262.9L461 210.3L445 224.3Z" fill="#f3faf9" stroke="#f3faf9"></path><path d="M445 224.3L425 201.4L398 258Z" fill="#f8fcfb" stroke="#f8fcfb"></path><path d="M461 210.3L425 201.4L445 224.3Z" fill="#f0f9f8" stroke="#f0f9f8"></path><path d="M341 302L366 362.6L363 304.3Z" fill="#fdfefe" stroke="#fdfefe"></path><path d="M366 362.6L411 388L430 329.9Z" fill="#f8fcfb" stroke="#f8fcfb"></path><path d="M430 329.9L507 421.6L453 316.7Z" fill="#e6f4f4" stroke="#e6f4f4"></path><path d="M497 293.7L518 262.9L445 224.3Z" fill="#f5fbfa" stroke="#f5fbfa"></path><path d="M518 262.9L468 197.6L461 210.3Z" fill="#fafdfd" stroke="#fafdfd"></path><path d="M461 210.3L468 197.6L425 201.4Z" fill="#e6f4f4" stroke="#e6f4f4"></path><path d="M311 237L332 238.1L303 199.4Z" fill="#e9f5f5" stroke="#e9f5f5"></path><path d="M366 225.1L332 238.1L374 246.4Z" fill="#f5fbfa" stroke="#f5fbfa"></path><path d="M345 269.4L301 259L341 302Z" fill="#ffffff" stroke="#ffffff"></path><path d="M332 238.1L316 251L345 269.4Z" fill="#f3faf9" stroke="#f3faf9"></path><path d="M341 302L313 358.7L366 362.6Z" fill="#f0f9f8" stroke="#f0f9f8"></path><path d="M497 293.7L535 258.3L518 262.9Z" fill="#e6f4f4" stroke="#e6f4f4"></path><path d="M518 262.9L543 232L468 197.6Z" fill="#e6f4f4" stroke="#e6f4f4"></path><path d="M603 296.9L535 258.3L497 293.7Z" fill="#ebf6f6" stroke="#ebf6f6"></path><path d="M303 199.4L332 238.1L366 225.1Z" fill="#fafdfd" stroke="#fafdfd"></path><path d="M332 238.1L311 237L316 251Z" fill="#fdfefe" stroke="#fdfefe"></path><path d="M311 237L301 259L316 251Z" fill="#ffffff" stroke="#ffffff"></path><path d="M316 251L301 259L345 269.4Z" fill="#fafdfd" stroke="#fafdfd"></path><path d="M603 296.9L543 250.4L535 258.3Z" fill="#ebf6f6" stroke="#ebf6f6"></path><path d="M535 258.3L543 232L518 262.9Z" fill="#e6f4f4" stroke="#e6f4f4"></path><path d="M288 333.1L313 358.7L341 302Z" fill="#fafdfd" stroke="#fafdfd"></path><path d="M366 362.6L411 421.9L411 388Z" fill="#ebf6f6" stroke="#ebf6f6"></path><path d="M318 462.6L411 421.9L366 362.6Z" fill="#ffffff" stroke="#ffffff"></path><path d="M411 388L507 421.6L430 329.9Z" fill="#f3faf9" stroke="#f3faf9"></path><path d="M543 250.4L543 232L535 258.3Z" fill="#f0f9f8" stroke="#f0f9f8"></path><path d="M493 148.7L391 157.6L425 201.4Z" fill="#e6f4f4" stroke="#e6f4f4"></path><path d="M425 201.4L391 157.6L366 225.1Z" fill="#f5fbfa" stroke="#f5fbfa"></path><path d="M493 148.7L425 201.4L468 197.6Z" fill="#f3faf9" stroke="#f3faf9"></path><path d="M284 342.1L309 373.6L313 358.7Z" fill="#f0f9f8" stroke="#f0f9f8"></path><path d="M313 358.7L309 373.6L366 362.6Z" fill="#fdfefe" stroke="#fdfefe"></path><path d="M301 259L288 333.1L341 302Z" fill="#f0f9f8" stroke="#f0f9f8"></path><path d="M303 199.4L289 240.3L311 237Z" fill="#ffffff" stroke="#ffffff"></path><path d="M311 237L289 240.3L301 259Z" fill="#e6f4f4" stroke="#e6f4f4"></path><path d="M301 259L254 328.1L288 333.1Z" fill="#ffffff" stroke="#ffffff"></path><path d="M284 342.1L308 376L309 373.6Z" fill="#e6f4f4" stroke="#e6f4f4"></path><path d="M309 373.6L308 376L366 362.6Z" fill="#fafdfd" stroke="#fafdfd"></path><path d="M254 328.1L284 342.1L288 333.1Z" fill="#f8fcfb" stroke="#f8fcfb"></path><path d="M288 333.1L284 342.1L313 358.7Z" fill="#e6f4f4" stroke="#e6f4f4"></path><path d="M411 421.9L458 434.7L411 388Z" fill="#e9f5f5" stroke="#e9f5f5"></path><path d="M543 232L514 171.4L468 197.6Z" fill="#ebf6f6" stroke="#ebf6f6"></path><path d="M368 148.6L303 199.4L366 225.1Z" fill="#e9f5f5" stroke="#e9f5f5"></path><path d="M370 135.9L368 148.6L391 157.6Z" fill="#ffffff" stroke="#ffffff"></path><path d="M391 157.6L368 148.6L366 225.1Z" fill="#e9f5f5" stroke="#e9f5f5"></path><path d="M458 434.7L507 421.6L411 388Z" fill="#eef8f7" stroke="#eef8f7"></path><path d="M514 171.4L493 148.7L468 197.6Z" fill="#f8fcfb" stroke="#f8fcfb"></path><path d="M573 209L561 211.1L543 232Z" fill="#f5fbfa" stroke="#f5fbfa"></path><path d="M543 232L561 211.1L514 171.4Z" fill="#f8fcfb" stroke="#f8fcfb"></path><path d="M514 171.4L523 152.7L493 148.7Z" fill="#e6f4f4" stroke="#e6f4f4"></path><path d="M573 209L543 232L543 250.4Z" fill="#e6f4f4" stroke="#e6f4f4"></path><path d="M507 421.6L543 398.7L453 316.7Z" fill="#f8fcfb" stroke="#f8fcfb"></path><path d="M387 47.6L370 135.9L399 40.6Z" fill="#f3faf9" stroke="#f3faf9"></path><path d="M317 140.3L289 190.1L303 199.4Z" fill="#f5fbfa" stroke="#f5fbfa"></path><path d="M317 140.3L303 199.4L368 148.6Z" fill="#f8fcfb" stroke="#f8fcfb"></path><path d="M303 199.4L289 190.1L289 240.3Z" fill="#eef8f7" stroke="#eef8f7"></path><path d="M233 245.3L254 328.1L301 259Z" fill="#f0f9f8" stroke="#f0f9f8"></path><path d="M547 169.3L523 152.7L514 171.4Z" fill="#e9f5f5" stroke="#e9f5f5"></path><path d="M623 263.9L573 209L543 250.4Z" fill="#fafdfd" stroke="#fafdfd"></path><path d="M561 211.1L547 169.3L514 171.4Z" fill="#f5fbfa" stroke="#f5fbfa"></path><path d="M543 398.7L571 374.9L497 293.7Z" fill="#ebf6f6" stroke="#ebf6f6"></path><path d="M284 342.1L284 391.9L308 376Z" fill="#e9f5f5" stroke="#e9f5f5"></path><path d="M308 376L297 431.3L366 362.6Z" fill="#fdfefe" stroke="#fdfefe"></path><path d="M411 421.9L430 468.1L458 434.7Z" fill="#f3faf9" stroke="#f3faf9"></path><path d="M233 245.3L301 259L289 240.3Z" fill="#ffffff" stroke="#ffffff"></path><path d="M284 342.1L232 350.6L284 391.9Z" fill="#f5fbfa" stroke="#f5fbfa"></path><path d="M573 209L547 169.3L561 211.1Z" fill="#ffffff" stroke="#ffffff"></path><path d="M543 398.7L567 392.4L571 374.9Z" fill="#ebf6f6" stroke="#ebf6f6"></path><path d="M560 420.9L567 392.4L543 398.7Z" fill="#f8fcfb" stroke="#f8fcfb"></path><path d="M297 431.3L265 473.6L297 448.3Z" fill="#f3faf9" stroke="#f3faf9"></path><path d="M284 391.9L292 410.4L308 376Z" fill="#eef8f7" stroke="#eef8f7"></path><path d="M429 479.7L430 468.1L386 497.4Z" fill="#f5fbfa" stroke="#f5fbfa"></path><path d="M458 434.7L501 466.6L507 421.6Z" fill="#f0f9f8" stroke="#f0f9f8"></path><path d="M507 421.6L560 420.9L543 398.7Z" fill="#ebf6f6" stroke="#ebf6f6"></path><path d="M612 313.3L603 296.9L571 374.9Z" fill="#e9f5f5" stroke="#e9f5f5"></path><path d="M571 374.9L603 296.9L497 293.7Z" fill="#fdfefe" stroke="#fdfefe"></path><path d="M370 135.9L317 140.3L368 148.6Z" fill="#f5fbfa" stroke="#f5fbfa"></path><path d="M612 313.3L607 286.7L603 296.9Z" fill="#ffffff" stroke="#ffffff"></path><path d="M603 296.9L607 286.7L543 250.4Z" fill="#ffffff" stroke="#ffffff"></path><path d="M232 426.3L292 410.4L284 391.9Z" fill="#e6f4f4" stroke="#e6f4f4"></path><path d="M292 410.4L297 431.3L308 376Z" fill="#ebf6f6" stroke="#ebf6f6"></path><path d="M505 465.3L560 420.9L507 421.6Z" fill="#f5fbfa" stroke="#f5fbfa"></path><path d="M602 388L612 313.3L571 374.9Z" fill="#ebf6f6" stroke="#ebf6f6"></path><path d="M386 497.4L430 468.1L411 421.9Z" fill="#ebf6f6" stroke="#ebf6f6"></path><path d="M430 468.1L501 466.6L458 434.7Z" fill="#fafdfd" stroke="#fafdfd"></path><path d="M602 388L571 374.9L567 392.4Z" fill="#fdfefe" stroke="#fdfefe"></path><path d="M429 479.7L501 466.6L430 468.1Z" fill="#f0f9f8" stroke="#f0f9f8"></path><path d="M501 466.6L505 465.3L507 421.6Z" fill="#e6f4f4" stroke="#e6f4f4"></path><path d="M274 162.4L233 245.3L289 190.1Z" fill="#e6f4f4" stroke="#e6f4f4"></path><path d="M289 190.1L233 245.3L289 240.3Z" fill="#e6f4f4" stroke="#e6f4f4"></path><path d="M317 140.3L274 162.4L289 190.1Z" fill="#fafdfd" stroke="#fafdfd"></path><path d="M199 341.9L232 350.6L254 328.1Z" fill="#f8fcfb" stroke="#f8fcfb"></path><path d="M254 328.1L232 350.6L284 342.1Z" fill="#f3faf9" stroke="#f3faf9"></path><path d="M297 448.3L318 462.6L297 431.3Z" fill="#ffffff" stroke="#ffffff"></path><path d="M297 431.3L318 462.6L366 362.6Z" fill="#ebf6f6" stroke="#ebf6f6"></path><path d="M232 426.3L297 431.3L292 410.4Z" fill="#e6f4f4" stroke="#e6f4f4"></path><path d="M638 276.1L623 263.9L607 286.7Z" fill="#fdfefe" stroke="#fdfefe"></path><path d="M607 286.7L623 263.9L543 250.4Z" fill="#e6f4f4" stroke="#e6f4f4"></path><path d="M573 209L591 167.4L547 169.3Z" fill="#f0f9f8" stroke="#f0f9f8"></path><path d="M320 108.7L285 140.6L317 140.3Z" fill="#ebf6f6" stroke="#ebf6f6"></path><path d="M317 140.3L285 140.6L274 162.4Z" fill="#ebf6f6" stroke="#ebf6f6"></path><path d="M285 140.6L271 153.3L274 162.4Z" fill="#ffffff" stroke="#ffffff"></path><path d="M216 147.4L223 245.4L233 245.3Z" fill="#ffffff" stroke="#ffffff"></path><path d="M625 387.4L602 388L618 428.4Z" fill="#fafdfd" stroke="#fafdfd"></path><path d="M560 420.9L602 388L567 392.4Z" fill="#f8fcfb" stroke="#f8fcfb"></path><path d="M612 313.3L638 276.1L607 286.7Z" fill="#e9f5f5" stroke="#e9f5f5"></path><path d="M193 235L223 245.4L216 147.4Z" fill="#ffffff" stroke="#ffffff"></path><path d="M233 245.3L207 251.9L254 328.1Z" fill="#ffffff" stroke="#ffffff"></path><path d="M285 140.6L266 116.7L271 153.3Z" fill="#f8fcfb" stroke="#f8fcfb"></path><path d="M370 135.9L320 108.7L317 140.3Z" fill="#ebf6f6" stroke="#ebf6f6"></path><path d="M335 94.7L320 108.7L370 135.9Z" fill="#e9f5f5" stroke="#e9f5f5"></path><path d="M335 94.7L370 135.9L387 47.6Z" fill="#fdfefe" stroke="#fdfefe"></path><path d="M593 169.6L591 167.4L573 209Z" fill="#f3faf9" stroke="#f3faf9"></path><path d="M547 169.3L544 120.7L523 152.7Z" fill="#f8fcfb" stroke="#f8fcfb"></path><path d="M523 152.7L544 120.7L493 148.7Z" fill="#ebf6f6" stroke="#ebf6f6"></path><path d="M594 130.7L544 120.7L547 169.3Z" fill="#f8fcfb" stroke="#f8fcfb"></path><path d="M628 207.4L593 169.6L573 209Z" fill="#fdfefe" stroke="#fdfefe"></path><path d="M318 462.6L386 497.4L411 421.9Z" fill="#f3faf9" stroke="#f3faf9"></path><path d="M491 550.4L544 521.1L501 466.6Z" fill="#e6f4f4" stroke="#e6f4f4"></path><path d="M370 135.9L391 157.6L399 40.6Z" fill="#fdfefe" stroke="#fdfefe"></path><path d="M320 108.7L266 116.7L285 140.6Z" fill="#e6f4f4" stroke="#e6f4f4"></path><path d="M648 329.1L638 276.1L612 313.3Z" fill="#fafdfd" stroke="#fafdfd"></path><path d="M623 263.9L628 207.4L573 209Z" fill="#f5fbfa" stroke="#f5fbfa"></path><path d="M193 235L207 251.9L223 245.4Z" fill="#e9f5f5" stroke="#e9f5f5"></path><path d="M223 245.4L207 251.9L233 245.3Z" fill="#fdfefe" stroke="#fdfefe"></path><path d="M667 242.1L628 207.4L623 263.9Z" fill="#ebf6f6" stroke="#ebf6f6"></path><path d="M618 428.4L602 388L560 420.9Z" fill="#f8fcfb" stroke="#f8fcfb"></path><path d="M602 388L648 355.6L612 313.3Z" fill="#fdfefe" stroke="#fdfefe"></path><path d="M206 383.4L218 386.6L232 350.6Z" fill="#eef8f7" stroke="#eef8f7"></path><path d="M232 350.6L218 386.6L284 391.9Z" fill="#f8fcfb" stroke="#f8fcfb"></path><path d="M648 355.6L648 329.1L612 313.3Z" fill="#fdfefe" stroke="#fdfefe"></path><path d="M694 157.6L634 161.6L628 207.4Z" fill="#e6f4f4" stroke="#e6f4f4"></path><path d="M590 483.6L589 447.6L505 465.3Z" fill="#e6f4f4" stroke="#e6f4f4"></path><path d="M505 465.3L589 447.6L560 420.9Z" fill="#f5fbfa" stroke="#f5fbfa"></path><path d="M590 483.6L505 465.3L568 509.1Z" fill="#e6f4f4" stroke="#e6f4f4"></path><path d="M184 305L199 341.9L254 328.1Z" fill="#fdfefe" stroke="#fdfefe"></path><path d="M556 98.4L540 91.9L544 120.7Z" fill="#ffffff" stroke="#ffffff"></path><path d="M544 120.7L540 91.9L493 148.7Z" fill="#ebf6f6" stroke="#ebf6f6"></path><path d="M556 98.4L544 120.7L594 130.7Z" fill="#ffffff" stroke="#ffffff"></path><path d="M547 169.3L591 167.4L594 130.7Z" fill="#e6f4f4" stroke="#e6f4f4"></path><path d="M594 130.7L591 167.4L634 161.6Z" fill="#eef8f7" stroke="#eef8f7"></path><path d="M239 48.9L266 116.7L320 108.7Z" fill="#eef8f7" stroke="#eef8f7"></path><path d="M216 147.4L233 245.3L274 162.4Z" fill="#f8fcfb" stroke="#f8fcfb"></path><path d="M634 161.6L591 167.4L593 169.6Z" fill="#eef8f7" stroke="#eef8f7"></path><path d="M206 383.4L232 426.3L218 386.6Z" fill="#f3faf9" stroke="#f3faf9"></path><path d="M218 386.6L232 426.3L284 391.9Z" fill="#ebf6f6" stroke="#ebf6f6"></path><path d="M297 448.3L265 473.6L318 462.6Z" fill="#fdfefe" stroke="#fdfefe"></path><path d="M318 462.6L368 539.4L386 497.4Z" fill="#e6f4f4" stroke="#e6f4f4"></path><path d="M651 369L648 355.6L625 387.4Z" fill="#f0f9f8" stroke="#f0f9f8"></path><path d="M625 387.4L648 355.6L602 388Z" fill="#f3faf9" stroke="#f3faf9"></path><path d="M199 341.9L197 358.7L232 350.6Z" fill="#fafdfd" stroke="#fafdfd"></path><path d="M182 361.7L197 358.7L199 341.9Z" fill="#f5fbfa" stroke="#f5fbfa"></path><path d="M197 358.7L206 383.4L232 350.6Z" fill="#f8fcfb" stroke="#f8fcfb"></path><path d="M216 147.4L274 162.4L271 153.3Z" fill="#fafdfd" stroke="#fafdfd"></path><path d="M207 251.9L184 305L254 328.1Z" fill="#f3faf9" stroke="#f3faf9"></path><path d="M521 9.9L513 71.9L551 0Z" fill="#eef8f7" stroke="#eef8f7"></path><path d="M540 91.9L513 71.9L493 148.7Z" fill="#e9f5f5" stroke="#e9f5f5"></path><path d="M171 236.3L184 305L207 251.9Z" fill="#fafdfd" stroke="#fafdfd"></path><path d="M589 447.6L618 428.4L560 420.9Z" fill="#eef8f7" stroke="#eef8f7"></path><path d="M694 432.3L651 369L625 387.4Z" fill="#ebf6f6" stroke="#ebf6f6"></path><path d="M648 355.6L673 349.9L648 329.1Z" fill="#fafdfd" stroke="#fafdfd"></path><path d="M232 426.3L265 473.6L297 431.3Z" fill="#fdfefe" stroke="#fdfefe"></path><path d="M399 40.6L391 157.6L493 148.7Z" fill="#f0f9f8" stroke="#f0f9f8"></path><path d="M335 94.7L239 48.9L320 108.7Z" fill="#ebf6f6" stroke="#ebf6f6"></path><path d="M667 242.1L623 263.9L638 276.1Z" fill="#fdfefe" stroke="#fdfefe"></path><path d="M628 207.4L634 161.6L593 169.6Z" fill="#f3faf9" stroke="#f3faf9"></path><path d="M594 130.7L609 123.7L556 98.4Z" fill="#ebf6f6" stroke="#ebf6f6"></path><path d="M232 426.3L260 478.3L265 473.6Z" fill="#e9f5f5" stroke="#e9f5f5"></path><path d="M265 473.6L271 551.4L318 462.6Z" fill="#f0f9f8" stroke="#f0f9f8"></path><path d="M203 518.6L260 478.3L232 426.3Z" fill="#ebf6f6" stroke="#ebf6f6"></path><path d="M679 261.1L638 276.1L648 329.1Z" fill="#fafdfd" stroke="#fafdfd"></path><path d="M679 261.1L667 242.1L638 276.1Z" fill="#f5fbfa" stroke="#f5fbfa"></path><path d="M634 161.6L609 123.7L594 130.7Z" fill="#f0f9f8" stroke="#f0f9f8"></path><path d="M551 0L513 71.9L540 91.9Z" fill="#f5fbfa" stroke="#f5fbfa"></path><path d="M513 71.9L399 40.6L493 148.7Z" fill="#fdfefe" stroke="#fdfefe"></path><path d="M221 53.7L216 147.4L266 116.7Z" fill="#e6f4f4" stroke="#e6f4f4"></path><path d="M197 358.7L190 386.7L206 383.4Z" fill="#ebf6f6" stroke="#ebf6f6"></path><path d="M206 383.4L190 386.7L232 426.3Z" fill="#e9f5f5" stroke="#e9f5f5"></path><path d="M184 305L182 361.7L199 341.9Z" fill="#f8fcfb" stroke="#f8fcfb"></path><path d="M266 116.7L216 147.4L271 153.3Z" fill="#ebf6f6" stroke="#ebf6f6"></path><path d="M182 361.7L190 386.7L197 358.7Z" fill="#f0f9f8" stroke="#f0f9f8"></path><path d="M271 551.4L368 539.4L318 462.6Z" fill="#fdfefe" stroke="#fdfefe"></path><path d="M386 497.4L426 551.4L429 479.7Z" fill="#f0f9f8" stroke="#f0f9f8"></path><path d="M544 521.1L505 465.3L501 466.6Z" fill="#f3faf9" stroke="#f3faf9"></path><path d="M589 447.6L636 495.1L618 428.4Z" fill="#f5fbfa" stroke="#f5fbfa"></path><path d="M677 368.9L673 349.9L651 369Z" fill="#f3faf9" stroke="#f3faf9"></path><path d="M156 176.3L171 236.3L193 235Z" fill="#f5fbfa" stroke="#f5fbfa"></path><path d="M193 235L171 236.3L207 251.9Z" fill="#fdfefe" stroke="#fdfefe"></path><path d="M184 305L121 336L182 361.7Z" fill="#f5fbfa" stroke="#f5fbfa"></path><path d="M677 368.9L651 369L694 432.3Z" fill="#f0f9f8" stroke="#f0f9f8"></path><path d="M651 369L673 349.9L648 355.6Z" fill="#ebf6f6" stroke="#ebf6f6"></path><path d="M673 349.9L679 261.1L648 329.1Z" fill="#f3faf9" stroke="#f3faf9"></path><path d="M694 157.6L655 135.6L634 161.6Z" fill="#fafdfd" stroke="#fafdfd"></path><path d="M491 550.4L501 466.6L429 479.7Z" fill="#fdfefe" stroke="#fdfefe"></path><path d="M634 161.6L623 122.6L609 123.7Z" fill="#e6f4f4" stroke="#e6f4f4"></path><path d="M611 0L593 0L556 98.4Z" fill="#ffffff" stroke="#ffffff"></path><path d="M655 135.6L623 122.6L634 161.6Z" fill="#ffffff" stroke="#ffffff"></path><path d="M368 539.4L426 551.4L386 497.4Z" fill="#f0f9f8" stroke="#f0f9f8"></path><path d="M544 521.1L568 509.1L505 465.3Z" fill="#fdfefe" stroke="#fdfefe"></path><path d="M694 432.3L625 387.4L618 428.4Z" fill="#e6f4f4" stroke="#e6f4f4"></path><path d="M673 349.9L744 343.9L679 261.1Z" fill="#f8fcfb" stroke="#f8fcfb"></path><path d="M568 509.1L584 524.3L590 483.6Z" fill="#f5fbfa" stroke="#f5fbfa"></path><path d="M544 521.1L560 519.3L568 509.1Z" fill="#f0f9f8" stroke="#f0f9f8"></path><path d="M584 524.3L560 519.3L536 604.3Z" fill="#ffffff" stroke="#ffffff"></path><path d="M426 551.4L491 550.4L429 479.7Z" fill="#f5fbfa" stroke="#f5fbfa"></path><path d="M368 539.4L426 567.1L426 551.4Z" fill="#f8fcfb" stroke="#f8fcfb"></path><path d="M426 551.4L460 592.1L491 550.4Z" fill="#e9f5f5" stroke="#e9f5f5"></path><path d="M694 157.6L628 207.4L667 242.1Z" fill="#fdfefe" stroke="#fdfefe"></path><path d="M512 0L429 0L513 71.9Z" fill="#e9f5f5" stroke="#e9f5f5"></path><path d="M221 53.7L173 156.6L216 147.4Z" fill="#e9f5f5" stroke="#e9f5f5"></path><path d="M216 147.4L173 156.6L193 235Z" fill="#fafdfd" stroke="#fafdfd"></path><path d="M327 2.9L335 94.7L387 47.6Z" fill="#f8fcfb" stroke="#f8fcfb"></path><path d="M536 604.3L560 519.3L544 521.1Z" fill="#e6f4f4" stroke="#e6f4f4"></path><path d="M560 519.3L584 524.3L568 509.1Z" fill="#e6f4f4" stroke="#e6f4f4"></path><path d="M590 483.6L636 495.1L589 447.6Z" fill="#e9f5f5" stroke="#e9f5f5"></path><path d="M173 156.6L156 176.3L193 235Z" fill="#ffffff" stroke="#ffffff"></path><path d="M171 236.3L131 292.9L184 305Z" fill="#fafdfd" stroke="#fafdfd"></path><path d="M513 71.9L429 0L399 40.6Z" fill="#f8fcfb" stroke="#f8fcfb"></path><path d="M399 40.6L366 0L387 47.6Z" fill="#ebf6f6" stroke="#ebf6f6"></path><path d="M540 91.9L556 98.4L551 0Z" fill="#f0f9f8" stroke="#f0f9f8"></path><path d="M429 0L401 0L399 40.6Z" fill="#e6f4f4" stroke="#e6f4f4"></path><path d="M104 260.9L131 292.9L171 236.3Z" fill="#e9f5f5" stroke="#e9f5f5"></path><path d="M182 361.7L133 380.7L190 386.7Z" fill="#fdfefe" stroke="#fdfefe"></path><path d="M401 0L366 0L399 40.6Z" fill="#f8fcfb" stroke="#f8fcfb"></path><path d="M584 524.3L636 495.1L590 483.6Z" fill="#f0f9f8" stroke="#f0f9f8"></path><path d="M551 0L556 98.4L593 0Z" fill="#ebf6f6" stroke="#ebf6f6"></path><path d="M104 260.9L125 305.1L131 292.9Z" fill="#f8fcfb" stroke="#f8fcfb"></path><path d="M131 292.9L125 305.1L184 305Z" fill="#f3faf9" stroke="#f3faf9"></path><path d="M203 518.6L271 551.4L260 478.3Z" fill="#fdfefe" stroke="#fdfefe"></path><path d="M271 551.4L347 582.3L368 539.4Z" fill="#f5fbfa" stroke="#f5fbfa"></path><path d="M386 600L406 600L426 567.1Z" fill="#eef8f7" stroke="#eef8f7"></path><path d="M429 0L403 -11.3L401 0Z" fill="#f0f9f8" stroke="#f0f9f8"></path><path d="M401 0L403 -11.3L366 0Z" fill="#f3faf9" stroke="#f3faf9"></path><path d="M512 0L403 -11.3L429 0Z" fill="#f8fcfb" stroke="#f8fcfb"></path><path d="M203 518.6L232 426.3L166 518.3Z" fill="#f3faf9" stroke="#f3faf9"></path><path d="M260 478.3L271 551.4L265 473.6Z" fill="#e6f4f4" stroke="#e6f4f4"></path><path d="M712 170.3L694 157.6L667 242.1Z" fill="#f8fcfb" stroke="#f8fcfb"></path><path d="M655 135.6L680 102.4L623 122.6Z" fill="#e9f5f5" stroke="#e9f5f5"></path><path d="M712 170.3L667 242.1L743 202.1Z" fill="#e6f4f4" stroke="#e6f4f4"></path><path d="M335 0L387 47.6L366 0Z" fill="#fdfefe" stroke="#fdfefe"></path><path d="M335 0L327 2.9L387 47.6Z" fill="#fdfefe" stroke="#fdfefe"></path><path d="M273 -42.1L335 0L366 0Z" fill="#f8fcfb" stroke="#f8fcfb"></path><path d="M319 0L239 48.9L335 94.7Z" fill="#ffffff" stroke="#ffffff"></path><path d="M173 156.6L141 141.4L156 176.3Z" fill="#fafdfd" stroke="#fafdfd"></path><path d="M121 336L133 380.7L182 361.7Z" fill="#e9f5f5" stroke="#e9f5f5"></path><path d="M551 0L512 0L521 9.9Z" fill="#fafdfd" stroke="#fafdfd"></path><path d="M521 9.9L512 0L513 71.9Z" fill="#fdfefe" stroke="#fdfefe"></path><path d="M442 600L460 592.1L426 567.1Z" fill="#eef8f7" stroke="#eef8f7"></path><path d="M426 567.1L460 592.1L426 551.4Z" fill="#ebf6f6" stroke="#ebf6f6"></path><path d="M491 550.4L517 600L544 521.1Z" fill="#f0f9f8" stroke="#f0f9f8"></path><path d="M125 305.1L121 336L184 305Z" fill="#ebf6f6" stroke="#ebf6f6"></path><path d="M141 141.4L130 203.1L156 176.3Z" fill="#f0f9f8" stroke="#f0f9f8"></path><path d="M156 176.3L130 203.1L171 236.3Z" fill="#f8fcfb" stroke="#f8fcfb"></path><path d="M125 305.1L60 307.1L121 336Z" fill="#fdfefe" stroke="#fdfefe"></path><path d="M694 157.6L683 130.3L655 135.6Z" fill="#e9f5f5" stroke="#e9f5f5"></path><path d="M682 466.4L694 432.3L618 428.4Z" fill="#fafdfd" stroke="#fafdfd"></path><path d="M677 368.9L744 343.9L673 349.9Z" fill="#f8fcfb" stroke="#f8fcfb"></path><path d="M335 0L319 0L327 2.9Z" fill="#f3faf9" stroke="#f3faf9"></path><path d="M327 2.9L319 0L335 94.7Z" fill="#e9f5f5" stroke="#e9f5f5"></path><path d="M273 -42.1L319 0L335 0Z" fill="#f3faf9" stroke="#f3faf9"></path><path d="M386 600L426 567.1L368 539.4Z" fill="#f5fbfa" stroke="#f5fbfa"></path><path d="M406 600L442 600L426 567.1Z" fill="#f8fcfb" stroke="#f8fcfb"></path><path d="M218 11.7L221 53.7L239 48.9Z" fill="#f5fbfa" stroke="#f5fbfa"></path><path d="M239 48.9L221 53.7L266 116.7Z" fill="#ebf6f6" stroke="#ebf6f6"></path><path d="M347 582.3L386 600L368 539.4Z" fill="#e6f4f4" stroke="#e6f4f4"></path><path d="M353 600L386 600L347 582.3Z" fill="#f8fcfb" stroke="#f8fcfb"></path><path d="M442 600L461 600L460 592.1Z" fill="#eef8f7" stroke="#eef8f7"></path><path d="M460 592.1L517 600L491 550.4Z" fill="#eef8f7" stroke="#eef8f7"></path><path d="M584 524.3L622 600L636 495.1Z" fill="#f0f9f8" stroke="#f0f9f8"></path><path d="M743 202.1L667 242.1L679 261.1Z" fill="#fdfefe" stroke="#fdfefe"></path><path d="M694 157.6L712 122.9L683 130.3Z" fill="#f5fbfa" stroke="#f5fbfa"></path><path d="M636 495.1L682 466.4L618 428.4Z" fill="#eef8f7" stroke="#eef8f7"></path><path d="M119 440.9L232 426.3L190 386.7Z" fill="#f3faf9" stroke="#f3faf9"></path><path d="M556 98.4L609 123.7L611 0Z" fill="#ebf6f6" stroke="#ebf6f6"></path><path d="M512 0L653 -19.1L403 -11.3Z" fill="#ffffff" stroke="#ffffff"></path><path d="M288 585.1L347 582.3L271 551.4Z" fill="#f3faf9" stroke="#f3faf9"></path><path d="M288 585.1L353 600L347 582.3Z" fill="#f8fcfb" stroke="#f8fcfb"></path><path d="M221 53.7L141 141.4L173 156.6Z" fill="#ebf6f6" stroke="#ebf6f6"></path><path d="M712 122.9L680 102.4L683 130.3Z" fill="#f8fcfb" stroke="#f8fcfb"></path><path d="M683 130.3L680 102.4L655 135.6Z" fill="#eef8f7" stroke="#eef8f7"></path><path d="M89 192.3L104 260.9L130 203.1Z" fill="#fafdfd" stroke="#fafdfd"></path><path d="M130 203.1L104 260.9L171 236.3Z" fill="#ebf6f6" stroke="#ebf6f6"></path><path d="M461 600L517 600L460 592.1Z" fill="#f0f9f8" stroke="#f0f9f8"></path><path d="M636 495.1L695 475.3L682 466.4Z" fill="#fdfefe" stroke="#fdfefe"></path><path d="M264 613.1L288 585.1L232 600Z" fill="#f0f9f8" stroke="#f0f9f8"></path><path d="M762 377.9L677 368.9L694 432.3Z" fill="#e6f4f4" stroke="#e6f4f4"></path><path d="M762 377.9L744 343.9L677 368.9Z" fill="#ffffff" stroke="#ffffff"></path><path d="M723 496.4L695 475.3L716 510.6Z" fill="#f8fcfb" stroke="#f8fcfb"></path><path d="M682 466.4L705 471.7L694 432.3Z" fill="#f0f9f8" stroke="#f0f9f8"></path><path d="M319 0L266 0L239 48.9Z" fill="#f0f9f8" stroke="#f0f9f8"></path><path d="M136 49.6L115 117.7L141 141.4Z" fill="#eef8f7" stroke="#eef8f7"></path><path d="M273 -42.1L266 0L319 0Z" fill="#ebf6f6" stroke="#ebf6f6"></path><path d="M765 261L743 202.1L679 261.1Z" fill="#e6f4f4" stroke="#e6f4f4"></path><path d="M712 170.3L712 122.9L694 157.6Z" fill="#f5fbfa" stroke="#f5fbfa"></path><path d="M60 307.1L101 376L121 336Z" fill="#f5fbfa" stroke="#f5fbfa"></path><path d="M121 336L101 376L133 380.7Z" fill="#f5fbfa" stroke="#f5fbfa"></path><path d="M133 380.7L119 440.9L190 386.7Z" fill="#ebf6f6" stroke="#ebf6f6"></path><path d="M461 600L536 604.3L517 600Z" fill="#e9f5f5" stroke="#e9f5f5"></path><path d="M517 600L536 604.3L544 521.1Z" fill="#f5fbfa" stroke="#f5fbfa"></path><path d="M634 628.1L536 604.3L654 646.1Z" fill="#ebf6f6" stroke="#ebf6f6"></path><path d="M536 604.3L461 600L654 646.1Z" fill="#e6f4f4" stroke="#e6f4f4"></path><path d="M461 600L442 600L654 646.1Z" fill="#ebf6f6" stroke="#ebf6f6"></path><path d="M264 613.1L406 600L386 600Z" fill="#ebf6f6" stroke="#ebf6f6"></path><path d="M743 141.6L712 122.9L712 170.3Z" fill="#f8fcfb" stroke="#f8fcfb"></path><path d="M611 0L609 123.7L623 122.6Z" fill="#f5fbfa" stroke="#f5fbfa"></path><path d="M723 496.4L705 471.7L695 475.3Z" fill="#f0f9f8" stroke="#f0f9f8"></path><path d="M695 475.3L705 471.7L682 466.4Z" fill="#eef8f7" stroke="#eef8f7"></path><path d="M611 0L623 122.6L662 24.7Z" fill="#fafdfd" stroke="#fafdfd"></path><path d="M653 -19.1L273 -42.1L403 -11.3Z" fill="#ebf6f6" stroke="#ebf6f6"></path><path d="M93 419.3L119 440.9L133 380.7Z" fill="#e9f5f5" stroke="#e9f5f5"></path><path d="M743 202.1L746 187.4L712 170.3Z" fill="#f8fcfb" stroke="#f8fcfb"></path><path d="M825 202.4L746 187.4L743 202.1Z" fill="#f0f9f8" stroke="#f0f9f8"></path><path d="M119 440.9L166 518.3L232 426.3Z" fill="#f3faf9" stroke="#f3faf9"></path><path d="M203 518.6L232 600L271 551.4Z" fill="#ebf6f6" stroke="#ebf6f6"></path><path d="M744 343.9L765 261L679 261.1Z" fill="#e6f4f4" stroke="#e6f4f4"></path><path d="M179 544.1L170 525.1L152 558.4Z" fill="#f3faf9" stroke="#f3faf9"></path><path d="M166 518.3L170 525.1L203 518.6Z" fill="#fafdfd" stroke="#fafdfd"></path><path d="M228 0L218 11.7L239 48.9Z" fill="#f5fbfa" stroke="#f5fbfa"></path><path d="M662 24.7L623 122.6L680 102.4Z" fill="#ffffff" stroke="#ffffff"></path><path d="M653 -19.1L512 0L551 0Z" fill="#f5fbfa" stroke="#f5fbfa"></path><path d="M115 117.7L89 192.3L141 141.4Z" fill="#fafdfd" stroke="#fafdfd"></path><path d="M141 141.4L89 192.3L130 203.1Z" fill="#f5fbfa" stroke="#f5fbfa"></path><path d="M104 260.9L60 307.1L125 305.1Z" fill="#ffffff" stroke="#ffffff"></path><path d="M266 0L228 0L239 48.9Z" fill="#f0f9f8" stroke="#f0f9f8"></path><path d="M229 -26.1L228 0L266 0Z" fill="#e9f5f5" stroke="#e9f5f5"></path><path d="M737 457.7L762 377.9L694 432.3Z" fill="#e6f4f4" stroke="#e6f4f4"></path><path d="M744 343.9L783 320.9L765 261Z" fill="#ebf6f6" stroke="#ebf6f6"></path><path d="M743 141.6L714 93.7L712 122.9Z" fill="#f0f9f8" stroke="#f0f9f8"></path><path d="M712 122.9L714 93.7L680 102.4Z" fill="#f3faf9" stroke="#f3faf9"></path><path d="M152 558.4L170 525.1L166 518.3Z" fill="#f0f9f8" stroke="#f0f9f8"></path><path d="M170 525.1L179 544.1L203 518.6Z" fill="#ffffff" stroke="#ffffff"></path><path d="M136 49.6L141 141.4L221 53.7Z" fill="#f3faf9" stroke="#f3faf9"></path><path d="M163 29.6L221 53.7L218 11.7Z" fill="#e6f4f4" stroke="#e6f4f4"></path><path d="M827 192.1L743 141.6L746 187.4Z" fill="#ebf6f6" stroke="#ebf6f6"></path><path d="M746 187.4L743 141.6L712 170.3Z" fill="#ffffff" stroke="#ffffff"></path><path d="M762 377.9L773 335.7L744 343.9Z" fill="#e9f5f5" stroke="#e9f5f5"></path><path d="M101 376L93 419.3L133 380.7Z" fill="#ebf6f6" stroke="#ebf6f6"></path><path d="M119 440.9L110 460.6L166 518.3Z" fill="#eef8f7" stroke="#eef8f7"></path><path d="M63 416.4L93 419.3L101 376Z" fill="#fdfefe" stroke="#fdfefe"></path><path d="M93 419.3L110 460.6L119 440.9Z" fill="#f5fbfa" stroke="#f5fbfa"></path><path d="M745 456.6L737 457.7L753 477.7Z" fill="#ffffff" stroke="#ffffff"></path><path d="M705 471.7L737 457.7L694 432.3Z" fill="#ffffff" stroke="#ffffff"></path><path d="M536 604.3L600 600L584 524.3Z" fill="#ebf6f6" stroke="#ebf6f6"></path><path d="M701 35.9L662 24.7L680 102.4Z" fill="#fafdfd" stroke="#fafdfd"></path><path d="M662 24.7L634 0L611 0Z" fill="#e6f4f4" stroke="#e6f4f4"></path><path d="M653 -19.1L551 0L593 0Z" fill="#f0f9f8" stroke="#f0f9f8"></path><path d="M288 585.1L264 613.1L353 600Z" fill="#fdfefe" stroke="#fdfefe"></path><path d="M353 600L264 613.1L386 600Z" fill="#e9f5f5" stroke="#e9f5f5"></path><path d="M232 600L288 585.1L271 551.4Z" fill="#fafdfd" stroke="#fafdfd"></path><path d="M779 388L773 335.7L762 377.9Z" fill="#f8fcfb" stroke="#f8fcfb"></path><path d="M808 336.1L783 320.9L773 335.7Z" fill="#ffffff" stroke="#ffffff"></path><path d="M773 335.7L783 320.9L744 343.9Z" fill="#f3faf9" stroke="#f3faf9"></path><path d="M765 261L795 258L743 202.1Z" fill="#ebf6f6" stroke="#ebf6f6"></path><path d="M723 496.4L737 457.7L705 471.7Z" fill="#ebf6f6" stroke="#ebf6f6"></path><path d="M737 457.7L745 456.6L762 377.9Z" fill="#fafdfd" stroke="#fafdfd"></path><path d="M58 244.4L60 307.1L104 260.9Z" fill="#e9f5f5" stroke="#e9f5f5"></path><path d="M218 600L232 600L203 518.6Z" fill="#f8fcfb" stroke="#f8fcfb"></path><path d="M653 -19.1L593 0L611 0Z" fill="#f5fbfa" stroke="#f5fbfa"></path><path d="M403 -11.3L273 -42.1L366 0Z" fill="#fdfefe" stroke="#fdfefe"></path><path d="M716 510.6L695 475.3L636 495.1Z" fill="#e9f5f5" stroke="#e9f5f5"></path><path d="M229 -26.1L201 0L228 0Z" fill="#fafdfd" stroke="#fafdfd"></path><path d="M228 0L201 0L218 11.7Z" fill="#fdfefe" stroke="#fdfefe"></path><path d="M658 600L716 510.6L636 495.1Z" fill="#fdfefe" stroke="#fdfefe"></path><path d="M792 418.4L784 403.7L745 456.6Z" fill="#e6f4f4" stroke="#e6f4f4"></path><path d="M36 189.6L58 244.4L89 192.3Z" fill="#fdfefe" stroke="#fdfefe"></path><path d="M89 192.3L58 244.4L104 260.9Z" fill="#f0f9f8" stroke="#f0f9f8"></path><path d="M201 0L163 29.6L218 11.7Z" fill="#e6f4f4" stroke="#e6f4f4"></path><path d="M662 24.7L669 16.9L634 0Z" fill="#e6f4f4" stroke="#e6f4f4"></path><path d="M701 35.9L669 16.9L662 24.7Z" fill="#f8fcfb" stroke="#f8fcfb"></path><path d="M701 35.9L680 102.4L714 93.7Z" fill="#f5fbfa" stroke="#f5fbfa"></path><path d="M634 628.1L622 600L600 600Z" fill="#fafdfd" stroke="#fafdfd"></path><path d="M600 600L622 600L584 524.3Z" fill="#f3faf9" stroke="#f3faf9"></path><path d="M784 403.7L779 388L762 377.9Z" fill="#eef8f7" stroke="#eef8f7"></path><path d="M63 416.4L110 460.6L93 419.3Z" fill="#fdfefe" stroke="#fdfefe"></path><path d="M63 416.4L109 486.3L110 460.6Z" fill="#f8fcfb" stroke="#f8fcfb"></path><path d="M110 460.6L109 486.3L166 518.3Z" fill="#ebf6f6" stroke="#ebf6f6"></path><path d="M179 544.1L218 600L203 518.6Z" fill="#fdfefe" stroke="#fdfefe"></path><path d="M273 -42.1L229 -26.1L266 0Z" fill="#ebf6f6" stroke="#ebf6f6"></path><path d="M201 0L151 14.9L163 29.6Z" fill="#e6f4f4" stroke="#e6f4f4"></path><path d="M213 600L218 600L179 544.1Z" fill="#e9f5f5" stroke="#e9f5f5"></path><path d="M232 600L214 610.1L264 613.1Z" fill="#f5fbfa" stroke="#f5fbfa"></path><path d="M809 294.3L765 261L783 320.9Z" fill="#e6f4f4" stroke="#e6f4f4"></path><path d="M809 294.3L795 258L765 261Z" fill="#e6f4f4" stroke="#e6f4f4"></path><path d="M186 600L213 600L179 544.1Z" fill="#f8fcfb" stroke="#f8fcfb"></path><path d="M218 600L214 610.1L232 600Z" fill="#e6f4f4" stroke="#e6f4f4"></path><path d="M151 14.9L136 49.6L163 29.6Z" fill="#f8fcfb" stroke="#f8fcfb"></path><path d="M163 29.6L136 49.6L221 53.7Z" fill="#fdfefe" stroke="#fdfefe"></path><path d="M115 117.7L63 138.3L89 192.3Z" fill="#fafdfd" stroke="#fafdfd"></path><path d="M712 0L701 35.9L719 0Z" fill="#f5fbfa" stroke="#f5fbfa"></path><path d="M701 35.9L714 93.7L772 70.7Z" fill="#e6f4f4" stroke="#e6f4f4"></path><path d="M753 477.7L737 457.7L723 496.4Z" fill="#ffffff" stroke="#ffffff"></path><path d="M745 456.6L784 403.7L762 377.9Z" fill="#ebf6f6" stroke="#ebf6f6"></path><path d="M808 336.1L809 294.3L783 320.9Z" fill="#f3faf9" stroke="#f3faf9"></path><path d="M770 463.6L753 477.7L770 517.6Z" fill="#fafdfd" stroke="#fafdfd"></path><path d="M770 517.6L753 477.7L723 496.4Z" fill="#fdfefe" stroke="#fdfefe"></path><path d="M109 486.3L152 558.4L166 518.3Z" fill="#f0f9f8" stroke="#f0f9f8"></path><path d="M42 404.7L63 416.4L101 376Z" fill="#f5fbfa" stroke="#f5fbfa"></path><path d="M109 486.3L82 539.1L152 558.4Z" fill="#ffffff" stroke="#ffffff"></path><path d="M42 404.7L101 376L60 307.1Z" fill="#ebf6f6" stroke="#ebf6f6"></path><path d="M186 600L214 610.1L213 600Z" fill="#f8fcfb" stroke="#f8fcfb"></path><path d="M213 600L214 610.1L218 600Z" fill="#f8fcfb" stroke="#f8fcfb"></path><path d="M712 0L653 -19.1L669 16.9Z" fill="#f0f9f8" stroke="#f0f9f8"></path><path d="M669 16.9L653 -19.1L634 0Z" fill="#e9f5f5" stroke="#e9f5f5"></path><path d="M634 0L653 -19.1L611 0Z" fill="#f0f9f8" stroke="#f0f9f8"></path><path d="M808 336.1L773 335.7L779 388Z" fill="#f3faf9" stroke="#f3faf9"></path><path d="M185 -42.1L151 14.9L201 0Z" fill="#e6f4f4" stroke="#e6f4f4"></path><path d="M784 403.7L808 336.1L779 388Z" fill="#ebf6f6" stroke="#ebf6f6"></path><path d="M753 477.7L770 463.6L745 456.6Z" fill="#eef8f7" stroke="#eef8f7"></path><path d="M784 403.7L873 357.6L808 336.1Z" fill="#f0f9f8" stroke="#f0f9f8"></path><path d="M770 517.6L723 496.4L716 510.6Z" fill="#f8fcfb" stroke="#f8fcfb"></path><path d="M634 628.1L658 600L622 600Z" fill="#ffffff" stroke="#ffffff"></path><path d="M622 600L658 600L636 495.1Z" fill="#e9f5f5" stroke="#e9f5f5"></path><path d="M173 600L186 600L179 544.1Z" fill="#fdfefe" stroke="#fdfefe"></path><path d="M103 54.6L115 117.7L136 49.6Z" fill="#fdfefe" stroke="#fdfefe"></path><path d="M103 54.6L63 138.3L115 117.7Z" fill="#f3faf9" stroke="#f3faf9"></path><path d="M770 463.6L792 418.4L745 456.6Z" fill="#f3faf9" stroke="#f3faf9"></path><path d="M90 37.7L103 54.6L136 49.6Z" fill="#fafdfd" stroke="#fafdfd"></path><path d="M0 364L42 404.7L60 307.1Z" fill="#fafdfd" stroke="#fafdfd"></path><path d="M0 476.1L82 539.1L109 486.3Z" fill="#f3faf9" stroke="#f3faf9"></path><path d="M0 292.3L60 307.1L58 244.4Z" fill="#ffffff" stroke="#ffffff"></path><path d="M102 609.3L173 600L152 558.4Z" fill="#f3faf9" stroke="#f3faf9"></path><path d="M152 558.4L173 600L179 544.1Z" fill="#f5fbfa" stroke="#f5fbfa"></path><path d="M186 600L173 600L214 610.1Z" fill="#fafdfd" stroke="#fafdfd"></path><path d="M536 604.3L634 628.1L600 600Z" fill="#e9f5f5" stroke="#e9f5f5"></path><path d="M654 646.1L442 600L406 600Z" fill="#f8fcfb" stroke="#f8fcfb"></path><path d="M53 137.9L36 189.6L63 138.3Z" fill="#fdfefe" stroke="#fdfefe"></path><path d="M63 138.3L36 189.6L89 192.3Z" fill="#e6f4f4" stroke="#e6f4f4"></path><path d="M15 112.4L53 137.9L63 138.3Z" fill="#f8fcfb" stroke="#f8fcfb"></path><path d="M229 -26.1L185 -42.1L201 0Z" fill="#f5fbfa" stroke="#f5fbfa"></path><path d="M99 0L90 37.7L136 49.6Z" fill="#e6f4f4" stroke="#e6f4f4"></path><path d="M273 -42.1L185 -42.1L229 -26.1Z" fill="#fafdfd" stroke="#fafdfd"></path><path d="M772 70.7L714 93.7L743 141.6Z" fill="#ebf6f6" stroke="#ebf6f6"></path><path d="M701 35.9L712 0L669 16.9Z" fill="#eef8f7" stroke="#eef8f7"></path><path d="M825 202.4L743 202.1L795 258Z" fill="#ffffff" stroke="#ffffff"></path><path d="M840 224.1L795 258L809 294.3Z" fill="#ebf6f6" stroke="#ebf6f6"></path><path d="M840 224.1L825 202.4L795 258Z" fill="#f8fcfb" stroke="#f8fcfb"></path><path d="M788 71.6L772 70.7L743 141.6Z" fill="#fafdfd" stroke="#fafdfd"></path><path d="M779 54.7L719 0L701 35.9Z" fill="#f8fcfb" stroke="#f8fcfb"></path><path d="M712 0L719 0L653 -19.1Z" fill="#ffffff" stroke="#ffffff"></path><path d="M777 566.3L770 517.6L716 510.6Z" fill="#f0f9f8" stroke="#f0f9f8"></path><path d="M770 463.6L810 448.4L792 418.4Z" fill="#fdfefe" stroke="#fdfefe"></path><path d="M797 528.1L770 517.6L777 566.3Z" fill="#fdfefe" stroke="#fdfefe"></path><path d="M840 224.1L827 192.1L825 202.4Z" fill="#ebf6f6" stroke="#ebf6f6"></path><path d="M825 202.4L827 192.1L746 187.4Z" fill="#ebf6f6" stroke="#ebf6f6"></path><path d="M99 0L136 49.6L151 14.9Z" fill="#ebf6f6" stroke="#ebf6f6"></path><path d="M103 54.6L15 112.4L63 138.3Z" fill="#e9f5f5" stroke="#e9f5f5"></path><path d="M817 459.7L810 448.4L770 463.6Z" fill="#e9f5f5" stroke="#e9f5f5"></path><path d="M792 418.4L873 357.6L784 403.7Z" fill="#f8fcfb" stroke="#f8fcfb"></path><path d="M900 266.3L840 224.1L809 294.3Z" fill="#e6f4f4" stroke="#e6f4f4"></path><path d="M0 176.6L14 189.1L36 189.6Z" fill="#f5fbfa" stroke="#f5fbfa"></path><path d="M36 189.6L14 189.1L58 244.4Z" fill="#e6f4f4" stroke="#e6f4f4"></path><path d="M0 176.6L36 189.6L53 137.9Z" fill="#f5fbfa" stroke="#f5fbfa"></path><path d="M0 476.1L109 486.3L63 416.4Z" fill="#e6f4f4" stroke="#e6f4f4"></path><path d="M0 258.4L0 292.3L58 244.4Z" fill="#eef8f7" stroke="#eef8f7"></path><path d="M5 537.1L74 551.4L82 539.1Z" fill="#ffffff" stroke="#ffffff"></path><path d="M873 357.6L809 294.3L808 336.1Z" fill="#e9f5f5" stroke="#e9f5f5"></path><path d="M82 539.1L101 564.4L152 558.4Z" fill="#fdfefe" stroke="#fdfefe"></path><path d="M14 189.1L0 258.4L58 244.4Z" fill="#f0f9f8" stroke="#f0f9f8"></path><path d="M264 613.1L654 646.1L406 600Z" fill="#f8fcfb" stroke="#f8fcfb"></path><path d="M634 628.1L654 646.1L658 600Z" fill="#f0f9f8" stroke="#f0f9f8"></path><path d="M115 635.1L654 646.1L264 613.1Z" fill="#e6f4f4" stroke="#e6f4f4"></path><path d="M804 76.9L788 71.6L827 117.3Z" fill="#f5fbfa" stroke="#f5fbfa"></path><path d="M772 70.7L779 54.7L701 35.9Z" fill="#f0f9f8" stroke="#f0f9f8"></path><path d="M788 71.6L743 141.6L827 117.3Z" fill="#ffffff" stroke="#ffffff"></path><path d="M0 292.3L0 343.1L60 307.1Z" fill="#fdfefe" stroke="#fdfefe"></path><path d="M788 71.6L779 54.7L772 70.7Z" fill="#fdfefe" stroke="#fdfefe"></path><path d="M0 343.1L0 364L60 307.1Z" fill="#e9f5f5" stroke="#e9f5f5"></path><path d="M770 517.6L817 459.7L770 463.6Z" fill="#fafdfd" stroke="#fafdfd"></path><path d="M882 373.4L873 357.6L792 418.4Z" fill="#eef8f7" stroke="#eef8f7"></path><path d="M0 364L0 380.7L42 404.7Z" fill="#fafdfd" stroke="#fafdfd"></path><path d="M185 -42.1L99 0L151 14.9Z" fill="#fdfefe" stroke="#fdfefe"></path><path d="M15 112.4L0 176.6L53 137.9Z" fill="#fdfefe" stroke="#fdfefe"></path><path d="M0 418.9L63 416.4L42 404.7Z" fill="#fafdfd" stroke="#fafdfd"></path><path d="M82 539.1L74 551.4L101 564.4Z" fill="#f0f9f8" stroke="#f0f9f8"></path><path d="M101 564.4L102 609.3L152 558.4Z" fill="#ffffff" stroke="#ffffff"></path><path d="M827 117.3L743 141.6L827 192.1Z" fill="#f0f9f8" stroke="#f0f9f8"></path><path d="M788 71.6L804 76.9L779 54.7Z" fill="#f0f9f8" stroke="#f0f9f8"></path><path d="M779 54.7L798 9.9L719 0Z" fill="#f8fcfb" stroke="#f8fcfb"></path><path d="M15 112.4L103 54.6L90 37.7Z" fill="#fdfefe" stroke="#fdfefe"></path><path d="M14 189.1L0 176.6L0 258.4Z" fill="#fdfefe" stroke="#fdfefe"></path><path d="M874 182.4L827 117.3L827 192.1Z" fill="#f8fcfb" stroke="#f8fcfb"></path><path d="M0 380.7L0 418.9L42 404.7Z" fill="#f5fbfa" stroke="#f5fbfa"></path><path d="M743 600L716 510.6L658 600Z" fill="#eef8f7" stroke="#eef8f7"></path><path d="M770 517.6L797 528.1L817 459.7Z" fill="#f0f9f8" stroke="#f0f9f8"></path><path d="M41 0L15 112.4L90 37.7Z" fill="#f8fcfb" stroke="#f8fcfb"></path><path d="M654 646.1L743 600L658 600Z" fill="#f0f9f8" stroke="#f0f9f8"></path><path d="M797 528.1L835 462.3L817 459.7Z" fill="#f3faf9" stroke="#f3faf9"></path><path d="M817 459.7L835 462.3L810 448.4Z" fill="#f0f9f8" stroke="#f0f9f8"></path><path d="M743 600L777 566.3L716 510.6Z" fill="#e6f4f4" stroke="#e6f4f4"></path><path d="M900 507.6L900 456.3L835 462.3Z" fill="#fafdfd" stroke="#fafdfd"></path><path d="M0 380.7L-9 415.9L0 418.9Z" fill="#eef8f7" stroke="#eef8f7"></path><path d="M0 418.9L0 476.1L63 416.4Z" fill="#e9f5f5" stroke="#e9f5f5"></path><path d="M-44 343.6L-9 415.9L0 380.7Z" fill="#ebf6f6" stroke="#ebf6f6"></path><path d="M-44 343.6L0 380.7L0 364Z" fill="#ffffff" stroke="#ffffff"></path><path d="M-44 343.6L0 364L0 343.1Z" fill="#e6f4f4" stroke="#e6f4f4"></path><path d="M-44 343.6L0 343.1L-50 318.7Z" fill="#eef8f7" stroke="#eef8f7"></path><path d="M0 343.1L0 292.3L-50 318.7Z" fill="#ffffff" stroke="#ffffff"></path><path d="M173 600L115 635.1L214 610.1Z" fill="#f5fbfa" stroke="#f5fbfa"></path><path d="M74 551.4L96 600L101 564.4Z" fill="#f5fbfa" stroke="#f5fbfa"></path><path d="M0 600L96 600L74 551.4Z" fill="#f5fbfa" stroke="#f5fbfa"></path><path d="M96 600L102 609.3L101 564.4Z" fill="#e6f4f4" stroke="#e6f4f4"></path><path d="M214 610.1L115 635.1L264 613.1Z" fill="#f8fcfb" stroke="#f8fcfb"></path><path d="M882 373.4L792 418.4L810 448.4Z" fill="#ebf6f6" stroke="#ebf6f6"></path><path d="M840 224.1L874 182.4L827 192.1Z" fill="#e9f5f5" stroke="#e9f5f5"></path><path d="M-9 415.9L0 476.1L0 418.9Z" fill="#f8fcfb" stroke="#f8fcfb"></path><path d="M0 605.3L115 635.1L102 609.3Z" fill="#ebf6f6" stroke="#ebf6f6"></path><path d="M0 605.3L102 609.3L96 600Z" fill="#f8fcfb" stroke="#f8fcfb"></path><path d="M102 609.3L115 635.1L173 600Z" fill="#e9f5f5" stroke="#e9f5f5"></path><path d="M185 -42.1L79 -19.1L99 0Z" fill="#ebf6f6" stroke="#ebf6f6"></path><path d="M99 0L49 -9.3L90 37.7Z" fill="#f5fbfa" stroke="#f5fbfa"></path><path d="M900 208.6L874 182.4L840 224.1Z" fill="#fdfefe" stroke="#fdfefe"></path><path d="M848 0L798 9.9L804 76.9Z" fill="#e6f4f4" stroke="#e6f4f4"></path><path d="M835 462.3L882 373.4L810 448.4Z" fill="#eef8f7" stroke="#eef8f7"></path><path d="M873 357.6L900 266.3L809 294.3Z" fill="#ffffff" stroke="#ffffff"></path><path d="M848 0L804 76.9L906 59.7Z" fill="#f5fbfa" stroke="#f5fbfa"></path><path d="M804 76.9L798 9.9L779 54.7Z" fill="#fdfefe" stroke="#fdfefe"></path><path d="M719 0L848 0L653 -19.1Z" fill="#e6f4f4" stroke="#e6f4f4"></path><path d="M788 600L781 592.1L743 600Z" fill="#fafdfd" stroke="#fafdfd"></path><path d="M743 600L781 592.1L777 566.3Z" fill="#eef8f7" stroke="#eef8f7"></path><path d="M777 566.3L852 600L797 528.1Z" fill="#f3faf9" stroke="#f3faf9"></path><path d="M900 364L900 358.7L882 373.4Z" fill="#f3faf9" stroke="#f3faf9"></path><path d="M-50 318.7L0 258.4L0 176.6Z" fill="#f0f9f8" stroke="#f0f9f8"></path><path d="M-50 318.7L0 292.3L0 258.4Z" fill="#fafdfd" stroke="#fafdfd"></path><path d="M-9 415.9L-44 343.6L0 476.1Z" fill="#f3faf9" stroke="#f3faf9"></path><path d="M0 8.7L-50 318.7L0 176.6Z" fill="#fdfefe" stroke="#fdfefe"></path><path d="M-44 343.6L0 508.6L0 476.1Z" fill="#e6f4f4" stroke="#e6f4f4"></path><path d="M0 476.1L0 508.6L82 539.1Z" fill="#fdfefe" stroke="#fdfefe"></path><path d="M900 358.7L900 266.3L873 357.6Z" fill="#ffffff" stroke="#ffffff"></path><path d="M900 266.3L900 264.9L840 224.1Z" fill="#f5fbfa" stroke="#f5fbfa"></path><path d="M79 -19.1L49 -9.3L99 0Z" fill="#fafdfd" stroke="#fafdfd"></path><path d="M15 112.4L0 8.7L0 176.6Z" fill="#ebf6f6" stroke="#ebf6f6"></path><path d="M654 646.1L788 600L743 600Z" fill="#e6f4f4" stroke="#e6f4f4"></path><path d="M781 592.1L789 600L777 566.3Z" fill="#fafdfd" stroke="#fafdfd"></path><path d="M49 -9.3L41 0L90 37.7Z" fill="#e9f5f5" stroke="#e9f5f5"></path><path d="M827 611.1L789 600L788 600Z" fill="#f0f9f8" stroke="#f0f9f8"></path><path d="M788 600L789 600L781 592.1Z" fill="#eef8f7" stroke="#eef8f7"></path><path d="M900 364L882 373.4L900 404.4Z" fill="#fdfefe" stroke="#fdfefe"></path><path d="M882 373.4L900 358.7L873 357.6Z" fill="#f0f9f8" stroke="#f0f9f8"></path><path d="M900 404.4L882 373.4L835 462.3Z" fill="#f3faf9" stroke="#f3faf9"></path><path d="M900 264.9L900 208.6L840 224.1Z" fill="#f0f9f8" stroke="#f0f9f8"></path><path d="M874 182.4L900 141.9L827 117.3Z" fill="#eef8f7" stroke="#eef8f7"></path><path d="M0 548.4L5 537.1L0 508.6Z" fill="#f5fbfa" stroke="#f5fbfa"></path><path d="M0 508.6L5 537.1L82 539.1Z" fill="#f3faf9" stroke="#f3faf9"></path><path d="M900 208.6L900 196.1L874 182.4Z" fill="#f0f9f8" stroke="#f0f9f8"></path><path d="M900 196.1L900 195.4L874 182.4Z" fill="#fdfefe" stroke="#fdfefe"></path><path d="M900 208.6L919 170.6L900 196.1Z" fill="#eef8f7" stroke="#eef8f7"></path><path d="M900 196.1L919 170.6L900 195.4Z" fill="#e9f5f5" stroke="#e9f5f5"></path><path d="M900 264.9L913 242.3L900 208.6Z" fill="#f3faf9" stroke="#f3faf9"></path><path d="M900 266.3L909 255L900 264.9Z" fill="#ffffff" stroke="#ffffff"></path><path d="M900 358.7L909 255L900 266.3Z" fill="#fdfefe" stroke="#fdfefe"></path><path d="M913 242.3L909 255L900 358.7Z" fill="#e6f4f4" stroke="#e6f4f4"></path><path d="M900 456.3L900 404.4L835 462.3Z" fill="#f0f9f8" stroke="#f0f9f8"></path><path d="M900 364L913 242.3L900 358.7Z" fill="#eef8f7" stroke="#eef8f7"></path><path d="M900 404.4L913 242.3L900 364Z" fill="#fdfefe" stroke="#fdfefe"></path><path d="M909 255L913 242.3L900 264.9Z" fill="#ebf6f6" stroke="#ebf6f6"></path><path d="M-44 343.6L0 548.4L0 508.6Z" fill="#e9f5f5" stroke="#e9f5f5"></path><path d="M5 537.1L0 548.4L74 551.4Z" fill="#ebf6f6" stroke="#ebf6f6"></path><path d="M0 600L0 548.4L-44 343.6Z" fill="#fafdfd" stroke="#fafdfd"></path><path d="M919 170.6L900 141.9L874 182.4Z" fill="#fafdfd" stroke="#fafdfd"></path><path d="M919 170.6L874 182.4L900 195.4Z" fill="#e6f4f4" stroke="#e6f4f4"></path><path d="M900 507.6L835 462.3L900 517.1Z" fill="#f3faf9" stroke="#f3faf9"></path><path d="M900 404.4L900 456.3L913 242.3Z" fill="#fafdfd" stroke="#fafdfd"></path><path d="M0 0L0 8.7L41 0Z" fill="#eef8f7" stroke="#eef8f7"></path><path d="M41 0L0 8.7L15 112.4Z" fill="#f0f9f8" stroke="#f0f9f8"></path><path d="M900 600L919 170.6L913 242.3Z" fill="#f3faf9" stroke="#f3faf9"></path><path d="M913 242.3L919 170.6L900 208.6Z" fill="#e6f4f4" stroke="#e6f4f4"></path><path d="M0 -46.1L0 0L41 0Z" fill="#ffffff" stroke="#ffffff"></path><path d="M0 8.7L0 0L-50 318.7Z" fill="#fafdfd" stroke="#fafdfd"></path><path d="M0 -46.1L41 0L49 -9.3Z" fill="#f5fbfa" stroke="#f5fbfa"></path><path d="M906 59.7L827 117.3L900 141.9Z" fill="#f8fcfb" stroke="#f8fcfb"></path><path d="M906 59.7L804 76.9L827 117.3Z" fill="#f8fcfb" stroke="#f8fcfb"></path><path d="M798 9.9L848 0L719 0Z" fill="#e9f5f5" stroke="#e9f5f5"></path><path d="M789 600L827 611.1L777 566.3Z" fill="#ebf6f6" stroke="#ebf6f6"></path><path d="M654 646.1L827 611.1L788 600Z" fill="#fdfefe" stroke="#fdfefe"></path><path d="M654 646.1L837 610.3L827 611.1Z" fill="#ebf6f6" stroke="#ebf6f6"></path><path d="M827 611.1L852 600L777 566.3Z" fill="#fdfefe" stroke="#fdfefe"></path><path d="M0 605.3L0 600L-44 343.6Z" fill="#f3faf9" stroke="#f3faf9"></path><path d="M0 548.4L0 600L74 551.4Z" fill="#f0f9f8" stroke="#f0f9f8"></path><path d="M900 517.1L835 462.3L797 528.1Z" fill="#e9f5f5" stroke="#e9f5f5"></path><path d="M900 456.3L900 507.6L913 242.3Z" fill="#f8fcfb" stroke="#f8fcfb"></path><path d="M-50 318.7L0 605.3L-44 343.6Z" fill="#f5fbfa" stroke="#f5fbfa"></path><path d="M0 600L0 605.3L96 600Z" fill="#f5fbfa" stroke="#f5fbfa"></path><path d="M892 570.3L900 517.1L797 528.1Z" fill="#f0f9f8" stroke="#f0f9f8"></path><path d="M900 507.6L900 517.1L913 242.3Z" fill="#e9f5f5" stroke="#e9f5f5"></path><path d="M837 610.3L852 600L827 611.1Z" fill="#e6f4f4" stroke="#e6f4f4"></path><path d="M919 170.6L906 59.7L900 141.9Z" fill="#f5fbfa" stroke="#f5fbfa"></path><path d="M79 -19.1L0 -46.1L49 -9.3Z" fill="#fdfefe" stroke="#fdfefe"></path><path d="M0 0L0 -46.1L-50 318.7Z" fill="#ffffff" stroke="#ffffff"></path><path d="M185 -42.1L0 -46.1L79 -19.1Z" fill="#ebf6f6" stroke="#ebf6f6"></path><path d="M273 -42.1L0 -46.1L185 -42.1Z" fill="#e9f5f5" stroke="#e9f5f5"></path><path d="M852 600L892 570.3L797 528.1Z" fill="#f3faf9" stroke="#f3faf9"></path><path d="M906 59.7L900 17.7L848 0Z" fill="#eef8f7" stroke="#eef8f7"></path><path d="M900 17.7L897 0L848 0Z" fill="#fafdfd" stroke="#fafdfd"></path><path d="M848 0L897 0L653 -19.1Z" fill="#f3faf9" stroke="#f3faf9"></path><path d="M920 24.9L900 0L900 17.7Z" fill="#fafdfd" stroke="#fafdfd"></path><path d="M900 17.7L900 0L897 0Z" fill="#f8fcfb" stroke="#f8fcfb"></path><path d="M897 0L900 0L653 -19.1Z" fill="#fdfefe" stroke="#fdfefe"></path><path d="M920 24.9L900 17.7L906 59.7Z" fill="#f0f9f8" stroke="#f0f9f8"></path><path d="M919 170.6L920 24.9L906 59.7Z" fill="#f3faf9" stroke="#f3faf9"></path><path d="M837 610.3L900 600L852 600Z" fill="#ebf6f6" stroke="#ebf6f6"></path><path d="M852 600L900 600L892 570.3Z" fill="#f0f9f8" stroke="#f0f9f8"></path><path d="M892 570.3L900 600L900 517.1Z" fill="#ffffff" stroke="#ffffff"></path><path d="M900 517.1L900 600L913 242.3Z" fill="#fdfefe" stroke="#fdfefe"></path><path d="M654 646.1L900 600L837 610.3Z" fill="#f5fbfa" stroke="#f5fbfa"></path></g></svg>