<svg xmlns="http://www.w3.org/2000/svg" viewBox="0 0 500 500"><defs><style>.cls-1{fill:#024557;}.cls-2{fill:#fff;}</style></defs><g id="Layer_5" data-name="Layer 5"><rect class="cls-1" width="500" height="500"/><path class="cls-2" d="M200.92,385.17,190.7,375l67.15-67.15h35.5a28.94,28.94,0,0,0,28.91-28.91H248.43A21.55,21.55,0,0,0,235.82,283l-35.5,25.35a36,36,0,0,1-21,6.73H130.77V300.58h48.55a21.61,21.61,0,0,0,12.6-4l35.51-25.36a35.93,35.93,0,0,1,21-6.73h73.83a14.48,14.48,0,0,1,14.45,14.45,43.41,43.41,0,0,1-43.36,43.36H263.83Z"/><path class="cls-2" d="M311.42,474H245.29a35.79,35.79,0,0,1-14.67-3.12L176.8,447a21.34,21.34,0,0,0-8.8-1.87H130.77V430.65H168a36,36,0,0,1,14.67,3.11l53.82,23.92a21.5,21.5,0,0,0,8.8,1.87h66.13Z"/><path class="cls-2" d="M383.68,474H311.42a28.91,28.91,0,0,1,0-57.81h72.26a28.91,28.91,0,0,1,0,57.81Zm-72.26-43.35a14.45,14.45,0,1,0,0,28.9h72.26a14.45,14.45,0,0,0,0-28.9Z"/><path class="cls-2" d="M383.68,430.65H311.42a28.91,28.91,0,0,1,0-57.81h72.26a28.91,28.91,0,0,1,0,57.81Zm-72.26-43.36a14.45,14.45,0,0,0,0,28.9h72.26a14.45,14.45,0,0,0,0-28.9Z"/><path class="cls-2" d="M383.68,387.29H311.42a28.91,28.91,0,0,1,0-57.81h72.26a28.91,28.91,0,0,1,0,57.81Zm-72.26-43.35a14.45,14.45,0,0,0,0,28.9h72.26a14.45,14.45,0,0,0,0-28.9Z"/><path class="cls-2" d="M383.68,343.94H311.42A28.94,28.94,0,0,1,282.52,315H297a14.46,14.46,0,0,0,14.45,14.45h72.26a14.45,14.45,0,0,0,0-28.9H325.87V286.13h57.81a28.91,28.91,0,0,1,0,57.81Z"/><path class="cls-2" d="M123.55,459.55H80.19A14.48,14.48,0,0,1,65.74,445.1V300.58a14.47,14.47,0,0,1,14.45-14.45h43.36A14.47,14.47,0,0,1,138,300.58V445.1A14.48,14.48,0,0,1,123.55,459.55Zm-43.36-159V445.1h43.37V300.58Z"/><path class="cls-2" d="M325.87,271.68H311.42v-6.47a21.56,21.56,0,0,1,10.7-18.64A79.7,79.7,0,0,0,362,177.74a79.51,79.51,0,0,0-82.78-79.42C238,100,203.79,135,203.05,176.28A79.52,79.52,0,0,0,243,246.61a21.46,21.46,0,0,1,10.64,18.6v6.47H239.16v-6.47a7,7,0,0,0-3.39-6.08A94,94,0,0,1,188.6,176c.87-48.84,41.27-90.18,90-92.15a93.89,93.89,0,0,1,50.7,175.21,7,7,0,0,0-3.47,6.12Z"/><path class="cls-2" d="M282.52,365.61A43.47,43.47,0,0,1,240,330.92L254.18,328a29,29,0,0,0,34.13,22.54l2.86,14.17A43.9,43.9,0,0,1,282.52,365.61Z"/><path class="cls-2" d="M304.19,271.68H289.74V221.1H275.29v50.58H260.84V221.1h-7.23a21.68,21.68,0,1,1,21.68-21.68v7.23h14.45v-7.23a21.68,21.68,0,1,1,21.68,21.68h-7.23Zm0-65h7.23a7.23,7.23,0,1,0-7.23-7.23Zm-50.58-14.46a7.23,7.23,0,0,0,0,14.46h7.23v-7.23A7.23,7.23,0,0,0,253.61,192.19Z"/><path class="cls-2" d="M347.55,177.74H333.1a50.79,50.79,0,0,0-25.3-43.82l7.24-12.5A65.25,65.25,0,0,1,347.55,177.74Z"/><path class="cls-2" d="M295.18,128.76a51,51,0,0,0-12.66-1.6V112.71a65.3,65.3,0,0,1,16.24,2.05Z"/><rect class="cls-2" x="275.29" y="54.9" width="14.45" height="14.45"/><rect class="cls-2" x="275.29" y="26" width="14.45" height="14.45"/><rect class="cls-2" x="231.05" y="63.7" width="14.45" height="14.45" transform="translate(-9 96.62) rotate(-22.51)"/><rect class="cls-2" x="219.99" y="37" width="14.45" height="14.45" transform="translate(0.36 90.25) rotate(-22.48)"/><rect class="cls-2" x="193.54" y="88.77" width="14.45" height="14.45" transform="translate(-9.08 170.07) rotate(-45)"/><rect class="cls-2" x="173.1" y="68.32" width="14.45" height="14.46" transform="translate(-0.61 149.63) rotate(-45)"/><rect class="cls-2" x="168.48" y="126.27" width="14.45" height="14.45" transform="translate(-14.89 244.72) rotate(-67.49)"/><rect class="cls-2" x="141.78" y="115.21" width="14.45" height="14.45" transform="translate(-21.11 213.3) rotate(-67.52)"/><rect class="cls-2" x="159.68" y="170.52" width="14.45" height="14.45"/><rect class="cls-2" x="130.77" y="170.52" width="14.45" height="14.45"/><rect class="cls-2" x="168.48" y="214.76" width="14.45" height="14.45" transform="translate(-71.6 84.18) rotate(-22.51)"/><rect class="cls-2" x="141.78" y="225.82" width="14.45" height="14.45" transform="translate(-77.86 74.79) rotate(-22.51)"/><rect class="cls-2" x="382.1" y="214.76" width="14.45" height="14.45" transform="translate(35.21 496.68) rotate(-67.49)"/><rect class="cls-2" x="408.81" y="225.82" width="14.45" height="14.45" transform="translate(41.6 528.34) rotate(-67.52)"/><rect class="cls-2" x="390.9" y="170.52" width="14.45" height="14.45"/><rect class="cls-2" x="419.81" y="170.52" width="14.45" height="14.45"/><rect class="cls-2" x="382.1" y="126.27" width="14.45" height="14.45" transform="translate(-21.45 159.2) rotate(-22.51)"/><rect class="cls-2" x="408.81" y="115.21" width="14.45" height="14.45" transform="translate(-15.18 168.59) rotate(-22.51)"/><rect class="cls-2" x="357.04" y="88.77" width="14.45" height="14.45" transform="translate(38.81 285.69) rotate(-45)"/><rect class="cls-2" x="377.47" y="68.33" width="14.46" height="14.45" transform="translate(59.25 294.16) rotate(-45)"/><rect class="cls-2" x="319.53" y="63.7" width="14.45" height="14.45" transform="translate(136.15 345.65) rotate(-67.49)"/><rect class="cls-2" x="330.6" y="37" width="14.45" height="14.45" transform="translate(167.64 339.38) rotate(-67.49)"/></g></svg>