<svg id="Layer_1" data-name="Layer 1" xmlns="http://www.w3.org/2000/svg" viewBox="0 0 500 500"><defs><style>.cls-1{fill:#024557;}</style></defs><path class="cls-1" d="M200.58,385.21,190.36,375l67.15-67.15H293a28.93,28.93,0,0,0,28.9-28.91H248.09a21.52,21.52,0,0,0-12.6,4.05L200,308.34a35.9,35.9,0,0,1-21,6.73H130.44V300.62H179a21.56,21.56,0,0,0,12.6-4l35.51-25.36a36,36,0,0,1,21-6.73h73.83a14.48,14.48,0,0,1,14.46,14.45A43.41,43.41,0,0,1,293,322.3H263.5Z"/><path class="cls-1" d="M311.09,474H245a35.87,35.87,0,0,1-14.68-3.12L176.46,447a21.46,21.46,0,0,0-8.8-1.87H130.44V430.69h37.22a35.81,35.81,0,0,1,14.68,3.12l53.82,23.91a21.46,21.46,0,0,0,8.8,1.87h66.13Z"/><path class="cls-1" d="M383.34,474H311.09a28.9,28.9,0,1,1,0-57.8h72.25a28.9,28.9,0,1,1,0,57.8Zm-72.25-43.35a14.45,14.45,0,1,0,0,28.9h72.25a14.45,14.45,0,1,0,0-28.9Z"/><path class="cls-1" d="M383.34,430.69H311.09a28.91,28.91,0,1,1,0-57.81h72.25a28.91,28.91,0,1,1,0,57.81Zm-72.25-43.36a14.46,14.46,0,1,0,0,28.91h72.25a14.46,14.46,0,1,0,0-28.91Z"/><path class="cls-1" d="M383.34,387.33H311.09a28.9,28.9,0,1,1,0-57.8h72.25a28.9,28.9,0,1,1,0,57.8ZM311.09,344a14.45,14.45,0,1,0,0,28.9h72.25a14.45,14.45,0,1,0,0-28.9Z"/><path class="cls-1" d="M383.34,344H311.09a28.94,28.94,0,0,1-28.91-28.91h14.45a14.48,14.48,0,0,0,14.46,14.46h72.25a14.46,14.46,0,1,0,0-28.91h-57.8V286.17h57.8a28.91,28.91,0,1,1,0,57.81Z"/><path class="cls-1" d="M123.22,459.59H79.86a14.47,14.47,0,0,1-14.45-14.45V300.62a14.47,14.47,0,0,1,14.45-14.45h43.36a14.48,14.48,0,0,1,14.45,14.45V445.14A14.48,14.48,0,0,1,123.22,459.59Zm-43.36-159V445.14h43.37V300.62Z"/><path class="cls-1" d="M325.54,271.72H311.09v-6.46a21.58,21.58,0,0,1,10.69-18.65,79.67,79.67,0,0,0,39.89-68.83,79.51,79.51,0,0,0-82.78-79.42c-41.26,1.67-75.44,36.64-76.18,78a79.55,79.55,0,0,0,39.93,70.33,21.48,21.48,0,0,1,10.64,18.61v6.46H238.83v-6.46a7,7,0,0,0-3.4-6.09,94,94,0,0,1-47.17-83.1c.88-48.84,41.27-90.18,90.05-92.14A93.88,93.88,0,0,1,329,259.13a7.09,7.09,0,0,0-3.46,6.13Z"/><path class="cls-1" d="M282.18,365.65A43.45,43.45,0,0,1,239.7,331l14.15-2.87A29,29,0,0,0,288,350.62l2.86,14.17A43.19,43.19,0,0,1,282.18,365.65Z"/><path class="cls-1" d="M303.86,271.72H289.41V221.14H275v50.58H260.51V221.14h-7.23A21.68,21.68,0,1,1,275,199.46v7.23h14.45v-7.23a21.68,21.68,0,1,1,21.68,21.68h-7.23Zm0-65h7.23a7.23,7.23,0,1,0-7.23-7.23Zm-50.58-14.45a7.23,7.23,0,1,0,0,14.45h7.23v-7.23A7.23,7.23,0,0,0,253.28,192.24Z"/><path class="cls-1" d="M347.22,177.78H332.76A50.79,50.79,0,0,0,307.47,134l7.24-12.5A65.25,65.25,0,0,1,347.22,177.78Z"/><path class="cls-1" d="M294.84,128.8a50.91,50.91,0,0,0-12.66-1.6V112.75a65.38,65.38,0,0,1,16.25,2Z"/><rect class="cls-1" x="274.96" y="54.94" width="14.45" height="14.45"/><rect class="cls-1" x="274.96" y="26.04" width="14.45" height="14.45"/><rect class="cls-1" x="230.71" y="63.74" width="14.45" height="14.45" transform="translate(-9.04 96.49) rotate(-22.51)"/><rect class="cls-1" x="219.65" y="37.04" width="14.45" height="14.45" transform="translate(0.32 90.12) rotate(-22.48)"/><rect class="cls-1" x="193.21" y="88.81" width="14.45" height="14.45" transform="translate(-9.2 169.85) rotate(-45)"/><rect class="cls-1" x="172.77" y="68.37" width="14.45" height="14.46" transform="translate(-0.74 149.41) rotate(-45)"/><rect class="cls-1" x="168.14" y="126.31" width="14.45" height="14.45" transform="translate(-15.13 244.43) rotate(-67.49)"/><rect class="cls-1" x="141.44" y="115.25" width="14.45" height="14.45" transform="translate(-21.35 213.02) rotate(-67.52)"/><rect class="cls-1" x="159.34" y="170.56" width="14.45" height="14.45"/><rect class="cls-1" x="130.44" y="170.56" width="14.45" height="14.45"/><rect class="cls-1" x="168.14" y="214.8" width="14.45" height="14.45" transform="translate(-71.64 84.05) rotate(-22.51)"/><rect class="cls-1" x="141.44" y="225.86" width="14.45" height="14.45" transform="translate(-77.9 74.66) rotate(-22.51)"/><rect class="cls-1" x="381.77" y="214.8" width="14.45" height="14.45" transform="translate(34.97 496.4) rotate(-67.49)"/><rect class="cls-1" x="408.47" y="225.86" width="14.45" height="14.45" transform="translate(41.36 528.06) rotate(-67.52)"/><rect class="cls-1" x="390.57" y="170.56" width="14.45" height="14.45"/><rect class="cls-1" x="419.47" y="170.56" width="14.45" height="14.45"/><rect class="cls-1" x="381.77" y="126.31" width="14.45" height="14.45" transform="translate(-21.49 159.08) rotate(-22.51)"/><rect class="cls-1" x="408.47" y="115.25" width="14.45" height="14.45" transform="translate(-15.22 168.46) rotate(-22.51)"/><rect class="cls-1" x="356.71" y="88.81" width="14.45" height="14.45" transform="translate(38.69 285.47) rotate(-45)"/><rect class="cls-1" x="377.14" y="68.37" width="14.46" height="14.45" transform="translate(59.13 293.93) rotate(-45)"/><rect class="cls-1" x="319.2" y="63.74" width="14.45" height="14.45" transform="translate(135.91 345.37) rotate(-67.49)"/><rect class="cls-1" x="330.26" y="37.04" width="14.45" height="14.45" transform="translate(167.4 339.1) rotate(-67.49)"/></svg>