<svg xmlns="http://www.w3.org/2000/svg" viewBox="0 0 500 500"><defs><style>.cls-1{fill:#024557;}.cls-2{fill:#fff;}</style></defs><g id="Layer_5" data-name="Layer 5"><rect class="cls-1" width="500" height="500"/><path class="cls-1" d="M249.15,481.2c-63-38.7-162.91-137.89-162.91-244.74V87.51a1.64,1.64,0,0,1,1.22-1.59c9-2.35,65.94-17.26,84.75-25.07,19-7.89,69.86-37.87,77-42.08a1.6,1.6,0,0,1,1.66,0c7.1,4.21,57.94,34.19,77,42.08,18.81,7.81,75.71,22.72,84.75,25.07a1.64,1.64,0,0,1,1.22,1.59v149c0,106.85-99.87,206-162.91,244.74A1.58,1.58,0,0,1,249.15,481.2Z"/><path class="cls-2" d="M250,452.82c-58.31-40.29-139.2-126.86-139.2-216V105.55c22.31-6,55.92-15.43,70.82-21.61C197.44,77.38,230.4,58.59,250,47.17c19.6,11.42,52.57,30.21,68.37,36.77,14.9,6.18,48.51,15.61,70.83,21.61v131.3C389.2,326,308.31,412.54,250,452.82Z"/><path class="cls-2" d="M250,486.7a6.86,6.86,0,0,1-3.61-1c-17-10.43-35.24-24.3-52.8-40.11a428.45,428.45,0,0,1-53.7-58c-17.93-23.46-32-47.42-41.9-71.22-11.28-27.16-17-54-17-79.89V87.51a6.88,6.88,0,0,1,5.13-6.66c6.63-1.72,65.27-17,84.07-24.84s70.47-38.3,76.3-41.75h0a6.88,6.88,0,0,1,7,0h0c5.83,3.45,57.51,34,76.3,41.75s77.44,23.12,84.06,24.84A6.88,6.88,0,0,1,419,87.51v149c0,25.85-5.71,52.73-17,79.89-9.88,23.8-24,47.76-41.9,71.22a428.45,428.45,0,0,1-53.7,58c-17.56,15.81-35.82,29.68-52.8,40.11A6.86,6.86,0,0,1,250,486.7ZM91.48,90.29V236.46c0,24.46,5.44,50,16.19,75.87,9.53,23,23.17,46.14,40.55,68.88a418,418,0,0,0,52.38,56.56,367.11,367.11,0,0,0,49.4,37.8,367.11,367.11,0,0,0,49.4-37.8,418,418,0,0,0,52.38-56.56c17.38-22.74,31-45.92,40.55-68.88,10.75-25.88,16.19-51.41,16.19-75.87V90.29c-15.33-4-64.93-17.21-82.74-24.59C307.73,58.21,262.86,32,250,24.37,237.14,32,192.27,58.21,174.22,65.69,156.41,73.08,106.82,86.27,91.48,90.29Z"/><path class="cls-1" d="M304.73,223.38h-.42V203.54a52.69,52.69,0,0,0-52.65-52.64h-3.32a52.69,52.69,0,0,0-52.65,52.64v19.84h-.42A21.38,21.38,0,0,0,174,244.69V327a21.39,21.39,0,0,0,21.31,21.31H304.73A21.39,21.39,0,0,0,326,327v-82.3A21.38,21.38,0,0,0,304.73,223.38Zm-45.82,60.7a3.64,3.64,0,0,0-1.67,3V313.9a3.63,3.63,0,0,1-3.62,3.62h-7.24a3.63,3.63,0,0,1-3.62-3.62V287.12a3.59,3.59,0,0,0-1.65-3,16.29,16.29,0,0,1,9.34-29.94,16.46,16.46,0,0,1,15.84,16.29A16.24,16.24,0,0,1,258.91,284.08Zm30.92-60.76H210.17V203.54a38.21,38.21,0,0,1,38.17-38.15h3.32a38.21,38.21,0,0,1,38.17,38.15Z"/></g></svg>