<svg id="Layer_1" data-name="Layer 1" xmlns="http://www.w3.org/2000/svg" viewBox="0 0 500 500"><defs><style>.cls-1{fill:#fff;}.cls-2{fill:#024557;}</style></defs><path class="cls-1" d="M248.82,481.25C185.77,442.54,85.9,343.36,85.9,236.5V87.55A1.64,1.64,0,0,1,87.12,86c9-2.35,65.94-17.26,84.76-25.06,19-7.9,69.85-37.88,77-42.09a1.62,1.62,0,0,1,1.65,0C257.6,23,308.43,53,327.45,60.9c18.82,7.8,75.71,22.71,84.76,25.06a1.64,1.64,0,0,1,1.22,1.59v149c0,106.86-99.87,206-162.91,244.75A1.63,1.63,0,0,1,248.82,481.25Z"/><path class="cls-2" d="M249.67,452.87c-58.31-40.29-139.2-126.86-139.2-216V105.59c22.3-6,55.92-15.43,70.82-21.61,15.81-6.56,48.78-25.35,68.38-36.77C269.27,58.63,302.24,77.42,318,84c14.9,6.18,48.5,15.61,70.83,21.61V236.9C388.87,326,308,412.58,249.67,452.87Z"/><path class="cls-2" d="M249.67,486.74a6.83,6.83,0,0,1-3.61-1c-17-10.43-35.24-24.29-52.8-40.1a428.6,428.6,0,0,1-53.71-58c-17.92-23.46-32-47.42-41.9-71.22-11.27-27.16-17-54-17-79.89V87.55a6.88,6.88,0,0,1,5.14-6.66c6.63-1.72,65.27-17,84.07-24.83s70.47-38.31,76.3-41.76h0a6.88,6.88,0,0,1,7,0h0c5.83,3.45,57.51,34,76.3,41.76s77.44,23.11,84.07,24.83a6.88,6.88,0,0,1,5.14,6.66v149c0,25.85-5.72,52.73-17,79.89-9.88,23.8-24,47.76-41.9,71.22a428.52,428.52,0,0,1-53.7,58c-17.56,15.81-35.82,29.67-52.81,40.1A6.83,6.83,0,0,1,249.67,486.74ZM91.14,90.33V236.5c0,24.46,5.45,50,16.19,75.87,9.53,23,23.18,46.14,40.55,68.88a418.09,418.09,0,0,0,52.39,56.56,366.28,366.28,0,0,0,49.4,37.8,366.22,366.22,0,0,0,49.39-37.8,417.45,417.45,0,0,0,52.39-56.56c17.38-22.74,31-45.92,40.55-68.88,10.74-25.88,16.19-51.41,16.19-75.87V90.33c-15.33-4-64.93-17.21-82.74-24.59C307.4,58.25,262.53,32,249.67,24.41,236.8,32,191.93,58.25,173.89,65.74,156.08,73.12,106.49,86.31,91.14,90.33Z"/><path class="cls-1" d="M304.39,223.42H304V203.58a52.7,52.7,0,0,0-52.65-52.64H248a52.7,52.7,0,0,0-52.65,52.64v19.84h-.41a21.38,21.38,0,0,0-21.31,21.31V327a21.38,21.38,0,0,0,21.31,21.31H304.39A21.38,21.38,0,0,0,325.7,327v-82.3A21.38,21.38,0,0,0,304.39,223.42Zm-45.82,60.7a3.63,3.63,0,0,0-1.66,3v26.78a3.63,3.63,0,0,1-3.62,3.62h-7.24a3.63,3.63,0,0,1-3.62-3.62V287.16a3.59,3.59,0,0,0-1.65-3,16.29,16.29,0,0,1,9.34-29.94A16.46,16.46,0,0,1,266,270.49,16.22,16.22,0,0,1,258.57,284.12Zm30.92-60.76H209.84V203.58A38.2,38.2,0,0,1,248,165.43h3.33a38.2,38.2,0,0,1,38.16,38.15Z"/></svg>