<svg xmlns="http://www.w3.org/2000/svg" viewBox="0 0 500 500"><defs><style>.cls-1{fill:#7cb8dd;}.cls-2{font-size:122px;font-family:Lato-Regular, Lato;}.cls-2,.cls-6{fill:#fff;}.cls-3{fill:#e8caaf;}.cls-4{fill:#b1db89;}.cls-5{fill:#d84a61;}.cls-6{stroke:#fff;stroke-miterlimit:10;stroke-width:0.5px;}</style></defs><g id="Layer_5" data-name="Layer 5"><rect class="cls-1" width="500" height="500"/><text class="cls-2" transform="translate(185.8 281.1)">£</text><path class="cls-3" d="M453.28,394.07l3.35-117.74-88.92-28.58-68,41.73-18,20.8H188.09l-22.2,21.15-27-21.15-16.71-14.94L99.41,310.28l-14.7-.8q-1.78,7.57-3.58,15.16l-31.64,8.14c-.66,1.69-4.85,12.91,1.22,23.7a27.33,27.33,0,0,0,10.21,10c13.07,7.65,91.67,41.06,199.79,85,14.76-8.44,30.19-18.05,46-29a628,628,0,0,0,78.87-64.75Z"/><path class="cls-4" d="M174.17,130.59a153.4,153.4,0,0,0-20.46,18.89c-11,12.15-17.39,23.22-23,33s-8.94,15.59-12,24a110.52,110.52,0,0,0-6.44,41.27,158.28,158.28,0,0,0,53.62,83.68,61.09,61.09,0,0,1,21.82-20.95c11.16-6.12,23.26-6.5,47-7,25.58-.54,43.43-.88,50-1A67.31,67.31,0,0,0,306,231a169.21,169.21,0,0,0-57.78-100.42Z"/><path class="cls-4" d="M165.71,108.48h94a137,137,0,0,0,8-43c.08-3.87,0-7.58-.23-11.12a31.93,31.93,0,0,0-17.77-1.88c-9.55,1.94-11.83,7.76-18,7-8.64-1.07-8.35-13-18-16-6.87-2.12-10.78,2.78-26,7A103.65,103.65,0,0,1,166.66,54q-5.13-2.2-7.95-.53Q149.23,59.11,165.71,108.48Z"/><rect class="cls-5" x="165.71" y="108.48" width="94" height="17"/><path class="cls-6" d="M456.63,276.33l-87.74-37.62a4.39,4.39,0,0,0-4.3.47l-56.52,40.75a103.84,103.84,0,0,0,7.7-39.3c0-31.07-29.74-76.1-56.78-110.63a13.76,13.76,0,0,0,5.46-23.23c2.83-6.19,5.12-12.67,7-18,.41-1.18.8-2.28,1.16-3.28C275,79,277,72,276,64.67s-5.86-15.75-14.58-17.81c-7-1.65-13.5,1.37-19.25,4-5.37,2.49-10,4.63-13.92,3a19.35,19.35,0,0,1-5.18-4c-2.48-2.36-5.29-5-9.26-6.19-6.36-1.87-11.95,1-16.89,3.47-3.23,1.63-6.28,3.18-9.13,3.29-2.68.09-5.61-1.08-8.71-2.33-3.94-1.6-8.42-3.41-13.4-2.85-7.06.78-13.41,6.5-15.79,14.22-2.18,7.09-1,14.51.17,19.47a91.08,91.08,0,0,0,10.24,26c.37.64.75,1.22,1.13,1.84a13.74,13.74,0,0,0,2.87,22.1c-27.27,34.66-57.64,80.32-57.64,111.72a103.84,103.84,0,0,0,11.17,46.94,27.53,27.53,0,0,0-10.1,15.23A27.66,27.66,0,0,0,74,318.25,29.15,29.15,0,0,0,72.74,322a27.6,27.6,0,0,0-15.28,52.62l185.09,79.36a38,38,0,0,0,38.64-5.15l103.51-82,68.58,27.25a4.38,4.38,0,0,0,6-4.08V280.36A4.38,4.38,0,0,0,456.63,276.33Zm-6.11,107.2-64.94-25.8a4.39,4.39,0,0,0-4.34.63l-105.5,83.56a29.3,29.3,0,0,1-29.74,4L60.92,366.52a18.84,18.84,0,1,1,14.84-34.63L183.37,378a4.37,4.37,0,0,0,4.29-.47l14.2-10.24,37-.84h0c3.77,0,15.11,1.15,18.37,6.29,1.41,2.2,1.16,5.36-.73,9.38a4.38,4.38,0,0,0,2.1,5.83,4.31,4.31,0,0,0,1.87.42,4.38,4.38,0,0,0,4-2.52c3.25-6.92,3.32-12.91.2-17.82-6.37-10-23.58-10.35-25.87-10.35h0l-42.5,1h-.47A20.82,20.82,0,0,1,175,338.33l-.1-4.25a20.8,20.8,0,0,1,20.33-21.27l111.94-2.54a4.39,4.39,0,1,0-.2-8.77l-11,.25q1.59-2.21,3.07-4.48l68.68-49.52,82.81,35.5ZM92.42,311.64a18.64,18.64,0,0,1,14.41.18l59.34,25.44,0,1.27a29.62,29.62,0,0,0,21.89,27.89L184.54,369,81.13,324.64a20,20,0,0,1,1-2.93A18.72,18.72,0,0,1,92.42,311.64Zm29.75-16.3A105.42,105.42,0,0,0,138.88,316L116,306.19a18.75,18.75,0,0,1,6.18-10.85Zm45.71-194.79a82.85,82.85,0,0,1-9.25-23.5c-1.44-6.42-1.55-11-.34-14.95,1.34-4.37,4.79-7.7,8.37-8.09a8.49,8.49,0,0,1,.88,0c2.55,0,5.33,1.13,8.26,2.31,3.64,1.48,7.77,3.15,12.34,3,4.77-.19,9-2.34,12.76-4.23,4-2,7.43-3.77,10.45-2.88,1.93.56,3.67,2.22,5.68,4.13,2.16,2.05,4.6,4.37,7.86,5.73,7.47,3.12,14.65-.21,21-3.14,4.89-2.26,9.51-4.4,13.54-3.45,4.42,1.05,7.32,6,7.91,10.42.72,5.45-1,11.24-3,16.68-.37,1-.77,2.14-1.19,3.34-1.64,4.65-3.93,11.15-6.72,17.26A13.31,13.31,0,0,0,255,103H170.89c-.48,0-1,0-1.43.07C168.93,102.27,168.4,101.43,167.88,100.55Zm3,11.26H255a5,5,0,1,1,0,10H170.89a5,5,0,0,1,0-10Zm3.28,18.78h74.09c38.43,48.12,58.73,86.15,58.73,110A95.36,95.36,0,0,1,284.67,302L195,304a29.59,29.59,0,0,0-27.83,21.6,95.84,95.84,0,0,1-51.74-85C115.44,216.74,135.74,178.71,174.17,130.59Z"/><text class="cls-2" transform="translate(174.51 269.58)">£</text></g></svg>