<svg id="Layer_1" data-name="Layer 1" xmlns="http://www.w3.org/2000/svg" viewBox="0 0 500 500"><defs><style>.cls-1{fill:#024557;}</style></defs><path class="cls-1" d="M109.81,399.92H346.86a35.31,35.31,0,0,0,35.27-35.27V229a35.31,35.31,0,0,0-35.27-35.27h-237A35.31,35.31,0,0,0,74.54,229V364.65A35.31,35.31,0,0,0,109.81,399.92ZM90.92,229a18.92,18.92,0,0,1,18.89-18.89H346.86A18.91,18.91,0,0,1,365.75,229V364.65a18.91,18.91,0,0,1-18.89,18.89h-237a18.92,18.92,0,0,1-18.89-18.89Z"/><path class="cls-1" d="M381.65,409H75a24.17,24.17,0,0,0-24.13,24.14v5.82A24.16,24.16,0,0,0,75,463H381.65a24.16,24.16,0,0,0,24.14-24.13v-5.82A24.17,24.17,0,0,0,381.65,409Zm7.76,30a7.77,7.77,0,0,1-7.76,7.75H75a7.76,7.76,0,0,1-7.75-7.75v-5.82A7.77,7.77,0,0,1,75,425.33H381.65a7.77,7.77,0,0,1,7.76,7.76Z"/><path class="cls-1" d="M323.48,37c-82.74,0-150.06,67.32-150.06,150.06,0,2.21.07,4.41.17,6.6H346.86a35.15,35.15,0,0,1,10.47,1.59h30.58a249.18,249.18,0,0,1-5.78,46.61v49.5a165,165,0,0,0,8.46-19.33c13.84-1.76,27.61-4,41.27-6.85a134.54,134.54,0,0,1-49.73,41.85v18.14A150.28,150.28,0,0,0,473.54,187.1C473.54,104.36,406.22,37,323.48,37ZM242.64,178.91H190.07a132.67,132.67,0,0,1,13.4-50.62v.08q23.52-5.66,47.49-9A260,260,0,0,0,242.64,178.91ZM215.1,109A134.29,134.29,0,0,1,279,61.06c-9,10.75-16.66,24.7-22.63,41.07C242.53,103.89,228.75,106.14,215.1,109Zm100.19,69.93H259.05a239.47,239.47,0,0,1,9.74-61.73q23.18-2.46,46.5-2.83Zm0-80.94q-20.21.32-40.35,2.11C285.15,75.82,299.41,59,315.29,54.59Zm16.38-43.38C347.54,59,361.81,75.82,372,100.08Q351.89,98.25,331.67,98Zm0,124.32V114.35q23.29.38,46.5,2.83a239.47,239.47,0,0,1,9.74,61.73Zm58.92-76.78c-6-16.37-13.67-30.32-22.63-41.07A134.33,134.33,0,0,1,431.86,109C418.2,106.14,404.43,103.89,390.59,102.13Zm52.88,26.24,0-.08a132.66,132.66,0,0,1,13.39,50.62H404.31A260,260,0,0,0,396,119.37C411.94,121.63,427.8,124.6,443.47,128.37Zm0,117.54,0-.08c-15.67,3.76-31.53,6.74-47.48,9a259.65,259.65,0,0,0,8.32-59.54h52.57A132.66,132.66,0,0,1,443.49,245.91Z"/><path class="cls-1" d="M244.89,321.51,218,306a13,13,0,0,0-19.49,11.25V319A221.73,221.73,0,0,1,45.64,155l-19.84,4.4C45.22,247,112.44,316.84,198.54,340.07v8.19A13,13,0,0,0,218,359.51L244.89,344A13,13,0,0,0,244.89,321.51Z"/></svg>