<svg xmlns="http://www.w3.org/2000/svg" viewBox="0 0 500 500"><defs><style>.cls-1{fill:#024557;}.cls-2{fill:#fff;}</style></defs><g id="Layer_5" data-name="Layer 5"><rect class="cls-1" width="500" height="500"/><path class="cls-2" d="M110.15,399.87h237a35.32,35.32,0,0,0,35.28-35.27V228.93a35.32,35.32,0,0,0-35.28-35.27h-237a35.32,35.32,0,0,0-35.28,35.27V364.6A35.32,35.32,0,0,0,110.15,399.87ZM91.25,228.93A18.92,18.92,0,0,1,110.15,210h237a18.92,18.92,0,0,1,18.9,18.89V364.6a18.92,18.92,0,0,1-18.9,18.9h-237a18.92,18.92,0,0,1-18.9-18.9Z"/><path class="cls-2" d="M382,408.91H75.36a24.17,24.17,0,0,0-24.14,24.14v5.82A24.17,24.17,0,0,0,75.36,463H382a24.16,24.16,0,0,0,24.13-24.13v-5.82A24.17,24.17,0,0,0,382,408.91Zm7.75,30a7.76,7.76,0,0,1-7.75,7.75H75.36a7.77,7.77,0,0,1-7.76-7.75v-5.82a7.77,7.77,0,0,1,7.76-7.76H382a7.77,7.77,0,0,1,7.75,7.76Z"/><path class="cls-2" d="M323.81,37c-82.74,0-150.06,67.32-150.06,150.06,0,2.21.08,4.41.17,6.6H347.19a35.1,35.1,0,0,1,10.47,1.59h30.58a248.37,248.37,0,0,1-5.77,46.61v49.5A165.1,165.1,0,0,0,390.92,272c13.84-1.75,27.62-4,41.27-6.85A134.45,134.45,0,0,1,382.47,307v18.14a150.29,150.29,0,0,0,91.4-138.11C473.87,104.32,406.55,37,323.81,37ZM243,178.87H190.41a132.66,132.66,0,0,1,13.39-50.62l0,.08c15.67-3.77,31.53-6.74,47.49-9A259.64,259.64,0,0,0,243,178.87Zm-27.55-69.93A134.22,134.22,0,0,1,279.33,61c-9,10.75-16.66,24.7-22.63,41.07Q235.94,104.72,215.43,108.94Zm100.19,69.93H259.38a239.62,239.62,0,0,1,9.74-61.74q23.17-2.46,46.5-2.82Zm0-80.94q-20.21.31-40.35,2.11c10.21-24.26,24.48-41.11,40.35-45.49ZM332,54.55c15.88,4.38,30.14,21.23,40.35,45.49Q352.24,98.21,332,97.93Zm0,124.32V114.31q23.31.36,46.5,2.82a239.62,239.62,0,0,1,9.74,61.74Zm58.92-76.78C385,85.72,377.25,71.77,368.29,61a134.29,134.29,0,0,1,63.9,47.92Q411.7,104.68,390.92,102.09Zm52.89,26.24v-.08a132.48,132.48,0,0,1,13.39,50.62H404.65a260.19,260.19,0,0,0-8.33-59.55C412.28,121.59,428.13,124.56,443.81,128.33Zm0,117.53v-.07q-23.52,5.64-47.49,9a260.18,260.18,0,0,0,8.33-59.54h52.56A132.43,132.43,0,0,1,443.82,245.86Z"/><path class="cls-2" d="M245.22,321.47,218.36,306a13,13,0,0,0-19.48,11.25v1.72A221.73,221.73,0,0,1,46,155l-19.84,4.4C45.55,247,112.78,316.8,198.88,340v8.19a13,13,0,0,0,19.48,11.25L245.22,344A13,13,0,0,0,245.22,321.47Z"/></g></svg>