<svg id="Layer_1" data-name="Layer 1" xmlns="http://www.w3.org/2000/svg" viewBox="0 0 500 500"><defs><style>.cls-1{fill:#024557;}</style></defs><path class="cls-1" d="M86.44,399.92H323.49a35.31,35.31,0,0,0,35.27-35.27V229a35.31,35.31,0,0,0-35.27-35.27h-237A35.31,35.31,0,0,0,51.17,229V364.65A35.31,35.31,0,0,0,86.44,399.92ZM67.55,229a18.91,18.91,0,0,1,18.89-18.89H323.49A18.92,18.92,0,0,1,342.38,229V364.65a18.92,18.92,0,0,1-18.89,18.89h-237a18.91,18.91,0,0,1-18.89-18.89Z"/><path class="cls-1" d="M358.28,409H51.65a24.16,24.16,0,0,0-24.13,24.14v5.82A24.15,24.15,0,0,0,51.65,463H358.28a24.15,24.15,0,0,0,24.13-24.13v-5.82A24.16,24.16,0,0,0,358.28,409Zm7.75,30a7.76,7.76,0,0,1-7.75,7.75H51.65a7.77,7.77,0,0,1-7.76-7.75v-5.82a7.77,7.77,0,0,1,7.76-7.76H358.28a7.77,7.77,0,0,1,7.75,7.76Z"/><path class="cls-1" d="M300.1,37c-82.74,0-150,67.32-150,150.06,0,2.21.07,4.41.16,6.6H323.49A35.2,35.2,0,0,1,334,195.29h30.58a249.18,249.18,0,0,1-5.78,46.61v49.5a165,165,0,0,0,8.46-19.33c13.84-1.76,27.61-4,41.26-6.85a134.42,134.42,0,0,1-49.72,41.85v18.14a150.27,150.27,0,0,0,91.4-138.11C450.16,104.36,382.85,37,300.1,37ZM219.27,178.91H166.7a132.66,132.66,0,0,1,13.39-50.62l0,.08q23.5-5.66,47.49-9A260,260,0,0,0,219.27,178.91ZM191.73,109a134.24,134.24,0,0,1,63.9-47.92c-9,10.75-16.66,24.7-22.64,41.07C219.15,103.89,205.38,106.14,191.73,109Zm100.18,69.93H235.67a239.9,239.9,0,0,1,9.74-61.73q23.18-2.46,46.5-2.83Zm0-80.94q-20.21.32-40.35,2.11C261.78,75.82,276,59,291.91,54.59Zm16.38-43.38c15.88,4.38,30.14,21.23,40.36,45.49Q328.52,98.25,308.29,98Zm0,124.32V114.35q23.31.38,46.5,2.83a239.46,239.46,0,0,1,9.75,61.73Zm58.93-76.78c-6-16.37-13.67-30.32-22.64-41.07A134.24,134.24,0,0,1,408.48,109C394.83,106.14,381.05,103.89,367.22,102.13Zm52.88,26.24,0-.08a132.84,132.84,0,0,1,13.39,50.62H380.94a260,260,0,0,0-8.33-59.54Q396.55,122.76,420.1,128.37Zm0,117.54,0-.08q-23.5,5.64-47.49,9a260.18,260.18,0,0,0,8.33-59.54h52.57A132.84,132.84,0,0,1,420.12,245.91Z"/><path class="cls-1" d="M471.48,338.16l5.16-32.11a13.62,13.62,0,0,0-18.3-14.89L428,302.74A13.61,13.61,0,0,0,422.18,324c-67.1,39.73-151.2,43.42-222,7.92l-9.55,19.05c79.56,39.89,174.51,34.47,248.77-12.52l10,8.16A13.63,13.63,0,0,0,471.48,338.16Z"/></svg>