<svg xmlns="http://www.w3.org/2000/svg" viewBox="0 0 500 500"><defs><style>.cls-1{fill:#024557;}.cls-2{fill:#fff;}</style></defs><g id="Layer_5" data-name="Layer 5"><rect class="cls-1" width="500" height="500"/><path class="cls-2" d="M86.77,399.87H323.82a35.31,35.31,0,0,0,35.27-35.27V228.93a35.31,35.31,0,0,0-35.27-35.27h-237A35.31,35.31,0,0,0,51.5,228.93V364.6A35.31,35.31,0,0,0,86.77,399.87ZM67.88,228.93A18.91,18.91,0,0,1,86.77,210H323.82a18.91,18.91,0,0,1,18.89,18.89V364.6a18.91,18.91,0,0,1-18.89,18.9h-237a18.91,18.91,0,0,1-18.89-18.9Z"/><path class="cls-2" d="M358.61,408.91H52a24.16,24.16,0,0,0-24.13,24.14v5.82A24.16,24.16,0,0,0,52,463H358.61a24.16,24.16,0,0,0,24.13-24.13v-5.82A24.16,24.16,0,0,0,358.61,408.91Zm7.75,30a7.76,7.76,0,0,1-7.75,7.75H52a7.76,7.76,0,0,1-7.75-7.75v-5.82A7.77,7.77,0,0,1,52,425.29H358.61a7.76,7.76,0,0,1,7.75,7.76Z"/><path class="cls-2" d="M300.44,37c-82.74,0-150.06,67.32-150.06,150.06,0,2.21.07,4.41.17,6.6H323.82a35.2,35.2,0,0,1,10.47,1.59h30.58a249.18,249.18,0,0,1-5.78,46.61v49.5A165.11,165.11,0,0,0,367.55,272c13.84-1.75,27.61-4,41.27-6.85A134.56,134.56,0,0,1,359.09,307v18.14A150.28,150.28,0,0,0,450.5,187.06C450.5,104.32,383.18,37,300.44,37ZM219.6,178.87H167a132.67,132.67,0,0,1,13.4-50.62v.08c15.68-3.77,31.53-6.74,47.49-9A260.19,260.19,0,0,0,219.6,178.87Zm-27.54-69.93A134.22,134.22,0,0,1,256,61c-9,10.75-16.66,24.7-22.63,41.07Q212.57,104.72,192.06,108.94Zm100.19,69.93H236a239.62,239.62,0,0,1,9.74-61.74q23.17-2.46,46.5-2.82Zm0-80.94Q272,98.25,251.9,100c10.21-24.26,24.47-41.11,40.35-45.49Zm16.38-43.38C324.5,58.93,338.77,75.78,349,100q-20.13-1.83-40.35-2.11Zm0,124.32V114.31q23.3.36,46.5,2.82a239.62,239.62,0,0,1,9.74,61.74Zm58.92-76.78c-6-16.37-13.67-30.32-22.63-41.07a134.26,134.26,0,0,1,63.89,47.92Q388.34,104.68,367.55,102.09Zm52.88,26.24,0-.08a132.66,132.66,0,0,1,13.39,50.62H381.27a259.64,259.64,0,0,0-8.33-59.55C388.9,121.59,404.76,124.56,420.43,128.33Zm0,117.53,0-.07c-15.67,3.76-31.53,6.74-47.48,9a260.2,260.2,0,0,0,8.32-59.54h52.57A132.61,132.61,0,0,1,420.45,245.86Z"/><path class="cls-2" d="M471.81,338.11,477,306a13.62,13.62,0,0,0-18.3-14.89L428.29,302.7a13.61,13.61,0,0,0-5.78,21.21c-67.09,39.72-151.19,43.42-222,7.92L191,350.88c79.55,39.89,174.5,34.47,248.76-12.52l10,8.16A13.62,13.62,0,0,0,471.81,338.11Z"/></g></svg>