<svg id="Layer_1" data-name="Layer 1" xmlns="http://www.w3.org/2000/svg" viewBox="0 0 500 500"><defs><style>.cls-1{fill:#024557;}</style></defs><path class="cls-1" d="M468.63,322.94l-90.08-13.8,51.54,22.21-55.8-15,80.46,46.21L370,329.09l29.7,21.71q-9.34-3.17-18.25-6.49l-17.22-9.1,4.59,4.23C268,299.36,214,246.81,190.21,218.17l17,9L175.08,197.5a1,1,0,0,0-.08-.14l-.09,0-35.86-33.12,75.17,51.51-36.8-42.37,43.79,37.69-52.45-76.53,61.82,66.94L204.13,152l34.3,46.49-34.1-86.29,45.38,79-14.78-54.14L258,190,244,98.29l26.66,87.15-2.36-56.08L279,186.13l6.72-92.55,6.59,90.9,10.18-55.19L300.33,187l27.14-88.73-13.79,90.08,22.21-51.54-15,55.8,46.2-80.47-33.49,84.76,33.12-45.31-27,51.07,62.94-68.16-51.51,75.17,42.37-36.8-37.69,43.78,76.54-52.45-66.95,61.83L415,199.6l-46.49,34.29,86.29-34.1-79,45.38,54.14-14.77-53,23.09,91.72-14.05L381.48,266.1l56.07-2.36-56.76,10.73,92.54,6.72-90.89,6.59L437.63,298l-57.73-2.17Z"/><path class="cls-1" d="M145.91,346a4.64,4.64,0,0,0,2.23,7.8q43.32,10.28,94.64,13.11a4.67,4.67,0,0,0,3.55-1.36l23.45-23.45a4.63,4.63,0,0,0-2.9-7.89,531.25,531.25,0,0,1-77-11.65q-7-1.62-13.77-3.43a4.67,4.67,0,0,0-4.48,1.2Z"/><path class="cls-1" d="M95.41,276.74A339.3,339.3,0,0,0,168,307.1a4.64,4.64,0,0,0,4.58-1.17l26.13-26.13a4.63,4.63,0,0,0-1.84-7.69,346.78,346.78,0,0,1-67.46-29.62A4.63,4.63,0,0,0,124,243L94.63,269.26A4.63,4.63,0,0,0,95.41,276.74Z"/><path class="cls-1" d="M114.73,354.18a343.4,343.4,0,0,1-73.09-33,4.66,4.66,0,0,0-5.61.58l-24.6,23.15a4.64,4.64,0,0,0,.84,7.39l1.71,1,2.11,1.19,2.34,1.29L20.55,357l.31.17c.68.37,1.38.73,2.06,1.09l2.13,1.13,2.4,1.24c.71.37,1.42.74,2.14,1.1l.25.13L32,362.91,34.17,364l2.49,1.2,2.13,1,.19.09c.78.37,1.58.73,2.37,1.09s1.29.61,1.94.9l.15.07,2.65,1.18,2,.92.13.06,4.19,1.79,1.22.51,3.2,1.33,1.49.6L61.55,376l1.3.51.54.21.79.3q3,1.15,6.06,2.27l1.3.47c2.25.81,4.52,1.61,6.8,2.38l.57.2c.3.11.61.2.91.3l2.5.84,3.89,1.25L87,385l2.28.7A4.66,4.66,0,0,0,94,384.53l22.65-22.65A4.64,4.64,0,0,0,114.73,354.18Z"/><path class="cls-1" d="M51.39,316.05a337.32,337.32,0,0,0,75.55,32.09,4.61,4.61,0,0,0,4.58-1.17l26.13-26.13a4.64,4.64,0,0,0-1.88-7.7,345.06,345.06,0,0,1-70.31-31.29,4.64,4.64,0,0,0-5.48.52L50.65,308.59A4.64,4.64,0,0,0,51.39,316.05Z"/><path class="cls-1" d="M225.84,375.21a531.4,531.4,0,0,1-77.06-11.65q-7-1.62-13.76-3.43a4.66,4.66,0,0,0-4.48,1.2L108.1,383.77a4.64,4.64,0,0,0,2.15,7.77l.07,0,.92.24.86.21c1.69.42,3.38.83,5.09,1.23l1.21.28q2.84.66,5.7,1.29l.61.13.45.1,1.23.25,4.8,1,2.1.42,4.83.92,1.26.24.47.08c2.16.39,4.33.78,6.52,1.14l1.23.2c1.8.3,3.6.58,5.41.86l.89.15,1.25.17,4.81.7,2,.28c2.24.3,4.49.6,6.75.87q12.07,1.47,24.54,2.42,5.41.42,10.9.73a4.67,4.67,0,0,0,3.55-1.36l21-21A4.63,4.63,0,0,0,225.84,375.21Z"/><path class="cls-1" d="M291.65,335.69a4.65,4.65,0,0,0-3.47,1.35L265.32,359.9a4.64,4.64,0,0,0,3.19,7.92q11.13.23,22.64.13c29.32-.25,59-1.88,88.27-3.81a4.7,4.7,0,0,0,3-1.35l2.26-2.27a624.06,624.06,0,0,1-60.25-24.13Q307.58,336.38,291.65,335.69Z"/><path class="cls-1" d="M410,371.52q-11.37.8-22.87,1.59a4.64,4.64,0,0,0-3,1.34l-15.26,15.26a4.64,4.64,0,0,0,3.76,7.89l4.12-.42c12.4-1.27,24.89-2.56,37.47-3.75s25.21-2.29,37.92-3.18c12.06-.86,24.18-1.53,36.33-1.93a4.74,4.74,0,0,0,.92-.13c-25.71-5-49.54-10.81-71.62-17.21Z"/><path class="cls-1" d="M230.87,281.47q-7-1.61-13.77-3.42a4.62,4.62,0,0,0-4.47,1.2L187,304.92a4.64,4.64,0,0,0,2.23,7.8c28.88,6.85,60.37,11.2,94.65,13.11a4.68,4.68,0,0,0,3.54-1.36l4.49-4.49a461.24,461.24,0,0,1-58.81-38Z"/><path class="cls-1" d="M358.82,374.91c-22.47,1.32-45.12,2.31-67.59,2.5q-21,.18-40.62-.67a4.62,4.62,0,0,0-3.48,1.35l-20.4,20.4a4.64,4.64,0,0,0,3.2,7.92q7.4.12,14.93.08,13.32-.08,27.07-.66,13.26-.57,26.49-1.5c8.82-.6,17.62-1.31,26.38-2.08,6.13-.53,12.24-1.11,18.33-1.69a4.67,4.67,0,0,0,2.84-1.34l16.4-16.41A4.63,4.63,0,0,0,358.82,374.91Z"/><path class="cls-1" d="M162.71,208.39l-24,21.5a4.63,4.63,0,0,0,.82,7.5A341.1,341.1,0,0,0,209,266.06a4.59,4.59,0,0,0,3.85-.6C176.21,233.28,162.71,208.39,162.71,208.39Z"/></svg>