<svg xmlns="http://www.w3.org/2000/svg" viewBox="0 0 500 500"><defs><style>.cls-1{fill:#024557;}.cls-2{fill:#fff;}</style></defs><g id="Layer_5" data-name="Layer 5"><rect class="cls-1" width="500" height="500"/><path class="cls-2" d="M469,322.9l-90.08-13.8,51.54,22.2-55.8-15,80.47,46.21-84.76-33.5L400,350.76q-9.36-3.18-18.26-6.49l-17.21-9.1,4.58,4.23C268.36,299.32,214.3,246.76,190.54,218.13l17,9-32.13-29.68-.09-.13-.08,0-35.87-33.12,75.18,51.51-36.8-42.37L221.54,211l-52.45-76.53,61.82,66.94-26.45-49.5,34.31,46.49-34.11-86.29,45.38,79L235.27,137l23.09,53L244.31,98.25,271,185.39l-2.35-56.07,10.73,56.77,6.71-92.55,6.6,90.89,10.18-55.18L300.67,187,327.8,98.25,314,188.33l22.21-51.55-15,55.81,46.2-80.47L334,196.87l33.11-45.31-27,51.08L403,134.48l-51.51,75.17,42.37-36.8L356.2,216.63l76.54-52.45L365.79,226l49.49-26.45-46.49,34.3,86.3-34.1-79,45.38,54.14-14.77-53,23.09,91.72-14-87.15,26.65,56.08-2.35-56.77,10.73,92.54,6.72-90.89,6.59L438,297.92l-57.73-2.17Z"/><path class="cls-2" d="M146.24,345.92a4.64,4.64,0,0,0,2.23,7.8q43.32,10.27,94.65,13.11a4.67,4.67,0,0,0,3.54-1.36L270.11,342a4.64,4.64,0,0,0-2.9-7.9,530.09,530.09,0,0,1-77-11.65q-7-1.61-13.77-3.42a4.62,4.62,0,0,0-4.47,1.2Z"/><path class="cls-2" d="M95.75,276.7a339.81,339.81,0,0,0,72.57,30.36,4.65,4.65,0,0,0,4.58-1.17L199,279.76a4.64,4.64,0,0,0-1.84-7.69,347.39,347.39,0,0,1-67.46-29.62,4.66,4.66,0,0,0-5.44.54L95,269.22A4.63,4.63,0,0,0,95.75,276.7Z"/><path class="cls-2" d="M115.07,354.14a343.48,343.48,0,0,1-73.1-33,4.66,4.66,0,0,0-5.6.57L11.76,344.9a4.63,4.63,0,0,0,.85,7.38c.85.5,1.52.89,1.71,1l2.1,1.2,2.34,1.29,2.12,1.17a3.07,3.07,0,0,1,.31.17l2.07,1.09,2.12,1.13,2.41,1.24,2.13,1.1.25.13,2.19,1.08,2.14,1.06c.83.41,1.66.8,2.5,1.2l2.12,1,.19.09,2.37,1.09c.65.3,1.29.61,1.94.9l.16.07c.87.4,1.76.79,2.64,1.18l2.06.92.13.05c1.39.61,2.79,1.21,4.19,1.8l1.22.51c1.06.45,2.13.89,3.2,1.32l1.49.61L61.88,376l1.31.51.53.21.8.3q3,1.15,6,2.26l1.3.48c2.26.81,4.53,1.61,6.81,2.38l.57.2.91.3,2.49.84,3.89,1.25.84.26,2.27.7a4.63,4.63,0,0,0,4.64-1.15l22.65-22.65A4.64,4.64,0,0,0,115.07,354.14Z"/><path class="cls-2" d="M51.72,316a337.2,337.2,0,0,0,75.56,32.09,4.65,4.65,0,0,0,4.58-1.17L158,320.8a4.64,4.64,0,0,0-1.87-7.7,344.87,344.87,0,0,1-70.32-31.3,4.67,4.67,0,0,0-5.48.52L51,308.55A4.64,4.64,0,0,0,51.72,316Z"/><path class="cls-2" d="M226.17,375.17a531.46,531.46,0,0,1-77-11.65q-7-1.62-13.77-3.43a4.64,4.64,0,0,0-4.47,1.2l-22.44,22.44a4.63,4.63,0,0,0,2.14,7.77l.07,0,.92.24.86.21,5.09,1.22,1.21.29q2.83.66,5.7,1.29l.62.13.44.09,1.23.26,4.8,1,2.1.41q2.41.48,4.83.93l1.26.24.47.08q3.25.58,6.52,1.14l1.24.2c1.79.3,3.59.58,5.4.86l.9.14c.41.07.83.12,1.24.18l4.81.7,2,.28c2.24.3,4.48.59,6.75.87q12.06,1.47,24.54,2.42c3.6.27,7.23.52,10.89.73a4.67,4.67,0,0,0,3.55-1.36l21-21A4.63,4.63,0,0,0,226.17,375.17Z"/><path class="cls-2" d="M292,335.65a4.65,4.65,0,0,0-3.47,1.35l-22.86,22.86a4.64,4.64,0,0,0,3.19,7.92q11.13.23,22.65.12c29.32-.25,59-1.87,88.27-3.8a4.68,4.68,0,0,0,3-1.35l2.27-2.27a626.87,626.87,0,0,1-60.26-24.13Q307.91,336.33,292,335.65Z"/><path class="cls-2" d="M410.29,371.48q-11.37.79-22.88,1.59a4.59,4.59,0,0,0-3,1.34l-15.26,15.26a4.63,4.63,0,0,0,3.75,7.89l4.12-.42c12.4-1.28,24.9-2.56,37.47-3.75s25.22-2.29,37.92-3.19c12.06-.85,24.18-1.52,36.33-1.93a4.73,4.73,0,0,0,.92-.12c-25.7-5-49.54-10.81-71.61-17.21Z"/><path class="cls-2" d="M231.2,281.43c-4.65-1.07-9.23-2.21-13.77-3.42a4.6,4.6,0,0,0-4.47,1.2l-25.68,25.67a4.65,4.65,0,0,0,2.23,7.8q43.32,10.27,94.65,13.1a4.62,4.62,0,0,0,3.54-1.35l4.49-4.49a461.93,461.93,0,0,1-58.81-38Z"/><path class="cls-2" d="M359.16,374.87c-22.48,1.31-45.12,2.3-67.59,2.5q-21,.18-40.63-.68a4.67,4.67,0,0,0-3.47,1.35l-20.41,20.41a4.64,4.64,0,0,0,3.2,7.92q7.4.12,14.94.08,13.31-.07,27.06-.67,13.26-.55,26.5-1.49c8.81-.6,17.61-1.31,26.37-2.08,6.14-.53,12.25-1.11,18.34-1.7a4.61,4.61,0,0,0,2.83-1.33l16.41-16.41A4.63,4.63,0,0,0,359.16,374.87Z"/><path class="cls-2" d="M163,208.35l-24,21.49a4.64,4.64,0,0,0,.82,7.51A342.13,342.13,0,0,0,209.36,266a4.62,4.62,0,0,0,3.86-.6C176.55,233.24,163,208.35,163,208.35Z"/></g></svg>