<svg xmlns="http://www.w3.org/2000/svg" viewBox="0 0 500 500"><defs><style>.cls-1{fill:#024557;}.cls-2{fill:#fff;}</style></defs><g id="Layer_5" data-name="Layer 5"><rect class="cls-1" width="500" height="500"/><path class="cls-2" d="M417,235.8c-16.55,0-26.21-8.17-29.47-20.94C371.89,153.51,316.16,108,250,108a141.45,141.45,0,0,0-100.22,41.76L190.2,190.2a10.08,10.08,0,0,1-7.13,17.2H51.22V75.56a10.08,10.08,0,0,1,17.21-7.13l41.25,41.25A198.09,198.09,0,0,1,250,51.22c93.45,0,171.87,64.86,193,151.91C447,219.77,434.17,235.8,417,235.8Z"/><path class="cls-2" d="M448.78,292.6V424.44a10.08,10.08,0,0,1-17.21,7.13l-41.25-41.25A198.09,198.09,0,0,1,250,448.78c-93.45,0-171.87-64.86-193-151.91C53,280.23,65.83,264.2,83,264.2c16.55,0,26.21,8.16,29.47,20.94C128.11,346.49,183.84,392,250,392a141.45,141.45,0,0,0,100.22-41.76L309.8,309.8a10.08,10.08,0,0,1,7.13-17.2Z"/></g></svg>