<svg id="Layer_1" data-name="Layer 1" xmlns="http://www.w3.org/2000/svg" viewBox="0 0 500 500"><defs><style>.cls-1{fill:#024557;}</style></defs><path class="cls-1" d="M416.71,235.84c-16.55,0-26.21-8.16-29.48-20.94-15.67-61.35-71.4-106.84-137.56-106.84a141.49,141.49,0,0,0-100.23,41.76l40.42,40.42a10.08,10.08,0,0,1-7.13,17.21H50.89V75.6A10.08,10.08,0,0,1,68.1,68.47l41.25,41.25A198.09,198.09,0,0,1,249.67,51.26c93.45,0,171.87,64.86,193,151.91C446.68,219.81,433.83,235.84,416.71,235.84Z"/><path class="cls-1" d="M448.44,292.64V424.48a10.08,10.08,0,0,1-17.2,7.13L390,390.36a198.09,198.09,0,0,1-140.32,58.46c-93.45,0-171.88-64.86-193-151.91-4-16.64,8.81-32.67,25.93-32.67,16.55,0,26.21,8.17,29.48,20.94C127.78,346.53,183.51,392,249.67,392a141.49,141.49,0,0,0,100.22-41.77l-40.42-40.41a10.08,10.08,0,0,1,7.13-17.21Z"/></svg>